<svg width="25" height="24" viewBox="0 0 25 24" fill="none" xmlns="http://www.w3.org/2000/svg">
<path fill-rule="evenodd" clip-rule="evenodd" d="M3.80188 16.8698V9.25684H21.8019V16.9308C21.8019 20.0698 19.826 21.9998 16.6647 21.9998H8.92921C5.79749 21.9998 3.80188 20.0298 3.80188 16.8698ZM8.76126 14.4098C8.30682 14.4308 7.93141 14.0698 7.91165 13.6108C7.91165 13.1508 8.2673 12.7708 8.72175 12.7498C9.16631 12.7498 9.53185 13.1008 9.54173 13.5498C9.56148 14.0108 9.20583 14.3908 8.76126 14.4098ZM12.8216 14.4098C12.3672 14.4308 11.9918 14.0698 11.972 13.6108C11.972 13.1508 12.3277 12.7708 12.7821 12.7498C13.2267 12.7498 13.5922 13.1008 13.6021 13.5498C13.6219 14.0108 13.2662 14.3908 12.8216 14.4098ZM16.8524 18.0898C16.3979 18.0798 16.0324 17.6998 16.0324 17.2398C16.0225 16.7798 16.388 16.4008 16.8425 16.3908H16.8524C17.3167 16.3908 17.6921 16.7708 17.6921 17.2398C17.6921 17.7098 17.3167 18.0898 16.8524 18.0898ZM11.972 17.2398C11.9918 17.6998 12.3672 18.0608 12.8216 18.0398C13.2662 18.0208 13.6219 17.6408 13.6021 17.1808C13.5922 16.7308 13.2267 16.3798 12.7821 16.3798C12.3277 16.4008 11.972 16.7798 11.972 17.2398ZM7.90177 17.2398C7.92153 17.6998 8.29694 18.0608 8.75139 18.0398C9.19595 18.0208 9.55161 17.6408 9.53185 17.1808C9.52197 16.7308 9.15644 16.3798 8.71187 16.3798C8.25742 16.4008 7.90177 16.7798 7.90177 17.2398ZM16.0423 13.6008C16.0423 13.1408 16.3979 12.7708 16.8524 12.7608C17.2969 12.7608 17.6526 13.1198 17.6724 13.5608C17.6822 14.0208 17.3266 14.4008 16.882 14.4098C16.4276 14.4198 16.0522 14.0698 16.0423 13.6108V13.6008Z" fill="#0F969C"/>
<path opacity="0.4" d="M3.80524 9.25723C3.81808 8.67023 3.86748 7.50523 3.96034 7.13023C4.43455 5.02123 6.04486 3.68123 8.34673 3.49023H17.2578C19.5399 3.69123 21.17 5.04023 21.6442 7.13023C21.7361 7.49523 21.7855 8.66923 21.7983 9.25723H3.80524Z" fill="#0F969C"/>
<path d="M9.10677 6.59C9.54146 6.59 9.86747 6.261 9.86747 5.82V2.771C9.86747 2.33 9.54146 2 9.10677 2C8.67208 2 8.34607 2.33 8.34607 2.771V5.82C8.34607 6.261 8.67208 6.59 9.10677 6.59Z" fill="#0F969C"/>
<path d="M16.4968 6.59C16.9217 6.59 17.2576 6.261 17.2576 5.82V2.771C17.2576 2.33 16.9217 2 16.4968 2C16.0622 2 15.7361 2.33 15.7361 2.771V5.82C15.7361 6.261 16.0622 6.59 16.4968 6.59Z" fill="#0F969C"/>
</svg>
