<svg width="25" height="24" viewBox="0 0 25 24" fill="none" xmlns="http://www.w3.org/2000/svg">
<path opacity="0.4" d="M22.8017 12C22.8017 17.524 18.3247 22 12.8017 22C7.2787 22 2.8017 17.524 2.8017 12C2.8017 6.478 7.2787 2 12.8017 2C18.3247 2 22.8017 6.478 22.8017 12Z" fill="#0F969C"/>
<path d="M16.3754 15.8148C16.2444 15.8148 16.1124 15.7808 15.9914 15.7098L12.0654 13.3678C11.8394 13.2318 11.7004 12.9868 11.7004 12.7228V7.67578C11.7004 7.26178 12.0364 6.92578 12.4504 6.92578C12.8644 6.92578 13.2004 7.26178 13.2004 7.67578V12.2968L16.7604 14.4198C17.1154 14.6328 17.2324 15.0928 17.0204 15.4488C16.8794 15.6838 16.6304 15.8148 16.3754 15.8148Z" fill="#0F969C"/>
</svg>
