<svg width="25" height="24" viewBox="0 0 25 24" fill="none" xmlns="http://www.w3.org/2000/svg">
<path d="M10.9546 5.55534C11.0056 5.65901 11.0392 5.77003 11.0543 5.88415L11.3327 10.0241L11.4709 12.1049C11.4723 12.3189 11.5059 12.5315 11.5705 12.7359C11.7375 13.1324 12.139 13.3844 12.5759 13.3668L19.2332 12.9314C19.5215 12.9266 19.7999 13.0344 20.0071 13.2311C20.1798 13.395 20.2913 13.6094 20.3264 13.84L20.3382 13.98C20.0627 17.7947 17.261 20.9765 13.4542 21.7978C9.64743 22.6191 5.74374 20.8841 3.86259 17.5347C3.32027 16.5616 2.98153 15.4921 2.86626 14.3888C2.81811 14.0622 2.79691 13.7323 2.80286 13.4024C2.79691 9.31255 5.70935 5.77677 9.78621 4.92438C10.2769 4.84798 10.7579 5.10774 10.9546 5.55534Z" fill="#0F969C"/>
<path opacity="0.4" d="M13.6719 2.00082C18.2318 2.11683 22.0642 5.39579 22.8019 9.81229L22.7948 9.84488L22.7747 9.89227L22.7775 10.0224C22.7671 10.1947 22.7005 10.3605 22.5858 10.4945C22.4664 10.634 22.3032 10.729 22.1235 10.7659L22.0139 10.7809L14.3331 11.2786C14.0776 11.3038 13.8232 11.2214 13.6332 11.052C13.4749 10.9107 13.3737 10.7201 13.3451 10.5147L12.8295 2.84506C12.8206 2.81913 12.8206 2.79102 12.8295 2.76508C12.8366 2.55367 12.9296 2.35384 13.0879 2.21023C13.2462 2.06662 13.4565 1.9912 13.6719 2.00082Z" fill="#0F969C"/>
</svg>
