<svg width="318" height="194" viewBox="0 0 218 194" fill="none" xmlns="http://www.w3.org/2000/svg">
<path d="M114.304 176.424L117.044 179.164C117.343 179.456 117.743 179.621 118.161 179.627C118.369 179.628 118.576 179.587 118.769 179.508C118.961 179.429 119.136 179.312 119.284 179.164C119.431 179.017 119.548 178.842 119.627 178.649C119.707 178.456 119.747 178.25 119.746 178.041C119.741 177.624 119.575 177.224 119.283 176.925L116.543 174.185C116.397 174.036 116.223 173.918 116.031 173.837C115.839 173.756 115.632 173.714 115.424 173.714C115.215 173.714 115.009 173.756 114.817 173.837C114.624 173.918 114.45 174.036 114.304 174.185C114.156 174.331 114.039 174.505 113.958 174.696C113.878 174.888 113.836 175.093 113.835 175.301C113.843 175.722 114.01 176.123 114.304 176.424Z" fill="#FAFAFA"/>
<path d="M124.25 135.101C122.209 135.321 120.151 135.321 118.11 135.101C120.151 134.881 122.209 134.881 124.25 135.101Z" fill="#455A64"/>
<path d="M145.688 64.4174C144.603 61.1255 146.563 49.3217 143.982 49.3026C140.684 49.2709 141.629 62.6224 141.622 63.8402C141.616 65.058 139.891 65.0199 139.954 63.9417C140.043 62.394 140.588 47.1398 137.265 47.4062C135.432 47.552 135.667 50.882 135.667 50.882C135.667 50.882 136.688 66.1426 135.127 66.2187C133.567 66.2948 133.009 57.3896 132.882 54.2563C132.755 51.2562 131.493 50.0638 130.11 51.0849C128.728 52.1061 129.007 61.1255 129.083 64.1383C129.159 67.1511 129.514 75.403 126.032 71.388C122.55 67.3731 118.421 65.5654 116.949 65.8508C115.478 66.1363 115.427 68.2611 116.917 68.9524C118.123 69.5106 119.86 71.0582 121.116 72.276C122.089 73.327 122.94 74.4845 123.653 75.7265C124.63 77.2895 125.34 79.0044 125.753 80.8007C126.098 82.2135 126.74 83.5367 127.636 84.6827C128.531 85.8287 129.66 86.7712 130.948 87.4478L130.783 93.0421L146.861 91.6467L147.172 81.0671C147.337 72.9801 148.752 67.538 149.602 62.7302C150.965 55.0618 149.976 54.8272 149.056 54.8716C147.052 54.9413 146.754 67.6268 145.688 64.4174Z" fill="#B78876"/>
<path d="M145.688 74.7941C144.942 74.9335 144.205 75.1178 143.481 75.3459C141.766 75.9825 140.303 77.1546 139.307 78.6885C139.01 79.1565 138.761 79.6539 138.565 80.1727L138.47 80.4137L138.273 80.2488C137.159 79.3197 135.899 78.5804 134.544 78.0606C133.529 77.6673 132.882 77.5341 132.895 77.477C133.488 77.502 134.073 77.6241 134.626 77.8386C136.042 78.2969 137.359 79.0178 138.508 79.9634L138.216 80.0459C138.416 79.5002 138.674 78.9771 138.984 78.4855C139.554 77.6095 140.281 76.8461 141.128 76.2339C141.82 75.7401 142.583 75.3551 143.392 75.0922C143.935 74.9183 144.497 74.8097 145.066 74.7687C145.274 74.746 145.483 74.7546 145.688 74.7941Z" fill="#AA6550"/>
<path d="M143.449 86.1033C142.232 86.7148 140.907 87.0852 139.549 87.1943C138.204 87.421 136.828 87.3887 135.496 87.0991C135.496 86.9849 137.303 87.0991 139.498 86.8137C141.692 86.5283 143.418 85.9955 143.449 86.1033Z" fill="#AA6550"/>
<path d="M100.293 86.5853C100.293 86.5853 108.672 90.8667 113.08 97.0318C117.489 103.197 130.802 122.314 130.802 122.314L128.899 93.3023L149.462 90.6383C149.462 90.6383 155.444 119.859 156.845 129.963C158.152 139.42 157.606 148.725 148.371 153.799C137.475 159.787 125.1 151.7 120.983 148.63C115.871 144.824 106.433 138.602 106.433 138.602L100.293 86.5853Z" fill="#E0E0E0"/>
<path d="M89.9608 82.9635L84.0937 76.4114L58.4501 74.4452L55.1265 79.8175L64.1141 135.913L60.0674 192.579H93.481L89.9608 82.9635Z" fill="#16898E"/>
<g opacity="0.3">
<path d="M61.6153 179.1C62.4969 178.162 63.9431 176.861 65.2306 176.836C74.4657 176.633 83.8973 175.707 93.1387 175.504L93.4939 192.579L88.9969 190.473C88.7432 188.57 88.4197 186.217 86.6501 185.399C85.6479 184.923 84.4745 185.107 83.3899 185.323C80.0536 185.957 76.7427 186.845 73.3493 187.054C69.956 187.263 66.404 186.775 63.5562 184.917C62.5429 184.32 61.7286 183.438 61.2157 182.38C60.9643 181.851 60.8684 181.263 60.9391 180.682C61.0099 180.101 61.2444 179.553 61.6153 179.1Z" fill="black"/>
</g>
<path d="M84.0942 76.4116L100.522 87.042L103.998 98.4463L107.321 134.004L103.655 170.392L109.985 192.579H93.4815L93.4498 183.826L91.6865 122.213L89.9613 82.9637L84.0942 76.4116Z" fill="#E0E0E0"/>
<path d="M92.9422 130.705C93.0431 130.559 93.1342 130.407 93.2149 130.249C93.3925 129.919 93.6399 129.468 93.9443 128.898C94.2488 128.327 94.5405 127.547 94.9274 126.678C95.105 126.24 95.2573 125.758 95.4349 125.25C95.6125 124.743 95.8091 124.21 95.955 123.633C97.3377 119.066 98.2574 112.476 98.0608 105.201C98.0608 104.637 98.0227 104.078 97.9847 103.527V103.431L97.8958 103.393L95.3207 102.309L95.3587 102.575L97.9275 100.514L97.9847 100.469V100.406C98.008 97.9051 97.6114 95.418 96.8112 93.0484C96.177 90.8982 95.4602 89.0462 94.8386 87.5239C94.2171 86.0016 93.6716 84.8092 93.2847 83.9973C93.0944 83.5914 92.9422 83.287 92.8343 83.0776C92.7842 82.9691 92.7248 82.8651 92.6567 82.7668C92.6894 82.8803 92.7318 82.9906 92.7836 83.0967L93.1959 84.0417C93.5511 84.86 94.0648 86.0651 94.661 87.5937C95.2573 89.1223 95.9296 90.9807 96.5639 93.1245C97.3326 95.4654 97.7097 97.917 97.6802 100.381L97.7373 100.273L95.1621 102.334L94.9592 102.499L95.2002 102.601L97.769 103.685L97.6738 103.552C97.7119 104.091 97.7309 104.649 97.75 105.207C97.9466 112.451 97.0713 119.016 95.7456 123.601C95.6061 124.179 95.4158 124.711 95.2509 125.219C95.086 125.726 94.9401 126.208 94.7689 126.646C94.401 127.515 94.1346 128.282 93.8365 128.879C93.5384 129.475 93.3291 129.912 93.1642 130.249C93.0779 130.395 93.0037 130.547 92.9422 130.705Z" fill="#263238"/>
<path d="M104.479 153.856C104.535 153.699 104.582 153.538 104.619 153.374C104.708 153.032 104.822 152.569 104.968 151.992C105.114 151.414 105.291 150.647 105.463 149.784C105.634 148.922 105.856 147.939 106.033 146.841C106.211 145.744 106.433 144.545 106.598 143.251C106.763 141.957 106.928 140.568 107.08 139.11C107.346 136.186 107.524 132.957 107.524 129.564C107.524 126.17 107.321 122.948 107.048 120.05C106.883 118.591 106.744 117.202 106.541 115.908C106.338 114.614 106.167 113.415 105.97 112.318C105.773 111.221 105.564 110.244 105.386 109.381C105.209 108.519 105.038 107.776 104.885 107.174C104.733 106.571 104.619 106.134 104.53 105.791C104.5 105.628 104.451 105.468 104.384 105.315C104.401 105.48 104.429 105.643 104.467 105.804C104.543 106.153 104.638 106.622 104.765 107.206C104.892 107.789 105.057 108.55 105.215 109.419C105.374 110.288 105.583 111.265 105.748 112.362C105.913 113.46 106.122 114.652 106.281 115.946C106.439 117.24 106.604 118.616 106.756 120.075C107.01 122.993 107.194 126.208 107.207 129.589C107.219 132.97 107.036 136.186 106.788 139.103C106.642 140.562 106.522 141.945 106.331 143.239C106.141 144.533 105.989 145.731 105.811 146.822C105.634 147.913 105.444 148.903 105.291 149.765C105.139 150.628 104.98 151.376 104.847 151.985C104.714 152.594 104.632 153.032 104.556 153.381C104.514 153.536 104.489 153.696 104.479 153.856Z" fill="#263238"/>
<path d="M100.503 183.616C100.676 184.137 100.914 184.634 101.213 185.094C101.875 186.24 102.628 187.33 103.465 188.354C104.305 189.38 105.228 190.334 106.224 191.209C106.617 191.593 107.059 191.926 107.537 192.198C107.175 191.789 106.787 191.403 106.376 191.044C105.437 190.131 104.547 189.167 103.712 188.158C102.885 187.146 102.116 186.087 101.41 184.986C101.138 184.511 100.835 184.053 100.503 183.616Z" fill="#263238"/>
<g opacity="0.3">
<path d="M92.3014 153.844C90.5635 152.937 88.4387 153.413 86.5929 154.117C84.7472 154.821 82.9458 155.766 80.9859 155.747C78.322 155.747 74.5481 154.751 73.159 152.487C71.6307 149.892 70.4957 147.086 69.791 144.158C67.6725 134.41 67.1905 125.853 65.072 116.098C63.9176 110.796 62.4525 104.681 60.4862 99.6071C58.5834 94.7042 56.8074 89.63 55.3105 84.5875C55.5769 96.0044 55.8434 107.51 57.6066 118.838C58.7483 126.113 60.4989 133.281 61.4567 140.575C62.2749 146.822 62.5032 153.133 62.7252 159.432L68.6684 166.701L85.0516 167.03L93.608 155.994L92.3014 153.844Z" fill="black"/>
</g>
<path d="M32.9211 86.0969C29.8283 87.2953 27.0772 89.235 24.9096 91.7455C22.7419 94.256 21.224 97.2605 20.4893 100.495C15.6815 121.705 7.44864 149.911 7.32178 159.013C7.15687 170.601 12.2247 178.536 18.8402 180.001C24.0729 181.155 71.4849 178.561 71.4849 178.561L73.7302 158.772L35.2996 155.239L40.5577 125.853L35.3503 85.1519L32.9211 86.0969Z" fill="#E0E0E0"/>
<path d="M35.3626 85.152L45.9867 80.8135L58.1204 74.2551L58.2345 74.6103C56.8645 76.9571 55.4057 81.2892 55.9194 83.9595L65.2306 132.558L63.1184 168.077L60.0676 192.592H29.4766L40.57 166.479L35.1089 117.436L35.3626 85.152Z" fill="#E0E0E0"/>
<path d="M40.8805 122.885C40.8357 122.988 40.8058 123.097 40.7917 123.208C40.7473 123.462 40.6839 123.773 40.6078 124.153C40.4492 125.016 40.2335 126.189 39.9735 127.623C39.4534 130.597 38.7557 134.631 37.9755 139.09C37.1954 143.549 36.5611 147.596 36.0727 150.577C35.8507 152.017 35.6668 153.197 35.5273 154.066L35.4004 155.017C35.3822 155.128 35.3822 155.242 35.4004 155.353C35.4377 155.246 35.4653 155.135 35.4828 155.023C35.5399 154.776 35.597 154.465 35.6795 154.085C35.838 153.222 36.0537 152.049 36.3137 150.615C36.8465 147.685 37.5823 143.638 38.3244 139.147C39.0665 134.657 39.7578 130.604 40.2272 127.661C40.4492 126.221 40.6331 125.041 40.7663 124.172C40.8171 123.785 40.8551 123.475 40.8868 123.221C40.8947 123.109 40.8925 122.996 40.8805 122.885Z" fill="#263238"/>
<path d="M52.2974 77.6802C52.2974 77.6802 52.2974 77.7182 52.253 77.7943C52.2086 77.8705 52.1959 78.01 52.1515 78.1495C52.0754 78.4667 51.9359 78.9234 51.8153 79.5323C51.4366 81.258 51.1654 83.0056 51.0035 84.765C50.7569 87.4172 50.6891 90.0829 50.8005 92.7442C50.902 95.776 51.2255 99.1313 51.6822 102.683V102.797H51.79L55.2658 103.432L55.1453 103.216C54.9487 103.749 54.7393 104.326 54.5808 104.916C53.6223 108.806 53.7606 112.885 54.9804 116.701C55.9514 119.794 57.3225 122.747 59.0587 125.485C60.5049 127.832 61.8178 129.64 62.7185 130.896L63.7714 132.323L64.0505 132.691C64.1139 132.767 64.152 132.811 64.1583 132.805C64.1337 132.759 64.1061 132.714 64.0758 132.672C64.0124 132.564 63.9236 132.443 63.8221 132.285L62.82 130.82C61.951 129.551 60.6698 127.724 59.249 125.365C57.5522 122.631 56.2115 119.692 55.2594 116.618C54.0735 112.852 53.9462 108.832 54.8916 104.998C55.0438 104.421 55.2468 103.857 55.437 103.337L55.5068 103.153L55.3229 103.121L51.8471 102.487L51.9739 102.62C51.5109 99.0742 51.1811 95.7316 51.0542 92.7061C50.9294 90.0568 50.9738 87.4023 51.1874 84.7587C51.3301 83.0047 51.5694 81.2599 51.9041 79.5323C52.012 78.898 52.1325 78.4603 52.1896 78.1368C52.1896 77.9973 52.2403 77.8768 52.2593 77.7753C52.2749 77.7448 52.2877 77.713 52.2974 77.6802Z" fill="#263238"/>
<path d="M52.2981 127.528V119.777C52.2981 119.777 52.1967 117.874 53.8077 118.267C55.4188 118.66 55.1143 121.686 55.1143 121.686C55.1143 121.686 55.4188 133.471 54.7147 133.369C54.0107 133.268 53.738 132.361 53.738 132.361V127.832L52.2981 127.528Z" fill="#16898E"/>
<path d="M45.5679 128.01C48.3335 128.221 51.1112 128.221 53.8769 128.01C51.1112 127.798 48.3335 127.798 45.5679 128.01Z" fill="#263238"/>
<path d="M30.2505 90.7017C30.5325 90.8271 30.8229 90.9331 31.1194 91.0188C31.908 91.305 32.6789 91.6375 33.4282 92.0146C35.8858 93.2834 38.0173 95.1023 39.6568 97.3298C40.1226 97.9564 40.5323 98.6228 40.8809 99.3214C41.1855 99.9837 41.4317 100.671 41.6167 101.376C41.9367 102.577 42.149 103.804 42.2509 105.043C42.3397 106.095 42.3588 106.945 42.3651 107.58C42.3421 107.888 42.3421 108.197 42.3651 108.506C42.4332 108.202 42.4672 107.891 42.4666 107.58C42.5103 106.735 42.5103 105.888 42.4666 105.043C42.4041 103.786 42.2171 102.539 41.9084 101.319C41.7277 100.595 41.4814 99.8876 41.1727 99.2073C40.8102 98.4888 40.3857 97.8033 39.9041 97.1586C38.2428 94.8838 36.05 93.0503 33.517 91.818C32.754 91.4509 31.9629 91.1454 31.1511 90.9046C30.8586 90.8067 30.5568 90.7387 30.2505 90.7017Z" fill="#263238"/>
<path d="M71.4974 178.561C71.489 178.437 71.489 178.312 71.4974 178.187C71.4974 177.921 71.5545 177.553 71.5989 177.109C71.6941 176.145 71.8336 174.768 72.0112 173.043C72.3981 169.535 72.9372 164.594 73.5715 158.753L73.7047 158.924L59.4336 157.713L35.3312 155.588C32.8972 155.357 30.4486 155.839 28.2844 156.977C27.7002 157.288 27.1386 157.64 26.6036 158.03L26.1913 158.347C26.1473 158.385 26.0982 158.417 26.0454 158.442C26.695 157.816 27.4295 157.284 28.2273 156.863C30.3988 155.663 32.8787 155.137 35.3502 155.353L59.4843 157.383L73.7555 158.62H73.9077V158.772C73.2227 164.601 72.6391 169.555 72.2332 173.049L71.7258 177.102C71.6687 177.553 71.618 177.908 71.5862 178.174C71.5676 178.306 71.5379 178.435 71.4974 178.561Z" fill="#263238"/>
<path d="M61.1776 179.088C61.1119 178.815 61.0736 178.537 61.0635 178.257C61.0127 177.718 60.962 176.931 60.9239 175.961C60.7402 170.904 61.1877 165.843 62.2559 160.897C62.4652 159.952 62.6492 159.191 62.8014 158.664C62.858 158.389 62.9452 158.121 63.0614 157.865C63.0441 158.146 62.9994 158.424 62.9282 158.696C62.8077 159.292 62.6618 160.047 62.4843 160.941C62.1291 162.844 61.7104 165.483 61.4504 168.419C61.1903 171.356 61.1396 174.026 61.1523 175.954C61.1523 176.874 61.184 177.642 61.1903 178.244C61.2163 178.525 61.212 178.808 61.1776 179.088Z" fill="#263238"/>
<path d="M66.6195 172.884C66.6195 172.884 66.7781 172.802 67.0889 172.802C67.5353 172.818 67.9655 172.973 68.3194 173.246C68.5943 173.445 68.8154 173.709 68.9627 174.015C69.11 174.32 69.1788 174.658 69.163 174.997C69.1402 175.415 69.0004 175.819 68.7593 176.162C68.5182 176.506 68.1855 176.774 67.7993 176.937C67.4033 177.074 66.9765 177.096 66.5688 176.999C66.1611 176.903 65.7893 176.692 65.4969 176.392C65.2556 176.146 65.0856 175.839 65.0052 175.504C64.9247 175.169 64.9369 174.818 65.0402 174.489C65.1521 174.055 65.4095 173.672 65.7696 173.405C65.8928 173.296 66.0448 173.226 66.2073 173.202C66.2073 173.233 66.0677 173.303 65.8521 173.5C65.5567 173.782 65.3533 174.147 65.2685 174.546C65.1963 174.83 65.1992 175.128 65.277 175.411C65.3549 175.693 65.505 175.95 65.7125 176.157C65.9657 176.41 66.2851 176.587 66.634 176.666C66.9829 176.746 67.3472 176.726 67.6851 176.608C68.0122 176.466 68.2944 176.237 68.5012 175.946C68.7079 175.656 68.8315 175.314 68.8585 174.959C68.8789 174.665 68.8278 174.371 68.7096 174.101C68.5914 173.832 68.4096 173.595 68.1798 173.411C67.8648 173.147 67.4828 172.976 67.0762 172.916C66.9235 172.914 66.7711 172.903 66.6195 172.884Z" fill="#263238"/>
<path d="M58.2533 74.0901L58.0567 74.2106L57.4224 74.5594L55.0819 75.8851L46.0372 80.8895L30.8146 87.2703C27.6616 88.5365 24.9813 90.7534 23.1463 93.613C22.1372 95.1399 21.3233 96.787 20.7233 98.516C20.0634 100.326 19.6102 102.205 19.3724 104.117C16.5562 116.168 13.3594 130.001 10.2578 144.71C9.62356 147.881 8.98929 151.002 8.35501 154.091C8.19644 154.865 8.0696 155.639 7.93006 156.406C7.79052 157.174 7.64463 157.935 7.54949 158.702C7.33243 160.214 7.25388 161.743 7.31481 163.269C7.42132 166.244 8.10641 169.169 9.3318 171.882C9.92533 173.192 10.6888 174.419 11.6025 175.529C12.5044 176.601 13.5757 177.518 14.7739 178.244C17.108 179.642 19.8087 180.305 22.5247 180.147L30.2374 179.988C35.2101 179.868 39.8467 179.722 44.0773 179.576L64.1203 178.847L69.5688 178.637L70.9895 178.593H71.4716L70.9895 178.631L69.5751 178.713L64.1267 178.98C59.395 179.202 52.5512 179.506 44.09 179.817C39.8594 179.976 35.2102 180.134 30.2438 180.267L22.5247 180.445C19.7539 180.608 16.9981 179.934 14.6153 178.511C13.3873 177.767 12.2866 176.831 11.3551 175.739C10.4272 174.604 9.64908 173.355 9.04004 172.022C7.79388 169.272 7.09585 166.305 6.985 163.288C6.92089 161.743 6.99944 160.195 7.21968 158.664C7.31482 157.884 7.46705 157.123 7.60024 156.355C7.73344 155.588 7.86663 154.808 8.0252 154.04C8.60873 150.945 9.243 147.812 9.92802 144.653C13.0296 129.951 16.239 116.111 19.0806 104.06C19.3161 102.135 19.7671 100.244 20.4252 98.4208C21.0336 96.6714 21.8628 95.0067 22.8926 93.4671C24.7614 90.569 27.489 88.327 30.6941 87.0546L45.9547 80.7119L55.0375 75.7836L57.4351 74.515L58.0694 74.1916L58.2533 74.0901Z" fill="#263238"/>
<path d="M111.476 125.054H96.9761V129.577H111.476V125.054Z" fill="#263238"/>
<path d="M165.097 133.369L116.861 184.822L69.8102 185.113L68.6938 182.976L115.072 132.729L165.097 133.369Z" fill="#263238"/>
<path d="M119.505 132.729C119.505 132.729 122.639 132.729 123.571 133.82C124.656 135.126 126.742 138.069 122.188 145.56C120.374 148.56 111.475 158.88 107.816 169.453C104.397 179.322 105.957 182.582 105.957 182.582L139.903 181.498L140.538 180.274C140.538 180.274 155.297 140.314 151.39 132.703C149.589 129.234 119.264 131.447 119.505 132.729Z" fill="#E0E0E0"/>
<path d="M145.542 180.483L109.027 180.788C108.59 171.54 111.799 164.823 116.575 156.888C118.402 153.85 120.901 151.25 122.721 148.205C124.638 144.998 125.758 141.379 125.988 137.651C126.083 136.167 125.988 134.562 125.081 133.388C124.174 132.215 120.913 132.152 119.505 132.754C121.083 131.613 122.943 130.926 124.884 130.769C127.833 130.522 151.974 130.686 156.464 130.724C157.549 130.772 158.624 130.946 159.668 131.245C162.94 132.938 163.613 137.397 163.15 140.606C162.712 143.645 160.828 146.512 158.462 149.721C157.775 150.64 157.14 151.597 156.56 152.588C154.067 156.907 147.185 169.022 145.948 173.202C145.349 175.581 145.211 178.052 145.542 180.483Z" fill="#FAFAFA"/>
<path d="M145.542 180.407L136.751 180.477L119.955 180.616L112.902 180.68H110.543C110.104 180.727 109.662 180.727 109.224 180.68C109.192 180.68 109.046 180.68 109.027 180.68C109.008 180.68 109.078 180.001 109.071 179.925C109.071 179.608 109.071 179.291 109.071 178.967C109.071 178.346 109.09 177.724 109.128 177.103C109.277 174.726 109.69 172.373 110.359 170.088C111.716 165.483 114.044 161.208 116.505 157.136C117.856 154.89 119.531 152.88 121.078 150.793C122.572 148.817 123.78 146.642 124.668 144.33C125.538 142.031 126.029 139.606 126.121 137.15C126.165 135.577 125.937 133.42 124.281 132.71C123.524 132.415 122.715 132.273 121.903 132.291C121.364 132.291 120.114 132.221 119.651 132.596C119.518 132.697 119.588 132.735 119.683 132.71C119.761 132.669 119.833 132.617 119.898 132.558C120.146 132.393 120.406 132.234 120.666 132.095C121.554 131.614 122.503 131.257 123.488 131.035C125.455 130.598 127.586 130.725 129.59 130.706C135.844 130.655 142.104 130.706 148.365 130.706L155.589 130.75C156.726 130.743 157.861 130.852 158.976 131.073C160.879 131.473 162.147 133.395 162.706 135.139C163.298 137.042 163.407 139.063 163.023 141.019C162.541 143.499 161.177 145.719 159.762 147.774C158.494 149.626 157.168 151.415 156.039 153.368C155.266 154.732 154.492 156.089 153.724 157.459C151.891 160.732 150.09 164.03 148.415 167.398C146.976 170.284 145.586 173.145 145.364 176.418C145.263 177.776 145.308 179.141 145.498 180.49C145.498 180.591 145.669 180.547 145.65 180.445C145.172 177.145 145.645 173.776 147.014 170.735C148.447 167.468 150.147 164.309 151.853 161.182C153.409 158.328 154.999 155.495 156.623 152.683C158.989 148.592 162.794 145.021 163.321 140.099C163.644 137.023 162.934 132.488 159.705 131.111C158.582 130.725 157.397 130.551 156.211 130.598H153.572C147.426 130.56 141.273 130.528 135.127 130.534C132.476 130.534 129.825 130.534 127.174 130.585C124.77 130.629 122.467 130.864 120.323 132.114C120.029 132.28 119.748 132.466 119.48 132.672C119.423 132.716 119.48 132.83 119.562 132.805C120.966 132.318 122.49 132.296 123.907 132.742C125.81 133.376 126.032 135.659 125.956 137.403C125.738 141.584 124.401 145.63 122.087 149.118C120.958 150.831 119.651 152.423 118.427 154.072C117.276 155.648 116.217 157.289 115.256 158.988C113.412 162.058 111.874 165.302 110.663 168.673C109.345 172.57 108.766 176.679 108.957 180.788C108.957 180.81 108.966 180.831 108.981 180.846C108.997 180.862 109.018 180.87 109.04 180.87L121.376 180.769L141.039 180.604L145.548 180.566C145.561 180.569 145.574 180.569 145.586 180.566C145.599 180.563 145.61 180.557 145.62 180.549C145.63 180.541 145.638 180.531 145.643 180.519C145.648 180.508 145.651 180.495 145.65 180.482C145.65 180.47 145.646 180.457 145.64 180.446C145.634 180.435 145.625 180.425 145.615 180.418C145.604 180.411 145.592 180.406 145.58 180.404C145.567 180.402 145.554 180.403 145.542 180.407Z" fill="#263238"/>
<path d="M143.386 172.859C143.386 172.954 136.948 173.024 129.001 173.024C121.053 173.024 114.615 172.954 114.615 172.859C114.615 172.764 121.059 172.694 129.001 172.694C136.942 172.694 143.386 172.77 143.386 172.859Z" fill="#263238"/>
<path d="M144.191 168.051C144.191 168.14 137.753 168.216 129.806 168.216C121.858 168.216 115.42 168.14 115.42 168.051C115.42 167.963 121.865 167.887 129.806 167.887C137.747 167.887 144.191 167.956 144.191 168.051Z" fill="#263238"/>
<path d="M148.061 162.888C148.061 162.977 141.616 163.053 133.675 163.053C125.734 163.053 119.29 162.977 119.29 162.888C119.29 162.8 125.728 162.724 133.675 162.724C141.623 162.724 148.061 162.793 148.061 162.888Z" fill="#263238"/>
<path d="M150.439 158.169C150.439 158.258 144.001 158.334 136.054 158.334C128.106 158.334 121.668 158.258 121.668 158.169C121.668 158.081 128.112 158.005 136.054 158.005C143.995 158.005 150.439 158.081 150.439 158.169Z" fill="#263238"/>
<path d="M152.024 153.856C152.024 153.945 145.586 154.021 137.645 154.021C129.704 154.021 123.26 153.945 123.26 153.856C123.26 153.768 129.698 153.691 137.645 153.691C145.593 153.691 152.024 153.761 152.024 153.856Z" fill="#263238"/>
<path d="M155.932 148.186C155.932 148.281 149.494 148.351 141.546 148.351C133.599 148.351 127.161 148.281 127.161 148.186C127.161 148.091 133.605 148.021 141.546 148.021C149.487 148.021 155.932 148.097 155.932 148.186Z" fill="#263238"/>
<path d="M159.61 142.763C159.61 142.852 153.173 142.928 145.225 142.928C137.278 142.928 130.84 142.852 130.84 142.763C130.84 142.674 137.284 142.598 145.225 142.598C153.166 142.598 159.61 142.674 159.61 142.763Z" fill="#263238"/>
<path d="M159.344 137.606C159.344 137.695 152.906 137.771 144.965 137.771C137.024 137.771 130.561 137.695 130.561 137.606C130.561 137.517 136.999 137.441 144.946 137.441C152.894 137.441 159.344 137.511 159.344 137.606Z" fill="#263238"/>
<path d="M115.072 132.729C115.143 132.767 115.209 132.814 115.268 132.868L115.839 133.319L118.021 135.095L118.078 135.145L118.028 135.202C114.101 139.496 105.589 148.674 95.7138 159.26C88.9017 166.726 82.337 173.126 77.5863 177.737C75.2077 180.046 73.2732 181.891 71.9285 183.166L70.3682 184.625L69.9559 184.993L69.8101 185.113C69.8101 185.113 69.8481 185.063 69.9306 184.974L70.3238 184.574L71.8397 183.071L77.4277 177.572C82.134 172.91 88.6607 166.504 95.4728 159.032C105.348 148.446 113.911 139.319 117.92 135.101V135.209L115.776 133.376L115.23 132.9C115.171 132.849 115.118 132.791 115.072 132.729Z" fill="#455A64"/>
<path d="M73.6916 161.043H80.5798C80.5798 161.043 85.2354 156.983 86.2883 156.672C88.5019 156.006 94.2167 155.309 94.2167 155.309L90.3159 159.546C89.4089 160.522 87.7471 161.404 88.7302 161.404H95.8975C95.8975 161.404 103.223 157.89 104.314 158.531C105.228 159.07 105.545 160.047 104.612 161.404C103.68 162.761 97.2549 165.971 96.5128 166.218L94.4133 166.852L96.3859 167.487L105.729 164.22C106.331 164.112 107.175 164.011 107.448 164.366C107.564 164.488 107.656 164.631 107.716 164.788C107.777 164.945 107.806 165.112 107.801 165.281C107.796 165.449 107.758 165.614 107.689 165.768C107.619 165.921 107.52 166.059 107.397 166.174C106.065 167.374 104.654 168.482 103.173 169.491C103.173 169.491 104.663 171.686 103.426 172.796C102.19 173.906 98.6122 177.236 98.6122 177.236C98.6122 177.236 98.238 179.088 97.128 179.95C96.0181 180.813 83.8083 180.813 82.9266 180.813C82.045 180.813 77.123 177.978 77.123 177.978L71.7634 177.578L73.6916 161.043Z" fill="#B78876"/>
<path d="M94.991 172.993C95.4223 173.134 95.8757 173.197 96.3293 173.177C96.8274 173.18 97.3219 173.092 97.7881 172.917C98.348 172.694 98.8819 172.411 99.3801 172.073C100.439 171.382 101.384 170.747 102.063 170.272C102.447 170.041 102.805 169.769 103.129 169.46C102.716 169.629 102.323 169.842 101.955 170.094C101.245 170.519 100.281 171.134 99.2216 171.819C98.7418 172.15 98.2296 172.43 97.693 172.656C97.2562 172.833 96.7933 172.936 96.3229 172.961C95.5111 173.005 94.991 172.948 94.991 172.993Z" fill="#AA6550"/>
<path d="M94.4072 177.566C94.645 177.846 94.9762 178.031 95.3396 178.086C96.2076 178.28 97.1172 178.13 97.8767 177.667C98.6193 177.245 99.3073 176.734 99.9254 176.145C100.395 175.695 100.648 175.377 100.617 175.352C99.6936 176.089 98.7324 176.777 97.7372 177.413C97.0369 177.841 96.2085 178.01 95.3967 177.889C95.0572 177.813 94.7259 177.705 94.4072 177.566Z" fill="#AA6550"/>
<path d="M90.9692 167.449C91.6178 167.528 92.2755 167.476 92.9038 167.297C93.5514 167.211 94.1749 166.995 94.7368 166.662C94.0932 166.72 93.4563 166.837 92.834 167.011C92.1995 167.095 91.5749 167.242 90.9692 167.449Z" fill="#AA6550"/>
<path d="M44.236 30.0842C43.3356 28.4749 42.1242 27.0606 40.6725 25.9235C39.2207 24.7864 37.5574 23.9492 35.7792 23.4606C34.0011 22.9719 32.1436 22.8416 30.3146 23.0771C28.4856 23.3126 26.7217 23.9092 25.1253 24.8324C22.3916 26.4181 20.1146 29.2723 20.2985 32.4437C20.4698 35.4248 22.6897 37.8286 24.7828 39.9535C21.4465 41.3425 19.7784 45.5668 20.8693 49.0045C21.9603 52.4423 25.3981 54.8716 28.988 55.2014C32.578 55.5312 36.1997 53.9709 38.7939 51.4592C41.3323 48.8655 43.1057 45.6215 43.9188 42.0846" fill="#263238"/>
<path d="M32.8447 37.7715C32.2651 38.0245 31.6481 38.1809 31.018 38.2345C29.2852 38.3996 27.5429 38.037 26.0199 37.1943C24.9619 36.6257 24.0315 35.8464 23.2862 34.9046C22.4328 33.8121 21.8601 32.5273 21.618 31.1624C21.342 29.6021 21.4352 27.999 21.8901 26.4812C22.345 24.9635 23.1489 23.5733 24.2376 22.4221C25.3572 21.3074 26.697 20.4384 28.1713 19.8705C29.6456 19.3026 31.2222 19.0483 32.8003 19.1238C35.4033 19.1758 37.8925 20.2009 39.7773 21.9971C41.0242 23.2295 41.7584 24.8883 41.8323 26.64C41.8476 27.1089 41.8029 27.5778 41.6991 28.0354C41.6674 28.194 41.6167 28.3081 41.5976 28.3842C41.5786 28.4603 41.5532 28.4984 41.5469 28.4984C41.6736 27.8875 41.7269 27.2636 41.7055 26.64C41.5811 24.941 40.8361 23.3471 39.6124 22.162C37.758 20.4395 35.3309 19.4656 32.8003 19.4283C31.267 19.3632 29.7368 19.6158 28.3058 20.1703C26.8749 20.7247 25.574 21.5691 24.4849 22.6504C23.4351 23.7676 22.6594 25.1135 22.2191 26.582C21.7788 28.0504 21.6859 29.6011 21.9479 31.1116C22.1705 32.4297 22.7128 33.6732 23.5272 34.7333C24.4086 35.8509 25.5457 36.7402 26.8427 37.3264C28.1397 37.9125 29.5587 38.1783 30.9799 38.1013C31.6084 38.0346 32.2315 37.9244 32.8447 37.7715Z" fill="#263238"/>
<path d="M36.9419 40.537C36.8095 40.6496 36.6622 40.7435 36.5043 40.8161C36.0995 41.046 35.675 41.2392 35.2357 41.3933C34.5771 41.6273 33.8974 41.7972 33.2061 41.9007C32.3551 42.018 31.4943 42.0478 30.6372 41.9895C29.7768 41.9233 28.9261 41.7638 28.1002 41.5138C27.4314 41.3068 26.7837 41.037 26.1656 40.7083C25.7499 40.4878 25.3532 40.2332 24.9795 39.9471C24.7195 39.7378 24.5863 39.6173 24.599 39.5983C24.6117 39.5793 25.2332 39.9915 26.2734 40.499C26.8868 40.7919 27.5232 41.0337 28.1763 41.222C29.7875 41.6796 31.4746 41.8069 33.1363 41.5962C33.8127 41.5091 34.4809 41.367 35.1342 41.1713C36.2633 40.8288 36.9102 40.4799 36.9419 40.537Z" fill="#455A64"/>
<path d="M20.2861 33.0019C20.3319 32.7369 20.4174 32.4803 20.5398 32.2408C20.8332 31.5567 21.296 30.9586 21.8845 30.5029C22.8059 29.893 23.8707 29.5344 24.9734 29.4627C26.3017 29.3524 27.6386 29.4164 28.9503 29.653C31.3324 30.0366 33.6305 30.8284 35.7434 31.9934C36.3802 32.3461 36.9945 32.738 37.5828 33.1668C37.8148 33.3084 38.028 33.4789 38.217 33.6743C37.9716 33.5663 37.7396 33.43 37.5257 33.2683C37.088 33.0019 36.4538 32.634 35.6229 32.2027C33.508 31.1124 31.235 30.3611 28.8869 29.9764C27.6044 29.7472 26.2985 29.6769 24.9988 29.7671C23.9429 29.8197 22.9175 30.1382 22.0177 30.6932C21.4396 31.1095 20.9716 31.6602 20.654 32.2979C20.5433 32.5386 20.4205 32.7736 20.2861 33.0019Z" fill="#455A64"/>
<path d="M39.6566 45.7256C39.6566 45.7256 39.6566 45.8017 39.5678 45.9412C39.479 46.0808 39.3775 46.2647 39.2253 46.5121C38.7673 47.1941 38.2309 47.82 37.6269 48.3768C36.7257 49.2028 35.6923 49.8718 34.5697 50.3558C33.1855 50.9483 31.6925 51.2443 30.1869 51.2247C28.6827 51.22 27.1969 50.8934 25.8294 50.267C24.7139 49.7459 23.7314 48.9781 22.9562 48.0216C22.4354 47.374 22.0727 46.6139 21.8969 45.8017C21.8487 45.5827 21.821 45.3598 21.8145 45.1357C21.8145 44.9835 21.8145 44.9073 21.8145 44.9073C21.8145 44.9073 21.8525 45.2245 22.0047 45.77C22.2264 46.5431 22.609 47.2608 23.1274 47.8758C23.9008 48.7784 24.8619 49.5014 25.9436 49.9942C27.2778 50.5861 28.7209 50.8929 30.1805 50.8949C31.6397 50.9109 33.0872 50.6326 34.4365 50.0767C35.5395 49.6104 36.5592 48.9677 37.4556 48.1739C38.2749 47.439 39.0127 46.6181 39.6566 45.7256Z" fill="#455A64"/>
<path d="M40.8681 49.0235C40.6626 49.326 40.429 49.6084 40.1704 49.867C39.701 50.3871 39.0033 51.1356 38.0773 51.9792C37.6143 52.4041 37.0878 52.8545 36.5043 53.3111C34.4738 55.0219 31.8505 55.8629 29.2038 55.6516C27.3598 55.599 25.576 54.9837 24.0916 53.8883C22.9271 52.9478 22.0068 51.7402 21.4086 50.3681C20.9979 49.4533 20.7592 48.4707 20.7045 47.4695C20.6864 47.197 20.6864 46.9237 20.7045 46.6513C20.7089 46.5569 20.7238 46.4633 20.749 46.3722C20.7628 46.4668 20.7628 46.563 20.749 46.6576C20.7456 46.9247 20.7604 47.1917 20.7934 47.4568C20.8896 48.4334 21.1535 49.3861 21.5735 50.273C22.1855 51.5905 23.0979 52.7462 24.2375 53.6473C25.6796 54.6876 27.4009 55.271 29.1785 55.3218C30.9537 55.4269 32.7273 55.0914 34.3414 54.345C35.0354 53.992 35.6902 53.5668 36.295 53.0765C36.8785 52.6325 37.405 52.1948 37.8743 51.8079C38.8131 50.9897 39.5361 50.2793 40.0372 49.7846C40.299 49.5147 40.5764 49.2606 40.8681 49.0235Z" fill="#455A64"/>
<path d="M46.2027 29.7037L47.1288 30.4331C46.7545 28.8601 44.9913 27.896 43.3802 28.0356C42.5781 28.1625 41.8147 28.4677 41.1462 28.9287C40.4777 29.3898 39.9211 29.9949 39.5175 30.6995C38.7208 32.1168 38.1939 33.6695 37.9635 35.279C37.4688 37.9429 37.2214 40.7845 38.2807 43.2708C39.3399 45.7572 42.0863 47.7107 44.6995 47.0765C47.3127 46.4422 48.7779 43.5816 49.1711 40.9177C49.4484 38.945 49.3287 36.9368 48.8189 35.011C48.3092 33.0853 47.4197 31.2808 46.2027 29.7037Z" fill="#16898E"/>
<path d="M42.5681 41.7674C41.8056 42.2237 40.9137 42.4155 40.031 42.3129C39.4141 42.2845 38.8068 42.1493 38.236 41.9133C37.773 41.7293 37.6018 41.3805 37.6906 41.3741C37.883 41.5157 38.0972 41.6249 38.3248 41.6976C38.8896 41.8567 39.4704 41.9524 40.0564 41.983C40.8976 41.9697 41.7369 41.8977 42.5681 41.7674Z" fill="#263238"/>
<path d="M43.8556 37.0611C42.8467 37.1989 41.8254 37.2223 40.8111 37.1309C39.794 37.1567 38.7772 37.0694 37.7793 36.8709C38.7889 36.7407 39.8093 36.7173 40.8238 36.8011C41.8407 36.7829 42.8567 36.8701 43.8556 37.0611Z" fill="#263238"/>
<path d="M42.8406 32.0313C42.8406 32.1391 41.9019 32.0313 40.7982 31.9044C40.3315 31.8651 39.8616 31.8928 39.4028 31.9869C39.054 32.063 38.8446 32.1518 38.8193 32.1074C38.7939 32.063 38.9715 31.9044 39.3331 31.7586C39.8093 31.5932 40.3151 31.5305 40.8173 31.5746C41.5147 31.5962 42.2015 31.7512 42.8406 32.0313Z" fill="#263238"/>
<path d="M49.285 19.3079C49.2088 16.6566 51.6698 14.6016 54.1435 13.5994C56.6172 12.5973 59.3636 12.2611 61.5708 10.7769C63.5244 9.46396 64.8374 7.41525 66.4865 5.73443C68.526 3.66721 71.0789 2.17995 73.8831 1.42533C76.6873 0.670702 79.6418 0.675893 82.4434 1.44036C85.2449 2.20483 87.7926 3.70104 89.8248 5.77541C91.8571 7.84978 93.3007 10.4276 94.0076 13.2442C94.959 17.0499 94.312 21.4898 91.3309 24.0269C87.8678 26.9445 82.7302 26.2976 78.2966 25.3906C73.8631 24.4836 68.8396 23.5829 65.1355 26.1897C62.9028 27.7627 61.6216 30.3189 60.2515 32.6847C58.8815 35.0506 57.1753 37.4608 54.5938 38.3488C52.0123 39.2368 48.5048 37.7145 48.4033 34.9744" fill="#263238"/>
<path d="M49.4625 20.7669C49.7543 22.9995 48.1432 24.9911 46.5385 26.5641C44.9338 28.1371 43.1261 29.8053 42.8407 32.0316C42.5109 34.6384 44.4074 37.2009 43.8555 39.7634C43.5067 41.3934 42.2445 42.6493 41.477 44.1272C40.4506 46.2573 40.2803 48.7 41.0013 50.9519C41.6356 53.1973 42.7139 58.208 44.2742 59.9523C48.5872 64.7728 55.4501 68.9336 61.7547 70.3797C68.0594 71.8259 74.6051 71.8386 81.062 71.439C86.3455 71.1155 92.4219 71.3565 96.8301 64.0877C99.1071 60.3202 100.242 55.3157 101.454 51.0851C102.494 47.4381 103.401 43.5373 102.31 39.9029C101.676 37.7844 100.407 35.907 99.7731 33.7885C98.9929 31.1436 99.2784 28.3084 98.9612 25.5429C98.621 22.562 97.5741 19.7053 95.9075 17.2103C94.241 14.7154 92.003 12.6543 89.3796 11.1984C86.7562 9.74244 83.8232 8.93374 80.8243 8.8395C77.8255 8.74526 74.8475 9.36821 72.1378 10.6565" fill="#263238"/>
<path d="M58.4502 81.2827C58.4502 81.2827 58.4502 81.4413 58.4819 81.5174L58.4502 81.2827Z" fill="#B78876"/>
<path d="M96.4496 29.9068C95.9549 22.3272 90.906 13.0287 83.3519 13.847L59.7632 19.8662C58.6567 19.9852 57.6352 20.5153 56.901 21.3517C56.1669 22.1881 55.7736 23.2696 55.799 24.3822L58.3868 80.0144C58.4232 80.9596 58.6384 81.8894 59.0211 82.7544C60.7717 86.6108 66.5943 96.423 79.2291 92.4525C82.3243 91.482 83.7388 88.095 84.3477 84.6192C84.3477 84.2069 84.5189 83.839 84.5253 83.4458C84.8296 80.8515 84.8615 78.2325 84.6204 75.6315C84.6648 71.0394 84.6585 69.1556 84.6585 69.2C84.6585 69.2444 94.3438 67.5699 96.3291 54.9225C97.3376 48.6369 96.9951 38.3299 96.4496 29.9068Z" fill="#B78876"/>
<path d="M92.6505 38.1523C92.6557 38.5749 92.4953 38.9827 92.2037 39.2885C91.9121 39.5943 91.5124 39.7739 91.0901 39.7888C90.8838 39.806 90.676 39.7817 90.4792 39.7173C90.2824 39.6528 90.1006 39.5495 89.9444 39.4134C89.7883 39.2774 89.661 39.1114 89.5702 38.9253C89.4794 38.7392 89.4268 38.5367 89.4157 38.3299C89.4104 37.9085 89.5698 37.5016 89.8601 37.1959C90.1503 36.8903 90.5484 36.71 90.9696 36.6935C91.1763 36.6762 91.3844 36.7005 91.5815 36.7649C91.7787 36.8293 91.961 36.9325 92.1176 37.0685C92.2743 37.2045 92.4021 37.3704 92.4936 37.5565C92.5852 37.7427 92.6385 37.9453 92.6505 38.1523Z" fill="#263238"/>
<path d="M94.2233 35.2725C94.0203 35.4818 92.7898 34.5748 91.0519 34.5811C89.314 34.5875 88.0327 35.4691 87.8425 35.2535C87.7473 35.1583 87.9566 34.7778 88.5085 34.3718C89.2624 33.8481 90.1593 33.569 91.0773 33.5726C91.988 33.5653 92.8771 33.8498 93.6144 34.3845C94.1408 34.7905 94.3247 35.1774 94.2233 35.2725Z" fill="#263238"/>
<path d="M75.3791 38.1523C75.386 38.5743 75.227 38.9821 74.9365 39.2881C74.6459 39.5941 74.2468 39.7739 73.8251 39.7888C73.6187 39.806 73.411 39.7817 73.2142 39.7173C73.0174 39.6528 72.8355 39.5495 72.6794 39.4134C72.5232 39.2774 72.396 39.1114 72.3051 38.9253C72.2143 38.7392 72.1618 38.5367 72.1506 38.3299C72.1437 37.908 72.3026 37.5002 72.5932 37.1942C72.8838 36.8882 73.2828 36.7084 73.7046 36.6935C73.9109 36.6762 74.1187 36.7005 74.3155 36.765C74.5123 36.8295 74.6941 36.9328 74.8503 37.0688C75.0064 37.2049 75.1337 37.3709 75.2245 37.557C75.3153 37.7431 75.3679 37.9455 75.3791 38.1523Z" fill="#263238"/>
<path d="M77.0727 35.6149C76.8697 35.8243 75.6392 34.9172 73.9013 34.9299C72.1634 34.9426 70.8821 35.8116 70.6919 35.6023C70.5967 35.5071 70.7997 35.1202 71.3261 34.7143C72.082 34.1896 72.9812 33.9106 73.9013 33.9151C74.8116 33.9104 75.6999 34.1946 76.4384 34.727C76.9902 35.1583 77.1742 35.5388 77.0727 35.6149Z" fill="#263238"/>
<path d="M83.4344 48.5608C83.4344 48.4593 84.5127 48.269 86.2696 48.0406C86.7136 47.9962 87.1322 47.9074 87.2084 47.603C87.2441 47.1432 87.1402 46.6834 86.9102 46.2837C86.4853 45.2055 86.0476 44.0764 85.5846 42.8904C83.7452 38.0635 82.4133 34.0993 82.6035 34.0105C82.7938 33.9217 84.4493 37.8162 86.2887 42.6176C86.7327 43.81 87.1555 44.9475 87.5572 46.03C87.8411 46.5648 87.9243 47.1835 87.7919 47.7743C87.7268 47.9287 87.6272 48.0661 87.5008 48.176C87.3744 48.286 87.2244 48.3655 87.0625 48.4085C86.8167 48.4773 86.5629 48.5136 86.3077 48.5164C84.5381 48.6496 83.4408 48.6559 83.4344 48.5608Z" fill="#263238"/>
<path d="M84.6839 69.2315C78.7367 69.3213 72.8811 67.7602 67.7678 64.7218C67.7678 64.7218 72.0428 73.4684 84.6966 72.257L84.6839 69.2315Z" fill="#AA6550"/>
<path d="M82.7048 52.7405C82.3699 52.3252 81.9357 52.0012 81.4423 51.7983C80.9489 51.5954 80.4124 51.5202 79.8823 51.5797C79.4979 51.616 79.1247 51.7289 78.7848 51.912C78.4449 52.095 78.1451 52.3444 77.9033 52.6453C77.6716 52.9371 77.5346 53.2928 77.5108 53.6647C77.487 54.0365 77.5775 54.4068 77.7701 54.7257C78.0519 55.0376 78.4198 55.259 78.8274 55.3617C79.235 55.4644 79.6639 55.444 80.0599 55.3029C80.8822 55.0065 81.6386 54.5519 82.2862 53.9646C82.4837 53.8255 82.6519 53.6488 82.7809 53.4445C82.8436 53.3506 82.8771 53.2403 82.8771 53.1274C82.8771 53.0145 82.8436 52.9041 82.7809 52.8102" fill="#AA6550"/>
<path d="M78.303 49.7783C78.5884 49.7783 78.5947 51.6811 80.2058 52.9941C81.8168 54.307 83.8465 54.1231 83.8592 54.3895C83.8592 54.5037 83.4089 54.7574 82.5589 54.7827C81.4487 54.8017 80.3677 54.4263 79.5081 53.7235C78.6814 53.0524 78.149 52.0853 78.0239 51.0278C77.9605 50.235 78.1698 49.7656 78.303 49.7783Z" fill="#263238"/>
<path d="M77.8528 32.5769C77.6815 33.0526 75.95 32.8306 73.8949 33.0843C71.8399 33.338 70.1908 33.8961 69.918 33.4712C69.7975 33.2682 70.0829 32.8369 70.7489 32.3612C71.6383 31.7954 72.6448 31.4397 73.6922 31.321C74.7395 31.2023 75.8002 31.3238 76.7936 31.6762C77.5483 31.9806 77.9162 32.3485 77.8528 32.5769Z" fill="#263238"/>
<path d="M93.5702 30.2236C93.2658 30.6168 92.0607 30.2236 90.6145 30.2236C89.1684 30.2236 87.9506 30.4963 87.6651 30.084C87.5383 29.8811 87.7349 29.4878 88.2677 29.1073C88.9852 28.6564 89.8205 28.429 90.6675 28.4539C91.5144 28.4787 92.3349 28.7547 93.0248 29.2468C93.5385 29.621 93.7034 30.027 93.5702 30.2236Z" fill="#263238"/>
<path d="M50.9404 61.4491C52.6845 61.7959 54.486 61.7232 56.1964 61.237C57.9068 60.7508 59.4772 59.865 60.7781 58.6527C62.079 57.4404 63.0731 55.9363 63.6785 54.2643C64.2839 52.5924 64.4833 50.8005 64.2602 49.0364C63.8669 45.9348 62.1924 42.7697 63.2707 39.833C64.6915 35.9513 70.1399 34.7589 71.586 30.8771C72.4296 28.6191 71.6748 25.9869 72.6262 23.7796C73.5206 21.6992 75.7025 20.5067 77.8336 19.7329C79.9648 18.9591 82.2418 18.4644 84.0241 17.0499C85.8064 15.6355 86.9228 13.0413 85.7747 11.0941C76.3313 12.2258 67.0562 14.4785 58.1458 17.8047C56.0844 18.5785 53.9152 19.5046 52.6974 21.3376C51.4288 23.2785 51.4669 25.7775 51.5747 28.1117C52.1033 39.4652 52.6318 50.8187 53.1604 62.1722" fill="#263238"/>
<path d="M51.7332 65.8002C51.6576 65.7657 51.5872 65.7209 51.5239 65.667L50.9657 65.2421C50.4774 64.8551 49.7543 64.2906 48.8726 63.5041C47.7816 62.5612 46.7853 61.5139 45.8979 60.3772C44.6873 58.8659 43.874 57.0757 43.5321 55.1698C43.2886 54.0105 43.3087 52.8113 43.5909 51.6607C43.873 50.5102 44.41 49.4378 45.1621 48.5226C46.0777 47.6014 47.0638 46.7531 48.1115 45.9855C49.1621 45.1835 49.9593 44.0956 50.4076 42.8522C51.34 40.2707 50.9277 37.2896 51.2892 34.2388C51.6453 31.0558 52.8869 28.0365 54.8729 25.5238C55.8968 24.2541 57.1733 23.2109 58.6214 22.4603C60.0475 21.8154 61.535 21.316 63.0613 20.9698C64.4756 20.6181 65.7989 19.9695 66.9431 19.0669C68.023 18.1663 68.9728 17.1204 69.7656 15.959C71.3513 13.7073 72.5247 11.3034 74.0406 9.29912C74.7546 8.31422 75.5924 7.42528 76.5333 6.6542C77.4131 5.94642 78.4117 5.4009 79.4827 5.04315C80.3989 4.69581 81.3831 4.56544 82.3581 4.66228C83.3331 4.75912 84.2724 5.08053 85.1023 5.6013C85.6874 6.05609 86.168 6.63121 86.5116 7.28777C86.8552 7.94432 87.0538 8.66701 87.094 9.40695C87.1695 10.3399 86.8985 11.268 86.3328 12.0138C86.186 12.2005 86.013 12.365 85.8191 12.5022C85.6922 12.6037 85.6225 12.6481 85.6161 12.6354C85.6098 12.6227 85.6668 12.572 85.781 12.4641C85.9556 12.3099 86.1111 12.1353 86.244 11.944C86.7537 11.2021 86.9789 10.3014 86.8783 9.40695C86.8148 8.71059 86.6052 8.03545 86.2631 7.4256C85.921 6.81574 85.4542 6.28489 84.893 5.8677C84.1021 5.38954 83.2111 5.10117 82.29 5.02524C81.3689 4.94931 80.4427 5.08787 79.5842 5.43005C78.5631 5.78386 77.6121 6.31411 76.7743 6.9967C75.8736 7.76501 75.0724 8.64288 74.3895 9.60991C72.9243 11.5825 71.7699 13.9801 70.1652 16.2952C69.3498 17.4978 68.3722 18.582 67.2602 19.5173C66.0654 20.4711 64.6818 21.1607 63.2009 21.5406C61.7139 21.8843 60.2649 22.3751 58.8751 23.0058C57.494 23.7236 56.2761 24.7191 55.2978 25.9298C53.3839 28.3598 52.1827 31.2737 51.8284 34.3466C51.4605 37.296 51.8854 40.3278 50.8896 43.0678C50.3998 44.3894 49.544 45.5444 48.4223 46.3978C47.3902 47.1379 46.415 47.9542 45.5046 48.8397C44.7913 49.7034 44.279 50.7148 44.0047 51.8008C43.7305 52.8869 43.7012 54.0203 43.919 55.119C44.2374 56.9663 45.0015 58.7081 46.1453 60.1932C47.0046 61.3336 47.9641 62.3949 49.0122 63.3646C49.8748 64.1638 50.5725 64.76 51.0355 65.1723C51.2846 65.3625 51.5179 65.5725 51.7332 65.8002Z" fill="#455A64"/>
<path d="M103.046 46.03C103.385 45.6908 103.637 45.2754 103.782 44.8186C103.927 44.1839 103.937 43.5259 103.813 42.8869C103.688 42.2478 103.431 41.6419 103.059 41.1081C102.621 40.404 102.031 39.7063 101.435 38.9135C100.755 38.0839 100.258 37.1198 99.9762 36.0846C99.7222 34.9329 99.675 33.7453 99.8366 32.5771C99.9698 31.3656 100.211 30.1351 100.369 28.8793C100.681 26.5087 100.397 24.098 99.5449 21.8642C98.8523 20.0397 97.8263 18.3599 96.5194 16.9105C95.6399 15.9318 94.6305 15.0781 93.5193 14.3734C92.7328 13.8724 92.2507 13.644 92.2507 13.6187C92.3728 13.6492 92.4901 13.6962 92.5996 13.7582C92.9289 13.9077 93.2487 14.0771 93.5573 14.2656C94.7103 14.939 95.7576 15.779 96.6653 16.7583C98.0222 18.2103 99.088 19.9092 99.8049 21.7627C100.692 24.0387 100.991 26.5016 100.674 28.9237C100.515 30.1922 100.268 31.4291 100.135 32.6151C99.9705 33.7483 100.009 34.9016 100.249 36.0212C100.512 37.0183 100.981 37.9494 101.625 38.7549C102.209 39.5478 102.799 40.2645 103.236 40.9939C103.615 41.5561 103.868 42.1934 103.977 42.8623C104.086 43.5312 104.05 44.2158 103.871 44.8693C103.754 45.218 103.561 45.5365 103.306 45.8017C103.23 45.889 103.143 45.9658 103.046 46.03Z" fill="#263238"/>
<path d="M218.008 192.801C97.7816 192.801 0.687012 192.877 0.687012 192.965C0.687012 193.054 97.7816 193.13 218.008 193.13V192.801Z" fill="#263238"/>
</svg>
