<svg width="398" height="419" viewBox="0 0 398 419" fill="none" xmlns="http://www.w3.org/2000/svg">
<path d="M218.495 202.655C217.95 220.513 220.292 242.026 211.428 258.339C204.493 271.099 191.37 279.044 178.055 283.768C148.779 294.156 108.975 292.763 91.2382 263.134C84.1718 251.293 84.5957 227.802 98.3854 220.221C105.452 216.354 113.528 215.95 121.361 214.466C131.638 212.528 139.33 207.4 144.691 198.416C155.179 180.85 154.382 167.343 157.622 147.729C158.238 144.095 159.369 140.551 163.225 137.735C166.707 134.789 170.927 132.848 175.43 132.122C179.318 130.774 183.479 130.406 187.544 131.052C196.215 132.627 203.999 141.339 210.379 146.871C216.758 152.403 219.585 158.036 219.464 166.667C219.393 178.67 218.858 190.663 218.495 202.655Z" fill="#263238"/>
<path d="M220.059 211.216C219.514 194.802 218.636 178.438 217.869 162.044C217.869 161.943 217.717 161.933 217.717 162.044C217.95 175.551 218.01 189.048 218.424 202.555C218.828 215.789 220.15 229.367 219.433 242.601C217.738 272.291 186.332 282.042 161.226 278.671C160.085 278.519 159.974 280.356 161.135 280.467C183.263 282.739 210.298 277.177 218.828 253.585C223.461 240.673 220.514 224.653 220.059 211.216Z" fill="#263238"/>
<path d="M159.248 146.286C159.236 146.229 159.205 146.177 159.16 146.14C159.115 146.104 159.058 146.083 159 146.083C158.942 146.083 158.886 146.104 158.841 146.14C158.795 146.177 158.764 146.229 158.753 146.286C156.734 162.538 155.977 181.618 145.629 195.165C140.512 201.79 133.514 206.716 125.551 209.298C119.241 211.317 112.73 211.045 106.229 211.822C80.8302 214.85 77.9632 248.618 95.2053 263.185C95.5587 263.488 96.1038 262.882 95.7505 262.549C83.7274 251.374 80.9109 232.506 92.3889 219.686C101.595 209.399 117.424 214.093 129.296 209.066C153.897 198.648 157.945 169.999 159.248 146.286Z" fill="#263238"/>
<path d="M161.862 215.567C135.484 242.308 102.302 298.567 108.48 309.965C115.375 322.674 152.11 285.181 151.969 282.991C151.858 281.335 164.79 247.164 174.592 222.31C184.394 197.457 168.393 208.914 161.862 215.567Z" fill="#F7A9A0"/>
<path d="M152.211 282.991C153.342 279.336 170.927 234.283 175.955 220.029C180.982 205.775 176.318 201.373 161.963 214.426C147.608 227.479 116.132 271.069 108.955 294.176C102.03 316.466 113.507 316.466 128.65 306.189C141.046 297.82 152.211 282.991 152.211 282.991Z" fill="#0F969C"/>
<path d="M177.842 212.336C177.842 212.599 177.792 212.861 177.752 213.144C177.667 213.266 177.553 213.365 177.421 213.434C177.29 213.503 177.143 213.538 176.994 213.538C176.83 213.537 176.669 213.492 176.528 213.406C176.388 213.32 176.274 213.198 176.198 213.052C176.123 212.905 176.089 212.741 176.1 212.577C176.112 212.413 176.168 212.255 176.263 212.121C176.357 211.987 176.487 211.881 176.638 211.815C176.789 211.75 176.955 211.727 177.118 211.749C177.281 211.771 177.435 211.838 177.562 211.941C177.69 212.045 177.787 212.181 177.842 212.336ZM147.911 231.194C147.73 231.192 147.553 231.243 147.402 231.343C147.251 231.442 147.133 231.583 147.063 231.75C146.993 231.916 146.975 232.1 147.009 232.277C147.044 232.454 147.131 232.617 147.258 232.745C147.386 232.872 147.549 232.959 147.726 232.994C147.903 233.028 148.087 233.01 148.253 232.94C148.42 232.87 148.561 232.752 148.66 232.601C148.76 232.45 148.811 232.273 148.809 232.092C148.809 231.854 148.715 231.625 148.546 231.457C148.378 231.288 148.149 231.194 147.911 231.194ZM162.448 231.194C162.268 231.194 162.091 231.247 161.942 231.347C161.792 231.448 161.676 231.59 161.607 231.757C161.539 231.923 161.521 232.107 161.557 232.283C161.593 232.46 161.681 232.622 161.809 232.748C161.937 232.875 162.1 232.961 162.277 232.994C162.454 233.028 162.637 233.009 162.802 232.939C162.968 232.868 163.109 232.75 163.208 232.6C163.307 232.449 163.358 232.272 163.356 232.092C163.356 231.973 163.333 231.856 163.287 231.746C163.241 231.636 163.174 231.537 163.089 231.453C163.005 231.37 162.905 231.304 162.795 231.259C162.684 231.215 162.566 231.192 162.448 231.194ZM155.179 221.876C154.999 221.876 154.823 221.93 154.674 222.03C154.524 222.13 154.407 222.273 154.339 222.439C154.271 222.606 154.253 222.789 154.289 222.966C154.325 223.142 154.412 223.304 154.541 223.431C154.669 223.557 154.831 223.643 155.008 223.677C155.185 223.711 155.368 223.691 155.534 223.621C155.7 223.551 155.841 223.433 155.94 223.282C156.038 223.131 156.09 222.955 156.088 222.774C156.088 222.656 156.064 222.538 156.018 222.428C155.973 222.319 155.906 222.219 155.821 222.136C155.737 222.052 155.636 221.986 155.526 221.941C155.416 221.897 155.298 221.875 155.179 221.876ZM169.726 221.876C169.546 221.874 169.369 221.926 169.218 222.025C169.067 222.124 168.949 222.266 168.879 222.432C168.809 222.599 168.79 222.782 168.824 222.959C168.859 223.136 168.946 223.299 169.074 223.427C169.201 223.555 169.364 223.641 169.541 223.676C169.718 223.711 169.902 223.692 170.068 223.622C170.235 223.552 170.377 223.434 170.476 223.283C170.575 223.132 170.627 222.955 170.625 222.774C170.625 222.536 170.53 222.308 170.361 222.139C170.193 221.971 169.964 221.876 169.726 221.876ZM133.384 250.647C133.204 250.645 133.027 250.696 132.876 250.795C132.725 250.895 132.607 251.036 132.537 251.203C132.467 251.369 132.448 251.553 132.483 251.73C132.517 251.907 132.604 252.07 132.732 252.197C132.86 252.325 133.022 252.412 133.2 252.447C133.377 252.481 133.56 252.463 133.727 252.392C133.893 252.322 134.035 252.204 134.134 252.054C134.233 251.903 134.285 251.726 134.283 251.545C134.283 251.426 134.259 251.309 134.213 251.199C134.168 251.089 134.101 250.99 134.016 250.906C133.932 250.823 133.831 250.757 133.721 250.712C133.611 250.667 133.493 250.645 133.374 250.647H133.384ZM147.921 250.647C147.741 250.645 147.563 250.696 147.413 250.795C147.262 250.895 147.144 251.036 147.074 251.203C147.004 251.369 146.985 251.553 147.019 251.73C147.054 251.907 147.141 252.07 147.269 252.197C147.396 252.325 147.559 252.412 147.736 252.447C147.913 252.481 148.097 252.463 148.263 252.392C148.43 252.322 148.572 252.204 148.671 252.054C148.77 251.903 148.821 251.726 148.819 251.545C148.819 251.426 148.796 251.309 148.75 251.199C148.704 251.089 148.637 250.99 148.553 250.906C148.468 250.823 148.368 250.757 148.258 250.712C148.148 250.667 148.03 250.645 147.911 250.647H147.921ZM162.458 250.647C162.278 250.647 162.102 250.7 161.952 250.8C161.802 250.901 161.686 251.043 161.617 251.21C161.549 251.376 161.532 251.56 161.567 251.736C161.603 251.913 161.691 252.074 161.819 252.201C161.947 252.328 162.11 252.413 162.287 252.447C162.464 252.481 162.647 252.462 162.812 252.392C162.978 252.321 163.119 252.203 163.218 252.052C163.317 251.902 163.368 251.725 163.366 251.545C163.366 251.425 163.342 251.307 163.296 251.196C163.25 251.086 163.182 250.986 163.096 250.902C163.01 250.819 162.909 250.753 162.798 250.709C162.686 250.665 162.567 250.644 162.448 250.647H162.458ZM140.653 241.329C140.472 241.327 140.295 241.379 140.144 241.478C139.993 241.577 139.875 241.719 139.805 241.885C139.735 242.052 139.716 242.235 139.751 242.412C139.786 242.589 139.873 242.752 140 242.88C140.128 243.008 140.291 243.094 140.468 243.129C140.645 243.164 140.829 243.145 140.995 243.075C141.161 243.005 141.303 242.887 141.402 242.736C141.501 242.585 141.553 242.408 141.551 242.227C141.551 242.109 141.528 241.991 141.482 241.881C141.436 241.772 141.369 241.672 141.284 241.588C141.2 241.505 141.1 241.439 140.99 241.394C140.879 241.35 140.761 241.328 140.643 241.329H140.653ZM155.189 241.329C155.009 241.329 154.833 241.382 154.684 241.483C154.534 241.583 154.418 241.726 154.349 241.892C154.281 242.059 154.263 242.242 154.299 242.418C154.335 242.595 154.423 242.757 154.551 242.883C154.679 243.01 154.842 243.096 155.018 243.13C155.195 243.164 155.378 243.144 155.544 243.074C155.71 243.004 155.851 242.886 155.95 242.735C156.048 242.584 156.1 242.408 156.098 242.227C156.098 242.108 156.074 241.989 156.028 241.879C155.981 241.768 155.913 241.669 155.828 241.585C155.742 241.501 155.641 241.435 155.529 241.391C155.418 241.347 155.299 241.326 155.179 241.329H155.189ZM133.374 270.079C133.194 270.077 133.017 270.129 132.866 270.228C132.715 270.327 132.597 270.469 132.527 270.635C132.457 270.802 132.438 270.985 132.473 271.163C132.507 271.34 132.594 271.503 132.722 271.63C132.849 271.758 133.012 271.845 133.189 271.879C133.367 271.914 133.55 271.895 133.717 271.825C133.883 271.755 134.025 271.637 134.124 271.486C134.223 271.335 134.275 271.158 134.273 270.978C134.273 270.739 134.178 270.511 134.01 270.342C133.841 270.174 133.613 270.079 133.374 270.079ZM147.911 270.079C147.73 270.077 147.553 270.129 147.402 270.228C147.251 270.327 147.133 270.469 147.063 270.635C146.993 270.802 146.975 270.985 147.009 271.163C147.044 271.34 147.131 271.503 147.258 271.63C147.386 271.758 147.549 271.845 147.726 271.879C147.903 271.914 148.087 271.895 148.253 271.825C148.42 271.755 148.561 271.637 148.66 271.486C148.76 271.335 148.811 271.158 148.809 270.978C148.809 270.739 148.715 270.511 148.546 270.342C148.378 270.174 148.149 270.079 147.911 270.079ZM126.106 260.782C125.926 260.782 125.75 260.835 125.6 260.936C125.45 261.036 125.334 261.178 125.266 261.345C125.197 261.512 125.18 261.695 125.216 261.871C125.252 262.048 125.339 262.21 125.467 262.336C125.595 262.463 125.758 262.549 125.935 262.583C126.112 262.617 126.295 262.597 126.461 262.527C126.626 262.457 126.768 262.339 126.866 262.188C126.965 262.037 127.016 261.86 127.014 261.68C127.014 261.561 126.991 261.444 126.945 261.334C126.899 261.224 126.832 261.125 126.748 261.041C126.663 260.958 126.563 260.892 126.453 260.847C126.343 260.803 126.225 260.781 126.106 260.782ZM140.653 260.782C140.472 260.78 140.295 260.832 140.144 260.931C139.993 261.03 139.875 261.172 139.805 261.338C139.735 261.504 139.716 261.688 139.751 261.865C139.786 262.042 139.873 262.205 140 262.333C140.128 262.46 140.291 262.547 140.468 262.582C140.645 262.617 140.829 262.598 140.995 262.528C141.161 262.458 141.303 262.34 141.402 262.189C141.501 262.038 141.553 261.861 141.551 261.68C141.551 261.561 141.528 261.444 141.482 261.334C141.436 261.224 141.369 261.125 141.284 261.041C141.2 260.958 141.1 260.892 140.99 260.847C140.879 260.803 140.761 260.781 140.643 260.782H140.653ZM155.189 260.782C155.009 260.782 154.833 260.835 154.684 260.936C154.534 261.036 154.418 261.178 154.349 261.345C154.281 261.512 154.263 261.695 154.299 261.871C154.335 262.048 154.423 262.21 154.551 262.336C154.679 262.463 154.842 262.549 155.018 262.583C155.195 262.617 155.378 262.597 155.544 262.527C155.71 262.457 155.851 262.339 155.95 262.188C156.048 262.037 156.1 261.86 156.098 261.68C156.098 261.561 156.074 261.442 156.028 261.332C155.981 261.221 155.913 261.121 155.828 261.038C155.742 260.954 155.641 260.888 155.529 260.844C155.418 260.8 155.299 260.779 155.179 260.782H155.189ZM118.848 289.552C118.67 289.554 118.498 289.609 118.351 289.709C118.205 289.809 118.091 289.95 118.025 290.114C117.958 290.278 117.942 290.459 117.978 290.632C118.014 290.806 118.1 290.965 118.226 291.09C118.352 291.214 118.512 291.299 118.686 291.333C118.86 291.367 119.04 291.348 119.204 291.28C119.367 291.212 119.507 291.096 119.605 290.949C119.704 290.801 119.756 290.628 119.756 290.451C119.756 290.33 119.732 290.211 119.685 290.1C119.638 289.989 119.569 289.888 119.482 289.805C119.396 289.721 119.293 289.655 119.181 289.612C119.068 289.569 118.948 289.548 118.827 289.552H118.848ZM133.394 289.552C133.217 289.552 133.043 289.605 132.895 289.704C132.748 289.803 132.632 289.943 132.564 290.107C132.496 290.271 132.479 290.452 132.513 290.626C132.548 290.8 132.633 290.96 132.759 291.086C132.885 291.212 133.045 291.297 133.219 291.332C133.393 291.367 133.574 291.349 133.738 291.281C133.902 291.213 134.043 291.098 134.141 290.95C134.24 290.802 134.293 290.629 134.293 290.451C134.293 290.331 134.269 290.213 134.223 290.102C134.176 289.992 134.108 289.892 134.023 289.808C133.937 289.725 133.836 289.659 133.724 289.615C133.613 289.571 133.494 289.55 133.374 289.552H133.394ZM126.106 280.235C125.926 280.235 125.75 280.288 125.6 280.389C125.45 280.489 125.334 280.631 125.266 280.798C125.197 280.965 125.18 281.148 125.216 281.324C125.252 281.501 125.339 281.663 125.467 281.789C125.595 281.916 125.758 282.002 125.935 282.036C126.112 282.07 126.295 282.05 126.461 281.98C126.626 281.909 126.768 281.791 126.866 281.641C126.965 281.49 127.016 281.313 127.014 281.133C127.014 281.014 126.991 280.897 126.945 280.787C126.899 280.677 126.832 280.578 126.748 280.494C126.663 280.411 126.563 280.345 126.453 280.3C126.343 280.256 126.225 280.233 126.106 280.235ZM140.653 280.235C140.472 280.233 140.295 280.285 140.144 280.384C139.993 280.483 139.875 280.625 139.805 280.791C139.735 280.957 139.716 281.141 139.751 281.318C139.786 281.495 139.873 281.658 140 281.786C140.128 281.913 140.291 282 140.468 282.035C140.645 282.07 140.829 282.051 140.995 281.981C141.161 281.911 141.303 281.793 141.402 281.642C141.501 281.491 141.553 281.314 141.551 281.133C141.551 281.014 141.528 280.897 141.482 280.787C141.436 280.677 141.369 280.578 141.284 280.494C141.2 280.411 141.1 280.345 140.99 280.3C140.879 280.256 140.761 280.233 140.643 280.235H140.653ZM118.838 309.005C118.66 309.007 118.488 309.062 118.341 309.162C118.195 309.262 118.081 309.403 118.015 309.567C117.948 309.731 117.932 309.912 117.968 310.085C118.004 310.259 118.09 310.418 118.216 310.543C118.342 310.667 118.502 310.752 118.676 310.786C118.85 310.819 119.03 310.801 119.194 310.733C119.357 310.665 119.497 310.549 119.595 310.402C119.694 310.254 119.746 310.081 119.746 309.904C119.746 309.784 119.722 309.666 119.676 309.555C119.629 309.445 119.561 309.345 119.476 309.261C119.39 309.178 119.289 309.112 119.177 309.068C119.066 309.024 118.947 309.003 118.827 309.005H118.838ZM111.569 299.688C111.389 299.686 111.212 299.738 111.061 299.837C110.91 299.936 110.792 300.077 110.722 300.244C110.652 300.41 110.633 300.594 110.668 300.771C110.702 300.948 110.789 301.111 110.917 301.239C111.044 301.366 111.207 301.453 111.384 301.488C111.562 301.522 111.745 301.504 111.911 301.434C112.078 301.364 112.22 301.246 112.319 301.095C112.418 300.944 112.47 300.767 112.468 300.586C112.468 300.467 112.444 300.35 112.398 300.24C112.353 300.13 112.285 300.031 112.201 299.947C112.116 299.864 112.016 299.798 111.906 299.753C111.796 299.709 111.678 299.686 111.559 299.688H111.569ZM126.106 299.688C125.926 299.688 125.75 299.741 125.6 299.842C125.45 299.942 125.334 300.084 125.266 300.251C125.197 300.418 125.18 300.601 125.216 300.777C125.252 300.954 125.339 301.116 125.467 301.242C125.595 301.369 125.758 301.455 125.935 301.489C126.112 301.522 126.295 301.503 126.461 301.433C126.626 301.362 126.768 301.244 126.866 301.094C126.965 300.943 127.016 300.766 127.014 300.586C127.014 300.467 126.991 300.35 126.945 300.24C126.899 300.13 126.832 300.031 126.748 299.947C126.663 299.864 126.563 299.798 126.453 299.753C126.343 299.709 126.225 299.686 126.106 299.688Z" fill="white"/>
<path d="M141.783 323.926L144.418 308.127L148.204 280.094C148.204 280.094 139.29 264.527 144.458 253.362C147.073 247.699 169.978 212.538 179.609 205.472C188.694 198.9 201.818 205.936 206.683 211.075C225.521 230.901 234.404 270.271 241.168 323.896L141.783 323.926Z" fill="#F7A9A0"/>
<path d="M145.084 303.17L148.203 280.103C148.203 280.103 139.29 264.537 144.458 253.362C147.073 247.699 169.978 212.538 179.609 205.472C188.694 198.91 201.818 205.936 206.683 211.084C222.997 228.246 231.85 260.085 238.321 303.14L145.084 303.17Z" fill="#0F969C"/>
<path d="M183.748 279.629C179.35 279.244 174.93 279.187 170.524 279.458C168.343 279.619 166.173 279.882 164.002 280.195C162.922 280.346 161.842 280.467 160.752 280.578C159.619 280.72 158.473 280.72 157.34 280.578C157.328 280.574 157.314 280.572 157.302 280.574C157.289 280.576 157.276 280.58 157.266 280.588C157.255 280.595 157.246 280.605 157.24 280.617C157.234 280.628 157.231 280.641 157.231 280.654C157.231 280.667 157.234 280.68 157.24 280.691C157.246 280.703 157.255 280.713 157.266 280.72C157.276 280.728 157.289 280.733 157.302 280.734C157.314 280.736 157.328 280.734 157.34 280.73C158.394 280.972 159.463 281.144 160.54 281.245C161.585 281.315 162.634 281.315 163.679 281.245C165.9 281.103 168.111 280.851 170.332 280.689C174.804 280.346 179.276 280.013 183.768 279.993C183.817 279.99 183.862 279.968 183.894 279.932C183.926 279.897 183.943 279.849 183.94 279.801C183.937 279.753 183.916 279.708 183.88 279.675C183.844 279.643 183.796 279.627 183.748 279.629Z" fill="#263238"/>
<path d="M193.742 285.364C190.244 284.355 186.691 283.546 183.102 282.941C181.305 282.638 179.508 282.456 177.691 282.305C176.823 282.234 175.954 282.184 175.086 282.143C174.218 282.103 173.168 282.143 172.209 282.143C172.108 282.143 172.078 282.285 172.209 282.295C173.108 282.386 173.996 282.618 174.884 282.759L177.57 283.163C179.367 283.436 181.163 283.728 182.96 283.991C186.554 284.506 190.138 285.051 193.711 285.687C193.903 285.697 193.944 285.414 193.742 285.364Z" fill="#263238"/>
<path d="M144.418 308.127C144.923 303.443 145.427 298.749 146.023 294.075C146.619 289.401 147.133 284.707 147.759 280.033L147.85 280.366C146.51 278.458 145.408 276.394 144.569 274.218C143.709 272.061 143.086 269.817 142.712 267.525C142.349 265.226 142.247 262.892 142.409 260.57C142.671 258.251 143.248 255.979 144.125 253.816C145.87 249.572 148.038 245.513 150.596 241.703C153.092 237.862 155.816 234.174 158.753 230.659C156.037 234.333 153.493 238.139 151.111 242.026C148.709 245.875 146.652 249.929 144.963 254.139C144.133 256.226 143.596 258.417 143.368 260.651C143.242 262.894 143.353 265.144 143.701 267.364C144.044 269.591 144.629 271.775 145.448 273.875C146.236 275.98 147.28 277.981 148.557 279.831L148.658 279.982V280.154C148.032 284.828 147.295 289.482 146.639 294.156C145.983 298.83 145.175 303.473 144.418 308.127Z" fill="#263238"/>
<path d="M89.5622 342.218C91.5812 338.028 89.5622 330.538 84.2825 328.388C79.0029 326.237 71.8153 330.316 70.6443 334.929C69.4733 339.542 74.5207 347.255 78.6597 347.81C83.2831 348.396 88.0681 345.296 89.5622 342.218Z" fill="#0F969C"/>
<path opacity="0.12" d="M68.4334 336.04C72.1786 339.25 78.3971 342.097 83.4849 341.885C81.4951 344.34 79.2328 346.562 76.7415 348.507C76.6002 348.628 76.7415 348.891 76.9333 348.78C82.7682 344.893 88.5122 337.867 88.7646 330.609C88.7646 330.508 88.6334 330.508 88.6233 330.609C88.3759 332.643 87.7997 334.624 86.9172 336.474C84.8982 332.133 79.1845 328.872 74.8033 327.843C74.7752 327.833 74.7445 327.835 74.718 327.849C74.6915 327.862 74.6713 327.885 74.662 327.913C74.6526 327.941 74.6548 327.972 74.668 327.999C74.6813 328.025 74.7045 328.045 74.7326 328.055C76.0733 328.597 77.3841 329.21 78.6596 329.892C76.2368 332.032 74.4096 336.201 74.9547 339.401C72.7441 338.414 70.6458 337.192 68.6959 335.757C68.5646 335.606 68.2618 335.898 68.4334 336.04ZM83.707 341.632C81.6116 341.487 79.5445 341.067 77.5592 340.381C80.5583 340.552 83.5344 339.767 86.0592 338.139C85.3585 339.358 84.5725 340.525 83.707 341.632ZM86.7355 336.807C86.574 337.14 86.4024 337.463 86.2207 337.816C84.2492 338.817 82.1169 339.463 79.9214 339.724C82.0069 338.414 83.6332 336.488 84.5752 334.213C85.3722 335.01 86.0952 335.879 86.7355 336.807ZM84.4541 334.061C83.651 335.48 82.678 336.795 81.5568 337.978C81.1429 337.887 80.7391 337.766 80.3353 337.635C80.9874 337.147 81.5116 336.508 81.8632 335.773C82.2147 335.038 82.3833 334.229 82.3543 333.415C82.9196 333.486 83.495 333.587 84.0805 333.708L84.4541 334.061ZM80.1536 333.294C80.3379 333.588 80.487 333.903 80.5978 334.233C80.6902 334.64 80.7276 335.057 80.7088 335.474C80.0365 335.57 79.3524 335.543 78.6899 335.394C78.8435 334.696 79.0773 334.019 79.3864 333.375C79.6691 333.314 79.9012 333.304 80.1536 333.294ZM80.5271 333.294C81.0906 333.293 81.6537 333.326 82.213 333.395C82.0664 334.068 81.8498 334.725 81.5669 335.353L80.7896 335.464C80.9099 335.106 80.9488 334.725 80.9034 334.349C80.858 333.974 80.7295 333.613 80.5271 333.294ZM81.4458 335.585C81.0688 336.308 80.5623 336.954 79.9517 337.493C79.5834 337.347 79.2229 337.182 78.8716 336.999C78.6857 336.559 78.6128 336.08 78.6596 335.606C79.0964 335.809 79.5731 335.913 80.0549 335.909C80.5368 335.906 81.0119 335.795 81.4458 335.585ZM78.8211 329.963C80.5448 330.89 82.157 332.011 83.6263 333.304C81.341 332.548 78.8533 332.692 76.6709 333.708C77.2108 332.366 77.9345 331.105 78.8211 329.963ZM76.5497 334.001C77.4019 333.677 78.2899 333.456 79.1946 333.344C78.8017 333.799 78.527 334.344 78.3949 334.93C78.2629 335.517 78.2775 336.127 78.4375 336.706C77.5985 336.215 76.8534 335.58 76.2368 334.828C76.3377 334.566 76.4488 334.293 76.5497 334.021V334.001ZM76.0854 335.272C76.7362 336.076 77.5414 336.741 78.4533 337.228C79.3653 337.715 80.3657 338.015 81.3953 338.109C80.8092 338.707 80.1707 339.251 79.4874 339.734C78.599 339.856 77.6804 339.936 76.7113 340.027C76.2166 339.835 75.7018 339.644 75.2273 339.432C75.3811 338.028 75.6684 336.642 76.0854 335.293V335.272Z" fill="black"/>
<path d="M177.782 340.653C179.801 336.454 177.782 328.974 172.502 326.813C167.222 324.653 160.025 328.751 158.854 333.355C157.683 337.958 162.74 345.691 166.93 346.226C171.533 346.801 176.288 343.773 177.782 340.653Z" fill="#0F969C"/>
<path opacity="0.12" d="M156.653 334.475C160.399 337.675 166.607 340.532 171.705 340.32C169.715 342.775 167.453 344.997 164.961 346.942C164.82 347.063 164.961 347.316 165.153 347.215C170.988 343.328 176.732 336.292 176.985 329.044C176.985 329.025 176.977 329.007 176.964 328.994C176.951 328.98 176.933 328.973 176.914 328.973C176.895 328.973 176.877 328.98 176.864 328.994C176.851 329.007 176.843 329.025 176.843 329.044C176.594 331.078 176.018 333.059 175.137 334.909C173.118 330.568 167.404 327.307 163.023 326.278C162.995 326.268 162.964 326.271 162.938 326.284C162.911 326.297 162.891 326.32 162.882 326.348C162.873 326.376 162.875 326.407 162.888 326.434C162.901 326.46 162.924 326.48 162.953 326.49C164.294 327.03 165.605 327.643 166.88 328.327C164.457 330.467 162.63 334.626 163.175 337.826C160.962 336.846 158.864 335.628 156.916 334.192C156.734 334.041 156.482 334.323 156.653 334.475ZM171.907 340.067C169.811 339.92 167.744 339.496 165.759 338.805C168.756 338.988 171.732 338.202 174.249 336.564C173.558 337.79 172.775 338.961 171.907 340.067ZM174.935 335.242C174.774 335.575 174.602 335.898 174.42 336.251C172.449 337.252 170.317 337.898 168.121 338.159C170.207 336.849 171.833 334.923 172.775 332.648C173.584 333.44 174.314 334.309 174.955 335.242H174.935ZM172.644 332.486C171.85 333.911 170.88 335.231 169.757 336.413C169.343 336.32 168.935 336.202 168.535 336.06C169.187 335.571 169.711 334.933 170.063 334.198C170.414 333.463 170.583 332.654 170.554 331.84C171.119 331.907 171.695 332.008 172.28 332.143L172.644 332.486ZM168.353 331.729C168.533 332.026 168.682 332.34 168.798 332.668C168.89 333.075 168.928 333.492 168.909 333.909C168.236 334.002 167.552 333.971 166.89 333.819C167.046 333.122 167.28 332.445 167.586 331.8C167.869 331.749 168.121 331.729 168.374 331.729H168.353ZM168.727 331.729C169.29 331.733 169.853 331.766 170.413 331.83C170.269 332.506 170.049 333.163 169.757 333.788C169.504 333.788 169.242 333.879 168.989 333.909C169.114 333.549 169.156 333.166 169.115 332.787C169.073 332.408 168.947 332.043 168.747 331.719L168.727 331.729ZM169.646 334.031C169.266 334.751 168.76 335.397 168.151 335.939C167.783 335.792 167.423 335.627 167.071 335.444C166.886 335.004 166.813 334.526 166.859 334.051C167.3 334.256 167.78 334.359 168.266 334.354C168.752 334.349 169.23 334.235 169.666 334.021L169.646 334.031ZM167.021 328.408C168.744 329.331 170.357 330.449 171.826 331.739C169.539 330.986 167.052 331.134 164.871 332.153C165.416 330.806 166.147 329.542 167.041 328.398L167.021 328.408ZM164.749 332.446C165.6 332.117 166.489 331.897 167.394 331.79C167.001 332.244 166.727 332.789 166.595 333.375C166.463 333.962 166.477 334.572 166.637 335.151C165.807 334.66 165.072 334.024 164.467 333.273L164.749 332.446ZM164.285 333.718C164.938 334.519 165.743 335.183 166.655 335.67C167.566 336.157 168.566 336.458 169.595 336.554C169.006 337.149 168.368 337.693 167.687 338.18C166.799 338.291 165.88 338.382 164.911 338.462H164.861C164.366 338.281 163.851 338.089 163.377 337.877C163.552 336.467 163.863 335.078 164.305 333.728L164.285 333.718Z" fill="black"/>
<path d="M245.095 359.682C249.658 358.673 254.311 352.505 252.787 347.033C251.263 341.562 243.611 338.362 239.25 340.26C234.889 342.158 231.89 350.89 234.01 354.504C236.373 358.511 241.753 360.389 245.095 359.682Z" fill="#0F969C"/>
<path opacity="0.12" d="M237.019 339.21C236.787 344.126 238.351 350.779 241.632 354.675C238.475 354.607 235.336 354.184 232.274 353.413C232.082 353.413 231.991 353.676 232.173 353.736C238.816 355.957 247.891 356.179 253.797 351.929C253.805 351.916 253.81 351.899 253.809 351.883C253.809 351.866 253.803 351.85 253.793 351.837C253.783 351.824 253.77 351.814 253.754 351.809C253.738 351.804 253.721 351.804 253.706 351.808C251.946 352.863 250.027 353.623 248.022 354.059C250.243 349.83 249.284 343.288 247.417 339.2C247.407 339.172 247.387 339.148 247.361 339.135C247.334 339.122 247.303 339.12 247.275 339.129C247.247 339.138 247.224 339.159 247.211 339.185C247.197 339.212 247.195 339.242 247.205 339.27C247.618 340.661 247.955 342.073 248.214 343.5C245.034 342.894 240.633 344.015 238.432 346.407C237.842 344.058 237.503 341.652 237.423 339.23C237.412 338.998 237.029 338.978 237.019 339.21ZM241.955 354.685C240.789 352.94 239.856 351.05 239.179 349.062C240.876 351.538 243.32 353.406 246.155 354.393C244.764 354.592 243.36 354.689 241.955 354.685ZM247.639 354.13C247.275 354.211 246.912 354.271 246.548 354.322C244.547 353.381 242.729 352.092 241.178 350.516C243.491 351.362 246.01 351.467 248.386 350.819C248.24 351.944 247.99 353.052 247.639 354.13ZM248.406 350.637C246.795 350.879 245.161 350.92 243.54 350.758C243.357 350.375 243.198 349.981 243.066 349.577C243.851 349.789 244.676 349.808 245.471 349.632C246.265 349.457 247.006 349.091 247.629 348.568C247.925 349.066 248.197 349.581 248.446 350.112C248.436 350.294 248.426 350.466 248.406 350.637ZM246.387 346.771C246.263 347.097 246.104 347.408 245.912 347.7C245.658 348.03 245.351 348.316 245.004 348.548C244.52 348.078 244.126 347.524 243.843 346.912C244.487 346.601 245.164 346.364 245.862 346.206L246.387 346.771ZM246.619 347.074C246.964 347.514 247.281 347.976 247.568 348.457C246.951 348.764 246.301 348.998 245.63 349.153L245.054 348.608C245.411 348.485 245.736 348.283 246.005 348.017C246.274 347.752 246.481 347.429 246.609 347.074H246.619ZM245.377 349.204C244.573 349.355 243.748 349.355 242.944 349.204C242.832 348.826 242.744 348.442 242.682 348.053C242.923 347.633 243.272 347.285 243.692 347.043C243.794 347.505 243.997 347.938 244.287 348.312C244.577 348.685 244.946 348.99 245.367 349.204H245.377ZM248.204 343.682C248.526 345.609 248.628 347.567 248.507 349.517C247.706 347.25 246.066 345.378 243.924 344.288C245.312 343.887 246.749 343.684 248.194 343.682H248.204ZM243.601 344.378C244.384 344.846 245.103 345.413 245.741 346.064C245.14 346.032 244.541 346.149 243.997 346.404C243.453 346.66 242.98 347.046 242.621 347.528C242.496 346.562 242.544 345.58 242.763 344.631L243.601 344.378ZM242.319 344.792C242.081 345.799 242.048 346.843 242.222 347.862C242.395 348.882 242.771 349.856 243.328 350.728C242.496 350.631 241.675 350.459 240.875 350.213C240.239 349.577 239.603 348.911 238.947 348.194C238.785 347.679 238.644 347.185 238.503 346.66C239.708 345.913 240.983 345.284 242.308 344.782L242.319 344.792Z" fill="black"/>
<path d="M314.76 348.557C310.207 347.548 305.543 341.38 307.068 335.908C308.592 330.437 316.244 327.237 320.605 329.145C324.966 331.053 327.964 339.765 325.844 343.379C323.492 347.386 318.101 349.264 314.76 348.557Z" fill="#0F969C"/>
<path opacity="0.12" d="M322.442 328.105C322.357 330.527 322.019 332.932 321.433 335.283C319.242 332.89 314.831 331.78 311.651 332.376C311.91 330.948 312.247 329.536 312.66 328.146C312.665 328.132 312.667 328.117 312.666 328.103C312.665 328.088 312.661 328.074 312.654 328.061C312.648 328.047 312.638 328.036 312.627 328.026C312.616 328.016 312.603 328.009 312.59 328.005C312.576 328 312.561 327.998 312.546 327.999C312.532 328 312.517 328.004 312.504 328.011C312.491 328.017 312.479 328.026 312.47 328.037C312.46 328.048 312.453 328.061 312.448 328.075C310.581 332.164 309.632 338.705 311.842 342.935C309.838 342.499 307.918 341.738 306.159 340.684C306.151 340.678 306.142 340.675 306.133 340.673C306.123 340.671 306.114 340.671 306.104 340.673C306.095 340.675 306.086 340.679 306.078 340.684C306.07 340.689 306.063 340.696 306.058 340.704C306.053 340.712 306.049 340.721 306.047 340.73C306.045 340.74 306.045 340.749 306.047 340.759C306.049 340.768 306.053 340.777 306.058 340.785C306.064 340.793 306.07 340.8 306.078 340.805C311.974 345.065 321.049 344.843 327.702 342.612C327.873 342.551 327.782 342.248 327.601 342.299C324.533 343.059 321.392 343.482 318.233 343.561C321.513 339.654 323.088 333.001 322.846 328.085C322.826 327.853 322.442 327.873 322.442 328.105ZM313.7 343.248C316.534 342.261 318.979 340.393 320.676 337.918C320.003 339.907 319.07 341.797 317.899 343.541C316.495 343.551 315.091 343.46 313.7 343.268V343.248ZM311.479 339.674C313.855 340.323 316.374 340.217 318.687 339.371C317.13 340.948 315.309 342.24 313.306 343.187C312.943 343.127 312.579 343.066 312.226 342.985C311.874 341.928 311.624 340.84 311.479 339.735V339.674ZM311.408 338.978C311.671 338.443 311.943 337.968 312.236 337.433C312.859 337.957 313.599 338.322 314.394 338.498C315.188 338.674 316.014 338.655 316.799 338.443C316.662 338.844 316.504 339.239 316.325 339.624C314.701 339.785 313.063 339.745 311.449 339.503C311.429 339.341 311.429 339.169 311.408 338.998V338.978ZM313.983 335.071C314.681 335.221 315.359 335.455 316.002 335.768C315.714 336.382 315.317 336.94 314.831 337.413C314.488 337.173 314.182 336.884 313.922 336.555C313.73 336.267 313.571 335.959 313.448 335.636C313.639 335.465 313.811 335.273 313.983 335.091V335.071ZM314.81 337.463C314.629 337.655 314.437 337.837 314.245 338.009C313.572 337.854 312.918 337.623 312.297 337.322C312.581 336.837 312.898 336.372 313.246 335.929C313.374 336.288 313.582 336.614 313.852 336.883C314.123 337.152 314.45 337.357 314.81 337.484V337.463ZM316.224 335.879C316.645 336.119 316.993 336.467 317.233 336.888C317.163 337.276 317.072 337.66 316.961 338.039C316.16 338.19 315.338 338.19 314.538 338.039C314.958 337.826 315.326 337.525 315.617 337.155C315.909 336.786 316.116 336.357 316.224 335.899V335.879ZM315.941 333.143C313.801 334.241 312.161 336.115 311.358 338.382C311.237 336.429 311.338 334.468 311.661 332.537C313.11 332.544 314.551 332.755 315.941 333.163V333.143ZM317.102 333.496C317.329 334.441 317.38 335.42 317.253 336.383C316.893 335.901 316.418 335.515 315.872 335.261C315.326 335.008 314.725 334.894 314.124 334.93C314.761 334.274 315.48 333.704 316.264 333.234C316.547 333.345 316.829 333.415 317.102 333.516V333.496ZM321.412 335.515C321.281 336.03 321.13 336.525 320.968 337.05C320.302 337.766 319.676 338.433 319.04 339.069C318.236 339.314 317.412 339.487 316.577 339.583C317.134 338.712 317.51 337.737 317.683 336.718C317.857 335.698 317.824 334.654 317.587 333.648C318.918 334.147 320.2 334.772 321.412 335.515Z" fill="black"/>
<path d="M125.904 367.375C121.351 366.416 116.697 360.197 118.212 354.726C119.726 349.254 127.388 346.054 131.749 347.962C136.11 349.87 139.118 358.592 136.998 362.196C134.636 366.214 129.255 368.092 125.904 367.375Z" fill="#0F969C"/>
<path opacity="0.12" d="M133.586 346.922C133.512 349.344 133.173 351.751 132.577 354.1C130.386 351.707 125.985 350.597 122.805 351.192C123.048 349.769 123.368 348.361 123.764 346.973C123.775 346.945 123.774 346.913 123.761 346.886C123.749 346.858 123.726 346.837 123.698 346.826C123.67 346.816 123.639 346.816 123.611 346.829C123.584 346.841 123.563 346.864 123.552 346.892C121.674 350.98 120.725 357.532 122.946 361.752C120.941 361.317 119.021 360.557 117.263 359.5C117.182 359.5 117.101 359.571 117.172 359.622C123.067 363.882 132.153 363.66 138.795 361.429C138.977 361.368 138.876 361.075 138.694 361.116C135.632 361.886 132.493 362.309 129.336 362.378C132.617 358.471 134.182 351.818 133.95 346.912C133.97 346.68 133.596 346.7 133.586 346.922ZM124.844 362.065C127.681 361.073 130.128 359.202 131.83 356.724C131.155 358.712 130.222 360.603 129.054 362.347C127.646 362.37 126.239 362.285 124.844 362.095V362.065ZM122.623 358.481C124.998 359.133 127.517 359.03 129.831 358.188C128.276 359.765 126.455 361.053 124.45 361.994L123.37 361.802C123.02 360.731 122.77 359.629 122.623 358.511V358.481ZM122.552 357.794C122.815 357.249 123.088 356.734 123.38 356.24C124.003 356.763 124.743 357.129 125.538 357.304C126.332 357.48 127.158 357.461 127.943 357.249C127.808 357.648 127.649 358.039 127.469 358.42C125.848 358.585 124.214 358.548 122.603 358.309C122.573 358.168 122.573 357.996 122.552 357.825V357.794ZM125.096 353.867C125.794 354.026 126.471 354.263 127.115 354.574C126.825 355.182 126.432 355.735 125.954 356.21C125.612 355.973 125.306 355.687 125.046 355.362C124.846 355.075 124.687 354.762 124.571 354.433C124.794 354.281 124.955 354.09 125.096 353.867ZM125.924 356.27L125.359 356.805C124.687 356.647 124.033 356.417 123.411 356.119C123.703 355.636 124.024 355.171 124.37 354.726C124.494 355.094 124.702 355.428 124.977 355.703C125.252 355.978 125.586 356.186 125.954 356.31L125.924 356.27ZM127.337 354.675C127.756 354.918 128.104 355.266 128.347 355.685C128.286 356.078 128.195 356.466 128.074 356.846C127.273 356.992 126.453 356.992 125.652 356.846C126.077 356.639 126.452 356.341 126.749 355.973C127.045 355.605 127.257 355.175 127.368 354.715L127.337 354.675ZM127.055 351.939C124.917 353.038 123.281 354.912 122.482 357.179C122.361 355.228 122.463 353.271 122.785 351.344C124.252 351.343 125.711 351.558 127.115 351.98L127.055 351.939ZM128.226 352.293C128.444 353.242 128.492 354.223 128.367 355.19C128.009 354.705 127.535 354.317 126.988 354.061C126.442 353.806 125.84 353.69 125.238 353.726C125.88 353.079 126.599 352.513 127.378 352.04L128.226 352.293ZM132.526 354.312C132.395 354.837 132.244 355.321 132.092 355.846C132.092 355.846 132.092 355.846 132.042 355.846C131.386 356.563 130.75 357.229 130.114 357.865C129.309 358.104 128.484 358.273 127.65 358.37C128.207 357.5 128.583 356.527 128.756 355.509C128.93 354.491 128.897 353.449 128.66 352.444C130.018 352.943 131.323 353.576 132.557 354.332L132.526 354.312Z" fill="black"/>
<path d="M108.48 309.924C114.416 318.424 130.578 320.019 170.907 327.944C176.48 329.034 194.751 291.733 188.886 290.27C181.456 288.412 152.232 282.82 150.041 282.678C131.577 281.497 104.452 304.17 108.48 309.924Z" fill="#F7A9A0"/>
<path d="M180.82 288.422C180.82 288.422 197.911 290.996 206.461 295.135C217.919 300.667 225.531 310.166 228.479 314.315C234.636 323.027 243.5 348.335 236.645 352.161C230.457 355.624 222.704 329.296 222.704 329.296C222.704 329.296 235.04 354.836 226.813 357.633C218.585 360.429 211.317 329.367 211.317 329.367C211.317 329.367 223.431 355.886 214.467 357.431C207.713 358.602 199.546 330.821 199.546 330.821C199.546 330.821 209.773 353.696 202.878 355.19C195.256 356.896 186.12 331.658 186.12 331.658C167.949 332.516 158.945 325.49 153.13 319.736C151.727 318.363 180.82 288.422 180.82 288.422Z" fill="#F7A9A0"/>
<path d="M218.979 320.211C220.534 323.158 222.139 326.126 223.421 329.205C224.703 332.284 225.894 335.403 226.894 338.583C228.287 342.717 229.195 346.999 229.599 351.343C228.307 343.691 223.855 332.607 222.533 329.528C221.21 326.449 220.11 323.32 218.818 320.251C218.848 320.17 218.979 320.14 218.979 320.211Z" fill="#263238"/>
<path d="M207.804 324.663C209.631 328.519 211.59 332.274 213.245 336.201C214.901 340.128 216.112 343.974 217.485 347.992C217.596 348.295 217.394 348.255 217.273 347.942C215.739 343.985 214.012 340.451 212.438 336.504C210.863 332.557 209.409 328.57 207.713 324.703C207.683 324.643 207.784 324.592 207.804 324.663Z" fill="#263238"/>
<path d="M197.517 326.763C200.459 332.601 202.789 338.727 204.473 345.044C204.574 345.347 204.311 345.267 204.2 344.954C201.999 338.836 200.324 334.021 197.315 326.874C197.265 326.763 197.447 326.611 197.517 326.763Z" fill="#263238"/>
<path d="M216.587 301.636C218.579 302.931 220.438 304.419 222.139 306.078C223.866 307.715 225.459 309.487 226.904 311.378C227.641 312.317 228.297 313.306 228.983 314.285C229.67 315.264 230.265 316.304 230.78 317.314C231.921 319.402 232.847 321.601 233.546 323.875C232.951 322.866 232.537 321.745 231.88 320.746L231.033 319.201C230.74 318.697 230.417 318.192 230.114 317.707C228.87 315.716 227.522 313.792 226.076 311.943C224.663 310.086 223.138 308.299 221.563 306.573C220.766 305.704 219.958 304.857 219.121 304.029C218.283 303.201 217.465 302.434 216.587 301.636Z" fill="#263238"/>
<path d="M184.384 288.422L149.052 327.792C149.052 327.792 113.326 319.585 108.066 310.429C104.604 304.372 131.496 279.973 151.797 282.819L184.384 288.422Z" fill="#0F969C"/>
<path d="M134.273 290.451C134.275 290.631 134.223 290.808 134.124 290.959C134.025 291.11 133.883 291.228 133.716 291.298C133.55 291.368 133.366 291.387 133.189 291.352C133.012 291.318 132.849 291.231 132.722 291.103C132.594 290.976 132.507 290.813 132.472 290.636C132.438 290.458 132.457 290.275 132.527 290.108C132.597 289.942 132.715 289.8 132.866 289.701C133.017 289.602 133.194 289.55 133.374 289.552C133.612 289.552 133.841 289.647 134.009 289.815C134.178 289.984 134.273 290.212 134.273 290.451ZM147.911 289.552C147.733 289.552 147.559 289.605 147.412 289.704C147.264 289.802 147.149 289.943 147.081 290.107C147.013 290.271 146.995 290.452 147.03 290.626C147.064 290.8 147.15 290.96 147.275 291.086C147.401 291.212 147.561 291.297 147.736 291.332C147.91 291.367 148.09 291.349 148.255 291.281C148.419 291.213 148.559 291.098 148.658 290.95C148.757 290.802 148.809 290.628 148.809 290.451C148.809 290.212 148.715 289.984 148.546 289.815C148.378 289.647 148.149 289.552 147.911 289.552ZM162.447 289.552C162.27 289.554 162.098 289.609 161.951 289.709C161.805 289.809 161.691 289.95 161.625 290.114C161.558 290.278 161.542 290.459 161.578 290.632C161.613 290.806 161.7 290.965 161.826 291.09C161.952 291.214 162.112 291.299 162.286 291.333C162.46 291.366 162.64 291.348 162.804 291.28C162.967 291.212 163.107 291.096 163.205 290.949C163.304 290.801 163.356 290.628 163.356 290.451C163.356 290.332 163.332 290.214 163.287 290.105C163.241 289.995 163.174 289.895 163.089 289.812C163.005 289.728 162.905 289.662 162.794 289.618C162.684 289.573 162.566 289.551 162.447 289.552ZM176.994 289.552C176.817 289.552 176.643 289.605 176.495 289.704C176.347 289.802 176.232 289.943 176.164 290.107C176.096 290.271 176.078 290.452 176.113 290.626C176.148 290.8 176.233 290.96 176.359 291.086C176.485 291.212 176.645 291.297 176.819 291.332C176.993 291.367 177.174 291.349 177.338 291.281C177.502 291.213 177.643 291.098 177.741 290.95C177.84 290.802 177.893 290.628 177.893 290.451C177.893 290.212 177.798 289.984 177.63 289.815C177.461 289.647 177.233 289.552 176.994 289.552ZM118.827 309.005C118.65 309.007 118.477 309.062 118.331 309.162C118.185 309.261 118.071 309.402 118.004 309.567C117.938 309.731 117.922 309.911 117.957 310.085C117.993 310.259 118.08 310.418 118.206 310.542C118.332 310.667 118.492 310.752 118.666 310.786C118.84 310.819 119.02 310.801 119.184 310.733C119.347 310.664 119.487 310.549 119.585 310.402C119.683 310.254 119.736 310.081 119.736 309.904C119.736 309.785 119.712 309.667 119.667 309.557C119.621 309.448 119.554 309.348 119.469 309.265C119.385 309.181 119.284 309.115 119.174 309.071C119.064 309.026 118.946 309.004 118.827 309.005ZM133.374 309.005C133.196 309.005 133.023 309.058 132.875 309.157C132.727 309.255 132.612 309.396 132.544 309.56C132.476 309.724 132.458 309.905 132.493 310.079C132.528 310.253 132.613 310.413 132.739 310.539C132.864 310.665 133.025 310.75 133.199 310.785C133.373 310.82 133.554 310.802 133.718 310.734C133.882 310.666 134.022 310.551 134.121 310.403C134.22 310.255 134.273 310.081 134.273 309.904C134.273 309.665 134.178 309.437 134.009 309.268C133.841 309.1 133.612 309.005 133.374 309.005ZM147.911 309.005C147.733 309.005 147.559 309.058 147.412 309.157C147.264 309.255 147.149 309.396 147.081 309.56C147.013 309.724 146.995 309.905 147.03 310.079C147.064 310.253 147.15 310.413 147.275 310.539C147.401 310.665 147.561 310.75 147.736 310.785C147.91 310.82 148.09 310.802 148.255 310.734C148.419 310.666 148.559 310.551 148.658 310.403C148.757 310.255 148.809 310.081 148.809 309.904C148.809 309.665 148.715 309.437 148.546 309.268C148.378 309.1 148.149 309.005 147.911 309.005ZM162.447 309.005C162.27 309.007 162.098 309.062 161.951 309.162C161.805 309.261 161.691 309.402 161.625 309.567C161.558 309.731 161.542 309.911 161.578 310.085C161.613 310.259 161.7 310.418 161.826 310.542C161.952 310.667 162.112 310.752 162.286 310.786C162.46 310.819 162.64 310.801 162.804 310.733C162.967 310.664 163.107 310.549 163.205 310.402C163.304 310.254 163.356 310.081 163.356 309.904C163.356 309.785 163.332 309.667 163.287 309.557C163.241 309.448 163.174 309.348 163.089 309.265C163.005 309.181 162.905 309.115 162.794 309.071C162.684 309.026 162.566 309.004 162.447 309.005ZM126.106 299.688C125.926 299.688 125.75 299.741 125.6 299.841C125.45 299.942 125.334 300.084 125.265 300.251C125.197 300.417 125.18 300.601 125.215 300.777C125.251 300.954 125.339 301.116 125.467 301.242C125.595 301.369 125.758 301.455 125.935 301.488C126.112 301.522 126.295 301.503 126.46 301.433C126.626 301.362 126.768 301.244 126.866 301.094C126.965 300.943 127.016 300.766 127.014 300.586C127.014 300.467 126.991 300.35 126.945 300.24C126.899 300.13 126.832 300.031 126.748 299.947C126.663 299.864 126.563 299.798 126.453 299.753C126.343 299.709 126.225 299.686 126.106 299.688ZM140.653 299.688C140.472 299.686 140.295 299.737 140.144 299.837C139.993 299.936 139.875 300.077 139.805 300.244C139.735 300.41 139.716 300.594 139.751 300.771C139.786 300.948 139.872 301.111 140 301.239C140.128 301.366 140.291 301.453 140.468 301.488C140.645 301.522 140.828 301.504 140.995 301.434C141.161 301.364 141.303 301.245 141.402 301.095C141.501 300.944 141.553 300.767 141.551 300.586C141.551 300.467 141.527 300.35 141.482 300.24C141.436 300.13 141.369 300.031 141.284 299.947C141.2 299.864 141.1 299.798 140.989 299.753C140.879 299.709 140.761 299.686 140.642 299.688H140.653ZM155.189 299.688C155.009 299.688 154.833 299.741 154.683 299.841C154.534 299.942 154.417 300.084 154.349 300.251C154.28 300.417 154.263 300.601 154.299 300.777C154.335 300.954 154.422 301.116 154.55 301.242C154.679 301.369 154.841 301.455 155.018 301.488C155.195 301.522 155.378 301.503 155.544 301.433C155.71 301.362 155.851 301.244 155.95 301.094C156.048 300.943 156.1 300.766 156.098 300.586C156.098 300.466 156.074 300.348 156.028 300.237C155.981 300.127 155.913 300.027 155.828 299.944C155.742 299.86 155.641 299.794 155.529 299.75C155.418 299.706 155.299 299.685 155.179 299.688H155.189ZM169.736 299.688C169.555 299.686 169.378 299.737 169.228 299.837C169.077 299.936 168.959 300.077 168.889 300.244C168.819 300.41 168.8 300.594 168.834 300.771C168.869 300.948 168.956 301.111 169.084 301.239C169.211 301.366 169.374 301.453 169.551 301.488C169.728 301.522 169.912 301.504 170.078 301.434C170.245 301.364 170.387 301.245 170.486 301.095C170.585 300.944 170.636 300.767 170.634 300.586C170.634 300.467 170.611 300.35 170.565 300.24C170.519 300.13 170.452 300.031 170.368 299.947C170.283 299.864 170.183 299.798 170.073 299.753C169.963 299.709 169.845 299.686 169.726 299.688H169.736ZM126.106 319.141C125.926 319.141 125.75 319.194 125.6 319.294C125.45 319.395 125.334 319.537 125.265 319.704C125.197 319.87 125.18 320.054 125.215 320.23C125.251 320.407 125.339 320.568 125.467 320.695C125.595 320.822 125.758 320.907 125.935 320.941C126.112 320.975 126.295 320.956 126.46 320.886C126.626 320.815 126.768 320.697 126.866 320.546C126.965 320.396 127.016 320.219 127.014 320.039C127.014 319.92 126.991 319.802 126.945 319.693C126.899 319.583 126.832 319.484 126.748 319.4C126.663 319.317 126.563 319.251 126.453 319.206C126.343 319.161 126.225 319.139 126.106 319.141ZM140.653 319.141C140.472 319.139 140.295 319.19 140.144 319.289C139.993 319.388 139.875 319.53 139.805 319.697C139.735 319.863 139.716 320.047 139.751 320.224C139.786 320.401 139.872 320.564 140 320.691C140.128 320.819 140.291 320.906 140.468 320.941C140.645 320.975 140.828 320.956 140.995 320.886C141.161 320.816 141.303 320.698 141.402 320.547C141.501 320.397 141.553 320.219 141.551 320.039C141.551 319.92 141.527 319.802 141.482 319.693C141.436 319.583 141.369 319.484 141.284 319.4C141.2 319.317 141.1 319.251 140.989 319.206C140.879 319.161 140.761 319.139 140.642 319.141H140.653ZM155.199 319.141C154.958 319.141 154.727 319.236 154.557 319.407C154.387 319.577 154.291 319.808 154.291 320.049C154.291 320.168 154.314 320.286 154.36 320.395C154.406 320.505 154.473 320.604 154.557 320.688C154.642 320.772 154.742 320.837 154.852 320.882C154.963 320.927 155.081 320.949 155.199 320.948L156.088 319.938C156.063 319.717 155.958 319.512 155.792 319.363C155.626 319.214 155.412 319.132 155.189 319.13L155.199 319.141Z" fill="white"/>
<path d="M127.59 289.19C130.861 286.817 140.077 281.285 151.818 282.759C151.919 282.759 151.929 282.941 151.818 282.931C142.954 282.678 130.992 287.312 127.59 289.331C127.58 289.381 127.509 289.26 127.59 289.19Z" fill="#263238"/>
<path d="M139.401 321.17C143.055 316.637 146.942 312.306 150.849 307.986C154.755 303.665 158.652 299.324 162.67 295.095C164.931 292.702 167.192 290.299 169.544 288.028C169.605 287.968 169.716 288.028 169.666 288.129C166.021 292.652 162.135 297.013 158.268 301.353C154.402 305.694 150.465 310.015 146.508 314.295C144.267 316.708 141.985 319.08 139.633 321.362C139.512 321.473 139.3 321.301 139.401 321.17Z" fill="#263238"/>
<path d="M184.455 287.907C182.284 287.255 180.072 286.752 177.833 286.403C175.602 285.979 173.36 285.605 171.13 285.242C166.678 284.525 157.32 282.506 149.092 282.527C149.001 282.527 149.466 282.971 149.557 282.971C153.473 282.759 181.537 288.341 183.879 288.503C183.785 288.652 183.701 288.807 183.627 288.967C183.627 289.088 183.698 289.23 183.819 289.149C184.112 288.957 184.313 288.715 184.586 288.503C184.638 288.465 184.678 288.412 184.701 288.352C184.724 288.291 184.729 288.225 184.715 288.162C184.701 288.099 184.669 288.041 184.623 287.996C184.577 287.951 184.518 287.92 184.455 287.907Z" fill="#263238"/>
<path d="M213.124 213.548C246.881 242.995 273.431 279.377 271.675 288.473C268.495 305.412 246.235 306.472 242.823 302.808C229.155 287.998 214.729 259.309 199.102 227.298C185.141 198.689 202.01 203.867 213.124 213.548Z" fill="#0F969C"/>
<path d="M206.976 212.639C206.978 212.82 206.927 212.997 206.828 213.148C206.728 213.299 206.587 213.417 206.42 213.487C206.254 213.557 206.07 213.576 205.893 213.541C205.716 213.506 205.553 213.419 205.425 213.292C205.298 213.164 205.211 213.001 205.176 212.824C205.142 212.647 205.16 212.463 205.23 212.297C205.301 212.131 205.418 211.989 205.569 211.89C205.72 211.791 205.897 211.739 206.078 211.741C206.316 211.741 206.545 211.835 206.713 212.004C206.882 212.172 206.976 212.401 206.976 212.639ZM206.078 231.194C205.897 231.192 205.72 231.244 205.569 231.343C205.418 231.442 205.301 231.583 205.23 231.75C205.16 231.916 205.142 232.1 205.176 232.277C205.211 232.454 205.298 232.617 205.425 232.745C205.553 232.872 205.716 232.959 205.893 232.994C206.07 233.028 206.254 233.01 206.42 232.94C206.587 232.87 206.728 232.752 206.828 232.601C206.927 232.45 206.978 232.273 206.976 232.092C206.976 231.854 206.882 231.625 206.713 231.457C206.545 231.288 206.316 231.194 206.078 231.194ZM220.615 231.194C220.435 231.194 220.258 231.247 220.109 231.348C219.959 231.448 219.843 231.59 219.774 231.757C219.706 231.924 219.689 232.107 219.724 232.283C219.76 232.46 219.848 232.622 219.976 232.748C220.104 232.875 220.267 232.961 220.444 232.995C220.621 233.028 220.804 233.009 220.969 232.939C221.135 232.868 221.276 232.75 221.375 232.6C221.474 232.449 221.525 232.272 221.523 232.092C221.523 231.973 221.5 231.856 221.454 231.746C221.408 231.636 221.341 231.537 221.256 231.453C221.172 231.37 221.072 231.304 220.962 231.259C220.851 231.215 220.733 231.192 220.615 231.194ZM198.789 221.876C198.609 221.874 198.432 221.926 198.281 222.025C198.13 222.124 198.012 222.266 197.942 222.432C197.872 222.599 197.853 222.782 197.888 222.959C197.923 223.137 198.009 223.299 198.137 223.427C198.265 223.555 198.427 223.641 198.605 223.676C198.782 223.711 198.965 223.692 199.132 223.622C199.298 223.552 199.44 223.434 199.539 223.283C199.638 223.132 199.69 222.955 199.688 222.775C199.688 222.536 199.593 222.308 199.425 222.139C199.256 221.971 199.028 221.876 198.789 221.876ZM213.326 221.876C213.146 221.874 212.969 221.926 212.818 222.025C212.667 222.124 212.549 222.266 212.479 222.432C212.409 222.599 212.39 222.782 212.425 222.959C212.459 223.137 212.546 223.299 212.674 223.427C212.801 223.555 212.964 223.641 213.141 223.676C213.318 223.711 213.502 223.692 213.668 223.622C213.835 223.552 213.977 223.434 214.076 223.283C214.175 223.132 214.227 222.955 214.225 222.775C214.225 222.54 214.133 222.314 213.969 222.146C213.804 221.978 213.581 221.881 213.346 221.876H213.326ZM220.594 250.647C220.414 250.647 220.238 250.7 220.089 250.8C219.939 250.901 219.823 251.043 219.754 251.21C219.686 251.376 219.668 251.56 219.704 251.736C219.74 251.913 219.828 252.075 219.956 252.201C220.084 252.328 220.247 252.414 220.423 252.447C220.6 252.481 220.783 252.462 220.949 252.392C221.115 252.321 221.256 252.203 221.355 252.053C221.453 251.902 221.505 251.725 221.503 251.545C221.503 251.309 221.41 251.082 221.243 250.913C221.077 250.745 220.851 250.649 220.615 250.647H220.594ZM235.141 250.647C234.961 250.645 234.784 250.696 234.633 250.796C234.482 250.895 234.364 251.036 234.294 251.203C234.224 251.369 234.205 251.553 234.24 251.73C234.274 251.907 234.361 252.07 234.489 252.198C234.616 252.325 234.779 252.412 234.956 252.447C235.134 252.481 235.317 252.463 235.484 252.393C235.65 252.323 235.792 252.205 235.891 252.054C235.99 251.903 236.042 251.726 236.04 251.545C236.04 251.426 236.016 251.309 235.97 251.199C235.925 251.089 235.857 250.99 235.773 250.906C235.688 250.823 235.588 250.757 235.478 250.712C235.368 250.668 235.25 250.645 235.131 250.647H235.141ZM249.365 250.697C249.193 250.762 249.045 250.879 248.94 251.03C248.836 251.181 248.78 251.361 248.779 251.545C248.779 251.783 248.874 252.012 249.043 252.18C249.211 252.349 249.44 252.444 249.678 252.444C249.834 252.443 249.987 252.403 250.123 252.327C250.259 252.251 250.373 252.142 250.455 252.009L249.365 250.697ZM213.326 241.329C213.146 241.327 212.969 241.379 212.818 241.478C212.667 241.577 212.549 241.719 212.479 241.885C212.409 242.052 212.39 242.235 212.425 242.412C212.459 242.589 212.546 242.752 212.674 242.88C212.801 243.008 212.964 243.094 213.141 243.129C213.318 243.164 213.502 243.145 213.668 243.075C213.835 243.005 213.977 242.887 214.076 242.736C214.175 242.585 214.227 242.408 214.225 242.227C214.225 241.993 214.133 241.767 213.969 241.599C213.804 241.431 213.581 241.334 213.346 241.329H213.326ZM227.863 241.329C227.683 241.329 227.507 241.383 227.357 241.483C227.207 241.583 227.091 241.726 227.023 241.892C226.954 242.059 226.937 242.242 226.973 242.419C227.008 242.595 227.096 242.757 227.224 242.884C227.352 243.01 227.515 243.096 227.692 243.13C227.869 243.164 228.052 243.144 228.218 243.074C228.383 243.004 228.525 242.886 228.623 242.735C228.722 242.584 228.773 242.408 228.771 242.227C228.771 241.991 228.678 241.764 228.512 241.596C228.345 241.427 228.12 241.332 227.883 241.329H227.863ZM241.642 241.753C241.557 241.896 241.511 242.06 241.511 242.227C241.51 242.346 241.532 242.464 241.577 242.574C241.621 242.685 241.687 242.785 241.771 242.869C241.854 242.954 241.954 243.021 242.063 243.067C242.173 243.112 242.291 243.136 242.41 243.136C242.539 243.138 242.666 243.11 242.783 243.055C242.43 242.611 242.046 242.187 241.663 241.753H241.642ZM220.998 270.16C221.19 270.493 221.362 270.826 221.543 271.17C221.548 271.119 221.548 271.069 221.543 271.018C221.551 270.837 221.503 270.657 221.406 270.503C221.308 270.35 221.166 270.23 220.998 270.16ZM235.131 270.079C234.951 270.077 234.774 270.129 234.623 270.228C234.472 270.327 234.354 270.469 234.284 270.636C234.214 270.802 234.195 270.985 234.23 271.163C234.264 271.34 234.351 271.503 234.479 271.63C234.606 271.758 234.769 271.845 234.946 271.879C235.124 271.914 235.307 271.895 235.473 271.825C235.64 271.755 235.782 271.637 235.881 271.486C235.98 271.335 236.032 271.158 236.03 270.978C236.03 270.74 235.935 270.511 235.766 270.342C235.598 270.174 235.369 270.079 235.131 270.079ZM249.668 270.079C249.487 270.077 249.31 270.129 249.159 270.228C249.008 270.327 248.89 270.469 248.82 270.636C248.75 270.802 248.732 270.985 248.766 271.163C248.801 271.34 248.888 271.503 249.015 271.63C249.143 271.758 249.306 271.845 249.483 271.879C249.66 271.914 249.844 271.895 250.01 271.825C250.177 271.755 250.318 271.637 250.417 271.486C250.516 271.335 250.568 271.158 250.566 270.978C250.566 270.745 250.476 270.521 250.314 270.353C250.152 270.185 249.931 270.087 249.698 270.079H249.668ZM263.861 270.14C263.674 270.225 263.52 270.371 263.426 270.554C263.333 270.737 263.304 270.947 263.345 271.149C263.386 271.351 263.494 271.533 263.652 271.665C263.811 271.797 264.009 271.872 264.215 271.876C264.441 271.877 264.66 271.794 264.83 271.644C264.548 271.17 264.225 270.665 263.892 270.16L263.861 270.14ZM227.853 260.762C227.673 260.762 227.497 260.815 227.347 260.916C227.197 261.016 227.081 261.158 227.012 261.325C226.944 261.492 226.927 261.675 226.962 261.851C226.998 262.028 227.086 262.19 227.214 262.316C227.342 262.443 227.505 262.529 227.682 262.563C227.859 262.596 228.042 262.577 228.207 262.507C228.373 262.436 228.514 262.318 228.613 262.168C228.712 262.017 228.763 261.84 228.761 261.66C228.756 261.429 228.662 261.208 228.498 261.045C228.335 260.881 228.114 260.787 227.883 260.782L227.853 260.762ZM242.4 260.762C242.219 260.76 242.042 260.812 241.891 260.911C241.74 261.01 241.622 261.151 241.552 261.318C241.482 261.484 241.463 261.668 241.498 261.845C241.533 262.022 241.619 262.185 241.747 262.313C241.875 262.44 242.037 262.527 242.215 262.562C242.392 262.597 242.575 262.578 242.742 262.508C242.908 262.438 243.05 262.32 243.149 262.169C243.248 262.018 243.3 261.841 243.298 261.66C243.293 261.431 243.2 261.212 243.039 261.048C242.877 260.885 242.659 260.79 242.43 260.782L242.4 260.762ZM257.835 261.478L257.411 260.923C257.273 260.842 257.116 260.8 256.956 260.802C256.733 260.826 256.527 260.931 256.377 261.098C256.227 261.265 256.143 261.481 256.143 261.706C256.143 261.93 256.227 262.146 256.377 262.313C256.527 262.48 256.733 262.585 256.956 262.609C257.195 262.607 257.423 262.511 257.592 262.344C257.762 262.176 257.86 261.949 257.865 261.711C257.871 261.64 257.871 261.569 257.865 261.499L257.835 261.478ZM235.131 289.552C234.953 289.552 234.78 289.605 234.632 289.704C234.484 289.803 234.369 289.943 234.301 290.107C234.233 290.271 234.215 290.452 234.25 290.626C234.285 290.8 234.37 290.961 234.496 291.086C234.622 291.212 234.782 291.297 234.956 291.332C235.13 291.367 235.311 291.349 235.475 291.281C235.639 291.213 235.779 291.098 235.878 290.95C235.977 290.802 236.03 290.629 236.03 290.451C236.03 290.213 235.935 289.984 235.766 289.816C235.598 289.647 235.369 289.552 235.131 289.552ZM249.668 289.552C249.49 289.552 249.316 289.605 249.169 289.704C249.021 289.803 248.906 289.943 248.838 290.107C248.77 290.271 248.752 290.452 248.787 290.626C248.821 290.8 248.907 290.961 249.033 291.086C249.158 291.212 249.318 291.297 249.493 291.332C249.667 291.367 249.848 291.349 250.012 291.281C250.176 291.213 250.316 291.098 250.415 290.95C250.514 290.802 250.566 290.629 250.566 290.451C250.566 290.218 250.476 289.994 250.314 289.826C250.152 289.658 249.931 289.56 249.698 289.552H249.668ZM264.215 289.552C264.037 289.552 263.863 289.605 263.715 289.704C263.568 289.803 263.453 289.943 263.385 290.107C263.317 290.271 263.299 290.452 263.333 290.626C263.368 290.8 263.454 290.961 263.579 291.086C263.705 291.212 263.865 291.297 264.039 291.332C264.214 291.367 264.394 291.349 264.558 291.281C264.723 291.213 264.863 291.098 264.962 290.95C265.06 290.802 265.113 290.629 265.113 290.451C265.113 290.218 265.023 289.994 264.861 289.826C264.699 289.658 264.478 289.56 264.245 289.552H264.215ZM227.873 280.235C227.693 280.235 227.517 280.288 227.367 280.389C227.217 280.489 227.101 280.631 227.033 280.798C226.964 280.965 226.947 281.148 226.983 281.324C227.019 281.501 227.106 281.663 227.234 281.789C227.362 281.916 227.525 282.002 227.702 282.036C227.879 282.07 228.062 282.05 228.228 281.98C228.393 281.91 228.535 281.791 228.633 281.641C228.732 281.49 228.783 281.313 228.781 281.133C228.781 280.895 228.687 280.666 228.518 280.498C228.35 280.329 228.121 280.235 227.883 280.235H227.873ZM242.42 280.235C242.239 280.233 242.062 280.285 241.911 280.384C241.76 280.483 241.642 280.625 241.572 280.791C241.502 280.957 241.483 281.141 241.518 281.318C241.553 281.495 241.64 281.658 241.767 281.786C241.895 281.913 242.058 282 242.235 282.035C242.412 282.07 242.596 282.051 242.762 281.981C242.928 281.911 243.07 281.793 243.169 281.642C243.268 281.491 243.32 281.314 243.318 281.133C243.318 280.897 243.225 280.67 243.059 280.502C242.892 280.333 242.666 280.237 242.43 280.235H242.42ZM256.956 280.235C256.776 280.235 256.6 280.288 256.451 280.389C256.301 280.489 256.185 280.631 256.116 280.798C256.048 280.965 256.03 281.148 256.066 281.324C256.102 281.501 256.19 281.663 256.318 281.789C256.446 281.916 256.609 282.002 256.785 282.036C256.962 282.07 257.145 282.05 257.311 281.98C257.477 281.91 257.618 281.791 257.717 281.641C257.815 281.49 257.867 281.313 257.865 281.133C257.865 280.895 257.77 280.666 257.602 280.498C257.433 280.329 257.205 280.235 256.966 280.235H256.956ZM242.42 299.688C242.239 299.686 242.062 299.738 241.911 299.837C241.76 299.936 241.642 300.078 241.572 300.244C241.502 300.41 241.483 300.594 241.518 300.771C241.553 300.948 241.64 301.111 241.767 301.239C241.895 301.366 242.058 301.453 242.235 301.488C242.412 301.523 242.596 301.504 242.762 301.434C242.928 301.364 243.07 301.246 243.169 301.095C243.268 300.944 243.32 300.767 243.318 300.586C243.318 300.35 243.225 300.123 243.059 299.954C242.892 299.786 242.666 299.69 242.43 299.688H242.42ZM256.956 299.688C256.776 299.688 256.6 299.741 256.451 299.842C256.301 299.942 256.185 300.084 256.116 300.251C256.048 300.418 256.03 300.601 256.066 300.777C256.102 300.954 256.19 301.116 256.318 301.242C256.446 301.369 256.609 301.455 256.785 301.489C256.962 301.523 257.145 301.503 257.311 301.433C257.477 301.362 257.618 301.244 257.717 301.094C257.815 300.943 257.867 300.766 257.865 300.586C257.865 300.348 257.77 300.119 257.602 299.951C257.433 299.782 257.205 299.688 256.966 299.688H256.956Z" fill="white"/>
<path d="M237.251 296.195C234.778 292.359 232.446 288.402 230.084 284.485C227.721 280.568 225.379 276.631 223.078 272.674C218.535 264.851 214.315 256.855 210.247 248.779C207.946 244.206 205.603 239.694 203.413 235.03C203.342 234.879 203.1 235.03 203.15 235.141C205.27 240.525 207.552 245.822 209.995 251.031L209.894 250.899C209.349 250.162 208.804 249.425 208.269 248.678C207.209 247.205 206.25 245.7 205.24 244.156C205.169 244.035 204.978 244.156 205.048 244.277C206.14 246.378 207.375 248.402 208.743 250.334C209.412 251.237 210.133 252.1 210.903 252.918L210.974 252.979C212.095 255.301 213.235 257.612 214.437 259.904C218.627 268.044 223.222 275.968 228.206 283.647C229.619 285.797 231.043 287.938 232.527 290.047C234.011 292.157 235.555 294.196 237.13 296.276C237.15 296.407 237.332 296.326 237.251 296.195Z" fill="#263238"/>
<path d="M248.417 299.526C242.016 290.35 245.227 272.098 252.293 228.286C253.302 222.229 299.275 221.755 298.568 228.286C297.68 236.504 289.483 268.979 287.353 273.713C276.884 297.134 252.747 305.755 248.417 299.526Z" fill="#F7A9A0"/>
<path d="M297.073 233.94C298.981 229.034 307.754 201.838 308.178 194.943C308.602 188.048 308.45 168.111 303.201 167.242C297.951 166.374 297.538 172.209 297.538 172.209C297.538 172.209 296.134 163.8 290.774 163.396C285.413 162.993 285.06 172.108 285.06 172.108C285.06 172.108 282.991 163.578 277.61 163.568C272.23 163.558 273.491 172.764 273.491 172.764C273.491 172.764 271.957 164.88 267.525 166.707C262.195 168.928 266.657 183.152 265.597 190.723C265.355 192.45 258.248 225.248 258.248 225.248L297.073 233.94Z" fill="#F7A9A0"/>
<path d="M273.35 171.977C276.611 182.445 276.227 187.584 273.441 198.002C273.391 198.214 273.684 198.335 273.754 198.133C277.409 188.169 278.802 181.789 273.855 171.795C273.613 171.301 273.199 171.482 273.35 171.977Z" fill="#263238"/>
<path d="M284.808 171.281C287.241 182.446 286.878 188.028 284.808 199.163C284.808 199.314 285.051 199.385 285.091 199.224C288.12 188.483 289.341 182.062 285.444 171.25C285.212 170.756 284.697 170.776 284.808 171.281Z" fill="#263238"/>
<path d="M297.437 172.764C299.012 183.748 298.871 189.926 295.418 200.424C295.398 200.475 295.399 200.532 295.421 200.582C295.443 200.632 295.483 200.672 295.534 200.692C295.585 200.712 295.642 200.711 295.692 200.689C295.742 200.667 295.782 200.627 295.802 200.576C300.355 190.168 300.587 182.516 297.76 172.754C297.579 172.088 297.336 172.078 297.437 172.764Z" fill="#263238"/>
<path d="M251.626 233.829C251.626 233.829 247.982 220.594 247.669 214.416C247.356 208.238 254.645 184.828 259.783 186.151C266.435 187.816 264.891 202.171 263.215 209.096C263.215 209.096 278.6 212.932 279.72 223.471C280.841 234.011 251.626 233.829 251.626 233.829Z" fill="#F7A9A0"/>
<path d="M261.479 187.17C266.446 193.055 263.66 202.009 262.489 208.854C262.467 208.954 262.469 209.058 262.496 209.157C262.522 209.255 262.573 209.346 262.642 209.422C262.711 209.497 262.798 209.555 262.894 209.589C262.991 209.624 263.094 209.635 263.195 209.621C269.535 211.64 277.894 216.375 279.953 223.088C279.966 223.124 279.992 223.154 280.025 223.172C280.059 223.191 280.098 223.197 280.135 223.19C280.173 223.183 280.207 223.163 280.23 223.133C280.254 223.103 280.267 223.065 280.266 223.027C279.034 215.516 271.18 210.207 264.114 208.43C265.376 201.424 267.779 192.278 261.479 187.119C261.489 187.089 261.439 187.13 261.479 187.17Z" fill="#263238"/>
<path d="M299.294 243.126L245.943 258.269C245.943 258.269 235.302 293.238 242.066 302.01C249.304 311.388 282.89 296.852 289.573 276.42L299.294 243.126Z" fill="#0F969C"/>
<path d="M279.68 251.545C279.68 251.723 279.627 251.897 279.528 252.045C279.43 252.192 279.289 252.308 279.125 252.376C278.961 252.444 278.78 252.461 278.606 252.427C278.432 252.392 278.272 252.306 278.146 252.181C278.021 252.055 277.935 251.895 277.9 251.721C277.866 251.546 277.883 251.366 277.951 251.202C278.019 251.037 278.135 250.897 278.282 250.798C278.43 250.7 278.604 250.647 278.781 250.647C279.02 250.647 279.248 250.742 279.417 250.91C279.585 251.079 279.68 251.307 279.68 251.545ZM293.318 250.647C293.138 250.647 292.962 250.701 292.812 250.801C292.663 250.901 292.546 251.044 292.478 251.21C292.409 251.377 292.392 251.56 292.428 251.737C292.464 251.913 292.551 252.075 292.679 252.202C292.807 252.328 292.97 252.414 293.147 252.448C293.324 252.482 293.507 252.462 293.673 252.392C293.839 252.322 293.98 252.204 294.079 252.053C294.177 251.902 294.229 251.726 294.227 251.545C294.227 251.427 294.203 251.309 294.157 251.199C294.112 251.09 294.044 250.99 293.96 250.907C293.875 250.823 293.775 250.757 293.665 250.712C293.555 250.668 293.437 250.646 293.318 250.647ZM249.698 270.08C249.517 270.078 249.34 270.13 249.189 270.229C249.039 270.328 248.921 270.47 248.85 270.636C248.78 270.802 248.762 270.986 248.796 271.163C248.831 271.34 248.918 271.503 249.046 271.631C249.173 271.758 249.336 271.845 249.513 271.88C249.69 271.915 249.874 271.896 250.04 271.826C250.207 271.756 250.348 271.638 250.448 271.487C250.547 271.336 250.598 271.159 250.596 270.978C250.596 270.74 250.502 270.511 250.333 270.343C250.165 270.174 249.936 270.08 249.698 270.08ZM264.245 270.08C264.064 270.078 263.887 270.13 263.736 270.229C263.585 270.328 263.467 270.47 263.397 270.636C263.327 270.802 263.308 270.986 263.343 271.163C263.378 271.34 263.465 271.503 263.592 271.631C263.72 271.758 263.883 271.845 264.06 271.88C264.237 271.915 264.421 271.896 264.587 271.826C264.753 271.756 264.895 271.638 264.994 271.487C265.093 271.336 265.145 271.159 265.143 270.978C265.143 270.74 265.049 270.511 264.88 270.343C264.712 270.174 264.483 270.08 264.245 270.08ZM278.781 270.08C278.601 270.078 278.424 270.13 278.273 270.229C278.122 270.328 278.004 270.47 277.934 270.636C277.864 270.802 277.845 270.986 277.88 271.163C277.915 271.34 278.001 271.503 278.129 271.631C278.257 271.758 278.419 271.845 278.597 271.88C278.774 271.915 278.957 271.896 279.124 271.826C279.29 271.756 279.432 271.638 279.531 271.487C279.63 271.336 279.682 271.159 279.68 270.978C279.68 270.74 279.585 270.511 279.417 270.343C279.248 270.174 279.02 270.08 278.781 270.08ZM256.966 260.762C256.786 260.762 256.61 260.816 256.461 260.916C256.311 261.016 256.194 261.159 256.126 261.325C256.058 261.492 256.04 261.675 256.076 261.852C256.112 262.028 256.199 262.19 256.328 262.317C256.456 262.443 256.618 262.529 256.795 262.563C256.972 262.597 257.155 262.577 257.321 262.507C257.487 262.437 257.628 262.319 257.727 262.168C257.825 262.017 257.877 261.841 257.875 261.661C257.87 261.424 257.771 261.199 257.601 261.035C257.431 260.87 257.203 260.78 256.966 260.782V260.762ZM271.513 260.762C271.333 260.76 271.156 260.812 271.005 260.911C270.854 261.01 270.736 261.152 270.666 261.318C270.596 261.485 270.577 261.668 270.612 261.845C270.646 262.023 270.733 262.185 270.861 262.313C270.988 262.441 271.151 262.527 271.328 262.562C271.505 262.597 271.689 262.578 271.855 262.508C272.022 262.438 272.164 262.32 272.263 262.169C272.362 262.018 272.414 261.841 272.412 261.661C272.409 261.541 272.382 261.423 272.334 261.313C272.285 261.204 272.215 261.106 272.127 261.024C272.04 260.942 271.937 260.878 271.824 260.837C271.712 260.796 271.592 260.777 271.473 260.782L271.513 260.762ZM286.05 260.762C285.87 260.762 285.694 260.816 285.544 260.916C285.394 261.016 285.278 261.159 285.21 261.325C285.141 261.492 285.124 261.675 285.16 261.852C285.195 262.028 285.283 262.19 285.411 262.317C285.539 262.443 285.702 262.529 285.879 262.563C286.056 262.597 286.239 262.577 286.405 262.507C286.57 262.437 286.712 262.319 286.81 262.168C286.909 262.017 286.96 261.841 286.958 261.661C286.953 261.424 286.855 261.199 286.685 261.035C286.514 260.87 286.286 260.78 286.05 260.782V260.762ZM249.708 289.533C249.53 289.533 249.357 289.585 249.209 289.684C249.061 289.783 248.946 289.923 248.878 290.087C248.81 290.251 248.792 290.432 248.827 290.606C248.862 290.781 248.947 290.941 249.073 291.066C249.198 291.192 249.359 291.278 249.533 291.312C249.707 291.347 249.888 291.329 250.052 291.261C250.216 291.193 250.356 291.078 250.455 290.93C250.554 290.783 250.607 290.609 250.607 290.431C250.601 290.195 250.503 289.97 250.333 289.805C250.163 289.641 249.935 289.55 249.698 289.553L249.708 289.533ZM264.255 289.533C264.077 289.533 263.903 289.585 263.756 289.684C263.608 289.783 263.493 289.923 263.425 290.087C263.357 290.251 263.339 290.432 263.374 290.606C263.408 290.781 263.494 290.941 263.62 291.066C263.745 291.192 263.905 291.278 264.08 291.312C264.254 291.347 264.435 291.329 264.599 291.261C264.763 291.193 264.903 291.078 265.002 290.93C265.101 290.783 265.153 290.609 265.153 290.431C265.148 290.195 265.05 289.97 264.88 289.805C264.709 289.641 264.481 289.55 264.245 289.553L264.255 289.533ZM278.792 289.533C278.614 289.533 278.44 289.585 278.292 289.684C278.145 289.783 278.029 289.923 277.961 290.087C277.893 290.251 277.876 290.432 277.91 290.606C277.945 290.781 278.031 290.941 278.156 291.066C278.282 291.192 278.442 291.278 278.616 291.312C278.791 291.347 278.971 291.329 279.135 291.261C279.3 291.193 279.44 291.078 279.539 290.93C279.637 290.783 279.69 290.609 279.69 290.431C279.685 290.195 279.586 289.97 279.416 289.805C279.246 289.641 279.018 289.55 278.781 289.553L278.792 289.533ZM242.45 280.215C242.269 280.213 242.092 280.265 241.941 280.364C241.79 280.463 241.672 280.605 241.602 280.771C241.532 280.938 241.513 281.121 241.548 281.298C241.583 281.476 241.67 281.638 241.797 281.766C241.925 281.894 242.088 281.98 242.265 282.015C242.442 282.05 242.626 282.031 242.792 281.961C242.959 281.891 243.1 281.773 243.199 281.622C243.298 281.471 243.35 281.294 243.348 281.114C243.346 280.996 243.32 280.879 243.272 280.771C243.225 280.663 243.156 280.566 243.071 280.484C242.986 280.402 242.885 280.339 242.775 280.296C242.665 280.253 242.548 280.233 242.43 280.235L242.45 280.215ZM256.987 280.215C256.806 280.215 256.63 280.269 256.481 280.369C256.331 280.469 256.215 280.612 256.146 280.778C256.078 280.945 256.06 281.128 256.096 281.305C256.132 281.481 256.22 281.643 256.348 281.77C256.476 281.896 256.639 281.982 256.816 282.016C256.992 282.05 257.175 282.03 257.341 281.96C257.507 281.89 257.648 281.772 257.747 281.621C257.845 281.47 257.897 281.294 257.895 281.114C257.892 280.995 257.866 280.877 257.818 280.769C257.77 280.66 257.701 280.562 257.614 280.48C257.528 280.399 257.426 280.335 257.315 280.293C257.204 280.251 257.085 280.231 256.966 280.235L256.987 280.215ZM271.533 280.215C271.353 280.213 271.176 280.265 271.025 280.364C270.874 280.463 270.756 280.605 270.686 280.771C270.616 280.938 270.597 281.121 270.632 281.298C270.666 281.476 270.753 281.638 270.881 281.766C271.009 281.894 271.171 281.98 271.348 282.015C271.526 282.05 271.709 282.031 271.876 281.961C272.042 281.891 272.184 281.773 272.283 281.622C272.382 281.471 272.434 281.294 272.432 281.114C272.429 280.992 272.402 280.872 272.352 280.761C272.302 280.651 272.23 280.551 272.14 280.469C272.051 280.387 271.945 280.324 271.83 280.284C271.716 280.244 271.594 280.227 271.473 280.235L271.533 280.215ZM286.07 280.215C285.89 280.215 285.714 280.269 285.564 280.369C285.415 280.469 285.298 280.612 285.23 280.778C285.161 280.945 285.144 281.128 285.18 281.305C285.216 281.481 285.303 281.643 285.431 281.77C285.559 281.896 285.722 281.982 285.899 282.016C286.076 282.05 286.259 282.03 286.425 281.96C286.591 281.89 286.732 281.772 286.83 281.621C286.929 281.47 286.981 281.294 286.979 281.114C286.976 280.995 286.95 280.877 286.902 280.769C286.853 280.66 286.784 280.562 286.698 280.48C286.611 280.399 286.51 280.335 286.398 280.293C286.287 280.251 286.169 280.231 286.05 280.235L286.07 280.215ZM242.45 299.668C242.269 299.666 242.092 299.718 241.941 299.817C241.79 299.916 241.672 300.058 241.602 300.224C241.532 300.391 241.513 300.574 241.548 300.751C241.583 300.928 241.67 301.091 241.797 301.219C241.925 301.347 242.088 301.433 242.265 301.468C242.442 301.503 242.626 301.484 242.792 301.414C242.959 301.344 243.1 301.226 243.199 301.075C243.298 300.924 243.35 300.747 243.348 300.566C243.346 300.448 243.32 300.332 243.272 300.224C243.225 300.116 243.156 300.019 243.071 299.937C242.986 299.855 242.885 299.791 242.775 299.749C242.665 299.706 242.548 299.685 242.43 299.688L242.45 299.668ZM256.987 299.668C256.806 299.668 256.63 299.722 256.481 299.822C256.331 299.922 256.215 300.065 256.146 300.231C256.078 300.398 256.06 300.581 256.096 300.758C256.132 300.934 256.22 301.096 256.348 301.223C256.476 301.349 256.639 301.435 256.816 301.469C256.992 301.503 257.175 301.483 257.341 301.413C257.507 301.343 257.648 301.225 257.747 301.074C257.845 300.923 257.897 300.747 257.895 300.566C257.892 300.448 257.866 300.33 257.818 300.222C257.77 300.113 257.701 300.015 257.614 299.933C257.528 299.852 257.426 299.788 257.315 299.746C257.204 299.704 257.085 299.684 256.966 299.688L256.987 299.668Z" fill="white"/>
<path d="M247.689 270.393C253.645 269.04 259.52 267.364 265.396 265.688C271.271 264.013 277.156 262.337 282.991 260.51C286.282 259.5 289.583 258.491 292.844 257.31C292.935 257.31 292.904 257.128 292.844 257.148C286.898 258.491 281.002 260.177 275.137 261.782C269.272 263.387 263.367 265.133 257.512 266.89C254.211 267.899 250.92 268.909 247.659 270.09C247.467 270.15 247.518 270.433 247.689 270.393Z" fill="#263238"/>
<path d="M247.841 257.683C247.013 257.764 246.185 257.935 245.367 258.097C245.305 258.115 245.248 258.148 245.202 258.194C245.156 258.24 245.123 258.297 245.105 258.359C244.196 261.469 243.55 264.669 242.904 267.839C242.258 271.008 241.703 274.097 241.188 277.247C240.905 278.933 240.663 280.639 240.471 282.295C239.441 284.354 238.814 286.592 238.624 288.887C238.624 288.913 238.635 288.939 238.654 288.958C238.673 288.977 238.698 288.987 238.725 288.987C238.752 288.987 238.777 288.977 238.796 288.958C238.815 288.939 238.826 288.913 238.826 288.887C239.079 286.85 239.605 284.857 240.391 282.961C239.881 287.117 239.993 291.325 240.724 295.448C239.714 289.29 241.229 282.87 242.238 276.813C242.743 273.785 243.318 270.756 243.914 267.728C244.509 264.699 245.206 261.721 245.761 258.703C246.468 258.43 247.185 258.168 247.861 257.845C247.872 257.834 247.881 257.82 247.887 257.805C247.892 257.79 247.894 257.774 247.892 257.759C247.89 257.743 247.884 257.728 247.875 257.715C247.866 257.702 247.855 257.691 247.841 257.683Z" fill="#263238"/>
<path d="M193.742 205.674C193.267 207.39 184.565 218.343 176.651 217.677C174.077 217.455 174.632 203.332 174.632 203.332L174.44 202.323L171.715 187.594L189.27 177.206L191.804 175.833C191.804 175.833 192.288 179.871 192.813 185.01C192.813 185.242 192.863 185.474 192.884 185.727C192.904 185.979 192.964 186.292 192.985 186.554C193.086 187.311 193.166 188.089 193.247 188.866C193.308 189.452 193.358 190.027 193.399 190.643C193.439 191.259 193.499 191.874 193.55 192.49C193.912 196.875 193.976 201.28 193.742 205.674Z" fill="#F7A9A0"/>
<path d="M192.833 184.979C191.203 189.027 188.712 192.671 185.532 195.658C182.352 198.646 178.561 200.907 174.42 202.282L171.694 187.554L189.27 177.206L191.803 175.833C191.803 175.833 192.288 179.892 192.833 184.979Z" fill="#263238"/>
<path d="M153.17 163.72C150.455 189.876 165.819 194.459 171.462 195.014C176.581 195.539 194.085 196.68 199.486 170.938C204.887 145.195 193.58 135.676 181.931 133.849C170.281 132.022 155.886 137.564 153.17 163.72Z" fill="#F7A9A0"/>
<path d="M161.983 157.642C162.585 157.602 163.185 157.531 163.78 157.43C164.425 157.443 165.056 157.245 165.577 156.865C165.72 156.714 165.809 156.52 165.829 156.313C165.849 156.107 165.8 155.899 165.688 155.724C165.413 155.417 165.062 155.189 164.67 155.061C164.278 154.933 163.86 154.911 163.457 154.997C162.61 155.044 161.811 155.403 161.216 156.007C161.099 156.154 161.026 156.33 161.005 156.517C160.983 156.703 161.014 156.892 161.094 157.062C161.173 157.231 161.299 157.376 161.456 157.478C161.613 157.581 161.795 157.637 161.983 157.642Z" fill="#263238"/>
<path d="M180.74 157.501C180.148 157.367 179.565 157.198 178.993 156.996C178.355 156.903 177.766 156.602 177.318 156.138C177.204 155.967 177.151 155.764 177.165 155.559C177.18 155.355 177.262 155.161 177.398 155.008C177.717 154.744 178.1 154.571 178.508 154.505C178.917 154.439 179.335 154.484 179.72 154.634C180.539 154.822 181.259 155.308 181.739 155.997C181.832 156.159 181.879 156.345 181.872 156.532C181.866 156.72 181.808 156.902 181.704 157.058C181.601 157.214 181.455 157.338 181.285 157.416C181.115 157.495 180.926 157.524 180.74 157.501Z" fill="#263238"/>
<path d="M176.066 165.355C176.066 165.294 176.197 165.456 176.187 165.526C175.955 167.303 175.995 169.383 177.55 170.13C177.55 170.13 177.55 170.241 177.55 170.23C175.571 169.756 175.571 167 176.066 165.355Z" fill="#263238"/>
<path d="M177.842 163.649C180.729 163.719 180.386 169.484 177.711 169.433C175.036 169.383 175.419 163.598 177.842 163.649Z" fill="#263238"/>
<path d="M178.953 164.023C179.437 164.376 179.902 164.982 180.497 165.083C181.093 165.184 181.769 164.618 182.264 164.073C182.315 164.073 182.355 164.073 182.355 164.144C182.304 165.254 181.82 166.365 180.619 166.456C179.417 166.546 178.812 165.527 178.6 164.437C178.6 164.174 178.761 163.881 178.953 164.023Z" fill="#263238"/>
<path d="M165.173 164.083C165.173 164.012 165.022 164.153 165.022 164.224C164.961 166.021 164.588 168.06 162.932 168.545C162.872 168.545 162.872 168.646 162.932 168.646C164.931 168.454 165.395 165.748 165.173 164.083Z" fill="#263238"/>
<path d="M163.699 162.064C160.842 161.65 160.227 167.404 162.871 167.788C165.516 168.172 166.102 162.418 163.699 162.064Z" fill="#263238"/>
<path d="M162.447 162.316C161.953 162.569 161.438 163.073 160.903 163.053C160.368 163.033 159.893 162.357 159.53 161.721C159.53 161.65 159.449 161.721 159.439 161.771C159.288 162.861 159.53 164.053 160.56 164.376C161.589 164.699 162.316 163.8 162.69 162.74C162.781 162.538 162.659 162.215 162.447 162.316Z" fill="#263238"/>
<path d="M173.239 179.286C172.805 179.7 172.371 180.295 171.715 180.295C171.048 180.279 170.394 180.117 169.797 179.821C169.785 179.818 169.772 179.819 169.761 179.823C169.749 179.827 169.739 179.834 169.73 179.843C169.722 179.852 169.717 179.863 169.714 179.875C169.712 179.887 169.712 179.9 169.716 179.912C169.965 180.27 170.307 180.554 170.706 180.732C171.104 180.91 171.544 180.975 171.977 180.921C172.345 180.833 172.678 180.637 172.933 180.358C173.189 180.079 173.355 179.73 173.411 179.356C173.441 179.225 173.3 179.225 173.239 179.286Z" fill="#263238"/>
<path d="M166.223 172.3C166.223 172.3 165.668 174.945 165.577 176.207C165.577 176.318 165.87 176.398 166.294 176.459C166.294 176.459 166.294 176.459 166.344 176.459C167.411 176.734 168.532 176.708 169.585 176.386C170.638 176.063 171.581 175.456 172.31 174.632C172.411 174.521 172.26 174.379 172.139 174.45C170.456 175.431 168.502 175.845 166.566 175.631C166.496 175.278 167.667 171.139 167.475 171.109C166.49 171.123 165.512 171.273 164.568 171.553C165.577 166.021 167.445 160.681 168.353 155.159C168.367 155.117 168.363 155.072 168.343 155.033C168.323 154.994 168.289 154.965 168.247 154.952C168.206 154.938 168.161 154.942 168.122 154.962C168.083 154.982 168.054 155.016 168.04 155.058C165.668 160.499 164.386 166.849 163.205 172.542C163.043 173.249 165.708 172.482 166.223 172.3Z" fill="#263238"/>
<path d="M166.728 175.995C167.35 177.043 168.234 177.912 169.292 178.518C169.878 178.836 170.55 178.956 171.21 178.862C172.653 178.66 172.835 177.388 172.704 176.257C172.632 175.66 172.49 175.074 172.28 174.511C170.635 175.585 168.689 176.105 166.728 175.995Z" fill="#263238"/>
<path d="M169.292 178.519C169.878 178.836 170.55 178.957 171.21 178.862C172.654 178.66 172.835 177.388 172.704 176.257C171.964 176.199 171.227 176.39 170.608 176.8C169.99 177.21 169.526 177.815 169.292 178.519Z" fill="#FF9CBD"/>
<path d="M198.395 169.423C192.339 168.989 193.197 159.49 193.197 159.49C193.197 159.49 186.413 158.309 186.827 147.245C186.827 147.245 182.991 153.635 173.623 154.22C171.604 154.352 178.67 149.809 178.67 149.809C178.67 149.809 169.201 156.007 154.816 152.1C153.806 151.828 158.288 136.877 170.18 132.557C182.072 128.236 192.157 132.082 198.648 139.896C198.648 139.896 206.724 144.459 207.017 152.494C207.309 160.53 200.738 169.595 198.395 169.423Z" fill="#263238"/>
<path d="M203.049 165.385C205.055 162.08 206.219 158.333 206.437 154.472C206.655 150.612 205.922 146.757 204.301 143.247C198.769 130.911 178.922 126.015 165.829 134.747C165.829 134.747 188.341 130.709 195.953 140.865C203.564 151.02 203.049 165.385 203.049 165.385Z" fill="#0F969C"/>
<path d="M194.983 171.957C194.983 171.957 200.859 163.881 204.543 165.9C208.228 167.919 203.726 179.841 199.324 181.385C198.774 181.624 198.182 181.749 197.583 181.753C196.983 181.756 196.389 181.638 195.836 181.406C195.284 181.174 194.784 180.833 194.366 180.402C193.949 179.972 193.623 179.462 193.409 178.902L194.983 171.957Z" fill="#F7A9A0"/>
<path d="M203.171 169.312C203.241 169.312 203.251 169.403 203.171 169.433C200.081 170.614 198.426 173.471 197.245 176.358C198.174 175.248 199.425 174.642 200.929 175.753C201.01 175.813 200.929 175.934 200.839 175.914C200.302 175.732 199.722 175.722 199.179 175.884C198.636 176.047 198.158 176.375 197.81 176.823C197.237 177.57 196.743 178.375 196.336 179.225C196.185 179.498 195.69 179.346 195.801 179.033V178.963C195.832 175.056 198.961 169.635 203.171 169.312Z" fill="#263238"/>
<path d="M229.368 135.504C226.707 131.558 225.268 126.917 225.229 122.158C225.229 105.249 243.803 91.5405 266.689 91.5405C289.574 91.5405 308.128 105.249 308.128 122.158C308.128 139.067 289.574 152.766 266.689 152.766C255.584 152.766 245.489 149.556 238.09 144.297L223.815 147.931L229.368 135.504Z" fill="white"/>
<path d="M229.367 135.504C226.771 131.782 225.302 127.391 225.136 122.857C224.969 118.322 226.112 113.835 228.428 109.933C230.737 106.038 233.831 102.665 237.514 100.03C241.177 97.3758 245.234 95.3116 249.537 93.9127C253.827 92.4937 258.275 91.6055 262.781 91.2678C267.292 90.9609 271.822 91.1914 276.278 91.9543C277.379 92.1763 278.509 92.3278 279.599 92.6205L282.87 93.4988L286.07 94.6294C287.14 95.013 288.15 95.5279 289.19 95.972C293.297 97.8975 297.051 100.501 300.294 103.674C303.576 106.869 306.035 110.811 307.461 115.162C308.849 119.562 308.895 124.274 307.593 128.7C306.242 133.077 303.844 137.058 300.607 140.299C297.426 143.513 293.718 146.159 289.644 148.122C285.569 150.097 281.236 151.487 276.773 152.251C272.325 153.051 267.796 153.308 263.286 153.018C258.779 152.75 254.324 151.905 250.031 150.505C245.726 149.11 241.658 147.068 237.968 144.448H238.16L223.855 147.961L223.623 148.021L223.724 147.809L229.367 135.504ZM229.367 135.504L223.916 147.931L223.785 147.779L238.039 144.034H238.14L238.23 144.095C245.683 149.072 254.362 151.904 263.316 152.282C267.768 152.522 272.232 152.224 276.611 151.393C280.992 150.644 285.246 149.285 289.25 147.355C293.251 145.43 296.891 142.832 300.011 139.673C303.129 136.535 305.437 132.686 306.735 128.458C307.964 124.216 307.908 119.705 306.573 115.496C305.202 111.293 302.837 107.483 299.678 104.391C296.515 101.281 292.85 98.7285 288.836 96.8402C287.827 96.4061 286.817 95.8913 285.808 95.5178L282.678 94.3972L279.458 93.519C278.388 93.2262 277.278 93.0849 276.197 92.8527C271.809 92.0968 267.347 91.8529 262.902 92.1259C258.443 92.4199 254.036 93.2572 249.779 94.6193C245.537 95.9433 241.528 97.9222 237.897 100.484C234.246 103.045 231.155 106.321 228.812 110.115C226.49 113.951 225.294 118.362 225.359 122.845C225.494 127.355 226.882 131.738 229.367 135.504Z" fill="#263238"/>
<path d="M250.395 116.97V128.347H248.255V123.491H243.086V128.347H240.875V116.97H243.086V121.573H248.255V116.97H250.395Z" fill="#263238"/>
<path d="M260.671 126.408V128.347H252.767V116.97H260.52V118.908H254.978V121.684H259.773V123.481H254.978V126.439L260.671 126.408Z" fill="#263238"/>
<path d="M262.388 128.347V116.97H264.598V126.408H270.464V128.347H262.388Z" fill="#263238"/>
<path d="M271.756 128.347V116.97H273.967V126.408H279.771V128.347H271.756Z" fill="#263238"/>
<path d="M285.253 128.427C284.469 128.439 283.692 128.274 282.981 127.943C282.318 127.63 281.724 127.188 281.235 126.641C280.253 125.549 279.71 124.132 279.71 122.663C279.709 121.916 279.853 121.175 280.134 120.483C280.405 119.799 280.803 119.172 281.305 118.635C281.803 118.097 282.404 117.665 283.072 117.363C283.772 117.045 284.534 116.883 285.303 116.889C286.082 116.881 286.853 117.054 287.554 117.394C288.212 117.72 288.801 118.169 289.291 118.716C290.257 119.817 290.798 121.228 290.815 122.694C290.818 123.438 290.674 124.175 290.391 124.864C290.131 125.555 289.741 126.189 289.24 126.731C288.739 127.261 288.143 127.693 287.484 128.003C286.779 128.304 286.018 128.448 285.253 128.427ZM281.952 122.694C281.949 123.177 282.024 123.657 282.174 124.117C282.313 124.56 282.532 124.974 282.82 125.338C283.093 125.688 283.437 125.977 283.829 126.186C284.267 126.402 284.749 126.514 285.237 126.514C285.726 126.514 286.208 126.402 286.646 126.186C287.039 125.971 287.383 125.675 287.655 125.318C287.939 124.947 288.158 124.531 288.301 124.087C288.484 123.642 288.596 123.172 288.634 122.694C288.635 122.21 288.556 121.729 288.402 121.27C288.259 120.827 288.037 120.413 287.746 120.049C287.473 119.701 287.129 119.415 286.737 119.211C286.297 119.002 285.815 118.893 285.328 118.893C284.841 118.893 284.36 119.002 283.92 119.211C283.525 119.424 283.18 119.72 282.911 120.079C282.628 120.445 282.413 120.859 282.275 121.3C282.094 121.745 281.985 122.215 281.952 122.694Z" fill="#263238"/>
<path d="M292.723 124.077V116.859H294.863V124.077H292.723ZM292.723 128.347V125.934H294.863V128.347H292.723Z" fill="#263238"/>
</svg>
