<svg width="450" height="416" viewBox="0 0 360 216" fill="none" xmlns="http://www.w3.org/2000/svg">
<path d="M43.6634 76.14C41.0168 73.7581 38.2893 71.5524 35.8115 68.9547C29.5413 65.9372 29.7995 61.9517 31.9226 56.8065C26.4249 52.5121 25.1751 48.4471 30.33 42.5841C30.33 38.1508 30.8275 37.8963 35.4782 36.8434C45.0293 34.6808 60.7967 33.7346 62.3302 46.7694C62.7078 49.9792 63.5004 52.4053 66.108 49.1768C68.7457 45.911 70.9837 42.4287 73.6636 39.1397C76.008 36.2625 79.0478 33.5498 81.96 31.2507C85.6587 21.6268 93.486 23.2187 97.8861 29.4729C102.259 29.4729 107.143 28.05 109.664 32.2507C111.327 35.0231 113.301 37.5728 114.182 40.6582C115.04 43.6601 114.574 36.7905 114.664 35.8063C115.18 30.1254 118.07 24.927 121.59 20.4358C123.147 6.22992 133.721 4.12223 146.627 10.9172C154.694 10.5811 162.854 10.6857 170.924 10.8802C180.681 -2.83804 188.496 1.19432 193.516 14.2876C198.697 16.8778 202.217 22.1751 204.479 27.3248C204.835 28.1347 206.559 34.6582 207.368 34.6582C208.344 34.6582 211.435 26.7731 211.961 25.6951C214.486 20.5192 218.394 15.2911 224.072 13.5098C226.79 0.823551 235.129 -2.78166 251.739 6.13942C254.655 6.10872 255.025 6.67449 256.776 9.39871C259.855 14.1881 264.365 20.2326 264.924 26.1025C265.109 28.0388 265.076 30.0877 264.961 32.0285C264.935 32.47 264.323 35.045 264.406 35.0285C268.584 34.1928 275.122 32.8365 279.295 34.2878C283.775 35.846 288.245 41.8726 290.443 45.8064C304.504 49.1585 307.815 60.8737 302.184 74.3622C306.452 81.5617 304.137 83.7873 295.443 89.1771C293.126 92.3371 304.154 98.7138 306.184 99.992C316.573 99.2571 317.716 109.123 316.591 118.992C317.232 121.117 319.255 128.995 317.221 131.029C316.104 132.146 311.124 132.836 309.369 133.474C307.164 134.275 308.332 141.511 308.332 143.252C308.332 146.645 309.758 153.845 307.591 156.733C309.887 168.158 305.037 169.532 295.813 164.733C292.534 166.168 289.328 165.261 286.48 167.993C282.988 171.342 280.164 175.481 276.999 179.141C281.016 190.983 276.33 194.813 262.48 190.659C259.808 192.404 256.855 194.007 255.295 196.845C254.147 208.283 248.815 209.563 243.517 209.252C237.809 214.489 232.351 214.808 225.035 214.808C220.497 214.808 216.224 211.292 213.146 208.215C211.163 206.232 211.961 204.17 209.146 201.252C206.331 198.334 204.866 196.529 202.368 194.511C198.059 191.031 194.598 196.603 189.961 197.696C184.486 198.585 172.975 197.756 173.516 198.067C174.057 198.378 161.75 197.638 158.479 194.585C155.45 191.758 154.207 187.776 153.701 183.733C153.614 183.032 152.434 185.86 152.257 186.141C150.719 188.576 149.139 189.591 146.331 190.141C139.335 194.512 120.379 189.659 117.294 186.733C114.208 183.808 107.525 182.914 105.034 177.807C104.053 175.796 103.285 173.791 103.071 171.548C102.811 168.82 103.191 168.736 102.849 171.474C101.992 178.332 92.5579 179.043 86.96 179.363C67.7992 188.95 42.5415 192.121 36.0708 159.844C35.9138 159.406 34.4751 149.99 36.9967 151.622C37.8785 152.193 37.6439 154.162 37.5152 154.955C37.0363 157.909 34.9702 158.647 32.2559 158.77C24.3805 159.128 12.8742 154.165 7.0335 149.066C1.67523 144.389 1.66309 136.38 1.66309 129.844C1.66309 123.763 2.26773 118.106 7.36683 113.955C8.4785 113.05 14.7753 110.429 14.9965 108.807C15.6749 103.832 14.6993 98.8539 16.0336 93.8808C17.3693 88.9023 19.6222 84.051 21.1447 79.1029C22.1589 75.8069 25.1874 60.458 29.4411 76.14C33.6948 91.8219 39.1449 76.14 43.6634 76.14Z" stroke="#455A64" stroke-opacity="0.34" stroke-width="1.71086" stroke-linecap="round"/>
</svg>
