<svg width="322" height="249" viewBox="0 0 322 249" fill="none" xmlns="http://www.w3.org/2000/svg">
<path d="M52.7715 248.369C52.7715 248.719 52.9634 249 53.2022 249H267.993C268.234 249 268.424 248.719 268.424 248.369C268.424 248.018 268.232 247.737 267.993 247.737H53.2022C52.9634 247.738 52.7715 248.019 52.7715 248.369Z" fill="#CCCCCC"/>
<path d="M130.794 246.287H123.125V247.64H130.794V246.287Z" fill="#B6B3C5"/>
<path d="M198.684 246.513H191.016V247.866H198.684V246.513Z" fill="#B6B3C5"/>
<path d="M171.902 186.064C171.475 188.648 170.145 190.995 168.148 192.689C166.152 194.383 163.618 195.313 161 195.313C158.382 195.313 155.849 194.383 153.852 192.689C151.855 190.995 150.525 188.648 150.098 186.064H122.205V246.512H199.796V186.064H171.902Z" fill="#D6D6E3"/>
<path d="M200.019 241.723H122.43V243.827H200.019V241.723Z" fill="#090814"/>
<path d="M317.041 187.644H4.95833C3.81152 187.643 2.71205 187.187 1.90114 186.376C1.09022 185.565 0.634087 184.465 0.632813 183.318L0.632812 5.21361C0.633981 4.06674 1.09007 2.96716 1.90099 2.15616C2.71192 1.34516 3.81145 0.88897 4.95833 0.887695H317.041C318.187 0.889076 319.287 1.34524 320.098 2.15613C320.909 2.96703 321.365 4.06644 321.366 5.21321V183.318C321.365 184.465 320.909 185.565 320.098 186.375C319.287 187.186 318.187 187.643 317.041 187.644Z" fill="#090814"/>
<path d="M313.297 7.69824H7.90039V180.019H313.297V7.69824Z" fill="white"/>
<path d="M218.83 115.049H103.619C102.699 115.048 101.817 114.682 101.166 114.031C100.515 113.381 100.149 112.499 100.148 111.579V72.7123C100.149 71.7923 100.515 70.9103 101.166 70.2597C101.817 69.6092 102.699 69.2432 103.619 69.2422H218.83C219.75 69.2432 220.632 69.6092 221.282 70.2597C221.933 70.9103 222.299 71.7923 222.3 72.7123V111.579C222.299 112.499 221.933 113.381 221.282 114.031C220.632 114.682 219.75 115.048 218.83 115.049Z" fill="#0F969C"/>
<path d="M147.928 81.041H118.996C118.553 81.041 118.193 81.4004 118.193 81.8438V83.7083C118.193 84.1517 118.553 84.5111 118.996 84.5111H147.928C148.372 84.5111 148.731 84.1517 148.731 83.7083V81.8438C148.731 81.4004 148.372 81.041 147.928 81.041Z" fill="white"/>
<path d="M188.986 85.2052C190.136 85.2052 191.068 84.273 191.068 83.1231C191.068 81.9732 190.136 81.041 188.986 81.041C187.836 81.041 186.904 81.9732 186.904 83.1231C186.904 84.273 187.836 85.2052 188.986 85.2052Z" fill="#090814"/>
<path d="M195.926 85.2052C197.076 85.2052 198.008 84.273 198.008 83.1231C198.008 81.9732 197.076 81.041 195.926 81.041C194.776 81.041 193.844 81.9732 193.844 83.1231C193.844 84.273 194.776 85.2052 195.926 85.2052Z" fill="#090814"/>
<path d="M202.867 85.2052C204.017 85.2052 204.949 84.273 204.949 83.1231C204.949 81.9732 204.017 81.041 202.867 81.041C201.717 81.041 200.785 81.9732 200.785 83.1231C200.785 84.273 201.717 85.2052 202.867 85.2052Z" fill="#090814"/>
<path d="M222.302 131.487C231.38 131.487 238.74 124.127 238.74 115.049C238.74 105.97 231.38 98.6104 222.302 98.6104C213.223 98.6104 205.863 105.97 205.863 115.049C205.863 124.127 213.223 131.487 222.302 131.487Z" fill="#E82A73"/>
<path d="M220.852 118.119L220.641 106.237H223.951L223.729 118.119H220.852ZM222.302 123.862C222.051 123.87 221.8 123.829 221.565 123.739C221.33 123.649 221.115 123.514 220.934 123.34C220.757 123.17 220.618 122.966 220.525 122.739C220.433 122.512 220.389 122.269 220.396 122.024C220.387 121.776 220.43 121.53 220.522 121.3C220.615 121.07 220.755 120.863 220.934 120.691C221.116 120.519 221.331 120.385 221.566 120.296C221.801 120.208 222.051 120.167 222.302 120.176C222.553 120.167 222.803 120.208 223.038 120.296C223.273 120.385 223.488 120.519 223.67 120.691C223.849 120.863 223.989 121.07 224.082 121.3C224.174 121.53 224.217 121.776 224.208 122.024C224.215 122.269 224.171 122.512 224.079 122.739C223.986 122.966 223.847 123.17 223.67 123.34C223.489 123.514 223.274 123.649 223.039 123.739C222.804 123.828 222.553 123.87 222.302 123.862Z" fill="white"/>
</svg>
