<svg width="166" height="168" viewBox="0 0 166 168" fill="none" xmlns="http://www.w3.org/2000/svg">
<rect width="166" height="168" rx="23" fill="#D8EDEE"/>
<g clip-path="url(#clip0_1873_2432)">
<path d="M126.233 75.2112C126.202 75.2112 126.171 75.2016 126.145 75.1835L83.4457 45.4465C83.3157 45.3564 83.1613 45.3083 83.0032 45.3086C82.8451 45.3089 82.6908 45.3575 82.5612 45.448L40.1695 75.1832C40.136 75.2067 40.0945 75.216 40.0541 75.2089C40.0138 75.2018 39.9779 75.179 39.9544 75.1455C39.9309 75.1119 39.9216 75.0705 39.9287 75.0301C39.9358 74.9898 39.9586 74.9539 39.9921 74.9304L82.3839 45.1952C82.5654 45.0685 82.7813 45.0004 83.0027 45C83.2241 44.9996 83.4402 45.067 83.6221 45.1931L126.321 74.9301C126.348 74.9489 126.369 74.9758 126.379 75.0069C126.39 75.038 126.39 75.0717 126.38 75.1031C126.371 75.1344 126.351 75.1618 126.324 75.1813C126.298 75.2007 126.266 75.2112 126.233 75.2112Z" fill="#3F3D56"/>
<path d="M42.5918 76.2641L83.0452 46.2832L123.805 78.3974L85.1295 101.325L64.1318 96.5388L42.5918 76.2641Z" fill="#E6E6E6"/>
<path d="M65.9041 115.488H45.9192C45.7965 115.489 45.6749 115.465 45.5615 115.418C45.4481 115.371 45.345 115.302 45.2582 115.215C45.1714 115.129 45.1025 115.026 45.0555 114.912C45.0085 114.799 44.9843 114.677 44.9843 114.555C44.9843 114.432 45.0085 114.311 45.0555 114.197C45.1025 114.084 45.1714 113.981 45.2582 113.894C45.345 113.807 45.4481 113.739 45.5615 113.692C45.6749 113.645 45.7965 113.621 45.9192 113.621H65.9041C66.0268 113.621 66.1484 113.645 66.2618 113.692C66.3752 113.739 66.4783 113.807 66.5651 113.894C66.6519 113.981 66.7208 114.084 66.7678 114.197C66.8148 114.311 66.839 114.432 66.839 114.555C66.839 114.677 66.8148 114.799 66.7678 114.912C66.7208 115.026 66.6519 115.129 66.5651 115.215C66.4783 115.302 66.3752 115.371 66.2618 115.418C66.1484 115.465 66.0268 115.489 65.9041 115.488Z" fill="#0F969C"/>
<path d="M53.0893 111.473H45.9192C45.7965 111.473 45.6749 111.449 45.5615 111.402C45.4481 111.355 45.345 111.287 45.2582 111.2C45.1714 111.113 45.1025 111.01 45.0555 110.897C45.0085 110.783 44.9843 110.662 44.9843 110.539C44.9843 110.416 45.0085 110.295 45.0555 110.182C45.1025 110.068 45.1714 109.965 45.2582 109.879C45.345 109.792 45.4481 109.723 45.5615 109.676C45.6749 109.629 45.7965 109.605 45.9192 109.605H53.0893C53.2121 109.605 53.3336 109.629 53.447 109.676C53.5604 109.723 53.6635 109.792 53.7503 109.879C53.8372 109.965 53.906 110.068 53.953 110.182C54 110.295 54.0242 110.416 54.0242 110.539C54.0242 110.662 54 110.783 53.953 110.897C53.906 111.01 53.8372 111.113 53.7503 111.2C53.6635 111.287 53.5604 111.355 53.447 111.402C53.3336 111.449 53.2121 111.473 53.0893 111.473Z" fill="#0F969C"/>
<path d="M83.6139 92.964C83.462 92.9642 83.3116 92.9347 83.171 92.8773L58.2222 82.5253V50.1218C58.2225 49.8352 58.3365 49.5605 58.5391 49.3579C58.7417 49.1553 59.0164 49.0413 59.3029 49.041H107.165C107.452 49.0413 107.727 49.1553 107.929 49.3579C108.132 49.5605 108.246 49.8352 108.246 50.1218V82.5479L108.199 82.5679L84.0703 92.8722C83.9259 92.9329 83.7707 92.9641 83.6139 92.964Z" fill="white"/>
<path d="M83.614 93.0402C83.452 93.0404 83.2915 93.009 83.1416 92.9478L58.145 82.5759V50.1209C58.1453 49.8138 58.2674 49.5195 58.4845 49.3024C58.7016 49.0853 58.9959 48.9632 59.303 48.9629H107.165C107.472 48.9632 107.767 49.0853 107.984 49.3024C108.201 49.5195 108.323 49.8138 108.323 50.1209V82.5979L84.1007 92.9422C83.9466 93.0071 83.7811 93.0404 83.614 93.0402ZM58.4538 82.3696L83.2593 92.6623C83.4907 92.7562 83.7498 92.7546 83.98 92.658L108.015 82.3941V50.1209C108.014 49.8957 107.925 49.6799 107.766 49.5207C107.606 49.3615 107.391 49.2719 107.165 49.2717H59.303C59.0778 49.2719 58.862 49.3615 58.7028 49.5207C58.5436 49.6799 58.4541 49.8957 58.4538 50.1209L58.4538 82.3696Z" fill="#3F3D56"/>
<path d="M125.924 74.9043H125.893L108.169 82.4727L83.9181 92.828C83.8234 92.8679 83.7217 92.8887 83.6189 92.8892C83.5161 92.8897 83.4142 92.87 83.319 92.8311L58.2994 82.4511L40.1394 74.9167L40.1117 74.9043H40.0808C39.7942 74.9046 39.5195 75.0186 39.3169 75.2212C39.1143 75.4238 39.0003 75.6985 39 75.9851V122.921C39.0003 123.208 39.1143 123.482 39.3169 123.685C39.5195 123.888 39.7942 124.002 40.0808 124.002H125.924C126.211 124.002 126.486 123.888 126.688 123.685C126.891 123.482 127.005 123.208 127.005 122.921V75.9851C127.005 75.6985 126.891 75.4238 126.688 75.2212C126.486 75.0186 126.211 74.9046 125.924 74.9043ZM126.696 122.921C126.696 123.126 126.615 123.322 126.47 123.467C126.325 123.612 126.129 123.693 125.924 123.693H40.0808C39.876 123.693 39.6797 123.612 39.535 123.467C39.3902 123.322 39.3089 123.126 39.3088 122.921V75.9851C39.3091 75.7854 39.3865 75.5936 39.5249 75.4498C39.6633 75.3059 39.852 75.2211 40.0514 75.2131L58.2994 82.7846L83.2002 93.1167C83.4698 93.2264 83.7718 93.2247 84.0401 93.1121L108.169 82.8078L125.955 75.2131C126.154 75.2217 126.343 75.3067 126.481 75.4505C126.619 75.5943 126.696 75.7858 126.696 75.9851V122.921Z" fill="#3F3D56"/>
<path d="M83.3646 83.7767C82.4435 83.7784 81.5469 83.4806 80.81 82.9282L80.7643 82.8939L71.1438 75.5281C70.6983 75.1867 70.3243 74.7609 70.0433 74.275C69.7623 73.7891 69.5798 73.2526 69.5061 72.6962C69.4325 72.1397 69.4691 71.5742 69.614 71.032C69.7589 70.4897 70.0092 69.9813 70.3506 69.5357C70.692 69.0902 71.1177 68.7162 71.6036 68.4353C72.0895 68.1543 72.626 67.9717 73.1825 67.8981C73.7389 67.8244 74.3044 67.8611 74.8467 68.006C75.3889 68.1509 75.8974 68.4011 76.3429 68.7425L82.5743 73.5207L97.3002 54.316C97.6417 53.8706 98.0677 53.4968 98.5536 53.216C99.0396 52.9351 99.5762 52.7528 100.133 52.6793C100.689 52.6059 101.255 52.6428 101.797 52.7878C102.339 52.9329 102.847 53.1834 103.293 53.525L103.201 53.6493L103.295 53.5268C104.194 54.2173 104.782 55.2361 104.93 56.3595C105.078 57.483 104.775 58.6193 104.086 59.5194L86.765 82.1087C86.3644 82.6292 85.8493 83.0505 85.2596 83.3397C84.6699 83.629 84.0214 83.7785 83.3646 83.7767Z" fill="#0F969C"/>
</g>
<defs>
<clipPath id="clip0_1873_2432">
<rect width="88.0051" height="79" fill="white" transform="translate(39 45)"/>
</clipPath>
</defs>
</svg>
