<svg width="166" height="168" viewBox="0 0 166 168" fill="none" xmlns="http://www.w3.org/2000/svg">
<rect width="166" height="168" rx="23" fill="#D8EDEE"/>
<g clip-path="url(#clip0_2424_16462)">
<path d="M126.232 75.2112C126.201 75.2112 126.17 75.2016 126.144 75.1835L83.4451 45.4465C83.3151 45.3564 83.1607 45.3083 83.0026 45.3086C82.8445 45.3089 82.6902 45.3575 82.5606 45.448L40.1689 75.1832C40.1354 75.2067 40.0939 75.216 40.0535 75.2089C40.0132 75.2018 39.9773 75.179 39.9538 75.1455C39.9303 75.1119 39.921 75.0705 39.9281 75.0301C39.9352 74.9898 39.958 74.9539 39.9915 74.9304L82.3833 45.1952C82.5648 45.0685 82.7807 45.0004 83.0021 45C83.2234 44.9996 83.4396 45.067 83.6215 45.1931L126.321 74.9301C126.348 74.9489 126.368 74.9758 126.379 75.0069C126.389 75.038 126.39 75.0717 126.38 75.1031C126.37 75.1344 126.35 75.1618 126.324 75.1813C126.297 75.2007 126.265 75.2112 126.232 75.2112Z" fill="#3F3D56"/>
<path d="M42.5918 76.2641L83.0451 46.2832L123.805 78.3974L85.1295 101.325L64.1317 96.5388L42.5918 76.2641Z" fill="#E6E6E6"/>
<path d="M65.9042 115.488H45.9193C45.7965 115.489 45.675 115.465 45.5616 115.418C45.4482 115.371 45.3451 115.302 45.2583 115.215C45.1714 115.129 45.1026 115.026 45.0556 114.912C45.0086 114.799 44.9844 114.677 44.9844 114.555C44.9844 114.432 45.0086 114.311 45.0556 114.197C45.1026 114.084 45.1714 113.981 45.2583 113.894C45.3451 113.807 45.4482 113.739 45.5616 113.692C45.675 113.645 45.7965 113.621 45.9193 113.621H65.9042C66.0269 113.621 66.1484 113.645 66.2619 113.692C66.3753 113.739 66.4783 113.807 66.5652 113.894C66.652 113.981 66.7209 114.084 66.7679 114.197C66.8149 114.311 66.8391 114.432 66.8391 114.555C66.8391 114.677 66.8149 114.799 66.7679 114.912C66.7209 115.026 66.652 115.129 66.5652 115.215C66.4783 115.302 66.3753 115.371 66.2619 115.418C66.1484 115.465 66.0269 115.489 65.9042 115.488Z" fill="#0F969C"/>
<path d="M53.0894 111.473H45.9193C45.7965 111.473 45.675 111.449 45.5616 111.402C45.4482 111.355 45.3451 111.287 45.2583 111.2C45.1714 111.113 45.1026 111.01 45.0556 110.897C45.0086 110.783 44.9844 110.662 44.9844 110.539C44.9844 110.416 45.0086 110.295 45.0556 110.182C45.1026 110.068 45.1714 109.965 45.2583 109.879C45.3451 109.792 45.4482 109.723 45.5616 109.676C45.675 109.629 45.7965 109.605 45.9193 109.605H53.0894C53.2121 109.605 53.3337 109.629 53.4471 109.676C53.5605 109.723 53.6636 109.792 53.7504 109.879C53.8372 109.965 53.9061 110.068 53.9531 110.182C54.0001 110.295 54.0243 110.416 54.0243 110.539C54.0243 110.662 54.0001 110.783 53.9531 110.897C53.9061 111.01 53.8372 111.113 53.7504 111.2C53.6636 111.287 53.5605 111.355 53.4471 111.402C53.3337 111.449 53.2121 111.473 53.0894 111.473Z" fill="#0F969C"/>
<path d="M83.6144 92.964C83.4625 92.9642 83.3121 92.9347 83.1715 92.8773L58.2227 82.5253V50.1218C58.223 49.8352 58.337 49.5605 58.5396 49.3579C58.7422 49.1553 59.0169 49.0413 59.3034 49.041H107.166C107.452 49.0413 107.727 49.1553 107.93 49.3579C108.132 49.5605 108.246 49.8352 108.247 50.1218V82.5479L108.2 82.5679L84.0708 92.8722C83.9263 92.9329 83.7712 92.9641 83.6144 92.964Z" fill="white"/>
<path d="M83.6135 93.0402C83.4515 93.0404 83.2911 93.009 83.1411 92.9478L58.1445 82.5759V50.1209C58.1449 49.8138 58.267 49.5195 58.4841 49.3024C58.7012 49.0853 58.9955 48.9632 59.3025 48.9629H107.165C107.472 48.9632 107.766 49.0853 107.983 49.3024C108.2 49.5195 108.323 49.8138 108.323 50.1209V82.5979L84.1002 92.9422C83.9461 93.0071 83.7807 93.0404 83.6135 93.0402ZM58.4533 82.3696L83.2589 92.6623C83.4902 92.7562 83.7494 92.7546 83.9796 92.658L108.014 82.3941V50.1209C108.014 49.8957 107.924 49.6799 107.765 49.5207C107.606 49.3615 107.39 49.2719 107.165 49.2717H59.3025C59.0774 49.2719 58.8615 49.3615 58.7023 49.5207C58.5431 49.6799 58.4536 49.8957 58.4533 50.1209L58.4533 82.3696Z" fill="#3F3D56"/>
<path d="M125.924 74.9043H125.893L108.169 82.4727L83.9181 92.828C83.8234 92.8679 83.7217 92.8887 83.6189 92.8892C83.5161 92.8897 83.4142 92.87 83.319 92.8311L58.2994 82.4511L40.1394 74.9167L40.1117 74.9043H40.0808C39.7942 74.9046 39.5195 75.0186 39.3169 75.2212C39.1143 75.4238 39.0003 75.6985 39 75.9851V122.921C39.0003 123.208 39.1143 123.482 39.3169 123.685C39.5195 123.888 39.7942 124.002 40.0808 124.002H125.924C126.211 124.002 126.486 123.888 126.688 123.685C126.891 123.482 127.005 123.208 127.005 122.921V75.9851C127.005 75.6985 126.891 75.4238 126.688 75.2212C126.486 75.0186 126.211 74.9046 125.924 74.9043ZM126.696 122.921C126.696 123.126 126.615 123.322 126.47 123.467C126.325 123.612 126.129 123.693 125.924 123.693H40.0808C39.876 123.693 39.6797 123.612 39.535 123.467C39.3902 123.322 39.3089 123.126 39.3088 122.921V75.9851C39.3091 75.7854 39.3865 75.5936 39.5249 75.4498C39.6633 75.3059 39.852 75.2211 40.0514 75.2131L58.2994 82.7846L83.2002 93.1167C83.4698 93.2264 83.7718 93.2247 84.0401 93.1121L108.169 82.8078L125.955 75.2131C126.154 75.2217 126.343 75.3067 126.481 75.4505C126.619 75.5943 126.696 75.7858 126.696 75.9851V122.921Z" fill="#3F3D56"/>
<path d="M83.3642 83.7767C82.4431 83.7784 81.5465 83.4806 80.8096 82.9282L80.7639 82.8939L71.1434 75.5281C70.6978 75.1867 70.3239 74.7609 70.0429 74.275C69.7619 73.7891 69.5794 73.2526 69.5057 72.6962C69.4321 72.1397 69.4687 71.5742 69.6136 71.032C69.7585 70.4897 70.0088 69.9813 70.3502 69.5357C70.6915 69.0902 71.1173 68.7162 71.6032 68.4353C72.0891 68.1543 72.6256 67.9717 73.182 67.8981C73.7385 67.8244 74.304 67.8611 74.8462 68.006C75.3885 68.1509 75.8969 68.4011 76.3425 68.7425L82.5739 73.5207L97.2998 54.316C97.6413 53.8706 98.0672 53.4968 98.5532 53.216C99.0392 52.9351 99.5758 52.7528 100.132 52.6793C100.689 52.6059 101.254 52.6428 101.796 52.7878C102.339 52.9329 102.847 53.1834 103.292 53.525L103.201 53.6493L103.295 53.5268C104.193 54.2173 104.781 55.2361 104.929 56.3595C105.078 57.483 104.774 58.6193 104.086 59.5194L86.7646 82.1087C86.364 82.6292 85.8489 83.0505 85.2591 83.3397C84.6694 83.629 84.021 83.7785 83.3642 83.7767Z" fill="#0F969C"/>
</g>
<defs>
<clipPath id="clip0_2424_16462">
<rect width="88.0051" height="79" fill="white" transform="translate(39 45)"/>
</clipPath>
</defs>
</svg>
