<svg width="219" height="214" viewBox="0 0 219 214" fill="none" xmlns="http://www.w3.org/2000/svg">
<g clip-path="url(#clip0_1394_5157)">
<path d="M139.03 48.0756H80.0193C78.6746 48.0772 77.3853 48.6122 76.4345 49.563C75.4836 50.5139 74.9487 51.8031 74.947 53.1479V184.3L74.2707 184.507L59.7944 188.94C59.1083 189.149 58.3673 189.078 57.7339 188.741C57.1006 188.404 56.6267 187.83 56.4163 187.144L13.3558 46.4897C13.1463 45.8036 13.2177 45.0624 13.5544 44.4289C13.8911 43.7955 14.4655 43.3216 15.1514 43.1115L37.4595 36.2808L102.131 16.4854L124.439 9.65468C124.779 9.55019 125.135 9.51368 125.489 9.54724C125.842 9.58079 126.186 9.68374 126.5 9.85021C126.814 10.0167 127.091 10.2434 127.318 10.5174C127.544 10.7913 127.713 11.1072 127.817 11.4469L138.824 47.3993L139.03 48.0756Z" fill="#F2F2F2"/>
<path d="M151.907 47.3994L138.641 4.06847C138.421 3.3465 138.06 2.67509 137.58 2.09261C137.099 1.51014 136.509 1.02801 135.842 0.673783C135.176 0.319554 134.446 0.100162 133.694 0.0281526C132.943 -0.0438567 132.184 0.0329279 131.462 0.254111L100.099 9.85427L35.4304 29.6531L4.06676 39.2567C2.60977 39.704 1.38981 40.7113 0.674669 42.0572C-0.0404771 43.4031 -0.192384 44.9778 0.252298 46.4356L45.5919 194.523C45.9531 195.7 46.682 196.73 47.6716 197.462C48.6612 198.194 49.8593 198.59 51.0903 198.591C51.66 198.591 52.2266 198.506 52.7708 198.337L74.2706 191.757L74.9469 191.547V190.84L74.2706 191.047L52.5714 197.691C51.2853 198.083 49.8963 197.949 48.7089 197.319C47.5216 196.688 46.6329 195.612 46.2378 194.327L0.90169 46.2361C0.70593 45.5994 0.637702 44.9302 0.700912 44.2671C0.764121 43.6039 0.957521 42.9597 1.27005 42.3714C1.58258 41.783 2.00809 41.2621 2.52222 40.8385C3.03635 40.4149 3.62899 40.0968 4.26621 39.9025L35.6299 30.299L100.298 10.5035L131.662 0.899989C132.145 0.752486 132.648 0.677278 133.153 0.676807C134.238 0.679242 135.293 1.02888 136.164 1.6745C137.036 2.32012 137.677 3.22781 137.996 4.26461L151.2 47.3994L151.41 48.0757H152.113L151.907 47.3994Z" fill="#3F3D56"/>
<path d="M41.4854 43.2227C40.8336 43.2222 40.1992 43.0129 39.6751 42.6254C39.151 42.2379 38.7649 41.6927 38.5734 41.0697L34.2179 26.8431C34.1008 26.4609 34.0602 26.0594 34.0984 25.6616C34.1365 25.2637 34.2526 24.8773 34.4401 24.5243C34.6276 24.1714 34.8828 23.8588 35.1912 23.6045C35.4995 23.3502 35.8549 23.1591 36.2371 23.0421L95.7313 4.82795C96.5031 4.59244 97.3368 4.67276 98.0494 5.05129C98.7621 5.42982 99.2954 6.07562 99.5324 6.84696L103.888 21.0738C104.123 21.8456 104.043 22.6793 103.664 23.3918C103.286 24.1044 102.64 24.6378 101.869 24.8749L42.3745 43.0891C42.0864 43.1775 41.7867 43.2225 41.4854 43.2227Z" fill="#16898E"/>
<path d="M64.3011 15.2019C68.0363 15.2019 71.0642 12.174 71.0642 8.43884C71.0642 4.7037 68.0363 1.67578 64.3011 1.67578C60.566 1.67578 57.5381 4.7037 57.5381 8.43884C57.5381 12.174 60.566 15.2019 64.3011 15.2019Z" fill="#16898E"/>
<path d="M64.3006 12.7214C66.6658 12.7214 68.5832 10.804 68.5832 8.43883C68.5832 6.07363 66.6658 4.15625 64.3006 4.15625C61.9354 4.15625 60.0181 6.07363 60.0181 8.43883C60.0181 10.804 61.9354 12.7214 64.3006 12.7214Z" fill="white"/>
<path d="M203.783 196.865H89.4871C88.725 196.864 87.9945 196.561 87.4556 196.022C86.9168 195.483 86.6137 194.752 86.6128 193.99V57.0384C86.6136 56.2763 86.9167 55.5457 87.4556 55.0069C87.9944 54.468 88.725 54.1649 89.4871 54.1641H203.783C204.545 54.1649 205.275 54.4681 205.814 55.0069C206.353 55.5457 206.656 56.2763 206.657 57.0384V193.99C206.656 194.752 206.353 195.483 205.814 196.022C205.275 196.561 204.545 196.864 203.783 196.865Z" fill="#E6E6E6"/>
<path d="M151.201 47.4004H80.0196C78.4956 47.4025 77.0347 48.0089 75.9571 49.0865C74.8795 50.1641 74.2732 51.625 74.271 53.149V191.048L74.9473 190.841V53.149C74.9489 51.8042 75.4839 50.515 76.4347 49.5641C77.3856 48.6133 78.6748 48.0783 80.0196 48.0767H151.41L151.201 47.4004ZM213.252 47.4004H80.0196C78.4956 47.4025 77.0347 48.0089 75.9571 49.0865C74.8795 50.1641 74.2732 51.625 74.271 53.149V208.023C74.2732 209.547 74.8795 211.008 75.9571 212.085C77.0347 213.163 78.4956 213.769 80.0196 213.772H213.252C214.776 213.769 216.237 213.163 217.314 212.085C218.392 211.008 218.998 209.547 219 208.023V53.149C218.998 51.625 218.392 50.1641 217.314 49.0865C216.237 48.0089 214.776 47.4025 213.252 47.4004ZM218.324 208.023C218.322 209.368 217.788 210.657 216.837 211.608C215.886 212.559 214.597 213.094 213.252 213.095H80.0196C78.6748 213.094 77.3856 212.559 76.4347 211.608C75.4839 210.657 74.9489 209.368 74.9473 208.023V53.149C74.9489 51.8042 75.4839 50.515 76.4347 49.5641C77.3856 48.6133 78.6748 48.0783 80.0196 48.0767H213.252C214.597 48.0783 215.886 48.6133 216.837 49.5641C217.788 50.515 218.322 51.8042 218.324 53.149V208.023Z" fill="#3F3D56"/>
<path d="M177.745 62.278H115.525C114.718 62.2771 113.945 61.9561 113.374 61.3856C112.804 60.815 112.483 60.0415 112.482 59.2346V44.3559C112.483 43.549 112.804 42.7754 113.374 42.2049C113.945 41.6343 114.718 41.3134 115.525 41.3125H177.745C178.552 41.3134 179.326 41.6343 179.896 42.2049C180.467 42.7754 180.788 43.549 180.789 44.3559V59.2346C180.788 60.0415 180.467 60.815 179.896 61.3856C179.326 61.9561 178.552 62.2771 177.745 62.278Z" fill="#16898E"/>
<path d="M146.635 42.3288C150.37 42.3288 153.398 39.3009 153.398 35.5658C153.398 31.8307 150.37 28.8027 146.635 28.8027C142.9 28.8027 139.872 31.8307 139.872 35.5658C139.872 39.3009 142.9 42.3288 146.635 42.3288Z" fill="#16898E"/>
<path d="M146.635 39.684C148.91 39.684 150.754 37.8397 150.754 35.5646C150.754 33.2896 148.91 31.4453 146.635 31.4453C144.36 31.4453 142.516 33.2896 142.516 35.5646C142.516 37.8397 144.36 39.684 146.635 39.684Z" fill="white"/>
</g>
<defs>
<clipPath id="clip0_1394_5157">
<rect width="219" height="213.771" fill="white"/>
</clipPath>
</defs>
</svg>
