<svg width="32" height="28" viewBox="0 0 32 28" fill="none" xmlns="http://www.w3.org/2000/svg">
<path d="M31.0834 14.1265C30.3739 13.0987 29.3396 12.3391 28.1465 11.9696C24.5649 10.6922 19.9048 11.5438 17.4892 14.4847C16.7967 15.595 15.7382 16.765 16.4784 17.8395C17.2186 18.914 19.662 19.9646 20.8559 20.5018C22.4771 21.2875 24.2698 21.6528 26.0692 21.5644C26.9666 21.513 27.8432 21.274 28.6425 20.8627C29.4418 20.4514 30.1459 19.877 30.7094 19.1766C31.7878 17.74 32.0266 15.6507 31.0834 14.1265Z" fill="#F26A8D"/>
<g opacity="0.3">
<path d="M20.9434 19.2285C20.4229 18.7976 19.8337 18.4572 19.2003 18.2217C18.1486 17.7954 17.0528 17.4871 15.9331 17.3024L16.4504 17.6167C18.454 18.3243 20.2869 19.4441 21.8309 20.9039C21.8022 20.5795 21.709 20.2642 21.5565 19.9764C21.4041 19.6887 21.1957 19.4344 20.9434 19.2285Z" fill="black"/>
</g>
<path d="M24.8752 3.7239C24.2699 2.90652 23.457 2.26591 22.5207 1.86846C21.5845 1.47101 20.559 1.33119 19.5505 1.46349C18.5452 1.62329 17.5985 2.04091 16.8027 2.67559C16.0069 3.31028 15.3892 4.14037 15.0098 5.08492C14.4169 6.58124 14.4646 8.26858 14.7312 9.86042C14.9501 11.1617 15.3879 12.5586 16.4902 13.2908L19.5386 13.3744C21.7313 12.5785 24.0514 11.5358 25.1975 9.49827C25.6854 8.60079 25.9136 7.58519 25.8566 6.5653C25.7997 5.5454 25.4599 4.56151 24.8752 3.7239Z" fill="#F26A8D"/>
<path d="M14.9023 3.64438C14.2616 2.41867 13.3105 1.28051 12.045 0.763164C10.4333 0.110513 8.55887 0.556223 7.04663 1.41979C5.67367 2.21571 4.44 3.40959 4.05398 4.93377C3.65602 6.5256 4.24898 8.2806 5.35531 9.50233C6.51623 10.6865 7.99984 11.5031 9.62141 11.8503C11.2348 12.196 12.8784 12.3813 14.5282 12.4035L15.3719 12.4791C15.922 11.0568 16.1645 9.53417 16.0836 8.01141C16.0027 6.48865 15.6001 5.00031 14.9023 3.64438Z" fill="#F26A8D"/>
<g opacity="0.3">
<path d="M16.8403 8.22909C16.7994 7.00444 16.3826 5.82205 15.6465 4.84247C15.5657 4.73839 15.4793 4.63875 15.3878 4.544L15.3162 4.46838C15.9172 6.88121 16.0563 9.38598 15.7261 11.8505C16.4809 10.7964 16.872 9.5252 16.8403 8.22909Z" fill="black"/>
</g>
<g opacity="0.3">
<path d="M20.7962 11.2655C20.2882 11.4343 19.8195 11.7039 19.4181 12.0581C19.0167 12.4123 18.6909 12.8438 18.4602 13.3269H18.5279C20.0481 12.133 21.2817 11.7589 23.4068 11.4764C23.02 11.2356 22.5812 11.0909 22.1271 11.0542C21.673 11.0175 21.2167 11.0899 20.7962 11.2655Z" fill="black"/>
</g>
<path d="M16.9718 17.8195C17.5858 17.5382 18.1127 17.0966 18.4971 16.5413C18.8816 15.986 19.1094 15.3375 19.1566 14.6637C19.1492 14.0067 18.9592 13.3647 18.6078 12.8095C18.2564 12.2543 17.7575 11.8077 17.1668 11.5199C15.9729 10.9627 14.0986 11.5 13.0957 12.3357L12.7773 18.0981L16.9718 17.8195Z" fill="#263238"/>
<path d="M13.7683 17.5012L13.5693 13.0799C13.1236 10.5568 10.8393 10.0633 8.54708 9.15998C6.78015 8.46355 4.61128 8.36406 2.8921 9.15998C1.17292 9.9559 0.265566 11.9735 0.345158 13.8639C0.424749 15.7542 1.32812 17.5131 2.44241 19.0373C3.50097 20.4859 4.8779 21.8509 6.63688 22.1971C8.62667 22.5951 10.513 21.6798 11.7745 20.076C13.036 18.4722 13.7683 17.5012 13.7683 17.5012Z" fill="#F26A8D"/>
<path d="M24.0038 24.6527C24.2107 23.4588 23.4068 22.3724 22.5791 21.5088C21.4304 20.2654 20.0624 19.2442 18.5438 18.4963C17.0156 17.7839 15.4676 17.0676 13.8081 17.378C12.3635 18.61 11.106 20.0458 10.0752 21.6401C9.60712 22.2596 9.33045 23.0024 9.2793 23.7772C9.2793 24.8755 10.111 25.8068 11.0263 26.4156C13.7723 28.2463 17.3937 28.0313 20.6052 27.2434C21.3512 27.0922 22.0685 26.8236 22.7303 26.4475C23.0533 26.2505 23.3328 25.9897 23.5518 25.6812C23.7707 25.3726 23.9245 25.0227 24.0038 24.6527Z" fill="#F26A8D"/>
<path opacity="0.3" d="M13.6132 13.6931C13.2245 12.8728 12.7103 12.1183 12.089 11.4566C11.3596 10.7166 10.4785 10.1436 9.50623 9.7772C7.55623 8.91363 6.39021 8.92556 4.29297 8.71067C5.8489 8.38058 7.46429 8.46568 8.97693 8.95741C11.7865 9.90057 13.6569 11.6834 13.6132 13.6931Z" fill="black"/>
<g opacity="0.3">
<path d="M13.868 17.2822C12.9209 19.3635 11.7588 20.7882 9.88843 21.8787L9.57007 22.5034C10.8595 22.5432 11.8384 21.8946 12.6383 20.8838C13.4074 19.8375 13.8366 18.5803 13.868 17.2822Z" fill="black"/>
</g>
<path d="M15.5074 17.1592C15.7095 17.8294 15.7735 18.5337 15.6955 19.2293C15.6176 19.925 15.3992 20.5976 15.0537 21.2064C14.9622 21.3736 15.2169 21.5248 15.3124 21.3577C15.6769 20.7138 15.9074 20.003 15.9902 19.2678C16.0729 18.5326 16.0061 17.7883 15.7939 17.0796C15.7887 17.0608 15.7798 17.0432 15.7678 17.0278C15.7557 17.0124 15.7408 16.9996 15.7238 16.9899C15.7068 16.9803 15.6881 16.9742 15.6687 16.9718C15.6493 16.9694 15.6297 16.9709 15.6108 16.9761C15.592 16.9814 15.5744 16.9902 15.559 17.0023C15.5437 17.0143 15.5308 17.0292 15.5212 17.0462C15.5116 17.0632 15.5054 17.0819 15.503 17.1013C15.5007 17.1207 15.5021 17.1404 15.5074 17.1592Z" fill="#263238"/>
<path d="M18.468 16.2279C19.3152 15.7966 20.2603 15.5936 21.2099 15.639C21.4049 15.639 21.4049 15.3524 21.2099 15.3405C20.2071 15.2936 19.2096 15.5104 18.3168 15.9693C18.1456 16.0568 18.3168 16.3155 18.468 16.2279Z" fill="#263238"/>
<path d="M22.742 15.9254C22.7774 15.9196 22.8096 15.9014 22.8328 15.8741C22.856 15.8468 22.8688 15.8121 22.8688 15.7762C22.8688 15.7403 22.856 15.7056 22.8328 15.6783C22.8096 15.651 22.7774 15.6328 22.742 15.627C22.7066 15.6328 22.6744 15.651 22.6512 15.6783C22.628 15.7056 22.6152 15.7403 22.6152 15.7762C22.6152 15.8121 22.628 15.8468 22.6512 15.8741C22.6744 15.9014 22.7066 15.9196 22.742 15.9254Z" fill="#263238"/>
<path d="M18.6792 15.3084C19.2207 14.6948 19.9351 14.2592 20.7287 14.0588C20.763 14.0452 20.7912 14.0195 20.8079 13.9866C20.8246 13.9537 20.8286 13.9158 20.8193 13.8801C20.81 13.8444 20.788 13.8133 20.7574 13.7927C20.7268 13.7721 20.6896 13.7634 20.653 13.7683C19.8077 13.9815 19.0462 14.4447 18.4683 15.0975C18.3449 15.2447 18.5518 15.4556 18.6792 15.3084Z" fill="#263238"/>
<path d="M17.4377 12.7734C17.8195 11.7882 18.3193 10.8528 18.9261 9.98771C19.0375 9.83251 18.7788 9.68128 18.6714 9.83648C18.0519 10.7189 17.5415 11.6729 17.1512 12.6779C17.0795 12.857 17.37 12.9366 17.4377 12.7575V12.7734Z" fill="#263238"/>
</svg>
