<svg width="41" height="38" viewBox="0 0 41 38" fill="none" xmlns="http://www.w3.org/2000/svg">
<path d="M7.97733 13.0702C6.27124 11.9872 4.13559 11.0495 2.61099 12.084C1.18925 13.046 1.038 15.4115 1.84264 17.2144C2.64729 19.0173 4.15979 20.3543 5.66624 21.522C10.8027 25.4908 19.7567 33.2408 25.5707 32.3575L25.2077 31.5831C21.7108 27.1001 12.2486 15.7866 7.97733 13.0702Z" fill="#F26A8D"/>
<g opacity="0.3">
<path d="M7.97733 13.0702C6.27124 11.9872 4.13559 11.0495 2.61099 12.084C1.18925 13.046 1.038 15.4115 1.84264 17.2144C2.64729 19.0173 4.15979 20.3543 5.66624 21.522C10.8027 25.4908 19.7567 33.2408 25.5707 32.3575L25.2077 31.5831C21.7108 27.1001 12.2486 15.7866 7.97733 13.0702Z" fill="black"/>
</g>
<path d="M32.7465 6.23971C32.6436 4.12827 32.1899 1.71432 30.5382 0.933876C29.0015 0.207878 27.0655 1.38763 26.1096 3.09977C25.1537 4.81192 24.9359 6.89311 24.8633 8.87751C24.6092 15.6353 23.5203 27.8684 27.4346 32.539L27.8399 31.7827C29.4008 26.2047 32.9945 11.5334 32.7465 6.23971Z" fill="#F26A8D"/>
<g opacity="0.3">
<path d="M32.7465 6.23971C32.6436 4.12827 32.1899 1.71432 30.5382 0.933876C29.0015 0.207878 27.0655 1.38763 26.1096 3.09977C25.1537 4.81192 24.9359 6.89311 24.8633 8.87751C24.6092 15.6353 23.5203 27.8684 27.4346 32.539L27.8399 31.7827C29.4008 26.2047 32.9945 11.5334 32.7465 6.23971Z" fill="black"/>
</g>
<path d="M37.9919 6.82677C36.2797 6.16733 34.4587 7.49227 33.2789 8.96847C31.0163 11.7817 29.7276 15.3633 29.044 18.9993C28.6568 21.1592 27.592 24.8678 26.7752 28.2982C25.8677 21.7581 23.9862 14.6494 22.2922 8.79302C21.2153 4.95733 18.6501 2.89428 17.1557 2.35584C16.6618 2.20484 16.1397 2.1694 15.6299 2.25228C15.1201 2.33515 14.6361 2.53411 14.2154 2.83378C13.3519 3.46232 12.6559 4.29333 12.1887 5.25378C9.9018 9.57347 11.8862 15.3754 14.2578 19.6406C16.2966 23.3009 20.5982 28.7943 24.0527 32.267C19.4043 28.1995 14.0534 25.0135 8.26226 22.8653C6.19316 22.109 3.65216 21.6553 2.04287 23.2101C0.542472 24.6803 0.65742 27.3846 1.78877 29.1875C2.92011 30.9904 4.81376 32.0915 6.62876 32.993C12.951 36.0603 20.3199 37.6817 26.8297 35.1044C30.2963 32.7207 33.0551 29.0968 35.5416 25.5878C37.2297 23.3615 38.6132 20.92 39.6556 18.3278C40.7094 15.6729 40.9207 12.7579 40.2606 9.97882C39.94 8.64177 39.214 7.29867 37.9919 6.82677Z" fill="#F26A8D"/>
<g opacity="0.6">
<path d="M37.9919 6.82677C36.2797 6.16733 34.4587 7.49227 33.2789 8.96847C31.0163 11.7817 29.7276 15.3633 29.044 18.9993C28.6568 21.1592 27.592 24.8678 26.7752 28.2982C25.8677 21.7581 23.9862 14.6494 22.2922 8.79302C21.2153 4.95733 18.6501 2.89428 17.1557 2.35584C16.6618 2.20484 16.1397 2.1694 15.6299 2.25228C15.1201 2.33515 14.6361 2.53411 14.2154 2.83378C13.3519 3.46232 12.6559 4.29333 12.1887 5.25378C9.9018 9.57347 11.8862 15.3754 14.2578 19.6406C16.2966 23.3009 20.5982 28.7943 24.0527 32.267C19.4043 28.1995 14.0534 25.0135 8.26226 22.8653C6.19316 22.109 3.65216 21.6553 2.04287 23.2101C0.542472 24.6803 0.65742 27.3846 1.78877 29.1875C2.92011 30.9904 4.81376 32.0915 6.62876 32.993C12.951 36.0603 20.3199 37.6817 26.8297 35.1044C30.2963 32.7207 33.0551 29.0968 35.5416 25.5878C37.2297 23.3615 38.6132 20.92 39.6556 18.3278C40.7094 15.6729 40.9207 12.7579 40.2606 9.97882C39.94 8.64177 39.214 7.29867 37.9919 6.82677Z" fill="white"/>
</g>
<path d="M32.2803 23.5305C31.4938 23.222 30.6528 23.8391 30.1023 24.5167C29.0828 25.8777 28.4157 27.4697 28.1602 29.1509C27.9848 30.1492 27.4947 31.8613 27.1136 33.4464C26.6247 30.3909 25.9252 27.3729 25.0203 24.4138C24.8692 23.774 24.5774 23.176 24.1661 22.6632C23.7548 22.1503 23.2344 21.7357 22.6427 21.4493C22.4147 21.3803 22.174 21.3647 21.939 21.4035C21.704 21.4423 21.4811 21.5346 21.2875 21.6732C20.8889 21.9624 20.567 22.3445 20.3497 22.7864C19.297 24.7829 20.2106 27.463 21.3056 29.4413C22.5845 31.5513 24.103 33.5063 25.831 35.2675C23.6837 33.3888 21.2109 31.9187 18.5347 30.9296C17.5849 30.5787 16.4051 30.3609 15.661 31.0869C14.9168 31.8129 15.056 33.0169 15.546 33.8518C16.119 34.634 16.8982 35.2415 17.7966 35.6063C20.7127 37.022 24.1189 37.7722 27.1257 36.5803C28.7082 35.3572 30.069 33.8715 31.1489 32.188C31.9292 31.1564 32.568 30.0251 33.0486 28.8242C33.5347 27.5965 33.6319 26.2491 33.3269 24.9644C33.2706 24.6624 33.1474 24.3768 32.9662 24.1287C32.7851 23.8806 32.5507 23.6762 32.2803 23.5305Z" fill="#263238"/>
</svg>
