<svg width="63" height="56" viewBox="0 0 63 56" fill="none" xmlns="http://www.w3.org/2000/svg">
<path d="M57.0206 36.6944C55.9619 34.5285 53.3422 33.6694 50.9706 33.258C47.6205 32.5839 44.1747 32.5347 40.8067 33.1128C37.461 33.7662 34.0851 34.4317 31.7317 36.9122C30.8162 40.6445 30.4513 44.4906 30.6487 48.3285C30.7334 49.8833 30.9331 51.5229 31.8587 52.7752C33.1776 54.56 35.6279 55.1045 37.8482 55.0137C44.5032 54.7475 50.1781 50.089 54.4796 45.001C55.5214 43.8677 56.3715 42.5722 56.9964 41.1653C57.3072 40.4617 57.4697 39.7016 57.4739 38.9324C57.478 38.1632 57.3237 37.4014 57.0206 36.6944Z" fill="#FF99BA"/>
<g opacity="0.5">
<path d="M57.0206 36.6944C55.9619 34.5285 53.3422 33.6694 50.9706 33.258C47.6205 32.5839 44.1747 32.5347 40.8067 33.1128C37.461 33.7662 34.0851 34.4317 31.7317 36.9122C30.8162 40.6445 30.4513 44.4906 30.6487 48.3285C30.7334 49.8833 30.9331 51.5229 31.8587 52.7752C33.1776 54.56 35.6279 55.1045 37.8482 55.0137C44.5032 54.7475 50.1781 50.089 54.4796 45.001C55.5214 43.8677 56.3715 42.5722 56.9964 41.1653C57.3072 40.4617 57.4697 39.7016 57.4739 38.9324C57.478 38.1632 57.3237 37.4014 57.0206 36.6944Z" fill="white"/>
</g>
<path d="M31.8041 37.1663L26.2381 30.1725C22.5174 26.5788 18.1977 28.4846 13.3759 29.7309C9.66724 30.6928 5.9949 33.0765 4.1315 36.4282C2.2681 39.7799 3.18165 44.1419 5.54719 47.1367C7.91274 50.1314 11.4943 51.9343 15.1243 53.102C18.5668 54.2152 22.4387 54.8081 25.7239 53.2895C29.4628 51.5653 31.4472 47.8445 31.5984 43.7306C31.7497 39.6166 31.8041 37.1663 31.8041 37.1663Z" fill="#FF99BA"/>
<g opacity="0.5">
<path d="M31.8041 37.1663L26.2381 30.1725C22.5174 26.5788 18.1977 28.4846 13.3759 29.7309C9.66724 30.6928 5.9949 33.0765 4.1315 36.4282C2.2681 39.7799 3.18165 44.1419 5.54719 47.1367C7.91274 50.1314 11.4943 51.9343 15.1243 53.102C18.5668 54.2152 22.4387 54.8081 25.7239 53.2895C29.4628 51.5653 31.4472 47.8445 31.5984 43.7306C31.7497 39.6166 31.8041 37.1663 31.8041 37.1663Z" fill="white"/>
</g>
<path d="M17.2175 13.1779C14.7189 11.9377 11.8391 11.1875 9.13476 11.859C5.72257 12.706 3.19368 15.6645 1.74773 18.8649C0.428837 21.775 -0.158013 25.1932 1.02778 28.1577C2.23778 31.2492 5.31117 33.3909 8.57212 34.0746C11.8331 34.7582 15.2573 34.123 18.3428 32.8646C21.4283 31.6062 24.2355 29.773 27.0185 27.946L28.4826 27.0687C27.6918 24.0893 26.2792 21.3112 24.3375 18.917C22.3959 16.5229 19.9694 14.5669 17.2175 13.1779Z" fill="#FF99BA"/>
<g opacity="0.5">
<path d="M17.2175 13.1779C14.7189 11.9377 11.8391 11.1875 9.13476 11.859C5.72257 12.706 3.19368 15.6645 1.74773 18.8649C0.428837 21.775 -0.158013 25.1932 1.02778 28.1577C2.23778 31.2492 5.31117 33.3909 8.57212 34.0746C11.8331 34.7582 15.2573 34.123 18.3428 32.8646C21.4283 31.6062 24.2355 29.773 27.0185 27.946L28.4826 27.0687C27.6918 24.0893 26.2792 21.3112 24.3375 18.917C22.3959 16.5229 19.9694 14.5669 17.2175 13.1779Z" fill="white"/>
</g>
<path d="M33.6068 1.47726C31.6492 0.859471 29.5619 0.77717 27.5617 1.23891C25.5616 1.70065 23.7215 2.68959 22.2328 4.10296C20.779 5.55199 19.7255 7.35309 19.1752 9.33059C18.6249 11.3081 18.5966 13.3945 19.0929 15.3862C19.9036 18.5382 21.9666 21.2184 24.2838 23.4932C26.1895 25.3687 28.5611 27.1231 31.2292 27.0203L36.3112 23.5355C38.9308 19.6151 41.502 15.1744 40.9575 10.4917C40.6872 8.45588 39.8568 6.53508 38.5589 4.94343C37.261 3.35178 35.5466 2.15181 33.6068 1.47726Z" fill="#FF99BA"/>
<g opacity="0.5">
<path d="M33.6068 1.47726C31.6492 0.859471 29.5619 0.77717 27.5617 1.23891C25.5616 1.70065 23.7215 2.68959 22.2328 4.10296C20.779 5.55199 19.7255 7.35309 19.1752 9.33059C18.6249 11.3081 18.5966 13.3945 19.0929 15.3862C19.9036 18.5382 21.9666 21.2184 24.2838 23.4932C26.1895 25.3687 28.5611 27.1231 31.2292 27.0203L36.3112 23.5355C38.9308 19.6151 41.502 15.1744 40.9575 10.4917C40.6872 8.45588 39.8568 6.53508 38.5589 4.94343C37.261 3.35178 35.5466 2.15181 33.6068 1.47726Z" fill="white"/>
</g>
<path d="M56.0946 11.109C53.7774 10.1652 51.1336 10.3649 48.7378 11.0667C41.3629 13.2326 34.7623 20.1417 34.3086 27.8191C34.4961 30.4508 34.1513 33.621 36.6378 34.5043C39.1244 35.3876 44.3697 34.1897 46.9531 33.6513C50.4984 32.9132 53.9831 31.5519 56.7298 29.1985C59.4765 26.845 61.4307 23.4147 61.4791 19.7968C61.5275 16.1789 59.4463 12.4763 56.0946 11.109Z" fill="#FF99BA"/>
<g opacity="0.5">
<path d="M56.0946 11.109C53.7774 10.1652 51.1336 10.3649 48.7378 11.0667C41.3629 13.2326 34.7623 20.1417 34.3086 27.8191C34.4961 30.4508 34.1513 33.621 36.6378 34.5043C39.1244 35.3876 44.3697 34.1897 46.9531 33.6513C50.4984 32.9132 53.9831 31.5519 56.7298 29.1985C59.4765 26.845 61.4307 23.4147 61.4791 19.7968C61.5275 16.1789 59.4463 12.4763 56.0946 11.109Z" fill="white"/>
</g>
<g opacity="0.3">
<path d="M45.5798 31.4671C44.2181 31.3814 42.8517 31.5267 41.5384 31.8967C39.3075 32.4424 37.1459 33.2401 35.0952 34.2743L36.3052 34.1715C40.4225 32.9479 44.7507 32.6016 49.0102 33.1551C48.5789 32.6603 48.0535 32.2563 47.4646 31.9665C46.8757 31.6767 46.235 31.5069 45.5798 31.4671Z" fill="black"/>
</g>
<g opacity="0.3">
<path d="M25.7904 18.3931C24.2679 16.4416 22.1806 15.0072 19.8131 14.2852C19.5587 14.2097 19.3001 14.1491 19.0387 14.1037L18.8269 14.0674C22.6836 17.2765 25.8999 21.1846 28.3072 25.5865C28.265 22.9802 27.3823 20.4572 25.7904 18.3931Z" fill="black"/>
</g>
<g opacity="0.3">
<path d="M35.894 18.6413C35.2635 19.5185 34.8168 20.5142 34.5808 21.5684C34.3448 22.6226 34.3243 23.7136 34.5206 24.776L34.6356 24.7034C35.7246 20.9766 37.2794 18.8712 40.4133 15.8885C38.2716 16.1547 37.1645 16.8928 35.894 18.6413Z" fill="black"/>
</g>
<path d="M37.4006 33.8569C38.7014 31.564 38.7558 28.2546 37.2252 26.1069C36.438 25.0396 35.3686 24.2131 34.1374 23.7203C32.9061 23.2276 31.5618 23.0882 30.2556 23.3178C27.6601 23.8079 25.216 26.9478 24.5686 29.4767L30.8848 39.2716L37.4006 33.8569Z" fill="#263238"/>
<path opacity="0.3" d="M27.0368 31.1221C25.4281 30.252 23.6929 29.6395 21.8943 29.3071C19.4199 28.8292 17.5505 29.2285 15.681 29.6278C11.446 30.5232 9.57658 31.9268 5.89819 34.0685C8.04781 31.6801 10.7902 29.9019 13.8479 28.9139C19.553 27.0989 24.7499 27.7644 27.0368 31.1221Z" fill="black"/>
<g opacity="0.3">
<path d="M31.7133 36.6882C32.6329 41.2076 32.4272 44.9223 30.6304 48.9395L30.8542 50.337C33.0141 48.8729 33.8429 46.6526 33.9458 44.0511C33.9761 41.4257 33.1966 38.8547 31.7133 36.6882Z" fill="black"/>
</g>
<path d="M34.3148 34.4982C35.4392 35.3576 36.3787 36.4349 37.0773 37.6657C37.7758 38.8965 38.2191 40.2555 38.3804 41.6614C38.4107 41.9458 38.8644 41.9518 38.8342 41.6614C38.6671 40.1774 38.2008 38.7426 37.4636 37.4438C36.7263 36.145 35.7334 35.0092 34.5447 34.105C34.3088 33.9295 34.0849 34.3228 34.3148 34.4982Z" fill="#263238"/>
<path d="M37.8723 29.4767C38.7488 27.7567 40.0609 26.2965 41.6778 25.2417C41.9258 25.0784 41.6778 24.6852 41.4479 24.8485C39.7607 25.9482 38.3938 27.4738 37.4851 29.271C37.352 29.5312 37.7453 29.7611 37.8723 29.5009V29.4767Z" fill="#263238"/>
<path d="M42.7423 24.4913C42.7961 24.4825 42.845 24.4549 42.8803 24.4133C42.9156 24.3718 42.935 24.319 42.935 24.2645C42.935 24.2099 42.9156 24.1572 42.8803 24.1156C42.845 24.0741 42.7961 24.0464 42.7423 24.0376C42.6885 24.0464 42.6396 24.0741 42.6042 24.1156C42.5689 24.1572 42.5496 24.2099 42.5496 24.2645C42.5496 24.319 42.5689 24.3718 42.6042 24.4133C42.6396 24.4549 42.6885 24.4825 42.7423 24.4913Z" fill="#263238"/>
<path d="M37.1642 27.7099C37.3184 26.0683 37.9659 24.5117 39.0215 23.2451C39.2091 23.0273 38.8884 22.7006 38.7009 22.9244C37.5669 24.2805 36.8727 25.9497 36.7104 27.7099C36.6802 28.0003 37.1339 27.9943 37.1642 27.7099Z" fill="#263238"/>
<path d="M32.1307 25.1326C31.5924 23.0711 31.3019 20.9528 31.2655 18.8225C31.2567 18.7687 31.229 18.7198 31.1875 18.6844C31.1459 18.6491 31.0932 18.6298 31.0386 18.6298C30.9841 18.6298 30.9314 18.6491 30.8898 18.6844C30.8482 18.7198 30.8206 18.7687 30.8118 18.8225C30.8479 20.9938 31.1445 23.153 31.6951 25.2536C31.703 25.2822 31.7165 25.309 31.7348 25.3324C31.7531 25.3558 31.7758 25.3753 31.8016 25.3899C31.8275 25.4045 31.8559 25.4139 31.8854 25.4175C31.9149 25.4211 31.9448 25.4189 31.9734 25.4109C32.002 25.403 32.0287 25.3895 32.0521 25.3712C32.0755 25.3529 32.0951 25.3302 32.1097 25.3044C32.1243 25.2785 32.1336 25.25 32.1372 25.2206C32.1408 25.1911 32.1386 25.1612 32.1307 25.1326Z" fill="#263238"/>
<path d="M55.29 31.9148C55.2562 31.915 55.2234 31.9039 55.1967 31.8832C55.17 31.8626 55.151 31.8337 55.1426 31.801C55.1343 31.7683 55.1371 31.7338 55.1507 31.7029C55.1642 31.672 55.1877 31.6465 55.2174 31.6305C56.8867 30.7063 58.3553 29.4589 59.5374 27.961C60.7195 26.4632 61.5914 24.7449 62.1022 22.9064C62.1078 22.8873 62.1171 22.8695 62.1295 22.854C62.1419 22.8386 62.1573 22.8257 62.1747 22.8161C62.1921 22.8066 62.2112 22.8005 62.231 22.7984C62.2507 22.7962 62.2707 22.798 62.2898 22.8035C62.3089 22.8091 62.3266 22.8184 62.3421 22.8308C62.3576 22.8432 62.3705 22.8586 62.3801 22.876C62.3896 22.8934 62.3956 22.9125 62.3978 22.9323C62.3999 22.952 62.3982 22.972 62.3926 22.9911C61.8704 24.8677 60.9799 26.6217 59.7729 28.1506C58.566 29.6796 57.0667 30.953 55.3626 31.8967C55.3401 31.9082 55.3152 31.9145 55.29 31.9148Z" fill="#FF99BA"/>
</svg>
