<svg width="41" height="38" viewBox="0 0 41 38" fill="none" xmlns="http://www.w3.org/2000/svg">
<path d="M7.90751 13.2265C6.20141 12.1436 4.06576 11.2058 2.54117 12.2404C1.11942 13.2023 0.968172 15.5679 1.77282 17.3708C2.57747 19.1737 4.08997 20.5107 5.59641 21.6784C10.7329 25.6472 19.6868 33.3972 25.5009 32.5139L25.1379 31.7395C21.641 27.2565 12.1788 15.943 7.90751 13.2265Z" fill="#16898E"/>
<g opacity="0.3">
<path d="M7.90751 13.2265C6.20141 12.1436 4.06576 11.2058 2.54117 12.2404C1.11942 13.2023 0.968172 15.5679 1.77282 17.3708C2.57747 19.1737 4.08997 20.5107 5.59641 21.6784C10.7329 25.6472 19.6868 33.3972 25.5009 32.5139L25.1379 31.7395C21.641 27.2565 12.1788 15.943 7.90751 13.2265Z" fill="black"/>
</g>
<path d="M32.6764 6.39621C32.5736 4.28476 32.1198 1.87082 30.4682 1.09037C28.9315 0.364372 26.9955 1.54412 26.0396 3.25627C25.0837 4.96841 24.8659 7.0496 24.7933 9.034C24.5392 15.7918 23.4502 28.0249 27.3645 32.6955L27.7699 31.9392C29.3308 26.3612 32.9245 11.6899 32.6764 6.39621Z" fill="#16898E"/>
<g opacity="0.3">
<path d="M32.6764 6.39621C32.5736 4.28476 32.1198 1.87082 30.4682 1.09037C28.9315 0.364372 26.9955 1.54412 26.0396 3.25627C25.0837 4.96841 24.8659 7.0496 24.7933 9.034C24.5392 15.7918 23.4502 28.0249 27.3645 32.6955L27.7699 31.9392C29.3308 26.3612 32.9245 11.6899 32.6764 6.39621Z" fill="black"/>
</g>
<path d="M37.9216 6.9829C36.2094 6.32345 34.3884 7.6484 33.2086 9.1246C30.9459 11.9378 29.6573 15.5194 28.9736 19.1555C28.5864 21.3153 27.5216 25.024 26.7049 28.4543C25.7974 21.9143 23.9159 14.8055 22.2219 8.94915C21.145 5.11346 18.5798 3.05041 17.0854 2.51196C16.5915 2.36096 16.0694 2.32553 15.5596 2.4084C15.0498 2.49128 14.5658 2.69024 14.1451 2.98991C13.2816 3.61845 12.5856 4.44945 12.1184 5.40991C9.83149 9.7296 11.8159 15.5315 14.1875 19.7968C16.2263 23.457 20.5279 28.9504 23.9824 32.4231C19.334 28.3556 13.983 25.1697 8.19194 23.0214C6.12285 22.2652 3.58185 21.8114 1.97256 23.3663C0.472159 24.8364 0.587108 27.5408 1.71845 29.3437C2.8498 31.1465 4.74345 32.2476 6.55844 33.1491C12.8807 36.2164 20.2496 37.8378 26.7593 35.2605C30.226 32.8768 32.9848 29.2529 35.4713 25.7439C37.1594 23.5176 38.5429 21.0761 39.5853 18.4839C40.6391 15.829 40.8504 12.9141 40.1903 10.1349C39.8697 8.7979 39.1437 7.4548 37.9216 6.9829Z" fill="#16898E"/>
<g opacity="0.6">
<path d="M37.9216 6.9829C36.2094 6.32345 34.3884 7.6484 33.2086 9.1246C30.9459 11.9378 29.6573 15.5194 28.9736 19.1555C28.5864 21.3153 27.5216 25.024 26.7049 28.4543C25.7974 21.9143 23.9159 14.8055 22.2219 8.94915C21.145 5.11346 18.5798 3.05041 17.0854 2.51196C16.5915 2.36096 16.0694 2.32553 15.5596 2.4084C15.0498 2.49128 14.5658 2.69024 14.1451 2.98991C13.2816 3.61845 12.5856 4.44945 12.1184 5.40991C9.83149 9.7296 11.8159 15.5315 14.1875 19.7968C16.2263 23.457 20.5279 28.9504 23.9824 32.4231C19.334 28.3556 13.983 25.1697 8.19194 23.0214C6.12285 22.2652 3.58185 21.8114 1.97256 23.3663C0.472159 24.8364 0.587108 27.5408 1.71845 29.3437C2.8498 31.1465 4.74345 32.2476 6.55844 33.1491C12.8807 36.2164 20.2496 37.8378 26.7593 35.2605C30.226 32.8768 32.9848 29.2529 35.4713 25.7439C37.1594 23.5176 38.5429 21.0761 39.5853 18.4839C40.6391 15.829 40.8504 12.9141 40.1903 10.1349C39.8697 8.7979 39.1437 7.4548 37.9216 6.9829Z" fill="white"/>
</g>
<path d="M32.2105 23.687C31.424 23.3785 30.583 23.9956 30.0325 24.6732C29.013 26.0342 28.3459 27.6262 28.0904 29.3074C27.915 30.3057 27.4249 32.0178 27.0438 33.6029C26.5548 30.5474 25.8554 27.5294 24.9505 24.5703C24.7994 23.9305 24.5076 23.3325 24.0963 22.8197C23.685 22.3068 23.1646 21.8922 22.5728 21.6058C22.3449 21.5368 22.1041 21.5212 21.8692 21.56C21.6342 21.5988 21.4113 21.691 21.2176 21.8297C20.8191 22.1189 20.4972 22.501 20.2799 22.9429C19.2272 24.9394 20.1407 27.6195 21.2358 29.5978C22.5147 31.7078 24.0332 33.6628 25.7612 35.424C23.6138 33.5453 21.1411 32.0752 18.4649 31.0861C17.515 30.7352 16.3353 30.5174 15.5911 31.2434C14.847 31.9694 14.9861 33.1734 15.4762 34.0083C16.0491 34.7905 16.8284 35.398 17.7268 35.7628C20.6429 37.1785 24.049 37.9287 27.0559 36.7368C28.6384 35.5137 29.9992 34.028 31.0791 32.3445C31.8593 31.3129 32.4982 30.1816 32.9788 28.9807C33.4649 27.753 33.562 26.4056 33.2571 25.1208C33.2008 24.8189 33.0775 24.5333 32.8964 24.2852C32.7153 24.0371 32.4809 23.8327 32.2105 23.687Z" fill="#263238"/>
</svg>
