<svg width="95" height="95" viewBox="0 0 95 95" fill="none" xmlns="http://www.w3.org/2000/svg">
<rect width="94.75" height="94.75" rx="47.375" fill="#0F969C"/>
<path d="M69.7962 53.8731V40.8946C70.6565 40.5918 71.438 40.1001 72.0831 39.4555C72.7282 38.8108 73.2206 38.0298 73.524 37.1697C73.8274 36.3097 73.9341 35.3925 73.8363 34.4858C73.7384 33.5791 73.4384 32.7058 72.9585 31.9303C72.4786 31.1548 71.8309 30.4968 71.063 30.0047C70.2952 29.5125 69.4268 29.1989 68.5217 29.0867C67.6166 28.9745 66.6979 29.0667 65.8332 29.3565C64.9685 29.6463 64.1797 30.1263 63.525 30.7612L53.4161 25.7047C53.4567 25.4599 53.4819 25.2128 53.4915 24.9649C53.4915 23.3432 52.8473 21.7881 51.7007 20.6414C50.554 19.4948 48.9988 18.8506 47.3772 18.8506C45.7556 18.8506 44.2004 19.4948 43.0538 20.6414C41.9071 21.7881 41.2629 23.3432 41.2629 24.9649C41.2725 25.2128 41.2977 25.4599 41.3384 25.7047L31.2294 30.7612C30.5747 30.1263 29.786 29.6463 28.9212 29.3565C28.0565 29.0667 27.1378 28.9745 26.2327 29.0867C25.3276 29.1989 24.4592 29.5125 23.6914 30.0047C22.9236 30.4968 22.2758 31.1548 21.7959 31.9303C21.316 32.7058 21.016 33.5791 20.9182 34.4858C20.8203 35.3925 20.927 36.3097 21.2304 37.1697C21.5338 38.0298 22.0262 38.8108 22.6713 39.4555C23.3165 40.1001 24.0979 40.5918 24.9582 40.8946V53.8731C24.1432 54.1585 23.3981 54.6138 22.7722 55.2087C22.1462 55.8036 21.6537 56.5246 21.3272 57.3241C21.0008 58.1236 20.8478 58.9832 20.8783 59.8462C20.9089 60.7092 21.1224 61.5559 21.5046 62.3303C21.8869 63.1046 22.4291 63.789 23.0956 64.3381C23.7621 64.8872 24.5376 65.2886 25.3707 65.5156C26.2039 65.7427 27.0758 65.7902 27.9287 65.6551C28.7816 65.5201 29.5962 65.2054 30.3184 64.732L41.3954 71.0603C41.6889 72.4373 42.4487 73.6708 43.5463 74.5525C44.6439 75.4341 46.0122 75.91 47.4201 75.8997C48.8279 75.8894 50.1891 75.3936 51.2737 74.4959C52.3583 73.5983 53.0999 72.3538 53.3733 70.9727L63.6575 64.1165C64.3239 64.7283 65.1182 65.1841 65.9826 65.4509C66.8471 65.7176 67.7601 65.7886 68.6554 65.6587C69.5507 65.5287 70.4058 65.2012 71.1588 64.6997C71.9118 64.1983 72.5438 63.5355 73.0088 62.7595C73.4738 61.9835 73.7603 61.1137 73.8475 60.2133C73.9347 59.3128 73.8203 58.4042 73.5127 57.5534C73.2052 56.7026 72.7121 55.931 72.0692 55.2944C71.4264 54.6578 70.65 54.1723 69.7962 53.8731ZM61.6438 59.6124C61.6519 59.9097 61.6819 60.206 61.7335 60.4989L52.5621 66.6132C52.0135 65.7079 51.2376 64.962 50.3114 64.4495C49.3853 63.937 48.3411 63.6758 47.2827 63.6919C46.2243 63.708 45.1886 64.0007 44.2784 64.5411C43.3682 65.0815 42.6153 65.8507 42.0945 66.7722L32.7967 61.4466C33.0472 60.7023 33.1486 59.916 33.0951 59.1324C33.0416 58.3489 32.8342 57.5836 32.4848 56.8803C32.1354 56.177 31.6509 55.5494 31.0588 55.0334C30.4668 54.5174 29.7789 54.1231 29.0344 53.8731V40.8946C30.2224 40.4745 31.2517 39.6977 31.9813 38.6704C32.711 37.6431 33.1054 36.4154 33.1106 35.1553C33.101 34.9074 33.0758 34.6603 33.0352 34.4155L43.1441 29.359C44.2772 30.4618 45.796 31.0788 47.3772 31.0788C48.9584 31.0788 50.4772 30.4618 51.6103 29.359L61.7192 34.4155C61.6786 34.6603 61.6534 34.9074 61.6438 35.1553C61.6491 36.4154 62.0435 37.6431 62.7731 38.6704C63.5028 39.6977 64.532 40.4745 65.72 40.8946V53.8731C64.532 54.2931 63.5028 55.0699 62.7731 56.0973C62.0435 57.1246 61.6491 58.3523 61.6438 59.6124ZM67.7581 33.1172C68.1612 33.1172 68.5552 33.2367 68.8904 33.4607C69.2256 33.6846 69.4868 34.0029 69.6411 34.3754C69.7953 34.7478 69.8357 35.1576 69.757 35.5529C69.6784 35.9483 69.4843 36.3114 69.1993 36.5964C68.9142 36.8815 68.5511 37.0756 68.1557 37.1542C67.7604 37.2329 67.3506 37.1925 66.9782 37.0382C66.6058 36.884 66.2874 36.6228 66.0635 36.2876C65.8395 35.9524 65.72 35.5584 65.72 35.1553C65.72 34.6148 65.9347 34.0964 66.317 33.7142C66.6992 33.3319 67.2176 33.1172 67.7581 33.1172ZM47.3772 22.9268C47.7803 22.9268 48.1744 23.0463 48.5095 23.2702C48.8447 23.4942 49.1059 23.8125 49.2602 24.1849C49.4144 24.5573 49.4548 24.9671 49.3761 25.3625C49.2975 25.7578 49.1034 26.121 48.8184 26.406C48.5333 26.691 48.1702 26.8851 47.7748 26.9638C47.3795 27.0424 46.9697 27.0021 46.5973 26.8478C46.2249 26.6935 45.9066 26.4323 45.6826 26.0972C45.4587 25.762 45.3391 25.3679 45.3391 24.9649C45.3391 24.4243 45.5539 23.9059 45.9361 23.5237C46.3183 23.1415 46.8367 22.9268 47.3772 22.9268ZM26.9963 33.1172C27.3994 33.1172 27.7935 33.2367 28.1286 33.4607C28.4638 33.6846 28.725 34.0029 28.8793 34.3754C29.0335 34.7478 29.0739 35.1576 28.9952 35.5529C28.9166 35.9483 28.7225 36.3114 28.4375 36.5964C28.1524 36.8815 27.7893 37.0756 27.3939 37.1542C26.9986 37.2329 26.5888 37.1925 26.2164 37.0382C25.844 36.884 25.5257 36.6228 25.3017 36.2876C25.0778 35.9524 24.9582 35.5584 24.9582 35.1553C24.9582 34.6148 25.173 34.0964 25.5552 33.7142C25.9374 33.3319 26.4558 33.1172 26.9963 33.1172ZM24.9582 59.6124C24.9582 59.2093 25.0778 58.8152 25.3017 58.4801C25.5257 58.1449 25.844 57.8837 26.2164 57.7294C26.5888 57.5752 26.9986 57.5348 27.3939 57.6134C27.7893 57.6921 28.1524 57.8862 28.4375 58.1712C28.7225 58.4562 28.9166 58.8194 28.9952 59.2148C29.0739 59.6101 29.0335 60.0199 28.8793 60.3923C28.725 60.7647 28.4638 61.083 28.1286 61.307C27.7935 61.5309 27.3994 61.6505 26.9963 61.6505C26.4558 61.6505 25.9374 61.4357 25.5552 61.0535C25.173 60.6713 24.9582 60.1529 24.9582 59.6124ZM47.3772 71.8409C46.9741 71.8409 46.5801 71.7214 46.2449 71.4974C45.9097 71.2735 45.6485 70.9552 45.4943 70.5828C45.34 70.2103 45.2996 69.8005 45.3783 69.4052C45.4569 69.0098 45.651 68.6467 45.9361 68.3617C46.2211 68.0766 46.5843 67.8825 46.9796 67.8039C47.375 67.7252 47.7847 67.7656 48.1572 67.9199C48.5296 68.0741 48.8479 68.3353 49.0718 68.6705C49.2958 69.0057 49.4153 69.3997 49.4153 69.8028C49.4153 70.3433 49.2006 70.8617 48.8184 71.244C48.4361 71.6262 47.9177 71.8409 47.3772 71.8409ZM67.7581 61.6505C67.355 61.6505 66.961 61.5309 66.6258 61.307C66.2906 61.083 66.0294 60.7647 65.8752 60.3923C65.7209 60.0199 65.6805 59.6101 65.7592 59.2148C65.8378 58.8194 66.0319 58.4562 66.317 58.1712C66.602 57.8862 66.9651 57.6921 67.3605 57.6134C67.7558 57.5348 68.1656 57.5752 68.538 57.7294C68.9105 57.8837 69.2288 58.1449 69.4527 58.4801C69.6767 58.8152 69.7962 59.2093 69.7962 59.6124C69.7962 60.1529 69.5815 60.6713 69.1993 61.0535C68.817 61.4357 68.2986 61.6505 67.7581 61.6505Z" fill="white"/>
</svg>
