<svg width="183" height="163" viewBox="0 0 183 163" fill="none" xmlns="http://www.w3.org/2000/svg">
<g clip-path="url(#clip0_78_502)">
<path d="M145.125 162.794C155.12 162.775 164.7 158.797 171.767 151.73C178.835 144.663 182.814 135.084 182.833 125.089V30.9366C182.833 19.9173 176.995 10.2551 167.591 5.7247C156.88 0.560842 143.934 2.95243 131.999 12.2805C131.828 12.3996 131.656 12.5304 131.485 12.6699C131.313 12.8094 131.194 12.9343 131.04 13.068L96.971 42.4878C95.7806 43.5612 95.0581 45.0583 94.9584 46.6581C94.8587 48.2579 95.3898 49.8331 96.4377 51.046C97.4856 52.2589 98.9671 53.013 100.564 53.1466C102.162 53.2801 103.748 52.7826 104.983 51.7606L139.316 22.1026C147.508 15.6165 155.866 13.6754 162.273 16.7527C167.396 19.2228 170.578 24.654 170.578 30.925V125.077C170.578 134.937 165.307 143.443 156.479 147.834C147.651 152.225 137.686 151.289 129.826 145.338L122.427 155.116C128.95 160.088 136.923 162.785 145.125 162.794Z" fill="white"/>
<path d="M113.198 85.4342C113.198 85.5784 113.185 85.7223 113.16 85.8643H66.3743C66.3903 85.1999 66.2733 84.539 66.0301 83.9204C65.787 83.3019 65.4226 82.7383 64.9583 82.2627C64.4941 81.7872 63.9394 81.4092 63.327 81.1512C62.7145 80.8932 62.0566 80.7602 61.392 80.7602C60.7274 80.7602 60.0696 80.8932 59.4571 81.1512C58.8446 81.4092 58.29 81.7872 57.8257 82.2627C57.3615 82.7383 56.9971 83.3019 56.7539 83.9204C56.5108 84.539 56.3938 85.1999 56.4098 85.8643H48.7265C48.7425 85.1995 48.6255 84.5382 48.3822 83.9193C48.1388 83.3005 47.7742 82.7365 47.3097 82.2607C46.8452 81.7848 46.2902 81.4067 45.6774 81.1485C45.0646 80.8903 44.4063 80.7573 43.7414 80.7573C43.0764 80.7573 42.4181 80.8903 41.8053 81.1485C41.1925 81.4067 40.6375 81.7848 40.173 82.2607C39.7085 82.7365 39.3439 83.3005 39.1005 83.9193C38.8572 84.5382 38.7402 85.1995 38.7562 85.8643H31.0729C31.089 85.1999 30.972 84.539 30.7288 83.9204C30.4856 83.3019 30.1212 82.7383 29.657 82.2627C29.1927 81.7872 28.6381 81.4092 28.0256 81.1512C27.4131 80.8932 26.7553 80.7602 26.0907 80.7602C25.4261 80.7602 24.7682 80.8932 24.1557 81.1512C23.5433 81.4092 22.9886 81.7872 22.5244 82.2627C22.0602 82.7383 21.6957 83.3019 21.4526 83.9204C21.2094 84.539 21.0924 85.1999 21.1084 85.8643H8.52862L7.29941 76.2049L-0.000313779 18.5976C-0.0223749 15.3311 0.827842 12.118 2.46255 9.28995C4.09725 6.46191 6.4572 4.12146 9.2987 2.51027C12.6356 0.551521 16.5084 -0.29682 20.3586 0.0875734C24.2088 0.471967 27.8375 2.06923 30.7213 4.64904L30.9683 4.86698L110.693 81.6565L112.436 83.3361C112.911 83.9341 113.179 84.6707 113.198 85.4342Z" fill="white"/>
<path d="M113.16 85.8734C113.001 86.9835 112.201 88.0674 110.865 89.0932L31.3436 158.981C28.9419 160.817 26.1468 162.069 23.1785 162.64C20.2103 163.211 17.1499 163.085 14.2387 162.272C11.3275 161.458 8.64492 159.98 6.40248 157.953C4.16004 155.926 2.41898 153.406 1.31651 150.592C0.130885 147.523 -0.0986848 144.172 0.36336 140.918L7.04702 94.6203L8.54068 85.8734H21.1089C21.1403 87.174 21.679 88.4107 22.6099 89.3194C23.5408 90.2281 24.7902 90.7368 26.0911 90.7368C27.392 90.7368 28.6414 90.2281 29.5723 89.3194C30.5032 88.4107 31.0419 87.174 31.0733 85.8734H38.7566C38.7881 87.1747 39.3271 88.4122 40.2585 89.3214C41.19 90.2307 42.4401 90.7397 43.7418 90.7397C45.0435 90.7397 46.2936 90.2307 47.225 89.3214C48.1565 88.4122 48.6955 87.1747 48.7269 85.8734H56.4073C56.4387 87.174 56.9774 88.4107 57.9084 89.3194C58.8393 90.2281 60.0886 90.7368 61.3896 90.7368C62.6905 90.7368 63.9398 90.2281 64.8708 89.3194C65.8017 88.4107 66.3404 87.174 66.3718 85.8734H113.16Z" fill="#DCFBFB"/>
</g>
<defs>
<clipPath id="clip0_78_502">
<rect width="182.833" height="163" fill="white"/>
</clipPath>
</defs>
</svg>
