<svg width="95" height="95" viewBox="0 0 95 95" fill="none" xmlns="http://www.w3.org/2000/svg">
<rect width="94.75" height="94.75" rx="47.375" fill="#0F969C"/>
<path d="M83.103 27.8856C82.3963 23.6949 78.9565 20.7465 73.4177 19.5852C70.9073 19.0587 68.255 19.0721 65.894 19.6344C65.2215 19.7938 64.4966 20.0641 63.729 20.3494C62.0554 20.9726 59.9722 21.7477 57.3784 21.7477C56.5349 21.7477 55.6681 21.6651 54.8029 21.5032C52.9441 21.1553 50.2527 20.9551 47.4177 20.9551C44.6212 20.9551 41.9715 21.1495 39.9558 21.5016C39.1115 21.6492 38.268 21.7243 37.4446 21.7243C34.8007 21.7243 32.6941 20.9534 31.0005 20.3335C30.2404 20.0557 29.5221 19.7929 28.8555 19.6344C26.4936 19.0729 23.8414 19.0587 21.3319 19.5852C15.7922 20.7474 12.3524 23.6949 11.6465 27.8856C10.8907 32.3707 11.73 36.4488 13.95 39.0743C15.1247 40.4642 16.5947 41.261 17.983 41.261C18.1882 41.261 18.3217 41.2601 18.5845 40.9064C19.156 41.2768 19.7993 41.5905 20.5076 41.8166C23.6671 42.8278 26.8215 41.7941 27.5515 39.5089C28.2849 37.2247 26.3151 34.5524 23.1548 33.5412C22.9262 33.4678 22.6976 33.4086 22.4707 33.3569C22.5583 33.1783 22.6467 32.9998 22.7385 32.8129C22.8553 32.576 22.8386 32.2956 22.6951 32.0737C22.5524 31.8518 22.308 31.7233 22.0393 31.7308C21.8016 31.7392 21.5454 31.745 21.2801 31.745C19.3479 31.745 18.0639 31.3979 17.3548 30.6846C16.8859 30.2124 16.6607 29.565 16.6665 28.7057C16.6715 27.9406 16.6874 25.6121 22.3021 24.4341C23.1523 24.2556 23.9065 24.1688 24.6081 24.1688C26.7998 24.1688 28.5577 25.0456 30.142 26.9286C32.3212 29.5208 33.2489 33.5838 33.3023 34.4423C33.7078 40.994 36.9582 45.6427 39.1082 48.7179C40.1126 50.1545 40.9803 51.3951 41.007 52.0809C41.0245 52.544 40.8185 53.8755 40.6374 55.0518C40.4372 56.3483 40.247 57.5722 40.247 58.2096V70.1342C40.247 70.2635 40.2586 70.3912 40.2745 70.5163V73.3471C40.2745 74.5601 41.2623 75.5479 42.4762 75.5479C43.1528 75.5479 43.751 75.2342 44.1548 74.7528C44.4852 75.165 44.8506 75.4128 45.2419 75.4128H49.2048C49.657 75.4128 50.0791 75.0974 50.4437 74.5576C50.8383 75.1533 51.5124 75.5488 52.2792 75.5488C53.4922 75.5488 54.4792 74.561 54.4792 73.3479L54.4767 70.4796C54.4909 70.3661 54.5034 70.2535 54.5034 70.1359V58.8145C54.5034 58.0953 54.2739 56.6812 54.0312 55.1837C53.8426 54.0198 53.6482 52.8168 53.6174 52.2311C53.5865 51.6212 54.5276 50.2705 55.5237 48.8422C57.7238 45.6877 61.0476 40.9222 61.4489 34.4423C61.5023 33.583 62.43 29.5208 64.6092 26.9286C66.1927 25.0456 67.9514 24.1688 70.143 24.1688C70.8447 24.1688 71.5989 24.2556 72.449 24.4341C78.063 25.6113 78.0797 27.9398 78.0847 28.7048C78.0905 29.5642 77.8653 30.2116 77.3964 30.6838C76.6872 31.3971 75.4033 31.7442 73.471 31.7442C73.2057 31.7442 72.9504 31.7383 72.7118 31.73C72.4574 31.7225 72.1996 31.8518 72.0561 32.0729C71.9126 32.2948 71.8967 32.576 72.0127 32.8121C72.1078 33.0048 72.1987 33.1883 72.2889 33.3719C72.0878 33.4203 71.8851 33.4762 71.6823 33.5404C68.5229 34.5516 66.5531 37.2238 67.2848 39.5081C68.0164 41.7924 71.1709 42.8269 74.3304 41.8158C75.0145 41.5964 75.6377 41.296 76.195 40.9423C76.4386 41.2576 76.5704 41.2593 76.7682 41.2593C78.1564 41.2593 79.6265 40.4625 80.8012 39.0726C83.0204 36.4488 83.8597 32.3707 83.103 27.8856ZM79.654 38.1048C79.08 38.7831 78.4393 39.2745 77.8019 39.5381C78.7279 38.4068 79.1167 37.0728 78.7254 35.8481C78.2407 34.333 76.6864 33.3727 74.7725 33.19C76.0549 33.0765 77.4757 32.7336 78.461 31.7425C79.2152 30.9833 79.5939 29.958 79.5864 28.6957C79.5664 25.8399 77.2688 23.9118 72.7561 22.9649C71.8033 22.7647 70.949 22.6679 70.1422 22.6679C67.5109 22.6679 65.325 23.7458 63.4595 25.9634C61.0276 28.8542 60.0222 33.1833 59.9488 34.3505C59.5742 40.41 56.3947 44.9686 54.2915 47.9845C52.9483 49.9118 52.0597 51.1849 52.1181 52.3103C52.1523 52.9786 52.3451 54.1675 52.5495 55.4256C52.7614 56.7338 53.0017 58.218 53.0017 58.8153V70.135C53.0017 70.1876 52.9933 70.2393 52.9833 70.3228C52.98 70.3528 52.9775 70.3837 52.9775 70.4145V73.3479C52.9775 73.7333 52.6646 74.0462 52.28 74.0462C51.8945 74.0462 51.5808 73.7333 51.5808 73.3479V62.7957C51.5808 62.2885 51.8128 61.989 52.1073 61.6111C52.421 61.2081 52.8114 60.705 52.8114 59.9608C52.8114 59.0414 52.2333 58.7161 51.7377 58.7161C51.3406 58.7161 50.9493 58.9088 50.4963 59.1324C50.155 59.3001 49.7437 59.5028 49.4067 59.5629C48.7684 58.3665 48.806 51.8807 49.0479 48.707C49.0955 48.5477 49.5085 48.1806 49.7554 47.9603C50.0407 47.7076 50.3352 47.4464 50.5605 47.1569C52.2283 45.0145 53.3771 42.1603 54.9672 38.2108C55.7039 36.3803 56.5391 34.3055 57.5577 31.9811C58.1334 30.6679 57.8539 29.7794 57.5185 29.2655C56.9028 28.3219 55.5621 27.803 53.745 27.803C53.1235 27.803 52.4702 27.9281 51.7127 28.0733C50.5246 28.3002 49.0463 28.5839 46.8404 28.5839C44.8005 28.5839 43.9003 28.3411 43.1053 28.1275C42.4862 27.9607 41.9014 27.803 40.9786 27.803C40.1569 27.803 38.1462 27.9498 37.2468 29.3139C36.9081 29.827 36.6178 30.7046 37.1609 31.9753C37.9385 33.7915 38.6109 35.3992 39.2124 36.8334C41.2656 41.7357 42.5054 44.6949 44.1398 46.9884C44.3851 47.333 44.7013 47.6283 45.0075 47.9128C45.2828 48.1706 45.6607 48.5218 45.7058 48.6987C45.9794 49.9526 46.2873 58.3048 45.4838 59.567C45.1434 59.5161 44.723 59.3042 44.3776 59.1282C43.9404 58.9063 43.5616 58.7152 43.172 58.7152C42.6831 58.7152 42.1116 59.0414 42.1116 59.96C42.1116 60.6583 42.3953 61.1831 42.6447 61.6461C42.8541 62.034 43.0519 62.4003 43.1253 62.9025C43.1912 63.3522 43.2104 65.5631 43.1728 68.5974V73.3454C43.1728 73.7308 42.86 74.0437 42.4754 74.0437C42.0899 74.0437 41.7762 73.7308 41.7762 73.3454V70.4612C41.7762 70.4237 41.7729 70.3862 41.7671 70.3486C41.7562 70.2777 41.7487 70.206 41.7487 70.1325V58.2105C41.7487 57.6874 41.9456 56.4101 42.12 55.2821C42.341 53.8596 42.5304 52.6307 42.5071 52.0225C42.462 50.8962 41.571 49.6223 40.3379 47.8586C38.1612 44.745 35.1786 40.4801 34.7999 34.3497C34.7264 33.1833 33.7211 28.8542 31.2892 25.9634C29.4245 23.7458 27.2387 22.6679 24.6065 22.6679C23.7997 22.6679 22.9454 22.7647 21.9926 22.9649C17.4808 23.911 15.1831 25.839 15.1623 28.6957C15.1539 29.958 15.5327 30.9833 16.2877 31.7425C17.2847 32.7453 18.728 33.0841 20.022 33.1942C18.1273 33.3861 16.5914 34.343 16.11 35.8481C15.7146 37.0845 16.115 38.4327 17.0611 39.5715C16.387 39.3212 15.7037 38.8232 15.0964 38.1048C13.1908 35.8514 12.455 32.1246 13.1283 28.135C13.8925 23.5981 18.1799 21.781 21.6406 21.0552C23.9365 20.5747 26.3618 20.5863 28.5085 21.0953C29.0891 21.2337 29.7357 21.4698 30.4841 21.7435C32.2886 22.4043 34.5337 23.226 37.4454 23.2252C38.354 23.2252 39.285 23.1426 40.2144 22.9808C42.1467 22.642 44.7054 22.456 47.4177 22.456C50.1634 22.456 52.7539 22.647 54.5259 22.9791C55.482 23.1585 56.4423 23.2494 57.3784 23.2494C60.2433 23.2494 62.4667 22.4209 64.2529 21.756C65.0071 21.4757 65.6587 21.2329 66.2411 21.0944C68.3877 20.5855 70.8138 20.573 73.109 21.0544C76.5696 21.7802 80.857 23.5981 81.6213 28.1342C82.2954 32.1238 81.5595 35.8506 79.654 38.1048Z" fill="white"/>
</svg>
