<svg width="95" height="95" viewBox="0 0 95 95" fill="none" xmlns="http://www.w3.org/2000/svg">
<rect width="94.75" height="94.75" rx="47.375" fill="#0F969C"/>
<path d="M40.2467 32.5029L40.2467 32.5027C40.2467 31.3881 40.5143 30.2898 41.026 29.3003L46.3604 18.9806L46.3606 18.9803L46.716 19.1639L40.2467 32.5029ZM40.2467 32.5029C40.2482 36.3536 43.3697 39.4751 47.2219 39.4751H47.5296M40.2467 32.5029L47.5296 39.4751M47.5296 39.4751C51.3804 39.4751 54.5019 36.3535 54.5019 32.5027M47.5296 39.4751L54.5019 32.5027M54.5019 32.5027C54.5019 31.3881 54.2343 30.2898 53.7227 29.3003M54.5019 32.5027L53.7227 29.3003M53.7227 29.3003L48.3882 18.9806C48.3882 18.9806 48.3881 18.9805 48.3881 18.9805L53.7227 29.3003Z" fill="white" stroke="white" stroke-width="0.8"/>
<path d="M76.3885 33.7571L76.3885 33.7571C83.6274 48.4376 83.1929 65.7365 75.2246 80.0328L74.8752 79.838L75.2246 80.0328L74.6468 81.0693C74.4849 81.3601 74.1834 81.5242 73.8731 81.5242C73.7272 81.5242 73.5796 81.4887 73.4433 81.4129L73.4422 81.4123C73.0173 81.1746 72.8631 80.6364 73.1008 80.2091L73.101 80.2087L73.6789 79.1721C73.679 79.1721 73.679 79.172 73.679 79.172C78.9022 69.7984 80.7675 59.0891 79.2352 48.7436C73.3671 50.0015 67.8225 52.2325 62.7454 55.3852C57.5334 58.6222 52.6614 62.9235 48.2609 68.176V80.6391C48.2609 81.1275 47.8642 81.5242 47.3758 81.5242C46.8874 81.5242 46.4907 81.1275 46.4907 80.6391V68.176C38.4785 58.6135 28.9818 52.3042 18.2557 49.4039C17.7829 49.2765 17.507 48.7899 17.6327 48.3199L17.6328 48.3193C17.7595 47.8482 18.2455 47.5672 18.7189 47.6963C29.5985 50.6389 39.2291 56.9587 47.3602 66.4639C47.3654 66.4638 47.3706 66.4638 47.3758 66.4638C47.381 66.4638 47.3861 66.4638 47.3913 66.4639C51.7794 61.3348 56.6243 57.1023 61.8119 53.881C67.0852 50.6062 72.8461 48.2936 78.9429 46.9957C78.8181 46.3233 78.6783 45.6531 78.5241 44.9848C68.186 47.4862 57.7105 48.758 47.3758 48.758C37.041 48.758 26.5668 47.4862 16.2275 44.9848C13.5781 56.4615 15.2135 68.6581 21.0699 79.1735L21.6477 80.2101L21.6479 80.2105C21.8849 80.6364 21.7343 81.1758 21.3057 81.4142L21.3055 81.4143C21.1691 81.4901 21.0215 81.5256 20.8756 81.5256C20.5653 81.5256 20.2638 81.3615 20.102 81.0706L19.5242 80.0342L19.5242 80.0341C11.5573 65.7365 11.1227 48.4376 18.3617 33.7585C20.029 30.3772 21.2963 26.7992 22.1293 23.1237C22.1293 23.1236 22.1293 23.1236 22.1293 23.1236L24.2152 13.9138L24.2154 13.9129C24.3238 13.439 24.7958 13.1372 25.2748 13.2462C25.7515 13.3546 26.0506 13.8275 25.9421 14.3053L76.3885 33.7571ZM76.3885 33.7571C74.7212 30.3771 73.4538 26.7991 72.6208 23.1236L70.5349 13.9165L70.5347 13.9157C70.4263 13.4418 69.9544 13.14 69.4753 13.2489L69.4749 13.249C69.001 13.3574 68.6992 13.8294 68.8081 14.3084L70.894 23.5152C71.7574 27.3267 73.0708 31.0362 74.8006 34.5406C76.1923 37.3635 77.2889 40.2874 78.094 43.2676C76.437 43.6682 74.7771 44.0377 73.1153 44.3743C72.8424 43.6434 72.3723 43.0346 71.7832 42.5924C73.0545 42.3434 74.3247 42.076 75.5918 41.7876L75.5922 41.7875C76.0661 41.6791 76.368 41.2071 76.259 40.7281L75.8689 40.8169L76.259 40.7281C76.15 40.2491 75.6743 39.9548 75.201 40.0606L75.1996 40.0609C65.5191 42.2606 55.7042 43.3216 46.0261 43.2138C36.6607 43.1104 27.1664 41.908 17.789 39.6442C18.4063 37.9134 19.1272 36.208 19.9496 34.5379C21.6779 31.0336 22.9927 27.3241 23.8562 23.5124L25.942 14.3057L76.3885 33.7571Z" fill="white" stroke="white" stroke-width="0.8"/>
</svg>
