<svg width="304" height="344" viewBox="0 0 304 344" fill="none" xmlns="http://www.w3.org/2000/svg">
<g clip-path="url(#clip0_820_2725)">
<path d="M206.055 270.551C215.706 261.466 220.682 247.857 215.497 236.345C207.95 247.929 195.525 257.052 181.119 261.587C175.509 263.354 169.056 264.811 166.005 269.266C164.106 272.039 163.967 275.511 164.823 278.65C165.678 281.789 167.44 284.676 169.184 287.525L169.194 288.33C182.85 284.856 196.405 279.636 206.055 270.551Z" fill="#F2F2F2"/>
<path d="M215.207 236.405C213.58 246.43 208.256 256.069 200.115 263.335C198.348 264.979 196.343 266.346 194.168 267.391C191.929 268.382 189.488 268.833 187.043 268.707C184.739 268.634 182.393 268.327 180.109 268.741C178.989 268.938 177.92 269.359 176.966 269.978C176.012 270.598 175.193 271.403 174.558 272.347C173.044 274.574 172.541 277.14 172.15 279.665C171.716 282.469 171.315 285.387 169.47 287.798C169.246 288.09 169.781 288.375 170.004 288.083C173.216 283.887 172.141 278.525 174.308 274C175.319 271.889 177.069 270.03 179.684 269.392C181.971 268.834 184.391 269.149 186.723 269.241C189.112 269.393 191.507 269.031 193.745 268.179C195.973 267.235 198.035 265.938 199.85 264.337C203.824 260.941 207.219 256.922 209.904 252.437C212.883 247.523 214.896 242.085 215.834 236.416C215.89 236.07 215.263 236.06 215.207 236.405Z" fill="white"/>
<path d="M202.904 261.095C204.561 262.123 206.498 262.608 208.444 262.484C210.389 262.359 212.248 261.632 213.761 260.402C214.048 260.155 213.62 259.757 213.333 260.004C211.926 261.151 210.195 261.829 208.383 261.941C206.571 262.054 204.77 261.595 203.232 260.631C202.907 260.423 202.581 260.888 202.904 261.095Z" fill="white"/>
<path d="M188.205 268.879C187.882 267.128 187.935 265.328 188.358 263.599C188.781 261.869 189.566 260.249 190.661 258.844C190.883 258.551 190.348 258.267 190.126 258.559C188.99 260.023 188.177 261.711 187.741 263.512C187.304 265.312 187.255 267.185 187.595 269.006C187.662 269.353 188.271 269.224 188.205 268.879Z" fill="white"/>
<path d="M212.088 247.378C211.404 247.134 210.793 246.719 210.314 246.173C209.836 245.627 209.504 244.968 209.352 244.257C209.29 243.91 208.68 244.04 208.742 244.384C208.914 245.168 209.28 245.896 209.808 246.5C210.336 247.104 211.007 247.566 211.76 247.842C211.832 247.878 211.913 247.889 211.992 247.873C212.07 247.856 212.14 247.814 212.192 247.753C212.212 247.722 212.227 247.687 212.233 247.651C212.239 247.614 212.237 247.577 212.227 247.541C212.217 247.505 212.2 247.472 212.176 247.444C212.152 247.416 212.122 247.393 212.088 247.378Z" fill="white"/>
<path d="M169.735 223.255C169.767 223.473 169.798 223.69 169.826 223.911C170.232 226.834 170.365 229.789 170.221 232.736C170.214 232.964 170.203 233.195 170.189 233.423C169.735 240.594 167.78 247.591 164.451 253.959C163.097 256.559 161.534 259.045 159.776 261.391C157.327 264.665 154.371 268.046 153.341 271.723C153.228 272.104 153.143 272.492 153.086 272.885L168.063 288.278C168.117 288.298 168.167 288.321 168.222 288.341L168.787 288.98C168.889 288.863 168.991 288.74 169.092 288.623C169.151 288.556 169.207 288.485 169.266 288.417C169.304 288.371 169.342 288.325 169.38 288.285C169.393 288.27 169.405 288.254 169.414 288.242C169.452 288.202 169.482 288.162 169.516 288.125C170.089 287.44 170.657 286.749 171.222 286.054C171.226 286.051 171.226 286.051 171.226 286.044C175.509 280.737 179.32 275.073 182.019 269.086C182.1 268.906 182.186 268.723 182.26 268.536C183.453 265.853 184.397 263.065 185.08 260.209C185.445 258.658 185.719 257.088 185.902 255.505C186.364 251.42 186.084 247.285 185.074 243.3C183.058 235.316 178.124 227.98 170.334 223.586C170.135 223.473 169.939 223.364 169.735 223.255Z" fill="#F2F2F2"/>
<path d="M169.544 223.455C175.193 232.311 177.621 242.792 176.157 252.852C175.892 255.066 175.236 257.216 174.219 259.201C173.087 261.195 171.437 262.846 169.443 263.978C167.553 265.125 165.467 266.107 163.93 267.633C163.175 268.375 162.605 269.286 162.269 270.291C161.933 271.296 161.84 272.367 161.997 273.415C162.331 275.985 163.709 278.297 165.146 280.518C166.742 282.983 168.445 285.522 168.642 288.413C168.666 288.764 169.29 288.711 169.266 288.361C168.923 283.331 164.349 279.612 162.943 274.866C162.287 272.651 162.395 270.251 164.042 268.374C165.482 266.733 167.632 265.718 169.557 264.572C171.525 263.485 173.198 261.933 174.428 260.051C175.556 258.124 176.307 255.999 176.64 253.79C177.458 248.897 177.383 243.897 176.42 239.03C175.325 233.376 173.164 227.983 170.053 223.136C169.858 222.831 169.35 223.151 169.544 223.455Z" fill="white"/>
<path d="M176.832 249.602C180.934 249.565 184.434 246.891 185.02 243.37C185.078 243.023 184.46 242.928 184.402 243.276C183.853 246.575 180.606 249.025 176.772 249.06C176.368 249.064 176.431 249.606 176.832 249.602Z" fill="white"/>
<path d="M170.489 263.507C169.07 262.376 167.896 260.969 167.037 259.371C166.179 257.773 165.654 256.017 165.495 254.21C165.47 253.859 164.846 253.912 164.871 254.262C165.041 256.142 165.591 257.969 166.488 259.63C167.385 261.292 168.611 262.753 170.09 263.927C170.384 264.168 170.781 263.747 170.489 263.507Z" fill="white"/>
<path d="M174.658 233.846C173.9 234 173.117 233.984 172.366 233.801C171.614 233.618 170.912 233.271 170.31 232.786C170.02 232.541 169.623 232.963 169.911 233.206C170.579 233.74 171.355 234.122 172.185 234.326C173.015 234.53 173.879 234.551 174.718 234.388C174.884 234.356 175.016 234.251 175 234.091C174.985 234.014 174.941 233.946 174.878 233.9C174.814 233.855 174.735 233.835 174.658 233.846Z" fill="white"/>
<path d="M135.031 287.872C116.39 300.617 97.8566 303.852 82.8444 296.98C63.5795 288.162 51.9095 263.884 50.8269 230.37L51.9682 230.477C53.0355 263.524 64.4294 287.412 83.2282 296.017C97.838 302.704 115.971 299.49 134.288 286.967L135.031 287.872Z" fill="#F2F2F2"/>
<path d="M250.226 72.0699C248.391 92.2954 243.161 113.622 234.959 134.199C224.817 159.646 210.96 182.06 194.886 199.016L193.994 198.239C209.99 181.363 223.784 159.049 233.884 133.707C243.012 110.807 248.441 86.9753 249.592 64.7998L250.732 64.9906C250.611 67.3327 250.443 69.6924 250.226 72.0699Z" fill="#F2F2F2"/>
<path d="M200.707 43.3241L199.598 43.4455C194.658 24.03 185.081 10.5791 171.903 4.54676C155.15 -3.1214 134.434 2.02791 113.572 19.0463C92.6033 36.1517 74.0407 63.1706 61.3037 95.1274L60.2285 94.6353C73.0214 62.539 91.6792 35.3895 112.765 18.1891C133.957 0.901723 155.095 -4.28534 172.286 3.58359C185.843 9.78877 195.67 23.5309 200.707 43.3241Z" fill="#F2F2F2"/>
<path d="M262.195 212.359C239.618 248.277 212.226 273.941 185.067 284.623L184.518 283.615C211.489 273.008 238.72 247.475 261.194 211.721L262.195 212.359Z" fill="#F2F2F2"/>
<path d="M297.029 131.884C296.657 135.983 296.18 140.133 295.598 144.332L294.466 144.058C298.811 112.719 297.27 83.9849 290.007 60.9561L291.098 60.7734C297.433 80.862 299.447 105.245 297.029 131.884Z" fill="#F2F2F2"/>
<path d="M61.2188 100.749C58.3209 106.854 55.5645 113.178 53.0262 119.547C38.4192 156.195 31.0171 193.623 31.6219 227.785L30.4803 227.664C29.8748 193.374 37.2983 155.817 51.951 119.055C54.4966 112.668 57.2608 106.326 60.167 100.204L61.2188 100.749Z" fill="#F2F2F2"/>
<path d="M134.483 313.054C115.842 325.799 97.3085 329.033 82.2963 322.162C63.0314 313.344 51.3614 289.065 50.2788 255.552L51.4201 255.659C52.4874 288.706 63.8813 312.594 82.6801 321.199C97.2899 327.886 115.423 324.672 133.74 312.149L134.483 313.054Z" fill="#F2F2F2"/>
<path d="M249.678 97.2496C247.842 117.475 242.613 138.802 234.411 159.379C224.269 184.826 210.412 207.239 194.337 224.196L193.445 223.418C209.442 206.543 223.236 184.229 233.336 158.887C242.464 135.987 247.893 112.155 249.044 89.9795L250.184 90.1703C250.063 92.5123 249.894 94.8721 249.678 97.2496Z" fill="#F2F2F2"/>
<path d="M247.668 69.9032L246.559 70.0246C241.619 50.6091 232.042 37.1582 218.864 31.1259C202.111 23.4577 181.395 28.607 160.533 45.6254C139.564 62.7307 121.002 89.7497 108.265 121.706L107.189 121.214C119.982 89.1181 138.64 61.9686 159.726 44.7682C180.918 27.4808 202.056 22.2938 219.247 30.1627C232.804 36.3679 242.631 50.11 247.668 69.9032Z" fill="#F2F2F2"/>
<path d="M260.715 246.39C238.138 282.309 210.747 307.973 183.587 318.654L183.038 317.647C210.01 307.039 237.24 281.507 259.714 245.752L260.715 246.39Z" fill="#F2F2F2"/>
<path d="M296.481 157.066C296.108 161.165 295.632 165.314 295.05 169.514L293.918 169.239C298.263 137.901 296.722 109.167 289.458 86.1377L290.55 85.9551C296.885 106.044 298.898 130.427 296.481 157.066Z" fill="#F2F2F2"/>
<path d="M60.6707 125.931C57.7728 132.036 55.0164 138.36 52.4781 144.729C37.8711 181.377 30.469 218.804 31.0739 252.967L29.9322 252.845C29.3267 218.556 36.7502 180.999 51.4029 144.237C53.9485 137.85 56.7127 131.508 59.619 125.386L60.6707 125.931Z" fill="#F2F2F2"/>
<path d="M279.069 108.259C280.331 106.363 279.584 103.647 277.4 102.195C275.217 100.742 272.424 101.102 271.162 102.999C269.9 104.896 270.647 107.611 272.83 109.064C275.014 110.516 277.807 110.156 279.069 108.259Z" fill="#FD6584"/>
<path d="M134.016 132.44C136.658 128.39 140.973 125.208 145.778 124.939C150.583 124.67 156.358 128.762 158.729 132.973C163.067 140.675 161.185 148.08 155.21 153.437C154.399 153.162 151.566 152.33 150.741 152.065L150.218 151.12L149.572 151.694C142.189 152.431 135.056 151.61 129.498 146.108C130.189 141.321 131.373 136.489 134.016 132.44Z" fill="#2F2E41"/>
<path d="M153.813 186.499L152.941 194.595L153.454 205.211L129.94 202.417L127.73 186.499L130.545 186.527L153.813 186.499Z" fill="#FFB6B6"/>
<path d="M144.159 151.513C149.552 151.513 153.923 147.141 153.923 141.749C153.923 136.356 149.552 131.984 144.159 131.984C138.766 131.984 134.395 136.356 134.395 141.749C134.395 147.141 138.766 151.513 144.159 151.513Z" fill="#FFB7B7"/>
<path d="M133.339 159.891L138.927 156.538L150.102 155.421L159.979 160.451L159.88 175.815L153.614 191.752L127.353 188.399L126.355 182.778C126.355 182.778 119.091 173.022 126.914 167.434L133.339 159.891Z" fill="#0F969C"/>
<path d="M140.508 126.919C142.624 126.326 144.86 126.312 146.983 126.879C149.106 127.446 151.037 128.573 152.576 130.142C154.114 131.711 155.203 133.664 155.728 135.798C156.253 137.932 156.195 140.167 155.56 142.271C149.613 142.745 143.735 142.19 139.101 137.983L138.689 134.373L136.998 137.394C135.293 136.914 133.585 136.431 131.874 135.946C132.397 133.817 133.47 131.863 134.985 130.279C136.5 128.695 138.405 127.537 140.508 126.919Z" fill="#2F2E41"/>
<path d="M99.8031 114.267C99.5383 114.831 99.4005 115.447 99.3994 116.071C99.3983 116.694 99.534 117.311 99.7969 117.876C100.06 118.441 100.443 118.942 100.921 119.344C101.398 119.745 101.958 120.036 102.56 120.198L120.752 154.524L128.095 148.856L107.904 116.897C108.108 115.867 107.928 114.799 107.396 113.893C106.865 112.987 106.02 112.308 105.022 111.984C104.023 111.66 102.94 111.713 101.979 112.134C101.017 112.555 100.243 113.314 99.8031 114.267Z" fill="#FFB6B6"/>
<path d="M129.645 166.122C129.645 166.122 127.959 167.617 125.562 163.488C123.643 160.183 114.071 145.384 112.716 140.253C111.972 140.274 111.243 140.047 110.643 139.608C110.042 139.169 109.605 138.543 109.4 137.828L119.682 133.837C121.917 134.954 121.296 136.503 120.73 137.305L124.559 143.048L137.296 157.342L130.883 165.063L129.645 166.122Z" fill="#0F969C"/>
<path d="M303.445 343.602H0.554586C0.4075 343.602 0.266433 343.544 0.162427 343.44C0.0584215 343.336 0 343.195 0 343.048C0 342.901 0.0584215 342.76 0.162427 342.656C0.266433 342.552 0.4075 342.493 0.554586 342.493H303.445C303.592 342.493 303.734 342.552 303.838 342.656C303.942 342.76 304 342.901 304 343.048C304 343.195 303.942 343.336 303.838 343.44C303.734 343.544 303.592 343.602 303.445 343.602Z" fill="#CCCCCC"/>
<path d="M230.931 34.0862C225.464 28.6978 218.164 25.7238 210.843 23.8212C202.556 21.6674 193.987 20.3987 185.521 19.1815C176.698 17.913 167.839 16.9346 158.946 16.2463C150.065 15.5615 141.168 15.1696 132.255 15.0704C124.313 14.9814 116.317 14.9787 108.413 15.8598C100.969 16.6898 93.5429 18.3552 86.8316 21.7744C80.8575 24.7524 75.8385 29.3464 72.3448 35.0342C69.1329 40.3286 67.2232 46.6751 67.8872 52.8985C68.1987 55.963 69.1528 58.9273 70.6874 61.5981C72.4863 64.5495 74.7788 67.17 77.4648 69.3453C83.0102 74.0279 89.6402 77.4509 94.4107 83.0161C95.6704 84.474 96.7708 86.0623 97.6931 87.7539C98.3858 89.0368 99.165 90.1409 100.453 90.8893C101.603 91.5457 102.922 91.8468 104.243 91.7548C105.564 91.6627 106.828 91.1816 107.876 90.372C109.362 89.2056 110.429 87.4077 111.579 85.9279L115.589 80.7677C115.879 80.305 116.215 79.8728 116.592 79.4776C116.862 79.2542 116.416 79.451 116.504 79.3954C116.553 79.3647 116.639 79.3817 116.692 79.36C116.959 79.2834 117.233 79.2325 117.509 79.2081C120.437 78.6697 123.371 78.1662 126.312 77.6975C137.169 75.9457 148.097 74.5006 159.07 73.7218C164.726 73.2701 170.402 73.1347 176.073 73.3162C183.406 73.6163 190.638 75.0723 197.944 75.7005C205.811 76.3768 214.073 76.2833 221.485 73.2502C227.418 70.8225 232.926 66.7381 236.139 61.0968C237.663 58.4287 238.566 55.4514 238.781 52.3862C239.173 45.4335 235.792 38.8772 230.931 34.0862Z" fill="#E6E6E6"/>
<path d="M127.883 20.7686C126.484 20.7686 125.086 20.776 123.689 20.7908C110.273 20.9332 96.4074 22.0179 85.8856 28.9332C76.5465 35.0714 70.001 48.7442 75.5403 58.5498C78.084 63.0523 82.6925 66.3298 87.5716 69.7993C89.484 71.1595 91.4619 72.5659 93.3572 74.0806C97.4976 77.3892 101.397 81.8297 103.64 86.8226L113.491 74.1444L115.353 73.788C117.143 73.4452 159.467 65.4198 182.008 68.0252C184.08 68.2649 186.176 68.5407 188.202 68.8073C197.359 70.0121 206.008 71.1494 214.312 69.4701C222.98 67.716 232.498 61.0212 233.065 52.0687C233.453 45.9398 229.465 39.2161 222.907 34.9395C216.275 30.6154 208.004 28.8301 200.101 27.372C176.279 22.9825 152.106 20.7722 127.883 20.7686Z" fill="white"/>
<path d="M204.338 40.2768H109.198C108.649 40.2768 108.122 40.0587 107.734 39.6705C107.346 39.2823 107.128 38.7558 107.128 38.2068C107.128 37.6578 107.346 37.1312 107.734 36.743C108.122 36.3548 108.649 36.1367 109.198 36.1367H204.338C204.887 36.1367 205.414 36.3548 205.802 36.743C206.19 37.1312 206.408 37.6578 206.408 38.2068C206.408 38.7558 206.19 39.2823 205.802 39.6705C205.414 40.0587 204.887 40.2768 204.338 40.2768Z" fill="#0F969C"/>
<path d="M204.338 52.9829H109.198C108.649 52.9829 108.122 52.7648 107.734 52.3766C107.346 51.9884 107.128 51.4618 107.128 50.9128C107.128 50.3638 107.346 49.8373 107.734 49.4491C108.122 49.0609 108.649 48.8428 109.198 48.8428H204.338C204.887 48.8428 205.414 49.0609 205.802 49.4491C206.19 49.8373 206.408 50.3638 206.408 50.9128C206.408 51.4618 206.19 51.9884 205.802 52.3766C205.414 52.7648 204.887 52.9829 204.338 52.9829Z" fill="#0F969C"/>
<path d="M120.285 65.6889H109.198C108.649 65.6889 108.122 65.4708 107.734 65.0826C107.346 64.6944 107.128 64.1679 107.128 63.6189C107.128 63.0699 107.346 62.5433 107.734 62.1551C108.122 61.7669 108.649 61.5488 109.198 61.5488H120.285C120.834 61.5488 121.361 61.7669 121.749 62.1551C122.137 62.5433 122.355 63.0699 122.355 63.6189C122.355 64.1679 122.137 64.6944 121.749 65.0826C121.361 65.4708 120.834 65.6889 120.285 65.6889Z" fill="#0F969C"/>
<path d="M103.096 115.341C107.955 115.341 111.894 111.402 111.894 106.543C111.894 101.683 107.955 97.7441 103.096 97.7441C98.2365 97.7441 94.2974 101.683 94.2974 106.543C94.2974 111.402 98.2365 115.341 103.096 115.341Z" fill="#E6E6E6"/>
<path d="M77.4963 214.736C78.7583 212.839 78.0113 210.124 75.8279 208.671C73.6445 207.219 70.8515 207.579 69.5895 209.476C68.3275 211.372 69.0744 214.088 71.2578 215.54C73.4412 216.993 76.2343 216.633 77.4963 214.736Z" fill="#F2F2F2"/>
<path d="M266.275 214.138C267.537 212.242 266.79 209.526 264.606 208.074C262.423 206.621 259.63 206.981 258.368 208.878C257.106 210.775 257.853 213.49 260.036 214.943C262.22 216.395 265.013 216.035 266.275 214.138Z" fill="#E6E6E6"/>
<path d="M195.011 145.669C196.273 143.772 195.526 141.057 193.343 139.604C191.159 138.151 188.366 138.511 187.104 140.408C185.842 142.305 186.589 145.02 188.773 146.473C190.956 147.926 193.749 147.566 195.011 145.669Z" fill="#E6E6E6"/>
<path d="M166.01 333.485H160.869L158.423 313.655H166.01V333.485Z" fill="#FFB6B6"/>
<path d="M168.724 342.393H165.037L164.379 338.912L162.693 342.393H152.915C152.446 342.393 151.99 342.243 151.612 341.965C151.234 341.687 150.956 341.296 150.816 340.849C150.677 340.401 150.684 339.921 150.837 339.478C150.99 339.035 151.28 338.652 151.666 338.386L159.474 332.993V329.474L167.688 329.964L168.724 342.393Z" fill="#2F2E41"/>
<path d="M137.132 333.485H131.991L129.545 313.655H137.132V333.485Z" fill="#FFB6B6"/>
<path d="M139.846 342.393H136.159L135.501 338.912L133.816 342.393H124.037C123.568 342.393 123.112 342.243 122.734 341.965C122.357 341.687 122.078 341.296 121.938 340.849C121.799 340.401 121.806 339.921 121.959 339.478C122.112 339.035 122.402 338.652 122.788 338.386L130.597 332.993V329.474L138.81 329.964L139.846 342.393Z" fill="#2F2E41"/>
<path d="M168.229 316.385H168.173L167.184 284.142C167.824 282.908 168.148 281.535 168.129 280.145C168.11 278.755 167.747 277.391 167.073 276.175L166.932 275.919L167.299 274.217C167.77 272.032 167.554 269.753 166.68 267.695L165.757 237.619C169.052 216.263 153.348 202.335 153.348 202.335H129.823L124.772 219.688C121.433 252.218 122.039 283.917 127.337 314.629L127.193 314.702C126.673 314.881 126.45 315.602 126.694 316.311C126.939 317.02 127.559 317.45 128.079 317.27L140.504 316.838C141.024 316.659 141.247 315.938 141.002 315.229C140.757 314.52 140.137 314.09 139.617 314.27L138.772 314.697L140.574 283.584L140.374 277.901L140.786 271.454L142.69 242.455L149.898 278.116L157.262 316.744C157.058 316.928 156.916 317.169 156.853 317.435C156.79 317.702 156.809 317.981 156.908 318.237C157.007 318.492 157.181 318.712 157.407 318.866C157.633 319.021 157.901 319.103 158.175 319.102H168.229C168.589 319.102 168.935 318.959 169.189 318.704C169.444 318.449 169.587 318.104 169.587 317.743C169.587 317.383 169.444 317.038 169.189 316.783C168.935 316.528 168.589 316.385 168.229 316.385Z" fill="#2F2E41"/>
<path d="M157.257 226.232C157.788 225.905 158.241 225.465 158.584 224.945C158.926 224.424 159.151 223.834 159.241 223.217C159.331 222.6 159.285 221.971 159.106 221.373C158.926 220.776 158.618 220.226 158.203 219.76L161.806 181.079L152.558 181.793L151.924 219.591C151.189 220.34 150.754 221.333 150.702 222.382C150.649 223.43 150.984 224.462 151.641 225.28C152.298 226.099 153.233 226.648 154.268 226.823C155.303 226.999 156.367 226.788 157.257 226.232Z" fill="#FFB6B6"/>
<path d="M159.636 160.604C159.636 160.604 161.866 160.278 161.608 165.045C161.401 168.861 162.384 192.385 160.704 197.418C161.338 197.808 161.823 198.398 162.085 199.094C162.346 199.791 162.368 200.554 162.148 201.265L151.361 198.965C150.104 196.806 150.365 194.588 151.278 194.228L151.224 187.326L148.84 164.572L158.021 160.812L159.636 160.604Z" fill="#0F969C"/>
</g>
<defs>
<clipPath id="clip0_820_2725">
<rect width="304" height="343.601" fill="white"/>
</clipPath>
</defs>
</svg>
