<svg width="39" height="37" viewBox="0 0 39 37" fill="none" xmlns="http://www.w3.org/2000/svg">
<path d="M33.5202 13.1227C32.5148 12.3818 31.2895 12.0001 30.0412 12.0391C26.2388 11.9968 22.1096 14.3188 20.7826 17.8858C20.4892 19.161 19.8691 20.6118 20.9187 21.3869C21.9683 22.162 24.6207 22.3601 25.9244 22.4796C27.713 22.6948 29.527 22.4568 31.1996 21.7876C32.0315 21.4469 32.7826 20.9356 33.4045 20.2865C34.0264 19.6375 34.5052 18.8652 34.8101 18.0196C35.3623 16.3102 34.9081 14.257 33.5202 13.1227Z" fill="#F26A8D"/>
<g opacity="0.3">
<path d="M25.5924 21.2463C24.96 21.0082 24.2921 20.8782 23.6166 20.8615C22.4834 20.8008 21.3469 20.8659 20.228 21.0557L20.8195 21.1846C22.9442 21.2015 25.0418 21.6638 26.9768 22.5416C26.8442 22.2442 26.6534 21.9764 26.4156 21.754C26.1778 21.5315 25.8979 21.3589 25.5924 21.2463Z" fill="black"/>
</g>
<path d="M24.264 5.30653C23.4256 4.73066 22.4485 4.3895 21.4339 4.31839C20.4192 4.24729 19.4041 4.44884 18.4936 4.90216C17.595 5.38043 16.8358 6.08342 16.2899 6.94255C15.744 7.80168 15.43 8.78762 15.3787 9.80423C15.305 11.4121 15.8993 12.992 16.6695 14.4104C17.3 15.5696 18.1685 16.7479 19.4492 17.0816L22.3588 16.1685C24.1731 14.7022 26.0276 12.9612 26.4481 10.6616C26.6173 9.65424 26.5026 8.61966 26.1168 7.67381C25.731 6.72797 25.0895 5.90826 24.264 5.30653Z" fill="#F26A8D"/>
<path d="M14.8085 8.47737C13.8037 7.52692 12.534 6.76027 11.169 6.68296C9.4326 6.59039 7.80532 7.62187 6.65647 8.9306C5.6173 10.13 4.83934 11.6604 4.9704 13.2272C5.11218 14.8619 6.24404 16.3284 7.68776 17.1235C9.17088 17.8654 10.8395 18.1547 12.4858 17.9552C14.1238 17.7571 15.7382 17.3973 17.3055 16.8813L18.1278 16.6782C18.1851 15.1544 17.9189 13.6357 17.3467 12.2222C16.7746 10.8087 15.9095 9.53238 14.8085 8.47737Z" fill="#F26A8D"/>
<g opacity="0.3">
<path d="M18.1329 12.182C17.6956 11.0373 16.9167 10.055 15.9018 9.36829C15.7916 9.29617 15.6775 9.23006 15.5601 9.17025L15.4678 9.12207C16.8214 11.2079 17.7681 13.5311 18.2579 15.9689C18.6286 14.7265 18.5847 13.3972 18.1329 12.182Z" fill="black"/>
</g>
<g opacity="0.3">
<path d="M22.8617 13.7647C22.4363 14.0896 22.0808 14.4971 21.8165 14.9627C21.5523 15.4282 21.3847 15.9423 21.3237 16.4741L21.3877 16.4521C22.4366 14.8285 23.4813 14.0733 25.3988 13.1145C24.9547 13.0127 24.4927 13.0186 24.0513 13.1318C23.61 13.2449 23.2021 13.4619 22.8617 13.7647Z" fill="black"/>
</g>
<path d="M21.3787 21.2067C21.8677 20.7408 22.2222 20.1518 22.405 19.5016C22.5878 18.8515 22.5921 18.164 22.4175 17.5116C22.1967 16.8928 21.808 16.3476 21.2951 15.9369C20.7821 15.5263 20.165 15.2665 19.5128 15.1865C18.2026 15.0483 16.6051 16.1663 15.9289 17.2829L17.5033 22.8352L21.3787 21.2067Z" fill="#263238"/>
<path d="M18.2458 21.9489L16.6187 17.8331C15.3761 15.5925 13.0556 15.8693 10.5941 15.7611C8.69675 15.6777 6.61358 16.2895 5.24703 17.6016C3.88049 18.9137 3.6792 21.1168 4.36967 22.8783C5.06014 24.6398 6.48681 26.009 8.03648 27.0875C9.50887 28.1127 11.2551 28.9553 13.031 28.7102C15.042 28.4389 16.5277 26.9595 17.1986 25.0324C17.8695 23.1054 18.2458 21.9489 18.2458 21.9489Z" fill="#F26A8D"/>
<path d="M30.2516 25.3794C30.0588 24.1832 28.9451 23.4176 27.8813 22.8704C26.3905 22.0685 24.7646 21.5481 23.0853 21.3352C21.4085 21.159 19.7116 20.9855 18.2434 21.8191C17.2785 23.4542 16.5567 25.221 16.101 27.0641C15.86 27.8021 15.8401 28.5946 16.0439 29.3438C16.4014 30.3824 17.4909 30.9922 18.5545 31.27C21.7467 32.1073 25.101 30.7255 27.8813 28.9352C28.5375 28.5495 29.1283 28.062 29.6316 27.491C29.873 27.1996 30.0524 26.8621 30.159 26.499C30.2656 26.136 30.2971 25.7551 30.2516 25.3794Z" fill="#F26A8D"/>
<path opacity="0.3" d="M16.8599 18.3986C16.2255 17.7495 15.4936 17.2034 14.6908 16.7799C13.7603 16.3176 12.7407 16.0626 11.7021 16.0326C9.57722 15.8507 8.47856 16.2414 6.42556 16.7208C7.78935 15.9023 9.34449 15.457 10.9348 15.4297C13.8984 15.4071 16.2472 16.4841 16.8599 18.3986Z" fill="black"/>
<g opacity="0.3">
<path d="M18.269 21.7096C18.0508 23.9859 17.4157 25.7112 16.0021 27.351L15.9044 28.0453C17.1365 27.6633 17.8511 26.7314 18.2784 25.5153C18.6651 24.2757 18.6618 22.9472 18.269 21.7096Z" fill="black"/>
</g>
<path d="M19.7793 21.0594C20.1885 21.6273 20.4783 22.2724 20.631 22.9556C20.7836 23.6387 20.7961 24.3458 20.6675 25.0339C20.6354 25.2217 20.9254 25.2818 20.9613 25.0927C21.0964 24.3653 21.0831 23.6182 20.922 22.8961C20.761 22.174 20.4557 21.4919 20.0243 20.8909C20.0132 20.8748 19.9991 20.861 19.9827 20.8504C19.9664 20.8398 19.9481 20.8325 19.9288 20.8289C19.9096 20.8254 19.8899 20.8256 19.8708 20.8297C19.8517 20.8338 19.8336 20.8415 19.8175 20.8526C19.8015 20.8637 19.7877 20.8778 19.7771 20.8942C19.7664 20.9106 19.7591 20.9289 19.7556 20.9481C19.752 20.9673 19.7523 20.987 19.7564 21.0061C19.7604 21.0252 19.7682 21.0433 19.7793 21.0594Z" fill="#263238"/>
<path d="M22.2753 19.215C22.936 18.5314 23.7636 18.0318 24.6763 17.7657C24.8606 17.7022 24.7674 17.4313 24.5791 17.4835C23.6157 17.7655 22.743 18.2952 22.0481 19.0196C21.9148 19.1581 22.1608 19.347 22.2753 19.215Z" fill="#263238"/>
<path d="M26.2185 17.5378C26.2501 17.5208 26.2746 17.4932 26.2876 17.4598C26.3007 17.4263 26.3014 17.3894 26.2898 17.3555C26.2781 17.3216 26.2548 17.2929 26.2239 17.2746C26.193 17.2563 26.1567 17.2496 26.1213 17.2556C26.0897 17.2726 26.0652 17.3003 26.0522 17.3337C26.0391 17.3671 26.0384 17.4041 26.05 17.438C26.0617 17.4719 26.0851 17.5006 26.1159 17.5189C26.1468 17.5371 26.1831 17.5439 26.2185 17.5378Z" fill="#263238"/>
<path d="M22.1758 18.2769C22.4882 17.5205 23.022 16.8761 23.7071 16.4283C23.7351 16.4043 23.7534 16.3709 23.7585 16.3343C23.7635 16.2978 23.7551 16.2606 23.7346 16.2299C23.7142 16.1991 23.6833 16.1769 23.6476 16.1674C23.6119 16.1579 23.574 16.1618 23.541 16.1783C22.811 16.655 22.2418 17.3408 21.9078 18.1461C21.839 18.3255 22.1034 18.4576 22.1758 18.2769Z" fill="#263238"/>
<path d="M20.1766 16.2837C20.217 15.2278 20.3851 14.1807 20.6773 13.1652C20.7321 12.9822 20.4383 12.9234 20.3873 13.1051C20.0887 14.1411 19.9166 15.2093 19.8746 16.2866C19.8651 16.4793 20.1657 16.46 20.1714 16.2686L20.1766 16.2837Z" fill="#263238"/>
</svg>
