<svg xmlns="http://www.w3.org/2000/svg" viewBox="0 0 422.42 390.1"><defs><style>.cls-1{fill:#f5f6ff;}.cls-2,.cls-3{fill:#e9e9ff;}.cls-2{opacity:0.83;}</style></defs><g id="Layer_2" data-name="Layer 2"><g id="Layer_1-2" data-name="Layer 1"><path class="cls-1" d="M231.32,125c0,.41-.09.83-.16,1.24s-.11.94-.17,1.4c-.71,5.56-1.48,10.7-3.75,14.25-1.86,3-4.79,4.84-9.57,4.84-4.55,0-7.42-1.89-9.22-4.87-2.07-3.42-2.73-8.3-2.94-13.44,0-.29,0-.59,0-.88l0-1.3c0-.87,0-1.73,0-2.6,0-5.27.19-9.55,1.54-12.6,0,0,0,0,0,0,2.07-2.38,5.39-3.64,10.69-3.64a19,19,0,0,1,9.24,2,11.27,11.27,0,0,1,3,2.36C231.64,114.94,232,119.41,231.32,125Z"/><path class="cls-2" d="M134.27,376l-1.11-.07h0A143.45,143.45,0,0,1,0,234.39q13.17-.78,24.67-1.49l7.06-.44a169.39,169.39,0,0,0,13.2,57.72c15.63,36.91,42.71,64.36,74.64,79.71A145.33,145.33,0,0,0,134.27,376Z"/><path class="cls-2" d="M422.42,234.39A143.47,143.47,0,0,1,291.63,375.72l-.46,0a142.9,142.9,0,0,0,14.09-5.87c31.94-15.35,59-42.8,74.65-79.71a169.26,169.26,0,0,0,13.19-57.56l4.66.28Q409.25,233.62,422.42,234.39Z"/><path class="cls-1" d="M218.89,390.1h-.34l-16.79-2.65c-14.25-2.87-24.54-5.4-26.53-6-2.18-.64-4.32-1.32-4.32-1.32l-1.32-.42-1-.32c-3.5-1.17-6.95-2.46-10.35-3.9a146.71,146.71,0,0,1-25.13-13.69A154.4,154.4,0,0,1,117.89,350a164.63,164.63,0,0,1-26.16-29.32A181.49,181.49,0,0,1,61.2,243l0-.15q-.89-5.93-1.39-12c-.38-4.64-.61-9.33-.66-14.07,0-.69,0-1.41,0-2.11,0-4.27.15-8.49.42-12.67a189.47,189.47,0,0,1,4.68-31.41q1.68-7.16,3.9-14.05c1.87-5.8,3.91-11.16,6-16.07a176.75,176.75,0,0,1,17.62-31.79c2.15-3,4.22-5.79,6.15-8.22.58-.73,1.16-1.44,1.71-2.12,2.19-2.65,4.14-4.87,5.76-6.65l2.43-2.64h.36l-.18-.19c.3-.33.62-.65.92-1,11.83-12.65,22.46-24,32-34.11,25.67-27.08,43.67-45,56.49-53.8-5.58,8.16-11.8,20.42-20.45,36.4-.37.66-.74,1.4-1.15,2.22-3.38,6.77-8.65,19.17-18.18,41.55,0,0-3.31,7.8-7.61,21.91-.81,2.67-1.66,5.57-2.51,8.69-.37,1.32-.74,2.68-1.11,4.09a63.84,63.84,0,0,0-1.5,8.52,60.86,60.86,0,0,0-.37,6.57,36.91,36.91,0,0,0,1.4,10.55c.07.25.14.48.22.72.38,1.15.84,2.26.84,2.26a44.91,44.91,0,0,0,3,5.63,74,74,0,0,0,5.26,7.66,148.82,148.82,0,0,0,17.31,18.14l.49.54c.73.8,1.42,1.58,2.12,2.37,2.39,2.68,4.6,5.27,6.62,7.74.78.93,1.52,1.84,2.23,2.75,4.06,5.18,9.41,11.82,13.21,20.81.84,2,4.88,11.56,3.43,16.58a81.72,81.72,0,0,1-2.86,7.9c-.11.27-.23.53-.35.8-3.84,8.42-8.64,14.13-12.86,23l-.24.48a85.34,85.34,0,0,0-6,18.22,40.64,40.64,0,0,0-.69,10.7,99.33,99.33,0,0,0,3.85,21c4.59,16.37,12.5,34.47,19.94,49.63.6,1.22,1.19,2.42,1.78,3.6,1.79,3.57,3.54,6.95,5.17,10.06l3,5.64c1.63,3,3.09,5.63,4.32,7.8C217.1,387,218.19,388.9,218.89,390.1Z"/><path class="cls-3" d="M66.3,162.52c-2.39,10.14-6.09,28.72-6.78,39.51-.27,4.18-.42,8.41-.42,12.67,0,.7,0,1.42,0,2.11q.09,7.11.67,14.07.49,6.06,1.37,12a.83.83,0,0,0,0,.15,181.62,181.62,0,0,0,30.53,77.68A164.63,164.63,0,0,0,117.89,350a154.4,154.4,0,0,0,15.27,11.81,145.35,145.35,0,0,0,25.13,13.69c3.4,1.43,6.85,2.74,10.35,3.9l1,.32,1.32.42c1.42.48,2.88.9,4.32,1.32,5,1.45,14.07,3.23,14.07,3.23,5.94,1.18,9.39,1.86,14.77,2.81,4,.71,9,1.55,14.74,2.44a226.8,226.8,0,0,1-84.55-14,153.67,153.67,0,0,1-14.69-6.08c-31.94-15.35-59-42.8-74.63-79.71a168.94,168.94,0,0,1-13.21-57.72c-1-20.41-.17-41.12,5.82-60.15,1.09-3.49,1.9-6.38,3.21-9.79H66.3"/><path class="cls-1" d="M258.89,39.22a150.81,150.81,0,0,1,21.57,14.53c9.37,7.59,19,17.37,26.44,24.87h0c9.34,10.25-1.7-2.37,9.79,10.45l.32.36c1.84,2.06,4.35,4.9,7.25,8.48.25.29.49.6.74.91,1.77,2.18,3.64,4.63,5.6,7.32a180.23,180.23,0,0,1,19.77,34.35c.83,1.88,1.6,3.8,2.38,5.76.43,1.1,1.39,3.66,2.56,7.05,1.8,5.29,3.4,10.71,4.71,16.23.11.4.2.81.29,1.21q.62,2.63,1.17,5.3c.26,1.32.53,2.66.77,4s.48,2.68.7,4l.42,2.71c.26,1.82.5,3.64.71,5.48s.4,3.67.56,5.53c.12,1.39.23,2.78.32,4.18,0,.7.09,1.4.13,2.1.07,1.4.13,2.8.18,4.22,0,.71,0,1.41.05,2.11s0,1.43,0,2.14h0c0,.35,0,.7,0,1.06v1.06c0,.74,0,1.47,0,2.22q-.08,7.1-.66,14.05a188.78,188.78,0,0,1-4.19,26.87c-.17.77-.36,1.54-.55,2.29-.1.47-.21.92-.33,1.37-.21.82-.41,1.62-.63,2.43-.35,1.34-.73,2.67-1.11,4-.29,1-.59,2-.89,3s-.61,2-.94,3q-1.55,4.69-3.31,9.27l-1,2.64-1.08,2.62q-1.68,3.9-3.48,7.7a171,171,0,0,1-33,46.84c-5,4.95-11.35,10.31-11.88,10.76-4.64,3.94-7,6-10.58,8.49-7.72,5.46-14.42,8.55-21.5,11.81,0,0-5.84,2.69-11.33,4.67-1.6.57-3.31,1.14-3.31,1.14l-1.66.54-1.62.5c-1.23.37-14.15,4.13-31.81,9.25.55-1.22,1.39-3.11,2.47-5.55,1-2.15,2.1-4.73,3.37-7.65.76-1.74,1.56-3.6,2.41-5.55,1.31-3,2.72-6.33,4.18-9.79.48-1.14,1-2.3,1.46-3.47,6-14.26,12.68-30.84,17.68-45.11a194.19,194.19,0,0,0,6.67-22.27,34.6,34.6,0,0,0,1-7.5c-.48-23-29.91-41.23-27.76-66.88a55.38,55.38,0,0,1,3.14-13,80.58,80.58,0,0,1,12.85-23c.68-.86,1.5-1.91,2.52-3.1,11.7-13.73,20-14.69,26.58-26,.51-.89,1-1.72,1.31-2.48,0,0,.76-1.54,1.37-3.19a29.41,29.41,0,0,0,1.43-5c.22-1.15.39-2.31.52-3.47a56.36,56.36,0,0,0,.28-7.48,66.43,66.43,0,0,0-1.11-10.77l-.23-1.12c-.89-4.26-2.31-10.61-4.44-18.24-2.65-9.53-5.09-16.34-6.1-19.25A338.53,338.53,0,0,1,258.89,39.22Z"/><path class="cls-3" d="M384.1,162.42c6.92,17.9,8.59,37.12,9.13,56.69q.21,6.73-.14,13.51a169,169,0,0,1-13.17,57.56c-15.65,36.91-42.72,64.36-74.66,79.71-6.74,3.25-14.1,5.87-14.1,5.87-4.45,1.62-14,4.89-35,8.9-9.31,1.77-21.38,3.78-35.67,5.42,8.83-2.74,15.82-4.76,20.55-6.09a198.59,198.59,0,0,0,21.28-6.89c1.83-.72,3.19-1.3,3.5-1.43a144.74,144.74,0,0,0,25.82-14c3.65-2.48,7.22-5.14,10.66-7.95a158.27,158.27,0,0,0,11.88-10.75,171.15,171.15,0,0,0,33-46.85c1.2-2.53,2.37-5.1,3.48-7.71.36-.86.72-1.74,1.08-2.61l1-2.64q1.77-4.58,3.31-9.28.48-1.47.93-2.94t.9-3c.38-1.33.76-2.66,1.11-4,.21-.8.43-1.61.63-2.42.12-.45.22-.91.33-1.37.19-.75.37-1.52.55-2.29A190,190,0,0,0,364.7,231c.38-4.63.61-9.32.66-14.05,0-.75,0-1.49,0-2.22v-1.06c0-.35,0-.71,0-1.07h0c0-.71,0-1.43,0-2.13s0-1.41,0-2.12c-.06-1.42-.12-2.82-.2-4.21,0-.72-.07-1.41-.12-2.11-.09-1.4-.2-2.79-.31-4.18-.16-1.86-.36-3.7-.57-5.53s-.45-3.66-.71-5.48L363,184.1c-.22-1.36-.45-2.69-.69-4s-.52-2.69-.78-4c-.37-1.78-2.87-11.78-3.29-13.53"/></g></g></svg>