<svg width="95" height="95" viewBox="0 0 95 95" fill="none" xmlns="http://www.w3.org/2000/svg">
<rect width="94.75" height="94.75" rx="47.375" fill="#0F969C"/>
<path d="M26.2312 45.1773L26.2311 45.1773C24.789 44.041 23.1083 43.3817 21.6146 43.3817C20.5101 43.3817 19.5706 43.7594 18.988 44.4661C18.281 45.3213 18.1712 46.5206 18.636 47.8191C19.079 49.0574 20.0046 50.2706 21.2359 51.24C22.678 52.3763 24.3594 53.0363 25.8538 53.0363C26.9578 53.0363 27.8963 52.6585 28.4803 51.9527L28.4804 51.9526C29.1969 51.0843 29.2841 49.8967 28.8729 48.6838C28.4616 47.4706 27.5481 46.2152 26.2312 45.1773ZM21.8748 50.4561L21.8747 50.456C20.7817 49.5954 19.9769 48.5381 19.5997 47.4862C19.2433 46.4888 19.3265 45.6506 19.7816 45.0997L19.7816 45.0997C20.2615 44.5184 21.0281 44.3873 21.6146 44.3873C22.8631 44.3873 24.3149 44.9553 25.5929 45.9627L25.5929 45.9627C26.6967 46.8321 27.4763 47.8771 27.8486 48.8558C28.2222 49.8377 28.178 50.7251 27.6876 51.3197C27.207 51.9011 26.4403 52.0322 25.8545 52.0322C24.6054 52.0322 23.1529 51.4634 21.8748 50.4561Z" fill="white" stroke="white" stroke-width="0.289266"/>
<path d="M74.075 49.4103L74.075 49.4102C74.4321 48.4137 74.349 47.5755 73.8939 47.0238C73.414 46.4431 72.6473 46.3114 72.0608 46.3114C70.8124 46.3114 69.3606 46.8794 68.0826 47.8868L68.0825 47.8868C66.9787 48.7555 66.199 49.8003 65.8266 50.7791C65.4531 51.7611 65.4974 52.6491 65.9885 53.2445L74.075 49.4103ZM74.075 49.4103C73.6986 50.4628 72.8931 51.5201 71.8 52.3801L71.7999 52.3801M74.075 49.4103L71.7999 52.3801M71.7999 52.3801C70.5211 53.3875 69.0693 53.9562 67.8209 53.9562M71.7999 52.3801L67.8209 53.9562M67.8209 53.9562C67.2353 53.9562 66.4686 53.8245 65.9887 53.2446L67.8209 53.9562ZM65.195 53.8788L65.1951 53.8789C65.7865 54.5941 66.7016 54.9618 67.8209 54.9618C69.3138 54.9618 70.9953 54.3025 72.4381 53.1655C73.6702 52.1954 74.5958 50.9822 75.0388 49.7446L75.0388 49.7446C75.5036 48.4452 75.3929 47.2475 74.6875 46.3917C74.1041 45.6835 73.1646 45.3065 72.0601 45.3065C70.5672 45.3065 68.8865 45.9651 67.4436 47.1021C66.1263 48.1393 65.2126 49.3945 64.8014 50.608C64.3902 51.8213 64.4778 53.0095 65.195 53.8788Z" fill="white" stroke="white" stroke-width="0.289266"/>
<path d="M42.9638 47.7669L42.9638 47.7668C42.5571 46.9619 41.6543 46.0469 40.7781 45.166L42.9638 47.7669ZM42.9638 47.7669C43.6227 49.0706 44.5108 51.0089 45.2329 52.9572C45.962 54.9245 46.4956 56.8346 46.4956 58.1104C46.4956 59.0789 47.3229 59.6859 48.2573 59.6859C49.1918 59.6859 50.0189 59.078 50.0189 58.1104C50.0189 57.4604 50.1843 56.5804 50.4613 55.5779C50.7361 54.5834 51.1116 53.5001 51.5118 52.4553C52.3126 50.3645 53.2016 48.4557 53.5498 47.7679L53.55 47.7675M42.9638 47.7669L53.55 47.7675M53.55 47.7675C53.9574 46.9611 54.8612 46.0446 55.7386 45.1624L53.55 47.7675ZM53.928 41.5315L53.9282 41.5314L53.9542 41.522C54.2507 41.414 54.578 41.2948 54.9891 41.1859C55.8303 40.9605 56.7105 41.3228 57.0781 42.1041C57.3922 42.7703 57.251 43.5332 56.7643 44.0902C56.7642 44.0904 56.764 44.0905 56.7638 44.0907L56.4009 43.7734L53.928 41.5315ZM53.928 41.5315L53.9269 41.5319C53.4435 41.708 52.9992 41.87 52.2176 41.9924C51.4239 42.1168 50.2735 42.2015 48.3935 42.2015C46.4314 42.2015 45.2295 42.1166 44.3995 41.9916C43.5817 41.8684 43.1166 41.7053 42.6129 41.5288L42.6109 41.5281L42.6108 41.528M53.928 41.5315L42.6108 41.528M42.6108 41.528C42.2898 41.4156 41.9492 41.2965 41.5183 41.185L41.5183 41.185M42.6108 41.528L41.5183 41.185M41.5183 41.185L41.5172 41.1847M41.5183 41.185L41.5172 41.1847M41.5172 41.1847C40.6739 40.9687 39.8015 41.33 39.4345 42.1077L41.5172 41.1847ZM40.9713 42.8188L40.9712 42.8191C40.9647 42.8328 40.9615 42.8487 40.966 42.8723C40.971 42.8979 40.9871 42.9401 41.0315 42.9905L41.0329 42.9922L41.0329 42.9922C41.2779 43.2732 41.5964 43.5936 41.9551 43.9545C41.9659 43.9654 41.9768 43.9763 41.9877 43.9873L40.9713 42.8188ZM40.9713 42.8188C40.9748 42.8115 40.9775 42.8082 40.9784 42.8072C40.9792 42.8063 40.9795 42.8061 40.9797 42.806L40.9798 42.806C40.98 42.8058 40.9821 42.8045 40.9871 42.8032C40.9923 42.8018 41.0016 42.8 41.0159 42.8C41.0326 42.8 41.0577 42.8024 41.0919 42.8109C41.4548 42.9045 41.7415 43.0053 42.0436 43.1118L42.0442 43.112M40.9713 42.8188L42.0442 43.112M42.0442 43.112C42.597 43.3061 43.1597 43.5036 44.1066 43.6483C45.0431 43.7915 46.3456 43.882 48.3935 43.882C50.3632 43.882 51.6181 43.7913 52.522 43.6474C53.4363 43.5019 53.9809 43.3033 54.5141 43.1088L54.5144 43.1087C54.8053 43.0027 55.0816 42.9022 55.4306 42.8089C55.4963 42.7915 55.5273 42.8019 55.5321 42.8038C55.5337 42.8045 55.5344 42.8049 55.5345 42.805C55.5345 42.805 55.5345 42.805 55.5345 42.805C55.5346 42.805 55.5346 42.805 55.5345 42.805L55.5349 42.8054L55.5359 42.8067C55.5368 42.808 55.5384 42.8105 55.5404 42.8146L55.5409 42.8158M42.0442 43.112L55.5409 42.8158M55.5409 42.8158C55.5485 42.8319 55.5516 42.8491 55.547 42.8729C55.5421 42.8987 55.5261 42.941 55.4816 42.992C55.2318 43.2773 54.9069 43.6041 54.5424 43.971L54.529 43.9844L54.5289 43.9845L54.4949 44.0188C53.6251 44.8935 52.5685 45.9562 52.0326 47.0161M55.5409 42.8158L44.4812 47.0147M44.4812 47.0147L44.4812 47.0148C44.6718 47.3915 45.5938 49.2412 46.4693 51.445C47.3185 53.5826 48.1585 56.1358 48.1913 57.9988C48.2005 58.0004 48.21 58.0018 48.2196 58.003C48.2384 58.0052 48.2523 58.0058 48.2573 58.006C48.2622 58.0058 48.2761 58.0052 48.2949 58.003C48.3046 58.0018 48.3141 58.0004 48.3234 57.9988C48.3567 56.3841 49.0965 54.0294 49.8932 51.936C50.7176 49.77 51.6391 47.7934 52.0326 47.0161M44.4812 47.0147C43.9454 45.9563 42.8902 44.895 42.0218 44.0216M44.4812 47.0147L42.0218 44.0216M52.0326 47.0161L52.4628 47.2338L52.0325 47.0163C52.0325 47.0163 52.0326 47.0162 52.0326 47.0161ZM42.0218 44.0216C42.0104 44.0102 41.9991 43.9988 41.9878 43.9874L42.0218 44.0216ZM39.4344 42.108C39.1202 42.7734 39.2636 43.5359 39.7499 44.0921L39.4344 42.108ZM39.7499 44.0922C40.0362 44.4196 40.4019 44.7878 40.7781 45.166L39.7499 44.0922Z" fill="white" stroke="white" stroke-width="0.964222"/>
<path d="M78.8259 44.5625C78.7176 44.7253 78.6692 44.9283 78.6675 45.1205C78.6658 45.3129 78.7107 45.5168 78.8145 45.6828L78.8146 45.6829C78.9219 45.8543 79.0888 45.973 79.286 45.973C79.4786 45.973 79.6396 45.8605 79.7469 45.6992L79.747 45.6991C80.1825 45.0436 80.774 44.3846 81.4163 43.6703C83.4811 41.376 86.0888 38.4783 86.0888 32.7326C86.0892 30.3082 85.2908 27.7471 83.916 25.7877C82.5412 23.8284 80.5706 22.4466 78.225 22.4466C76.234 22.4466 74.4905 23.2222 72.9243 24.389L72.9024 24.4054L79.004 44.681M78.8259 44.5625L79.004 44.681M78.8259 44.5625C78.8259 44.5626 78.8258 44.5627 78.8258 44.5627L79.004 44.681M78.8259 44.5625C79.3189 43.8198 79.949 43.1184 80.6017 42.392L80.6257 42.3653L80.6258 42.3652C82.6257 40.1427 84.8506 37.6674 84.8506 32.7351C84.8506 30.6938 84.1621 28.5333 82.9824 26.8872C81.8029 25.2415 80.1507 24.1322 78.2242 24.1322C77.7461 24.1322 77.286 24.1892 76.8349 24.2835L76.5955 24.3336L76.5779 24.0896C76.5666 23.9332 76.5403 23.7992 76.4904 23.6921C76.4904 23.6922 76.4905 23.6924 76.4906 23.6926L76.6842 23.6017C76.7216 23.682 76.7472 23.7696 76.7645 23.8613C76.7588 23.8625 76.7531 23.8637 76.7474 23.8649L76.7911 24.0742L77.0044 24.0588C77.0038 24.0502 77.0031 24.0415 77.0024 24.0329C77.3984 23.9609 77.804 23.9184 78.2242 23.9184C82.2559 23.9184 85.0644 28.5642 85.0644 32.7351C85.0644 37.7517 82.7908 40.2789 80.7847 42.5082L80.7667 42.5283C80.1095 43.2598 79.4883 43.9512 79.004 44.681M76.0637 22.9832C76.7517 22.775 77.4707 22.6604 78.225 22.6604C82.7333 22.6604 85.8758 27.9698 85.875 32.7326C85.875 38.3951 83.3145 41.2415 81.2573 43.5273C80.6178 44.2386 80.0147 44.9097 79.5689 45.5807L76.0637 22.9832ZM76.0637 22.9832C75.997 22.9934 75.9333 23.014 75.8732 23.0434" fill="white" stroke="white" stroke-width="0.427672"/>
<path d="M69.3615 39.3229L69.2617 39.4281C68.6617 40.0606 68.0003 40.727 67.2456 41.4323L67.2455 41.4324C65.9092 42.6792 64.3313 43.425 62.971 44.0678L62.9459 44.0797L62.9458 44.0798C61.848 44.5977 60.9106 45.0422 60.241 45.6298C59.5889 46.2021 59.195 46.9074 59.195 47.9678V51.8583C59.195 52.859 58.8158 53.841 58.3061 54.7493C57.797 55.6565 57.1441 56.5131 56.5731 57.2625L56.5695 57.2672L56.5694 57.2673L56.5676 57.2696C56.2678 57.6635 55.9696 58.0553 55.7458 58.3923C55.6337 58.5611 55.5443 58.7102 55.4839 58.8343C55.4195 58.9663 55.403 59.0405 55.403 59.0694V69.8181C55.403 70.0164 55.3043 70.1964 55.1457 70.3098L55.1376 70.3155L55.1375 70.3154C55.1386 70.3147 55.1391 70.3143 55.1372 70.3156L55.1326 70.3188L55.1117 70.3331C55.0939 70.3452 55.069 70.3619 55.0371 70.3828C54.9734 70.4246 54.8823 70.4827 54.7655 70.5528C54.5319 70.6929 54.1953 70.8809 53.7689 71.0823L53.7688 71.0824C52.5544 71.6553 50.6139 72.3404 48.2632 72.3404C45.9126 72.3404 43.9713 71.6553 42.7576 71.0824M69.3615 39.3229L41.5261 70.1056L41.3719 70.3024C41.3738 70.3039 41.3769 70.3062 41.3811 70.3093C41.4606 70.3672 41.9502 70.7017 42.7576 71.0824M69.3615 39.3229L69.3197 39.184M69.3615 39.3229L69.3197 39.184M42.7576 71.0824L42.8643 70.8563L42.7577 71.0824C42.7577 71.0824 42.7576 71.0824 42.7576 71.0824ZM69.3197 39.184C69.2968 39.108 69.2972 39.0549 69.3125 39.0126L69.3133 39.0103M69.3197 39.184L69.3133 39.0103M69.3133 39.0103L69.7484 37.7638L69.3274 37.5133M69.3133 39.0103L69.3274 37.5133M69.3274 37.5133C68.4834 38.4415 67.5326 39.4537 66.3533 40.5527L66.5167 40.728M69.3274 37.5133L66.5167 40.728M66.5167 40.728L66.3533 40.5527C65.1615 41.6634 63.7668 42.3238 62.379 42.9785L62.3789 42.9786M66.5167 40.728L62.3789 42.9786M62.3789 42.9786L62.3583 42.9883C61.2627 43.5056 60.1549 44.0286 59.3253 44.7722C58.4754 45.5339 57.915 46.5278 57.915 47.967V51.8575C57.915 52.6169 57.603 53.4254 57.1391 54.2367C56.6765 55.0456 56.0793 55.8301 55.5357 56.5431L55.5348 56.5443C55.1422 57.0592 54.7936 57.5164 54.5445 57.9193C54.2985 58.317 54.1229 58.702 54.1229 59.0694V64.7938C54.1097 64.2709 53.9648 63.9028 53.7189 63.6654C53.4626 63.4177 53.1393 63.3538 52.8751 63.3538C52.6201 63.3538 52.3828 63.448 52.149 63.5818C51.9196 63.713 51.6683 63.8975 51.3855 64.1052L51.375 64.1129C50.5304 64.7322 49.4591 65.5085 48.2624 65.5085C47.0651 65.5085 45.993 64.7315 45.1485 64.1115L45.1354 64.102C44.8537 63.8951 44.6036 63.7114 44.3753 63.5808C44.1419 63.4471 43.9052 63.3531 43.6506 63.3531C43.386 63.3531 43.0626 63.417 42.8061 63.6646C42.5602 63.902 42.4152 64.2702 42.402 64.793V59.0694C42.402 58.702 42.2263 58.317 41.9804 57.9193C41.7313 57.5164 41.3827 57.0592 40.9901 56.5444L40.9892 56.5431C40.4456 55.8301 39.8484 55.0455 39.3858 54.2364C38.9219 53.425 38.6099 52.6165 38.6099 51.8575V47.967C38.6099 46.5278 38.0495 45.534 37.1996 44.7724C36.3708 44.0297 35.2644 43.507 34.1698 42.9899L34.146 42.9786L34.146 42.9786M62.3789 42.9786L34.146 42.9786M34.146 42.9786C32.7589 42.3238 31.3642 41.6634 30.1715 40.5527M34.146 42.9786L30.1715 40.5527M30.1715 40.5527C28.6566 39.1399 27.512 37.8671 26.4971 36.7385M30.1715 40.5527L26.4971 36.7385M26.4971 36.7385L26.4962 36.7375M26.4971 36.7385L26.4962 36.7375M26.4962 36.7375L26.4962 36.7375M26.4962 36.7375L26.4962 36.7375M26.4962 36.7375L26.463 36.7005C24.1746 34.1555 22.5763 32.3779 19.3443 32.3779C17.9232 32.3779 16.695 32.7329 15.8148 33.3633C14.9299 33.997 14.3999 34.9093 14.3999 35.9899C14.3999 37.9978 15.8166 40.1689 18.4646 40.1689C18.8008 40.1689 19.1038 39.9105 19.1038 39.5559C19.1038 39.2013 18.8008 38.9429 18.4646 38.9429C16.6685 38.9429 15.6784 37.4459 15.6784 35.9899C15.6784 35.2962 16.0202 34.7103 16.6475 34.288C17.2811 33.8615 18.2071 33.6039 19.3443 33.6039C21.9751 33.6039 23.2633 35.0186 25.528 37.5371L26.4962 36.7375ZM44.3698 65.0851L44.3698 65.0852L44.3867 65.0975C45.2978 65.767 46.6156 66.7352 48.2624 66.7352C49.9084 66.7352 51.2254 65.7678 52.1357 65.0991L52.1526 65.0867L52.1527 65.0866L52.1527 65.0866C52.3091 64.9718 52.4884 64.8403 52.645 64.7354C52.7158 64.6881 52.7785 64.6485 52.83 64.6193C52.8393 64.6754 52.8462 64.7568 52.8462 64.8728V70.1416C51.7468 70.6178 50.1525 71.1152 48.2624 71.1152C46.3724 71.1152 44.7781 70.6178 43.6787 70.1416V64.8728C43.6787 64.7575 43.6855 64.6762 43.6947 64.62C43.7462 64.649 43.8087 64.6882 43.8791 64.7352C44.0356 64.8396 44.2142 64.9707 44.3698 65.0851Z" fill="white" stroke="white" stroke-width="0.5"/>
<path d="M66.6178 41.265C66.6492 41.2658 66.6805 41.2705 66.7124 41.2797C66.7842 41.3034 66.8395 41.3511 66.8724 41.4143C66.8728 41.4153 66.8741 41.419 66.876 41.4265C66.8776 41.4327 66.8794 41.4404 66.8815 41.4509L66.8889 41.488L67.0092 42.0928L67.4108 41.6248C68.7206 40.0983 69.6714 39.0048 70.7884 38.386L70.8924 38.3283L70.9287 38.215C70.9654 38.1003 71.0679 38.0214 71.1894 38.0214H71.6339H71.6769L71.7182 38.0094C72.1531 37.8822 72.6162 37.8046 73.1456 37.8046C74.2037 37.8046 75.0589 38.0558 75.6405 38.4661C76.2147 38.8711 76.5289 39.4332 76.5289 40.1028C76.5289 41.5312 75.605 42.9599 73.9725 42.9599C73.6113 42.9599 73.3063 43.2479 73.3063 43.6177C73.3063 43.9874 73.6113 44.2754 73.9725 44.2754C76.5206 44.2754 77.8613 42.0899 77.8613 40.1028C77.8613 39.0243 77.3559 38.1101 76.5086 37.4742C75.6666 36.8424 74.4952 36.4891 73.1456 36.4891C70.071 36.4891 68.5458 38.2662 66.4025 40.7637L66.3973 40.7697L65.9854 41.2497L66.6178 41.265Z" fill="white" stroke="white" stroke-width="0.6"/>
<path d="M76.6889 33.5673C77.4976 33.5673 78.1532 32.9268 78.1532 32.1367C78.1532 31.3466 77.4976 30.7061 76.6889 30.7061C75.8802 30.7061 75.2246 31.3466 75.2246 32.1367C75.2246 32.9268 75.8802 33.5673 76.6889 33.5673Z" fill="white"/>
<path d="M79.7333 34.0527C79.7252 34.0527 79.7179 34.057 79.7106 34.0585C79.7018 34.0592 79.6945 34.062 79.6864 34.0642C79.6381 34.0749 79.5905 34.0971 79.5597 34.1386C79.4909 34.2331 79.5114 34.3633 79.6066 34.432L81.037 35.4466C81.0743 35.4731 81.1197 35.4874 81.1629 35.4874C81.2289 35.4874 81.2948 35.4567 81.3373 35.4001C81.4061 35.3071 81.3841 35.1762 81.2889 35.1082L79.86 34.0935C79.8226 34.0656 79.7772 34.0527 79.7333 34.0527Z" fill="white"/>
<path d="M79.8602 30.4242L81.2891 29.4088C81.3851 29.3415 81.4063 29.2099 81.3375 29.1169C81.295 29.0603 81.2298 29.0303 81.1632 29.0303C81.1192 29.0303 81.0753 29.0432 81.0372 29.0703L79.6068 30.085C79.5108 30.1537 79.4911 30.2847 79.5599 30.3784C79.6017 30.4349 79.6668 30.4643 79.7342 30.4643C79.7789 30.4635 79.8221 30.4507 79.8602 30.4242Z" fill="white"/>
<path d="M82.3828 32.2575C82.3828 32.1423 82.2868 32.0479 82.1682 32.0479H80.4001C80.283 32.0479 80.1855 32.1423 80.1855 32.2575C80.1855 32.3734 80.283 32.4679 80.4001 32.4679H82.1682C82.2868 32.4679 82.3828 32.3734 82.3828 32.2575Z" fill="white"/>
<path d="M71.6521 32.4679H73.4201C73.5388 32.4679 73.6347 32.3734 73.6347 32.2575C73.6347 32.1423 73.5388 32.0479 73.4201 32.0479H71.6521C71.5349 32.0479 71.4375 32.1423 71.4375 32.2575C71.4375 32.3734 71.5349 32.4679 71.6521 32.4679Z" fill="white"/>
<path d="M73.9612 30.4242C73.9986 30.4507 74.0425 30.4643 74.0872 30.4643C74.1531 30.4643 74.219 30.4349 74.26 30.3784C74.3303 30.2847 74.3084 30.1537 74.2131 30.085L72.7842 29.0703C72.7461 29.0432 72.7022 29.0303 72.6582 29.0303C72.6502 29.0303 72.6429 29.0346 72.6363 29.0353C72.6268 29.0367 72.6194 29.0396 72.6099 29.0417C72.5623 29.0532 72.5154 29.0746 72.4839 29.1169C72.4151 29.2099 72.4356 29.3415 72.5323 29.4088L73.9612 30.4242Z" fill="white"/>
<path d="M78.0542 35.312C78.033 35.3049 78.0132 35.292 77.9898 35.292C77.9678 35.292 77.9451 35.2956 77.9231 35.3027C77.8103 35.3385 77.7474 35.4573 77.7847 35.5668L78.3311 37.209C78.3596 37.297 78.4439 37.3528 78.5354 37.3528C78.5567 37.3528 78.5786 37.3499 78.6013 37.3435C78.7127 37.3063 78.7757 37.1882 78.739 37.0787L78.1941 35.4365C78.1773 35.3864 78.1392 35.35 78.096 35.3256C78.0835 35.317 78.0682 35.3156 78.0542 35.312Z" fill="white"/>
<path d="M75.8318 29.2249C75.8531 29.2249 75.8765 29.2213 75.8977 29.2141C76.0091 29.1798 76.072 29.0603 76.0354 28.9508L75.489 27.3079C75.4729 27.2585 75.4356 27.222 75.3916 27.197C75.3792 27.1898 75.3653 27.1891 75.3514 27.1841C75.3294 27.1769 75.3089 27.1641 75.2854 27.1641C75.2642 27.1641 75.2408 27.1676 75.2195 27.1748C75.1067 27.2106 75.0437 27.3286 75.0811 27.4381L75.6275 29.0803C75.656 29.1683 75.7417 29.2249 75.8318 29.2249Z" fill="white"/>
<path d="M75.6275 35.4356L75.0811 37.0778C75.0437 37.1873 75.1067 37.3053 75.2195 37.3425C75.2408 37.349 75.2627 37.3518 75.2854 37.3518C75.3755 37.3518 75.4597 37.296 75.4883 37.208L76.0347 35.5658C76.072 35.4563 76.0091 35.3375 75.897 35.3017C75.875 35.2946 75.8523 35.291 75.8303 35.291C75.7403 35.291 75.6575 35.3468 75.6275 35.4356Z" fill="white"/>
<path d="M77.9235 29.2141C77.9447 29.2213 77.9667 29.2249 77.9894 29.2249C78.0795 29.2249 78.1637 29.1683 78.1937 29.0803L78.7386 27.4381C78.776 27.3286 78.713 27.2106 78.601 27.1748C78.579 27.1676 78.5563 27.1641 78.5343 27.1641C78.5101 27.1641 78.4904 27.1777 78.4677 27.1841C78.4545 27.1891 78.4398 27.1898 78.4274 27.197C78.3834 27.222 78.3468 27.2585 78.33 27.3079L77.7836 28.9508C77.7477 29.0603 77.81 29.1798 77.9235 29.2141Z" fill="white"/>
<path d="M72.7834 35.4466L74.2124 34.432C74.3083 34.3633 74.3296 34.2331 74.2593 34.1386C74.2285 34.0964 74.1816 34.0742 74.1325 34.0635C74.1245 34.062 74.1172 34.0592 74.1091 34.0585C74.1011 34.057 74.0937 34.0527 74.0864 34.0527C74.0417 34.0527 73.9985 34.0663 73.9604 34.0935L72.5315 35.1082C72.4341 35.1762 72.4143 35.3071 72.4832 35.4001C72.5264 35.4567 72.5916 35.4874 72.6575 35.4874C72.7007 35.4874 72.7446 35.4731 72.7834 35.4466Z" fill="white"/>
</svg>
