<svg width="49" height="49" viewBox="0 0 49 49" fill="none" xmlns="http://www.w3.org/2000/svg">
<rect width="49" height="49" rx="24.5" fill="#07226B" fill-opacity="0.19"/>
<path d="M13.5656 23.3636L13.5655 23.3636C12.8197 22.7759 11.9505 22.435 11.1781 22.435C10.6069 22.435 10.1211 22.6303 9.81976 22.9958C9.45411 23.438 9.39732 24.0582 9.6377 24.7298C9.8668 25.3701 10.3455 25.9976 10.9822 26.4989C11.728 27.0865 12.5976 27.4278 13.3704 27.4278C13.9413 27.4278 14.4267 27.2325 14.7287 26.8675L14.7288 26.8674C15.0993 26.4183 15.1444 25.8042 14.9317 25.177C14.719 24.5496 14.2466 23.9003 13.5656 23.3636ZM11.3127 26.0935L11.3126 26.0934C10.7474 25.6484 10.3312 25.1016 10.1361 24.5576C9.95176 24.0418 9.9948 23.6083 10.2302 23.3234L10.2302 23.3234C10.4783 23.0228 10.8748 22.955 11.1781 22.955C11.8238 22.955 12.5745 23.2487 13.2355 23.7697L13.2355 23.7697C13.8063 24.2193 14.2095 24.7597 14.402 25.2659C14.5952 25.7737 14.5724 26.2326 14.3187 26.5402C14.0701 26.8408 13.6737 26.9085 13.3708 26.9085C12.7248 26.9085 11.9736 26.6144 11.3127 26.0935Z" fill="#07226B" stroke="#07226B" stroke-width="0.149594"/>
<path d="M33.7158 27.8642L33.7159 27.8643C34.0217 28.2341 34.495 28.4243 35.0738 28.4243C35.8459 28.4243 36.7155 28.0833 37.4616 27.4953C38.0988 26.9937 38.5775 26.3662 38.8066 25.7262L38.8066 25.7262C39.0469 25.0542 38.9897 24.4348 38.6249 23.9923C38.3232 23.626 37.8374 23.4311 37.2661 23.4311C36.4941 23.4311 35.6249 23.7716 34.8787 24.3596C34.1975 24.896 33.725 25.5452 33.5123 26.1727C33.2997 26.8002 33.345 27.4146 33.7158 27.8642ZM38.3082 25.5533L38.3081 25.5533C38.1135 26.0976 37.6969 26.6444 37.1316 27.0891L37.1316 27.0892C36.4703 27.6102 35.7195 27.9043 35.0738 27.9043C34.7709 27.9043 34.3744 27.8361 34.1262 27.5362C33.8722 27.2283 33.8493 26.7691 34.0425 26.2612C34.235 25.755 34.6383 25.2147 35.2091 24.7655L35.2092 24.7654C35.8701 24.2445 36.6209 23.9507 37.2665 23.9507C37.5698 23.9507 37.9663 24.0188 38.2144 24.3191C38.4498 24.6044 38.4929 25.0379 38.3082 25.5533Z" fill="#07226B" stroke="#07226B" stroke-width="0.149594"/>
<path d="M22.2187 24.703L22.2186 24.703C22.0084 24.2867 21.5414 23.8135 21.0883 23.358L22.2187 24.703ZM22.2187 24.703C22.5594 25.3773 23.0187 26.3796 23.3921 27.3872C23.7692 28.4046 24.0451 29.3924 24.0451 30.0522C24.0451 30.5531 24.473 30.867 24.9562 30.867C25.4395 30.867 25.8672 30.5526 25.8672 30.0522C25.8672 29.7161 25.9527 29.261 26.096 28.7425C26.2381 28.2282 26.4323 27.668 26.6392 27.1277C27.0534 26.0464 27.5131 25.0593 27.6932 24.7036L27.6933 24.7034L22.2187 24.703ZM27.8888 21.4784L27.8889 21.4784L27.9024 21.4735C28.0558 21.4176 28.2251 21.3559 28.438 21.2996C28.8728 21.1833 29.3276 21.3706 29.5178 21.7743C29.6804 22.1189 29.6073 22.5136 29.3555 22.8018C29.3554 22.8018 29.3554 22.8019 29.3554 22.8019L29.1677 22.6378L27.8888 21.4784ZM27.8888 21.4784L27.8882 21.4786C27.6383 21.5697 27.4085 21.6534 27.0042 21.7168C26.5938 21.7811 25.9989 21.8249 25.0266 21.8249C24.0119 21.8249 23.3904 21.781 22.9611 21.7163C22.5382 21.6526 22.2977 21.5683 22.0372 21.477L22.0362 21.4766L22.0361 21.4766M27.8888 21.4784L22.0361 21.4766M22.0361 21.4766C21.8701 21.4185 21.6939 21.3569 21.4711 21.2992L21.4711 21.2992M22.0361 21.4766L21.4711 21.2992M21.4711 21.2992L21.4705 21.2991M21.4711 21.2992L21.4705 21.2991M21.4705 21.2991C21.0345 21.1873 20.5833 21.3742 20.3935 21.7764L21.4705 21.2991ZM21.1883 22.1441L21.1882 22.1443C21.1848 22.1514 21.1832 22.1596 21.1855 22.1718C21.1881 22.1851 21.1964 22.2069 21.2194 22.233L21.2201 22.2338L21.2201 22.2338C21.3468 22.3791 21.5115 22.5449 21.697 22.7315C21.7026 22.7371 21.7082 22.7428 21.7139 22.7484L21.1883 22.1441ZM21.1883 22.1441C21.19 22.1404 21.1915 22.1387 21.1919 22.1382L21.1926 22.1375C21.1928 22.1374 21.1938 22.1368 21.1964 22.1361C21.1991 22.1354 21.2039 22.1344 21.2113 22.1344C21.22 22.1344 21.2329 22.1357 21.2506 22.1401C21.4383 22.1885 21.5866 22.2406 21.7428 22.2957L21.7431 22.2958M21.1883 22.1441L21.7431 22.2958M21.7431 22.2958C22.029 22.3961 22.3199 22.4983 22.8097 22.5731M21.7431 22.2958L22.8097 22.5731M23.0034 24.314L23.0034 24.3141C23.102 24.5089 23.5788 25.4655 24.0315 26.6052C24.4707 27.7106 24.9051 29.031 24.922 29.9945C24.9268 29.9953 24.9317 29.996 24.9367 29.9966C24.9464 29.9978 24.9536 29.9981 24.9562 29.9982C24.9588 29.9981 24.9659 29.9978 24.9757 29.9966C24.9806 29.996 24.9856 29.9953 24.9904 29.9945C25.0076 29.1594 25.3902 27.9417 25.8022 26.8591C26.2285 25.7391 26.705 24.717 26.9085 24.3149C27.1856 23.7667 27.7321 23.2171 28.1819 22.7647L28.1996 22.747L28.1996 22.747L28.2065 22.7401C28.395 22.5503 28.563 22.3813 28.6923 22.2337L28.8798 22.398L28.6921 22.2339C28.7152 22.2075 28.7236 22.1855 28.7261 22.1721C28.7284 22.1598 28.7269 22.1509 28.7229 22.1426L23.0034 24.314ZM23.0034 24.314C22.7263 23.7667 22.1806 23.2179 21.7315 22.7662M23.0034 24.314L21.7315 22.7662M22.8097 22.5731C23.2939 22.6472 23.9675 22.694 25.0266 22.694M22.8097 22.5731L25.0266 22.694M25.0266 22.694C26.0453 22.694 26.6942 22.6471 27.1617 22.5727M25.0266 22.694L27.1617 22.5727M27.1617 22.5727C27.6345 22.4974 27.9161 22.3947 28.1919 22.2941M27.1617 22.5727L28.1919 22.2941M28.1919 22.2941L28.1921 22.2941M28.1919 22.2941L28.1921 22.2941M28.1921 22.2941C28.1921 22.294 28.1921 22.294 28.1922 22.294M28.1921 22.2941L28.1922 22.294M28.1922 22.294C28.3426 22.2392 28.4856 22.1872 28.6662 22.1389M28.1922 22.294L28.6662 22.1389M28.6662 22.1389L28.6018 21.8981L28.6662 22.1389ZM21.7315 22.7662C21.7256 22.7603 21.7198 22.7544 21.7139 22.7485L21.7315 22.7662ZM20.3934 21.7765C20.2309 22.1206 20.3051 22.515 20.5566 22.8026L20.3934 21.7765ZM20.5566 22.8027C20.7046 22.972 20.8938 23.1624 21.0883 23.358L20.5566 22.8027Z" fill="#07226B" stroke="#07226B" stroke-width="0.498648"/>
<path d="M8.14279 23.1073L8.23493 23.0462C7.97839 22.6596 7.65114 22.2954 7.31187 21.9177L7.30412 21.9091L7.30405 21.909C6.26939 20.7597 5.11877 19.4796 5.11877 16.9289C5.11877 15.8735 5.47491 14.7562 6.08502 13.9049C6.69502 13.0537 7.54935 12.4799 8.5452 12.4799C9.65949 12.4799 10.612 12.9989 11.4851 13.7862C12.3598 14.5749 13.144 15.6227 13.9231 16.6643L13.9271 16.6697C14.6139 17.5882 15.2893 18.4914 16.0018 19.1644C16.7159 19.8388 17.4825 20.2967 18.3531 20.2967C19.232 20.2967 19.7938 19.8319 20.4047 19.3267L20.4168 19.3166L20.4168 19.3166C20.8322 18.9726 21.2886 18.5954 21.9226 18.3022C22.5553 18.0096 23.37 17.7985 24.4995 17.7985C25.6288 17.7985 26.4434 18.0096 27.0761 18.3022C27.7101 18.5954 28.1666 18.9727 28.5822 19.3166L28.5822 19.3166L28.5943 19.3266C29.2052 19.8319 29.767 20.2967 30.6463 20.2967C31.5165 20.2967 32.2829 19.8388 32.997 19.1644C33.7091 18.4918 34.3843 17.589 35.0709 16.671L35.0759 16.6643C36.128 15.2575 37.1886 13.8464 38.4593 13.0747L38.4736 13.0661L38.4846 13.0536L39.2752 12.1639L39.2753 12.1638C39.3157 12.1182 39.3547 12.1036 39.3874 12.1036C39.4346 12.1036 39.5043 12.1406 39.5572 12.2529C39.583 12.3083 39.5966 12.3776 39.6024 12.4585L39.6115 12.5847L39.7353 12.5588C39.9686 12.51 40.2066 12.4805 40.4538 12.4805C41.4501 12.4805 42.3045 13.0542 42.9145 13.9053C43.5246 14.7565 43.8807 15.8739 43.8807 16.9295C43.8807 19.4803 42.73 20.7604 41.6958 21.9097L41.6957 21.9098L41.6833 21.9236C41.3458 22.2993 41.0199 22.662 40.765 23.0461C40.709 23.1303 40.684 23.2352 40.6831 23.3346C40.6822 23.4341 40.7054 23.5396 40.7591 23.6254L40.8529 23.5668L40.7591 23.6255C40.8146 23.7141 40.901 23.7755 41.0029 23.7755C41.1025 23.7755 41.1858 23.7173 41.2413 23.6339L41.2413 23.6338C41.4665 23.2949 41.7725 22.9541 42.1046 22.5847C43.1724 21.3982 44.521 19.8996 44.521 16.9282C44.5212 15.6744 44.1083 14.3499 43.3973 13.3366C42.6864 12.3234 41.6672 11.6088 40.4542 11.6088C39.4246 11.6088 38.5229 12.0099 37.713 12.6133L37.7016 12.6218L34.7144 16.1055L34.6259 16.0392C34.6259 16.0393 34.6259 16.0393 34.6259 16.0393C33.9649 16.9232 33.3294 17.7725 32.6731 18.4018C32.0163 19.0316 31.3556 19.4243 30.6472 19.4243C29.9574 19.4243 29.5186 19.066 28.9215 18.5717L28.851 18.6569L28.9215 18.5717L28.9194 18.57C28.484 18.2096 27.9852 17.7967 27.2923 17.4757C26.597 17.1537 25.7114 16.9262 24.5003 16.9262C23.2891 16.9262 22.4034 17.1538 21.708 17.476C21.0161 17.7966 20.5177 18.2087 20.0828 18.5684L20.0788 18.5717L20.0787 18.5718C19.4821 19.066 19.0433 19.4243 18.3539 19.4243C17.6453 19.4243 16.9845 19.0316 16.3276 18.4017C15.6712 17.7723 15.0355 16.9229 14.3744 16.0386L14.3744 16.0386L14.3704 16.0332C13.6042 15.0089 12.7788 13.9054 11.8355 13.0586C10.8893 12.2094 9.81345 11.6082 8.54604 11.6082C7.33303 11.6082 6.31401 12.3228 5.60311 13.3361C4.89218 14.3495 4.47926 15.6741 4.47926 16.9282C4.47926 19.8986 5.82656 21.3965 6.89416 22.5835L6.89526 22.5847L6.89531 22.5847C7.2273 22.9533 7.53324 23.2948 7.75843 23.6337C7.81387 23.7178 7.89773 23.7755 7.99692 23.7755C8.09964 23.7755 8.18588 23.7131 8.24073 23.6254L8.24074 23.6254C8.29443 23.5396 8.31765 23.4341 8.31677 23.3346C8.3159 23.2352 8.29086 23.1303 8.23487 23.0461L8.14279 23.1073ZM8.14279 23.1073C8.22579 23.2321 8.22746 23.4381 8.14698 23.5668L20.345 19.2325C19.7264 19.7442 19.1921 20.1861 18.3531 20.1861C16.6944 20.1861 15.3912 18.4431 14.0117 16.5981L14.0105 16.5965C12.4557 14.518 10.8484 12.3693 8.5452 12.3693C6.46105 12.3693 5.00818 14.7726 5.00818 16.9289C5.00818 19.5232 6.18397 20.8301 7.22186 21.983L7.22646 21.9881C7.56806 22.3684 7.89074 22.7275 8.14279 23.1073Z" fill="#07226B" stroke="#07226B" stroke-width="0.221171"/>
<path d="M35.8703 20.3353L35.8187 20.3898C35.5084 20.7168 35.1664 21.0615 34.7761 21.4262L34.776 21.4263C34.0849 22.0711 33.2689 22.4568 32.5654 22.7892L32.5525 22.7953L32.5524 22.7954C31.9847 23.0632 31.4999 23.2931 31.1536 23.597C30.8164 23.8929 30.6127 24.2577 30.6127 24.806V26.818C30.6127 27.3356 30.4166 27.8434 30.153 28.3131C29.8897 28.7823 29.5521 29.2253 29.2567 29.6128L29.2549 29.6152L29.2548 29.6153L29.2539 29.6165C29.0989 29.8202 28.9447 30.0228 28.8289 30.1971C28.771 30.2844 28.7248 30.3615 28.6935 30.4257C28.6602 30.494 28.6516 30.5323 28.6516 30.5472V36.106C28.6516 36.2085 28.6006 36.3016 28.5186 36.3602L28.5144 36.3632L28.5144 36.3631C28.5139 36.3634 28.5131 36.364 28.5118 36.3649L28.501 36.3723C28.4918 36.3785 28.4789 36.3872 28.4624 36.398C28.4295 36.4196 28.3824 36.4497 28.322 36.4859C28.2012 36.5584 28.0271 36.6556 27.8066 36.7598L27.8065 36.7598C27.1785 37.0561 26.175 37.4104 24.9593 37.4104C23.7437 37.4104 22.7397 37.0561 22.1121 36.7598M35.8703 20.3353L22.1673 36.6429M35.8703 20.3353L35.8487 20.2635C35.8369 20.2242 35.8371 20.1968 35.8449 20.1749L35.8453 20.1737L36.0704 19.5291L35.8527 19.3995C35.4162 19.8796 34.9245 20.403 34.3146 20.9714C33.6983 21.5457 32.977 21.8873 32.2593 22.2259L32.2593 22.2259L32.2486 22.2309C31.682 22.4984 31.1091 22.7689 30.6801 23.1534C30.2405 23.5474 29.9507 24.0614 29.9507 24.8057V26.8176C29.9507 27.2103 29.7894 27.6285 29.5495 28.048C29.3103 28.4664 29.0014 28.8721 28.7203 29.2408L28.7198 29.2414C28.5168 29.5077 28.3365 29.7441 28.2077 29.9525C28.0805 30.1582 27.9896 30.3573 27.9896 30.5472V33.5076C27.9828 33.2372 27.9079 33.0468 27.7807 32.9241C27.6482 32.796 27.481 32.7629 27.3443 32.7629C27.2125 32.7629 27.0898 32.8117 26.9688 32.8809C26.8502 32.9487 26.7203 33.0441 26.574 33.1515L26.5686 33.1555C26.1318 33.4758 25.5778 33.8772 24.9589 33.8772C24.3397 33.8772 23.7853 33.4754 23.3485 33.1548L23.3418 33.1499C23.1961 33.0429 23.0667 32.9479 22.9487 32.8803C22.828 32.8112 22.7056 32.7626 22.5739 32.7626C22.4371 32.7626 22.2698 32.7956 22.1372 32.9237C22.01 33.0465 21.935 33.2369 21.9282 33.5073V30.5472C21.9282 30.3573 21.8373 30.1582 21.7102 29.9525C21.5813 29.7441 21.401 29.5077 21.198 29.2414L21.1976 29.2408C20.9164 28.8721 20.6076 28.4663 20.3684 28.0479C20.1284 27.6283 19.9671 27.2102 19.9671 26.8176V24.8057C19.9671 24.0614 19.6773 23.5474 19.2378 23.1536C18.8091 22.7695 18.237 22.4992 17.6709 22.2317L17.6586 22.2259L17.6586 22.2259C16.9413 21.8873 16.22 21.5458 15.6033 20.9714C14.8198 20.2408 14.2278 19.5825 13.703 18.9988L13.7025 18.9983L13.7025 18.9983L13.6853 18.9792C12.5019 17.663 11.6753 16.7438 10.0039 16.7438C9.26894 16.7438 8.63381 16.9273 8.17862 17.2533C7.72099 17.5811 7.44688 18.0529 7.44688 18.6117C7.44688 19.6501 8.17953 20.7729 9.54892 20.7729C9.72279 20.7729 9.87951 20.6392 9.87951 20.4558C9.87951 20.2725 9.72279 20.1388 9.54892 20.1388C8.6201 20.1388 8.10806 19.3646 8.10806 18.6117C8.10806 18.253 8.28482 17.9499 8.60923 17.7315C8.93689 17.511 9.41578 17.3778 10.0039 17.3778C11.3644 17.3778 12.0306 18.1094 13.2018 19.4118C13.7321 20.0021 14.3373 20.6749 15.1427 21.4259C15.8336 22.0703 16.6491 22.4559 17.3518 22.7882L17.3661 22.7949L17.3662 22.795C17.9339 23.0628 18.4187 23.2927 18.765 23.5966C19.1023 23.8926 19.3059 24.2573 19.3059 24.8057V26.8176C19.3059 27.3352 19.502 27.843 19.7656 28.3127C20.0289 28.7819 20.3666 29.2249 20.6619 29.6125L20.6638 29.6149C20.8193 29.819 20.9739 30.0221 21.0898 30.1967C21.1478 30.284 21.1939 30.3611 21.2252 30.4253C21.2584 30.4935 21.267 30.5319 21.267 30.5469V36.106C21.267 36.2076 21.3175 36.3012 21.3998 36.3597M35.8703 20.3353L21.4752 36.2546M22.1121 36.7598L22.1673 36.6429M22.1121 36.7598C22.1121 36.7598 22.1121 36.7598 22.1121 36.7598L22.1673 36.6429M22.1121 36.7598C21.6932 36.5623 21.4397 36.3889 21.3998 36.3597M22.1673 36.6429C21.7341 36.4386 21.4853 36.2625 21.4752 36.2546M21.3998 36.3597C21.4001 36.3599 21.4003 36.3601 21.4006 36.3602L21.4752 36.2546M21.3998 36.3597C21.3978 36.3582 21.3964 36.3571 21.3955 36.3564L21.4752 36.2546M22.9458 33.6583L22.9459 33.6583L22.9546 33.6647C23.4257 34.0109 24.1073 34.5116 24.9589 34.5116C25.8101 34.5116 26.4912 34.0113 26.962 33.6655L26.9707 33.6591C26.9707 33.6591 26.9707 33.6591 26.9708 33.6591C27.0516 33.5997 27.1444 33.5317 27.2254 33.4775C27.262 33.453 27.2944 33.4325 27.321 33.4174C27.3258 33.4464 27.3294 33.4885 27.3294 33.5485V36.2732C26.7609 36.5195 25.9363 36.7767 24.9589 36.7767C23.9815 36.7767 23.157 36.5195 22.5884 36.2732V33.5485C22.5884 33.4888 22.592 33.4468 22.5967 33.4178C22.6234 33.4328 22.6557 33.453 22.6921 33.4773C22.773 33.5313 22.8654 33.5991 22.9458 33.6583Z" fill="#07226B" stroke="#07226B" stroke-width="0.258575"/>
<path d="M34.4513 21.3411C34.4676 21.3415 34.4838 21.344 34.5003 21.3487C34.5375 21.361 34.5662 21.3858 34.5832 21.4186C34.583 21.4183 34.583 21.4182 34.583 21.4182C34.583 21.4182 34.5837 21.4199 34.5849 21.4246C34.5857 21.4278 34.5866 21.4318 34.5877 21.4372L34.5915 21.4564L34.6538 21.7692L34.8614 21.5272C35.5388 20.7377 36.0305 20.1723 36.6082 19.8522L36.662 19.8224L36.6807 19.7638C36.6997 19.7045 36.7527 19.6637 36.8155 19.6637H37.0455H37.0677L37.089 19.6575C37.3139 19.5917 37.5534 19.5516 37.8272 19.5516C38.3744 19.5516 38.8167 19.6815 39.1175 19.8936C39.4144 20.1031 39.5769 20.3938 39.5769 20.7401C39.5769 21.4788 39.0991 22.2176 38.2549 22.2176C38.0681 22.2176 37.9103 22.3666 37.9103 22.5578C37.9103 22.749 38.0681 22.898 38.2549 22.898C39.5726 22.898 40.2659 21.7677 40.2659 20.7401C40.2659 20.1823 40.0046 19.7096 39.5664 19.3807C39.1309 19.054 38.5251 18.8712 37.8272 18.8712C36.2372 18.8712 35.4484 19.7903 34.34 21.0818L34.3373 21.085L34.1243 21.3332L34.4513 21.3411Z" fill="#07226B" stroke="#07226B" stroke-width="0.31029"/>
<path d="M39.6596 17.3576C40.0778 17.3576 40.4169 17.0264 40.4169 16.6178C40.4169 16.2092 40.0778 15.8779 39.6596 15.8779C39.2414 15.8779 38.9023 16.2092 38.9023 16.6178C38.9023 17.0264 39.2414 17.3576 39.6596 17.3576Z" fill="#07226B"/>
<path d="M41.2338 17.6084C41.2297 17.6084 41.2259 17.6106 41.2221 17.6114C41.2176 17.6117 41.2138 17.6132 41.2096 17.6143C41.1846 17.6199 41.16 17.6313 41.1441 17.6528C41.1085 17.7017 41.1191 17.769 41.1683 17.8045L41.908 18.3293C41.9274 18.343 41.9508 18.3504 41.9732 18.3504C42.0073 18.3504 42.0414 18.3344 42.0633 18.3052C42.0989 18.2571 42.0876 18.1894 42.0383 18.1542L41.2994 17.6295C41.2801 17.6151 41.2566 17.6084 41.2338 17.6084Z" fill="#07226B"/>
<path d="M41.2995 15.7326L42.0385 15.2075C42.0881 15.1727 42.0991 15.1046 42.0634 15.0565C42.0415 15.0273 42.0078 15.0117 41.9733 15.0117C41.9506 15.0117 41.9279 15.0184 41.9082 15.0324L41.1684 15.5572C41.1188 15.5927 41.1086 15.6604 41.1442 15.7089C41.1658 15.7381 41.1995 15.7533 41.2343 15.7533C41.2574 15.7529 41.2798 15.7463 41.2995 15.7326Z" fill="#07226B"/>
<path d="M42.6041 16.6807C42.6041 16.6211 42.5545 16.5723 42.4931 16.5723H41.5788C41.5181 16.5723 41.4678 16.6211 41.4678 16.6807C41.4678 16.7406 41.5181 16.7895 41.5788 16.7895H42.4931C42.5545 16.7895 42.6041 16.7406 42.6041 16.6807Z" fill="#07226B"/>
<path d="M37.0548 16.7895H37.9692C38.0305 16.7895 38.0801 16.7406 38.0801 16.6807C38.0801 16.6211 38.0305 16.5723 37.9692 16.5723H37.0548C36.9942 16.5723 36.9438 16.6211 36.9438 16.6807C36.9438 16.7406 36.9942 16.7895 37.0548 16.7895Z" fill="#07226B"/>
<path d="M38.2488 15.7326C38.2681 15.7463 38.2909 15.7533 38.314 15.7533C38.3481 15.7533 38.3821 15.7381 38.4034 15.7089C38.4397 15.6604 38.4284 15.5927 38.3791 15.5572L37.6401 15.0324C37.6204 15.0184 37.5977 15.0117 37.575 15.0117C37.5708 15.0117 37.567 15.0139 37.5636 15.0143C37.5587 15.015 37.5549 15.0165 37.55 15.0176C37.5254 15.0236 37.5011 15.0347 37.4848 15.0565C37.4492 15.1046 37.4599 15.1727 37.5098 15.2075L38.2488 15.7326Z" fill="#07226B"/>
<path d="M40.3657 18.2594C40.3547 18.2557 40.3445 18.249 40.3323 18.249C40.321 18.249 40.3092 18.2509 40.2979 18.2546C40.2395 18.2731 40.207 18.3345 40.2263 18.3911L40.5088 19.2404C40.5236 19.2859 40.5672 19.3148 40.6145 19.3148C40.6255 19.3148 40.6369 19.3133 40.6486 19.31C40.7062 19.2907 40.7387 19.2297 40.7198 19.173L40.438 18.3238C40.4293 18.2979 40.4096 18.279 40.3873 18.2664C40.3808 18.262 40.3729 18.2612 40.3657 18.2594Z" fill="#07226B"/>
<path d="M39.2166 15.1126C39.2275 15.1126 39.2397 15.1108 39.2507 15.1071C39.3082 15.0893 39.3408 15.0275 39.3219 14.9709L39.0393 14.1213C39.031 14.0957 39.0117 14.0768 38.9889 14.0639C38.9825 14.0602 38.9753 14.0598 38.9681 14.0572C38.9567 14.0535 38.9461 14.0469 38.934 14.0469C38.923 14.0469 38.9109 14.0487 38.8999 14.0524C38.8416 14.0709 38.809 14.132 38.8283 14.1886L39.1109 15.0379C39.1257 15.0834 39.17 15.1126 39.2166 15.1126Z" fill="#07226B"/>
<path d="M39.1109 18.3238L38.8283 19.173C38.809 19.2297 38.8416 19.2907 38.8999 19.31C38.9109 19.3133 38.9223 19.3148 38.934 19.3148C38.9806 19.3148 39.0242 19.2859 39.0389 19.2404L39.3215 18.3911C39.3408 18.3345 39.3082 18.2731 39.2503 18.2546C39.2389 18.2509 39.2272 18.249 39.2158 18.249C39.1692 18.249 39.1264 18.2779 39.1109 18.3238Z" fill="#07226B"/>
<path d="M40.2983 15.1071C40.3093 15.1108 40.3206 15.1126 40.3324 15.1126C40.379 15.1126 40.4225 15.0834 40.4381 15.0379L40.7199 14.1886C40.7392 14.132 40.7066 14.0709 40.6487 14.0524C40.6373 14.0487 40.6255 14.0469 40.6142 14.0469C40.6017 14.0469 40.5915 14.0539 40.5797 14.0572C40.5729 14.0598 40.5653 14.0602 40.5589 14.0639C40.5362 14.0768 40.5172 14.0957 40.5085 14.1213L40.226 14.9709C40.2074 15.0275 40.2396 15.0893 40.2983 15.1071Z" fill="#07226B"/>
<path d="M37.6398 18.3293L38.3787 17.8045C38.4284 17.769 38.4393 17.7017 38.403 17.6528C38.3871 17.631 38.3628 17.6195 38.3374 17.6139C38.3333 17.6132 38.3295 17.6117 38.3253 17.6114C38.3212 17.6106 38.3174 17.6084 38.3136 17.6084C38.2905 17.6084 38.2681 17.6154 38.2484 17.6295L37.5095 18.1542C37.4591 18.1894 37.4489 18.2571 37.4845 18.3052C37.5068 18.3344 37.5405 18.3504 37.5746 18.3504C37.597 18.3504 37.6197 18.343 37.6398 18.3293Z" fill="#07226B"/>
</svg>
