<svg width="468" height="661" viewBox="0 0 368 561" fill="none" xmlns="http://www.w3.org/2000/svg">
<path d="M491.988 408.295H-82.1211V408.582H491.988V408.295Z" fill="#EBEBEB"/>
<path d="M16.1433 419.226H-21.8857V419.513H16.1433V419.226Z" fill="#EBEBEB"/>
<path d="M124.363 416.114H74.4155V416.401H124.363V416.114Z" fill="#EBEBEB"/>
<path d="M56.0438 425.151H11.5503V425.438H56.0438V425.151Z" fill="#EBEBEB"/>
<path d="M374.64 427.964H353.054V428.251H374.64V427.964Z" fill="#EBEBEB"/>
<path d="M233.639 423.118H191.66V423.405H233.639V423.118Z" fill="#EBEBEB"/>
<path d="M190.006 357.084H-31.7032C-33.4401 357.081 -35.1047 356.389 -36.3318 355.16C-37.5589 353.931 -38.248 352.265 -38.248 350.528V38.8668C-38.2329 37.1399 -37.5371 35.4888 -36.3116 34.2719C-35.0862 33.0551 -33.4302 32.3709 -31.7032 32.3679H190.006C191.745 32.3679 193.413 33.0587 194.642 34.2882C195.872 35.5178 196.563 37.1854 196.563 38.9242V350.528C196.563 352.267 195.872 353.934 194.642 355.164C193.413 356.393 191.745 357.084 190.006 357.084ZM-31.7032 32.5976C-33.3639 32.6006 -34.9556 33.2625 -36.1288 34.4378C-37.3021 35.6132 -37.961 37.2061 -37.961 38.8668V350.528C-37.961 352.189 -37.3021 353.781 -36.1288 354.957C-34.9556 356.132 -33.3639 356.794 -31.7032 356.797H190.006C191.668 356.794 193.261 356.133 194.436 354.958C195.611 353.783 196.273 352.19 196.276 350.528V38.8668C196.273 37.2051 195.611 35.6122 194.436 34.4371C193.261 33.2621 191.668 32.6006 190.006 32.5976H-31.7032Z" fill="#EBEBEB"/>
<path d="M438.378 357.084H216.657C214.919 357.081 213.253 356.389 212.024 355.161C210.795 353.932 210.104 352.266 210.101 350.528V38.8668C210.119 37.1389 210.817 35.4877 212.044 34.2712C213.272 33.0547 214.929 32.3708 216.657 32.3679H438.378C440.103 32.3739 441.756 33.0594 442.979 34.2759C444.202 35.4925 444.896 37.1419 444.911 38.8668V350.528C444.911 352.263 444.224 353.927 442.999 355.156C441.775 356.385 440.113 357.078 438.378 357.084ZM216.657 32.5976C214.995 32.6006 213.402 33.2621 212.227 34.4371C211.052 35.6122 210.391 37.2051 210.388 38.8668V350.528C210.391 352.19 211.052 353.783 212.227 354.958C213.402 356.133 214.995 356.794 216.657 356.797H438.378C440.04 356.794 441.633 356.133 442.808 354.958C443.983 353.783 444.644 352.19 444.647 350.528V38.8668C444.644 37.2051 443.983 35.6122 442.808 34.4371C441.633 33.2621 440.04 32.6006 438.378 32.5976H216.657Z" fill="#EBEBEB"/>
<path d="M304.978 266.157H281.083V408.295H304.978V266.157Z" fill="#E6E6E6"/>
<path d="M300.442 408.295H304.978V395.389H295.689L300.442 408.295Z" fill="#F0F0F0"/>
<path d="M184.886 266.157H160.991V408.295H184.886V266.157Z" fill="#E6E6E6"/>
<path d="M304.989 266.157H180.924V400.372H304.989V266.157Z" fill="#F0F0F0"/>
<path d="M301.464 269.682H184.438V295.103H301.464V269.682Z" fill="#E6E6E6"/>
<path d="M301.464 298.02H244.478V384.24H301.464V298.02Z" fill="#E6E6E6"/>
<path d="M241.424 298.02H184.438V384.24H241.424V298.02Z" fill="#E6E6E6"/>
<path d="M228.679 307.125C228.676 307.926 228.912 308.709 229.355 309.375C229.798 310.041 230.429 310.561 231.168 310.869C231.907 311.176 232.721 311.257 233.506 311.101C234.291 310.946 235.012 310.561 235.578 309.995C236.144 309.429 236.529 308.707 236.685 307.922C236.841 307.137 236.76 306.324 236.452 305.585C236.145 304.846 235.625 304.215 234.959 303.771C234.292 303.328 233.509 303.093 232.709 303.095C231.641 303.098 230.618 303.524 229.863 304.279C229.107 305.034 228.682 306.057 228.679 307.125Z" fill="#FAFAFA"/>
<path d="M253.182 311.155C255.407 311.155 257.212 309.351 257.212 307.125C257.212 304.899 255.407 303.095 253.182 303.095C250.956 303.095 249.151 304.899 249.151 307.125C249.151 309.351 250.956 311.155 253.182 311.155Z" fill="#FAFAFA"/>
<path d="M185.46 408.295H180.924V395.389H190.213L185.46 408.295Z" fill="#F0F0F0"/>
<path d="M239.449 282.576C239.449 283.376 239.686 284.158 240.131 284.823C240.575 285.488 241.207 286.006 241.946 286.311C242.686 286.617 243.499 286.696 244.283 286.539C245.068 286.383 245.788 285.997 246.352 285.43C246.917 284.864 247.301 284.143 247.456 283.358C247.611 282.573 247.529 281.76 247.221 281.022C246.914 280.283 246.394 279.653 245.728 279.21C245.061 278.767 244.279 278.532 243.479 278.535C242.949 278.535 242.424 278.639 241.934 278.842C241.444 279.046 240.999 279.344 240.625 279.719C240.251 280.095 239.954 280.54 239.752 281.03C239.55 281.521 239.447 282.046 239.449 282.576Z" fill="#FAFAFA"/>
<path d="M175.402 266.157H151.507V408.295H175.402V266.157Z" fill="#E6E6E6"/>
<path d="M170.866 408.295H175.401V395.389H166.112L170.866 408.295Z" fill="#F0F0F0"/>
<path d="M55.2978 266.157H31.4033V408.295H55.2978V266.157Z" fill="#E6E6E6"/>
<path d="M175.401 266.157H51.3364V400.372H175.401V266.157Z" fill="#F0F0F0"/>
<path d="M171.888 269.682H114.89V384.24H171.888V269.682Z" fill="#E6E6E6"/>
<path d="M111.847 269.682H54.8613V384.24H111.847V269.682Z" fill="#E6E6E6"/>
<path d="M99.1021 278.787C99.0998 279.588 99.3352 280.371 99.7784 281.037C100.222 281.703 100.853 282.223 101.592 282.531C102.331 282.838 103.144 282.919 103.929 282.763C104.715 282.608 105.436 282.223 106.002 281.657C106.568 281.091 106.953 280.369 107.108 279.584C107.264 278.799 107.183 277.986 106.876 277.247C106.568 276.508 106.049 275.877 105.382 275.433C104.716 274.99 103.933 274.755 103.132 274.757C102.064 274.76 101.041 275.186 100.286 275.941C99.5307 276.696 99.1051 277.719 99.1021 278.787Z" fill="#FAFAFA"/>
<path d="M119.575 278.787C119.573 279.588 119.808 280.371 120.252 281.037C120.695 281.703 121.326 282.223 122.065 282.531C122.804 282.838 123.618 282.919 124.403 282.763C125.188 282.608 125.909 282.223 126.475 281.657C127.041 281.091 127.426 280.369 127.582 279.584C127.737 278.799 127.656 277.986 127.349 277.247C127.041 276.508 126.522 275.877 125.855 275.433C125.189 274.99 124.406 274.755 123.605 274.757C122.537 274.76 121.514 275.186 120.759 275.941C120.004 276.696 119.578 277.719 119.575 278.787Z" fill="#FAFAFA"/>
<path d="M55.8834 408.295H51.3364V395.389H60.637L55.8834 408.295Z" fill="#F0F0F0"/>
<path d="M330.33 60.5566H233.938V166.388H330.33V60.5566Z" fill="#E6E6E6"/>
<path d="M338.586 60.5566H235.223V166.388H338.586V60.5566Z" fill="#F5F5F5"/>
<path d="M331.984 159.797V67.1475H241.803V159.797H331.984Z" fill="white"/>
<path d="M273.402 146.42C268.259 141.256 265.371 134.264 265.371 126.975C265.371 119.687 268.259 112.695 273.402 107.53L300.408 80.5242C305.551 85.6888 308.438 92.6806 308.438 99.9693C308.438 107.258 305.551 114.25 300.408 119.414L273.402 146.42Z" fill="#F5F5F5"/>
<path d="M412.175 133.032H355.132V197.413H412.175V133.032Z" fill="#E6E6E6"/>
<path d="M420.42 133.032H356.521V197.413H420.42V133.032Z" fill="#F5F5F5"/>
<path d="M413.841 190.822V139.623H363.124V190.822H413.841Z" fill="white"/>
<path d="M420.362 384.044H367.625C367.06 384.048 366.515 383.845 366.091 383.472C365.667 383.099 365.396 382.584 365.328 382.024L364.318 374.365C364.27 374.037 364.293 373.702 364.387 373.384C364.48 373.065 364.642 372.771 364.86 372.521C365.078 372.271 365.348 372.072 365.651 371.936C365.954 371.8 366.282 371.732 366.614 371.735H421.373C421.705 371.732 422.033 371.8 422.336 371.936C422.639 372.072 422.908 372.271 423.127 372.521C423.345 372.771 423.506 373.065 423.6 373.384C423.694 373.702 423.717 374.037 423.669 374.365L422.659 382.024C422.591 382.584 422.32 383.099 421.896 383.472C421.472 383.845 420.926 384.048 420.362 384.044Z" fill="#F0F0F0"/>
<path d="M392.92 314.726C402.84 297.434 377.109 291.245 368.807 275.836C358.795 288.007 381.288 334.981 392.92 314.726Z" fill="#F0F0F0"/>
<path d="M395.538 340.963C395.274 330.514 383.998 339.815 363.388 321.191C359.702 340.378 396.123 366.775 395.538 340.963Z" fill="#F0F0F0"/>
<path d="M162.438 60.5566H-8.92236V239.311H162.438V60.5566Z" fill="#E6E6E6"/>
<path d="M167.238 60.5566H-4.12256V239.311H167.238V60.5566Z" fill="#F5F5F5"/>
<path d="M158.626 231.262V68.6057L4.50031 68.6057V231.262H158.626Z" fill="white"/>
<path d="M158.626 231.262V68.6057H154.997V231.262H158.626Z" fill="#E6E6E6"/>
<path d="M163.678 182.957H-0.551758V193.762H163.678V182.957Z" fill="#F5F5F5"/>
<path d="M163.678 82.7979H-0.551758V93.6026H163.678V82.7979Z" fill="#F5F5F5"/>
<path d="M204.933 460.148C327.887 460.148 427.562 454.329 427.562 447.151C427.562 439.972 327.887 434.153 204.933 434.153C81.9792 434.153 -17.6948 439.972 -17.6948 447.151C-17.6948 454.329 81.9792 460.148 204.933 460.148Z" fill="#F5F5F5"/>
<path d="M34.446 168.868C30.6518 167.623 26.5971 167.398 22.6882 168.214C20.0588 168.627 15.5578 166.273 12.515 162.553C12.3839 163.349 12.4181 164.164 12.6156 164.947C12.8132 165.729 13.1697 166.463 13.663 167.102C14.1564 167.74 14.776 168.271 15.4832 168.66C16.1904 169.048 16.9702 169.288 17.7738 169.362C13.7206 172.232 6.17682 169.052 5.31566 163.759C4.45449 158.465 10.2415 158.511 6.705 149.234C3.16848 139.956 12.5724 144.078 15.5922 130.277C18.612 116.475 33.4815 117.646 35.9501 122.756C44.4814 119.242 48.7183 124.409 52.0252 132.194C54.9072 139.083 54.3216 144.469 58.5815 155.882C62.5544 166.71 46.6401 172.313 34.446 168.868Z" fill="#263238"/>
<path d="M18.9219 168.306C18.3921 168.294 17.8681 168.193 17.3718 168.007C15.8941 167.353 14.5769 166.384 13.512 165.168C12.4471 163.953 11.6601 162.519 11.2058 160.969C11.1845 160.895 11.1931 160.817 11.2297 160.75C11.2663 160.683 11.3279 160.634 11.401 160.613C11.4741 160.591 11.5527 160.6 11.6194 160.636C11.6862 160.673 11.7357 160.735 11.757 160.808C12.184 162.285 12.9297 163.651 13.9414 164.81C14.9531 165.968 16.2063 166.891 17.6129 167.513C18.017 167.698 18.4584 167.787 18.9026 167.773C19.3468 167.759 19.7817 167.643 20.1734 167.433C20.2043 167.411 20.2392 167.395 20.2761 167.387C20.3131 167.378 20.3513 167.377 20.3887 167.384C20.4261 167.39 20.4618 167.404 20.4938 167.424C20.5258 167.444 20.5535 167.471 20.5753 167.502C20.5968 167.533 20.6117 167.569 20.6193 167.606C20.6269 167.644 20.6269 167.682 20.6195 167.72C20.612 167.757 20.5971 167.793 20.5757 167.824C20.5543 167.856 20.5269 167.883 20.4949 167.904C20.0267 168.202 19.4756 168.343 18.9219 168.306Z" fill="#263238"/>
<path d="M54.3557 146.639C54.2805 146.625 54.2136 146.582 54.1687 146.52C54.1238 146.458 54.1045 146.382 54.1146 146.306C55.7221 137.12 54.2524 129.944 49.9925 126.04C48.7031 124.844 47.1315 123.994 45.4247 123.571C43.7179 123.147 41.9316 123.163 40.2326 123.617C40.1957 123.627 40.157 123.63 40.1189 123.625C40.0809 123.62 40.0442 123.608 40.011 123.589C39.9778 123.569 39.9488 123.544 39.9257 123.513C39.9027 123.482 39.886 123.447 39.8767 123.41C39.8664 123.374 39.8637 123.336 39.8686 123.299C39.8736 123.261 39.8861 123.226 39.9055 123.193C39.9248 123.161 39.9506 123.133 39.9812 123.111C40.0118 123.089 40.0466 123.074 40.0833 123.066C41.8807 122.58 43.772 122.56 45.5796 123.006C47.3871 123.451 49.0518 124.349 50.4173 125.615C52.9778 127.911 56.9277 133.767 54.7231 146.398C54.7164 146.438 54.7014 146.477 54.6788 146.512C54.6563 146.547 54.6269 146.576 54.5923 146.599C54.5578 146.621 54.5189 146.637 54.4782 146.644C54.4375 146.65 54.3958 146.649 54.3557 146.639Z" fill="#263238"/>
<path d="M58.4211 241.895C58.4211 241.895 58.4211 303.899 54.655 337.496C54.2646 369.026 47.0652 440.261 47.0652 440.261H39.1081C37.7762 404.919 27.9244 371.919 34.5152 340.745C19.2095 279.522 26.3169 241.998 26.3169 241.998L58.4211 241.895Z" fill="#CE7A63"/>
<path d="M49.7518 241.941C49.7518 241.941 36.7539 310.719 32.2644 340.091C27.5452 370.874 20.5066 430.605 20.7822 440.319H13.8929C13.8929 440.319 2.41071 379.899 13.0432 341.159C4.2249 254.055 22.5734 241.998 22.5734 241.998L49.7518 241.941Z" fill="#CE7A63"/>
<path d="M64.6443 186.918C64.5639 189.95 64.4032 192.981 64.2769 196.012C64.1506 199.043 63.9668 202.075 63.7831 205.106C63.4157 211.157 62.9794 217.22 62.5086 223.271L62.3823 221.927L63.0138 225.762C63.232 227.037 63.3927 228.334 63.5879 229.632C63.7831 230.929 63.9324 232.238 64.0702 233.547C64.208 234.856 64.3343 236.177 64.3917 237.509C64.4148 238.098 64.2395 238.677 63.8937 239.155C63.548 239.632 63.0519 239.979 62.4851 240.141C61.9183 240.302 61.3136 240.269 60.7682 240.046C60.2228 239.822 59.7681 239.422 59.4773 238.91C58.8228 237.761 58.2602 236.51 57.6746 235.304C57.089 234.099 56.5953 232.881 56.0786 231.653C55.5619 230.424 55.0911 229.184 54.6433 227.944C54.1955 226.704 53.7362 225.441 53.3228 224.166C53.2323 223.873 53.1859 223.567 53.1851 223.259V222.823C53.254 216.749 53.3573 210.686 53.541 204.624C53.6214 201.592 53.7362 198.561 53.8625 195.53C53.9888 192.499 54.1151 189.479 54.3103 186.447C54.3727 185.077 54.977 183.788 55.9901 182.863C57.0033 181.938 58.3423 181.453 59.7127 181.516C61.0831 181.578 62.3725 182.183 63.2974 183.196C64.2222 184.209 64.7067 185.548 64.6443 186.918Z" fill="#CE7A63"/>
<path d="M58.4208 174.116C65.666 178.984 68.7547 189.651 68.9155 196.345C65.666 203.292 53.9886 204.383 53.9886 204.383C53.9886 204.383 50.6244 191.879 50.9114 185.782C51.1985 179.685 54.2413 171.303 58.4208 174.116Z" fill="#263238"/>
<path d="M64.4603 185.299C64.4573 181.88 63.1481 178.59 60.8004 176.104C58.4527 173.617 55.2438 172.122 51.8299 171.923C49.8665 171.796 47.8111 171.693 45.8247 171.67C39.676 171.682 33.5362 172.139 27.4532 173.036C25.7194 173.243 24.0086 173.507 22.4125 173.794C20.9959 174.044 19.6461 174.583 18.4475 175.378C17.249 176.173 16.2275 177.207 15.4471 178.416C14.6667 179.624 14.1442 180.98 13.9123 182.4C13.6804 183.82 13.7441 185.272 14.0994 186.666C20.7591 211.777 21.6892 230.149 19.1516 241.413C19.1516 241.413 11.1141 252.103 7.50866 276.606C4.39699 298.008 7.43977 334.774 3.99512 354.156C16.4648 363.078 53.8049 361.861 59.6608 356.636C58.0073 317.436 66.0219 266.076 59.9249 242.366C62.3706 229.219 62.9906 214.808 63.4843 206.771C71.9123 199.537 64.4488 194.634 64.4603 185.299Z" fill="#16898E"/>
<path d="M58.9377 242.607C55.493 241.114 56.825 235.809 56.825 235.809L56.0327 232.813C55.9391 232.547 55.9072 232.263 55.9394 231.983C55.9716 231.703 56.0671 231.433 56.2187 231.196C56.3702 230.958 56.5738 230.758 56.8141 230.61C57.0544 230.462 57.3251 230.371 57.6058 230.344L59.5807 230.091C60.3268 230.044 61.07 230.221 61.7146 230.599C62.3593 230.978 62.8758 231.541 63.1976 232.216L63.6454 233.192C64.3916 234.745 64.5938 236.504 64.2195 238.186L63.7028 240.54C63.5821 241.06 63.3467 241.547 63.0139 241.964C62.4983 242.487 61.8292 242.831 61.1042 242.947C60.3792 243.062 59.6362 242.943 58.9836 242.607H58.9377Z" fill="#CE7A63"/>
<path opacity="0.2" d="M36.8342 323.361C35.7434 307.585 36.8342 283.989 46.4792 270.761C43.9532 287.537 36.8342 323.361 36.8342 323.361Z" fill="black"/>
<path d="M28.2571 152.311C29.7268 158.052 31.4377 168.799 27.5107 172.979C37.1104 176.048 45.5303 182.002 51.6233 190.03C55.9292 176.251 45.8133 171.659 45.8133 171.659C39.1652 170.579 39.0848 165.699 39.9919 161.049L28.2571 152.311Z" fill="#CE7A63"/>
<path opacity="0.2" d="M33.0453 155.882L39.9346 161.049C39.7048 162.129 39.5741 163.228 39.5442 164.333C37.0066 164.16 33.4242 161.669 33.0223 159.062C32.8335 158.01 32.8412 156.932 33.0453 155.882Z" fill="black"/>
<path d="M21.4826 141.988C24.2843 151.381 25.2718 155.423 31.1621 159.108C40.0149 164.666 50.7967 158.959 50.8311 148.866C50.8311 139.772 46.2382 125.902 36.1913 124.478C26.1444 123.054 18.6925 132.596 21.4826 141.988Z" fill="#CE7A63"/>
<path d="M35.7434 123.479C42.9542 132.665 24.6746 130.104 26.3969 137.82C28.1192 145.536 18.6694 147.351 20.897 153.253C9.42625 151.346 15.1329 118.668 35.7434 123.479Z" fill="#263238"/>
<path d="M33.688 124.34C35.3874 130.288 43.1263 127.682 47.3633 131.138C46.5366 124.34 35.8122 121.722 33.688 124.34Z" fill="#263238"/>
<path d="M35.1235 141.104C35.3072 141.885 35.8698 142.413 36.375 142.253C36.8803 142.092 37.1558 141.392 36.9721 140.622C36.7884 139.853 36.2373 139.313 35.7206 139.474C35.2039 139.635 34.9972 140.301 35.1235 141.104Z" fill="#263238"/>
<path d="M44.7685 138.808C44.9408 139.589 45.5034 140.105 46.0201 139.956C46.5368 139.807 46.8009 139.095 46.6172 138.314C46.4334 137.533 45.8708 137.017 45.3656 137.166C44.8604 137.315 44.5848 138.004 44.7685 138.808Z" fill="#263238"/>
<path d="M45.1475 137.269L46.9042 136.247C46.9042 136.247 46.2727 138.004 45.1475 137.269Z" fill="#263238"/>
<path d="M42.9546 140.071C44.0603 141.666 45.3863 143.096 46.893 144.319C46.5627 144.703 46.154 145.011 45.6944 145.223C45.2349 145.435 44.7352 145.546 44.2291 145.548L42.9546 140.071Z" fill="#BA4D3C"/>
<path d="M21.4368 151.415C22.0111 152.096 22.7265 152.644 23.5334 153.02C24.3403 153.397 25.2195 153.594 26.1101 153.597C28.4065 153.54 28.7739 150.922 27.5224 148.774C26.3742 146.834 23.8596 144.538 21.8731 145.64C19.8867 146.742 19.8867 149.647 21.4368 151.415Z" fill="#CE7A63"/>
<path d="M33.2976 137.774C33.4154 137.715 33.5058 137.612 33.5502 137.487C33.726 136.917 34.0308 136.394 34.4409 135.96C34.8511 135.526 35.3556 135.192 35.9155 134.984C36.0356 134.952 36.138 134.873 36.2004 134.766C36.2628 134.658 36.28 134.53 36.2485 134.41C36.2341 134.35 36.2074 134.294 36.1701 134.244C36.1328 134.195 36.0857 134.154 36.0318 134.124C35.9779 134.094 35.9183 134.075 35.8568 134.069C35.7952 134.063 35.7331 134.07 35.6744 134.089C34.9609 134.335 34.3156 134.746 33.7909 135.289C33.2662 135.832 32.8769 136.49 32.6546 137.212C32.6349 137.27 32.6271 137.331 32.6316 137.392C32.636 137.453 32.6527 137.513 32.6805 137.567C32.7083 137.622 32.7467 137.67 32.7936 137.71C32.8404 137.749 32.8946 137.779 32.9531 137.797C33.0671 137.83 33.189 137.822 33.2976 137.774Z" fill="#263238"/>
<path d="M48.2935 134.169C48.3851 134.169 48.4747 134.142 48.5519 134.093C48.629 134.043 48.6904 133.973 48.729 133.89C48.7675 133.806 48.7816 133.714 48.7695 133.623C48.7575 133.532 48.7198 133.447 48.6609 133.377C48.1745 132.818 47.5603 132.385 46.8705 132.115C46.1807 131.845 45.4359 131.746 44.6995 131.827C44.5754 131.846 44.464 131.914 44.3889 132.015C44.3139 132.116 44.2811 132.242 44.2977 132.366C44.3175 132.487 44.3838 132.596 44.4824 132.669C44.5811 132.742 44.7043 132.773 44.8258 132.757C45.4116 132.697 46.0031 132.781 46.5492 133.001C47.0953 133.221 47.5797 133.571 47.9605 134.02C48.0014 134.068 48.0525 134.106 48.1101 134.132C48.1677 134.158 48.2304 134.17 48.2935 134.169Z" fill="#263238"/>
<path d="M35.5024 139.566L37.2592 138.555C37.2592 138.555 36.6392 140.3 35.5024 139.566Z" fill="#263238"/>
<path d="M32.3332 244.145L40.3018 247.854L33.6192 255.375C33.6192 255.375 28.5326 251.333 27.2466 246.683L27.7403 245.408C29.3593 243.95 30.2205 243.64 32.3332 244.145Z" fill="#CE7A63"/>
<path d="M42.0588 254.411L38.752 257.247C38.2695 257.67 37.6431 257.891 37.0021 257.865C36.3611 257.84 35.7544 257.569 35.3073 257.109L33.562 255.375L40.2446 247.854L42.4492 251.127C42.7995 251.626 42.9533 252.237 42.8812 252.843C42.8092 253.449 42.5164 254.007 42.0588 254.411Z" fill="#CE7A63"/>
<path d="M23.6985 186.654C21.8039 192.476 19.8749 198.389 18.0837 204.245C17.1995 207.184 16.3613 210.124 15.592 213.029C15.2131 214.475 14.8572 215.922 14.5701 217.335C14.2764 218.609 14.0693 219.902 13.9501 221.204C13.7664 222.72 14.616 225.085 16.0169 227.336C17.5256 229.726 19.2679 231.961 21.2183 234.007C23.2523 236.206 25.4066 238.292 27.6713 240.253C29.9677 242.262 32.2642 244.237 34.6639 246.074H34.7443C35.2601 246.462 35.6107 247.03 35.726 247.664C35.8412 248.299 35.7126 248.954 35.3659 249.498C35.0192 250.042 34.4799 250.435 33.8559 250.599C33.2318 250.762 32.5691 250.684 32.0001 250.38C26.2084 247.421 20.7728 243.812 15.7987 239.621C13.1825 237.411 10.8216 234.916 8.76013 232.181C7.63598 230.667 6.67386 229.039 5.88959 227.324C4.99595 225.33 4.52673 223.171 4.51172 220.986C4.52932 219.169 4.69058 217.357 4.99398 215.566C5.25807 213.901 5.56809 212.282 5.90107 210.698C6.56704 207.529 7.37079 204.429 8.19751 201.363C9.87391 195.22 11.7455 189.226 13.8697 183.221C14.3361 181.958 15.2771 180.927 16.4925 180.347C17.7078 179.767 19.1015 179.685 20.3767 180.117C21.6518 180.55 22.7078 181.463 23.3196 182.663C23.9315 183.862 24.0509 185.253 23.6525 186.539L23.6985 186.654Z" fill="#CE7A63"/>
<path d="M18.7958 175.195C13.0547 177.893 10.4252 181.981 6.06201 193.245C7.58914 200.754 20.897 205.198 20.897 205.198C22.8698 200.58 24.441 195.801 25.5932 190.914C26.7529 184.92 24.6632 172.451 18.7958 175.195Z" fill="#263238"/>
<path d="M38.499 440.319C38.5515 440.176 38.6499 440.055 38.7786 439.974C38.9074 439.893 39.0594 439.856 39.2108 439.871L46.6054 439.768C47.3777 439.708 48.1509 439.871 48.8329 440.238C52.2157 442.341 56.0094 443.696 59.9592 444.211C61.5322 444.452 60.8203 447.105 57.1231 447.139C51.0031 447.208 49.9008 446.749 44.6879 446.806C40.2213 446.806 42.3914 447.059 38.809 447.139C37.9593 447.139 37.2589 446.611 37.3737 445.991L38.499 440.319Z" fill="#263238"/>
<path d="M13.0204 440.319C13.0767 440.176 13.1775 440.056 13.3078 439.975C13.4382 439.894 13.5911 439.858 13.7438 439.871L19.7604 439.768C20.5292 439.706 21.2992 439.87 21.9765 440.238C24.1352 441.742 23.8596 443.465 28.8658 444.211C30.4389 444.452 29.6696 447.105 25.9608 447.139C19.8523 447.208 20.2197 446.806 17.7396 446.806C15.2594 446.806 16.7751 447.059 13.2271 447.139C12.3774 447.139 11.6999 446.611 11.8262 445.991L13.0204 440.319Z" fill="#263238"/>
<path d="M47.6278 185.38C44.8146 184.656 38.8209 185.15 35.7322 188.744C29.7959 186.448 24.1122 178.272 24.25 173.128C25.4658 171.987 27.0411 171.305 28.7051 171.199C28.7051 171.199 42.1163 177.687 47.6278 185.38Z" fill="#FAFAFA"/>
<path d="M52.657 184.943C52.657 184.943 53.4837 178.157 45.2739 171.567C46.1006 170.889 49.3501 171.658 49.3501 171.658C49.3501 171.658 58.9492 175.781 58.6622 186.47C56.9357 185.199 54.7812 184.651 52.657 184.943Z" fill="#FAFAFA"/>
<path d="M37.167 148.545C36.6934 148.338 36.2399 148.088 35.8121 147.798C35.7871 147.775 35.7672 147.746 35.7536 147.715C35.7399 147.683 35.7329 147.649 35.7329 147.615C35.7329 147.58 35.7399 147.546 35.7536 147.515C35.7672 147.483 35.7871 147.455 35.8121 147.431C35.8575 147.374 35.9223 147.335 35.9943 147.322C36.0662 147.31 36.1403 147.324 36.2025 147.362C37.1727 148.019 38.2787 148.447 39.4379 148.616C40.597 148.785 41.7794 148.69 42.8966 148.338C42.9297 148.323 42.9654 148.315 43.0017 148.314C43.038 148.314 43.074 148.32 43.1075 148.334C43.141 148.348 43.1713 148.369 43.1965 148.395C43.2217 148.421 43.2412 148.452 43.2539 148.486C43.2665 148.52 43.272 148.557 43.2701 148.593C43.2681 148.629 43.2586 148.664 43.2424 148.697C43.2261 148.729 43.2033 148.758 43.1754 148.781C43.1476 148.804 43.1152 148.822 43.0804 148.832C41.1417 149.472 39.0346 149.369 37.167 148.545Z" fill="#263238"/>
<path d="M142.183 168.868C138.389 167.623 134.334 167.398 130.426 168.214C127.796 168.627 123.295 166.273 120.252 162.553C120.121 163.349 120.155 164.164 120.353 164.947C120.55 165.729 120.907 166.463 121.4 167.102C121.894 167.74 122.513 168.271 123.221 168.66C123.928 169.048 124.707 169.288 125.511 169.362C121.458 172.232 113.914 169.052 113.053 163.759C112.192 158.465 117.979 158.511 114.442 149.234C110.906 139.956 120.31 144.078 123.33 130.277C126.349 116.475 141.219 117.646 143.687 122.756C152.219 119.242 156.456 124.409 159.763 132.194C162.645 139.083 162.059 144.469 166.319 155.882C170.338 166.71 154.412 172.313 142.183 168.868Z" fill="#263238"/>
<path d="M126.705 168.306C126.176 168.294 125.652 168.193 125.155 168.007C123.664 167.353 122.335 166.38 121.261 165.156C120.188 163.931 119.397 162.486 118.943 160.923C118.933 160.886 118.929 160.849 118.934 160.811C118.938 160.774 118.949 160.737 118.967 160.704C118.985 160.671 119.01 160.642 119.039 160.618C119.069 160.595 119.102 160.577 119.139 160.567C119.175 160.556 119.213 160.553 119.25 160.557C119.288 160.561 119.324 160.572 119.357 160.591C119.39 160.609 119.419 160.633 119.443 160.663C119.466 160.692 119.484 160.726 119.495 160.762C119.922 162.239 120.667 163.606 121.679 164.764C122.691 165.923 123.944 166.845 125.35 167.467C125.755 167.652 126.196 167.741 126.64 167.727C127.084 167.713 127.519 167.597 127.911 167.387C127.942 167.365 127.977 167.349 128.014 167.341C128.051 167.332 128.089 167.331 128.126 167.338C128.164 167.344 128.199 167.358 128.231 167.378C128.263 167.398 128.291 167.425 128.313 167.456C128.334 167.488 128.349 167.523 128.357 167.56C128.364 167.598 128.364 167.636 128.357 167.674C128.35 167.711 128.335 167.747 128.313 167.778C128.292 167.81 128.264 167.837 128.232 167.858C127.783 168.163 127.249 168.319 126.705 168.306Z" fill="#263238"/>
<path d="M162.093 146.639C162.018 146.625 161.951 146.582 161.906 146.52C161.861 146.458 161.842 146.382 161.852 146.306C163.46 137.12 161.99 129.944 157.73 126.04C156.441 124.844 154.869 123.994 153.162 123.571C151.455 123.147 149.669 123.163 147.97 123.617C147.933 123.627 147.895 123.63 147.856 123.625C147.818 123.62 147.782 123.608 147.749 123.589C147.715 123.569 147.686 123.544 147.663 123.513C147.64 123.482 147.624 123.447 147.614 123.41C147.604 123.374 147.601 123.336 147.606 123.299C147.611 123.261 147.624 123.226 147.643 123.193C147.662 123.161 147.688 123.133 147.719 123.111C147.749 123.089 147.784 123.074 147.821 123.066C149.618 122.58 151.509 122.56 153.317 123.006C155.125 123.451 156.789 124.349 158.155 125.615C160.715 127.911 164.665 133.767 162.461 146.398C162.454 146.438 162.439 146.477 162.416 146.512C162.394 146.547 162.364 146.576 162.33 146.599C162.295 146.621 162.256 146.637 162.216 146.644C162.175 146.65 162.133 146.649 162.093 146.639Z" fill="#263238"/>
<path d="M167.766 241.895C167.766 241.895 167.766 303.899 163.988 337.496C163.609 369.026 156.41 440.261 156.41 440.261H148.453C147.109 404.919 137.269 371.919 143.802 340.745C128.508 279.522 135.604 241.998 135.604 241.998L167.766 241.895Z" fill="#CE7A63"/>
<path d="M157.489 241.941C157.489 241.941 144.491 310.719 140.002 340.033C135.282 370.817 128.244 430.547 128.577 440.261H121.687C121.687 440.261 110.148 379.842 120.838 341.101C112.019 253.997 130.368 241.941 130.368 241.941H157.489Z" fill="#CE7A63"/>
<path d="M172.381 186.585C172.496 189.605 172.508 192.59 172.542 195.599C172.577 198.607 172.542 201.592 172.542 204.601C172.45 210.606 172.255 216.6 171.796 222.72L171.67 221.376C171.842 222.387 172.026 223.432 172.301 224.499C172.577 225.567 172.864 226.647 173.231 227.726C173.599 228.805 173.943 229.919 174.379 231.021C174.816 232.124 175.206 233.318 175.528 234.328L175.608 234.558C175.796 235.107 175.795 235.703 175.605 236.251C175.416 236.8 175.049 237.269 174.563 237.586C174.076 237.902 173.498 238.047 172.92 237.998C172.342 237.948 171.797 237.708 171.371 237.314C170.389 236.387 169.465 235.402 168.604 234.363C167.754 233.327 166.961 232.246 166.227 231.125C164.696 228.798 163.476 226.281 162.599 223.638C162.509 223.356 162.463 223.062 162.461 222.766V222.283C162.518 216.485 162.381 210.526 162.3 204.601L162.162 195.691L162.082 186.78C162.066 186.102 162.184 185.427 162.429 184.794C162.674 184.161 163.041 183.582 163.51 183.091C163.979 182.601 164.539 182.207 165.16 181.932C165.781 181.658 166.45 181.509 167.128 181.493C167.807 181.477 168.482 181.595 169.115 181.84C169.748 182.085 170.326 182.452 170.817 182.921C171.308 183.39 171.702 183.95 171.976 184.571C172.251 185.192 172.4 185.861 172.416 186.539L172.381 186.585Z" fill="#CE7A63"/>
<path d="M166.158 174.116C173.403 178.984 176.492 189.651 176.653 196.345C173.403 203.292 161.726 204.383 161.726 204.383C161.726 204.383 158.361 191.879 158.648 185.782C158.936 179.685 161.978 171.303 166.158 174.116Z" fill="#263238"/>
<path d="M172.198 185.299C172.195 181.88 170.885 178.59 168.538 176.104C166.19 173.617 162.981 172.122 159.567 171.923C157.604 171.796 155.548 171.693 153.562 171.67C147.432 171.685 141.312 172.142 135.248 173.036C133.514 173.243 131.803 173.507 130.207 173.794C128.791 174.044 127.441 174.583 126.242 175.378C125.044 176.173 124.022 177.207 123.242 178.416C122.461 179.624 121.939 180.98 121.707 182.4C121.475 183.82 121.539 185.272 121.894 186.666C128.554 211.777 129.484 230.149 126.946 241.413C126.946 241.413 118.909 252.103 115.303 276.606C112.134 298.008 115.2 334.774 111.732 354.156C124.202 363.078 163.517 361.861 169.373 356.636C167.72 317.436 176.343 268.545 170.257 244.834C176.366 235.649 171.819 215.325 170.257 206.943C178.674 199.709 172.186 194.634 172.198 185.299Z" fill="#16898E"/>
<path opacity="0.2" d="M164.941 245.719C160.376 246.872 155.674 247.394 150.967 247.269C150.967 247.269 161.783 249.932 164.941 245.719Z" fill="black"/>
<path d="M171.188 237.899C167.743 236.406 169.075 231.102 169.075 231.102L168.283 228.093C168.189 227.828 168.157 227.545 168.189 227.265C168.221 226.986 168.317 226.717 168.468 226.48C168.62 226.243 168.824 226.044 169.064 225.898C169.305 225.751 169.575 225.662 169.856 225.636L171.831 225.372C172.578 225.327 173.321 225.506 173.966 225.887C174.61 226.267 175.126 226.832 175.447 227.508L175.895 228.472C176.64 230.026 176.842 231.785 176.469 233.467L175.907 235.821C175.779 236.342 175.544 236.83 175.218 237.256C174.702 237.779 174.033 238.123 173.308 238.239C172.583 238.354 171.84 238.235 171.188 237.899Z" fill="#CE7A63"/>
<path opacity="0.2" d="M146.076 323.361C144.928 307.585 146.076 283.989 155.709 270.761C153.195 287.537 146.076 323.361 146.076 323.361Z" fill="black"/>
<path d="M136.04 152.311C137.51 158.052 139.221 168.799 135.294 172.979C144.894 176.048 153.314 182.002 159.407 190.03C163.712 176.251 153.597 171.659 153.597 171.659C146.948 170.579 146.868 165.699 147.775 161.049L136.04 152.311Z" fill="#CE7A63"/>
<path opacity="0.2" d="M140.782 155.882L147.729 161.049C147.505 162.13 147.374 163.229 147.339 164.333C144.801 164.16 141.219 161.669 140.817 159.062C140.609 158.013 140.597 156.935 140.782 155.882Z" fill="black"/>
<path d="M129.22 141.988C132.022 151.381 133.009 155.423 138.899 159.108C147.752 164.666 158.534 158.959 158.568 148.866C158.568 139.772 153.976 125.902 143.929 124.478C133.882 123.054 126.43 132.596 129.22 141.988Z" fill="#CE7A63"/>
<path d="M143.481 123.479C150.692 132.665 132.412 130.104 134.134 137.82C135.857 145.536 126.407 147.351 128.634 153.253C117.164 151.346 122.87 118.668 143.481 123.479Z" fill="#263238"/>
<path d="M141.425 124.34C143.125 130.288 150.864 127.682 155.101 131.138C154.274 124.34 143.549 121.722 141.425 124.34Z" fill="#263238"/>
<path d="M142.861 141.104C143.045 141.885 143.607 142.413 144.112 142.253C144.618 142.092 144.893 141.392 144.709 140.622C144.526 139.853 143.975 139.313 143.458 139.474C142.941 139.635 142.677 140.301 142.861 141.104Z" fill="#263238"/>
<path d="M152.506 138.808C152.678 139.589 153.24 140.105 153.757 139.956C154.274 139.807 154.538 139.095 154.354 138.314C154.171 137.533 153.608 137.017 153.103 137.166C152.597 137.315 152.322 138.004 152.506 138.808Z" fill="#263238"/>
<path d="M152.885 137.269L154.641 136.247C154.641 136.247 154.01 138.004 152.885 137.269Z" fill="#263238"/>
<path d="M150.692 140.071C151.797 141.666 153.123 143.096 154.63 144.319C154.3 144.703 153.891 145.011 153.432 145.223C152.972 145.435 152.472 145.546 151.966 145.548L150.692 140.071Z" fill="#BA4D3C"/>
<path d="M129.151 151.415C129.725 152.096 130.441 152.644 131.248 153.02C132.055 153.397 132.934 153.594 133.824 153.597C136.121 153.54 136.488 150.922 135.237 148.774C134.088 146.834 131.574 144.538 129.587 145.64C127.601 146.742 127.624 149.647 129.151 151.415Z" fill="#CE7A63"/>
<path d="M141.035 137.774C141.153 137.715 141.243 137.612 141.287 137.487C141.463 136.917 141.768 136.394 142.178 135.96C142.588 135.526 143.093 135.192 143.653 134.984C143.773 134.952 143.875 134.873 143.938 134.766C144 134.658 144.017 134.53 143.986 134.41C143.971 134.35 143.945 134.294 143.907 134.244C143.87 134.195 143.823 134.154 143.769 134.124C143.715 134.094 143.656 134.075 143.594 134.069C143.533 134.063 143.47 134.07 143.412 134.089C142.698 134.335 142.053 134.746 141.528 135.289C141.003 135.832 140.614 136.49 140.392 137.212C140.372 137.27 140.364 137.331 140.369 137.392C140.373 137.453 140.39 137.513 140.418 137.567C140.446 137.622 140.484 137.67 140.531 137.71C140.578 137.749 140.632 137.779 140.69 137.797C140.804 137.83 140.926 137.822 141.035 137.774Z" fill="#263238"/>
<path d="M156.031 134.169C156.122 134.169 156.212 134.142 156.289 134.093C156.366 134.043 156.428 133.973 156.466 133.89C156.505 133.806 156.519 133.714 156.507 133.623C156.495 133.532 156.457 133.447 156.398 133.377C155.912 132.818 155.298 132.385 154.608 132.115C153.918 131.845 153.173 131.746 152.437 131.827C152.313 131.846 152.201 131.914 152.126 132.015C152.051 132.116 152.018 132.242 152.035 132.366C152.055 132.487 152.121 132.596 152.22 132.669C152.318 132.742 152.442 132.773 152.563 132.757C153.149 132.697 153.74 132.781 154.286 133.001C154.833 133.221 155.317 133.571 155.698 134.02C155.739 134.068 155.79 134.106 155.847 134.132C155.905 134.158 155.968 134.17 156.031 134.169Z" fill="#263238"/>
<path d="M143.24 139.566L144.997 138.555C144.997 138.555 144.376 140.3 143.24 139.566Z" fill="#263238"/>
<path d="M143.446 242.618L152.15 243.858L147.924 252.987C147.924 252.987 141.885 250.587 139.312 246.499L139.416 245.144C140.553 243.284 141.264 242.699 143.446 242.618Z" fill="#CE7A63"/>
<path d="M155.732 249.645L153.379 253.308C153.036 253.834 152.509 254.213 151.901 254.37C151.294 254.527 150.649 254.452 150.095 254.158L147.925 253.01L152.15 243.881L155.204 246.384C155.673 246.771 155.985 247.315 156.083 247.915C156.18 248.515 156.055 249.13 155.732 249.645Z" fill="#CE7A63"/>
<path d="M131.516 186.39C129.92 192.349 128.29 198.389 126.774 204.36C126.039 207.357 125.327 210.353 124.684 213.316C124.363 214.785 124.087 216.267 123.846 217.69C123.731 218.402 123.628 219.103 123.548 219.769C123.473 220.348 123.431 220.93 123.421 221.514C123.329 222.984 124.34 225.223 125.97 227.324C127.749 229.542 129.742 231.58 131.918 233.41C134.202 235.374 136.59 237.214 139.072 238.921C141.552 240.666 144.17 242.366 146.719 243.927L146.811 243.985C147.42 244.289 147.883 244.823 148.098 245.469C148.313 246.115 148.263 246.82 147.959 247.429C147.654 248.038 147.12 248.502 146.474 248.717C145.828 248.932 145.123 248.882 144.514 248.578C138.4 246.266 132.571 243.261 127.142 239.621C124.274 237.7 121.639 235.454 119.288 232.927C117.991 231.533 116.861 229.992 115.923 228.334C114.832 226.391 114.181 224.231 114.017 222.008C113.959 221.025 113.959 220.04 114.017 219.057C114.017 218.161 114.132 217.3 114.224 216.45C114.408 214.763 114.649 213.144 114.913 211.536C115.43 208.321 116.061 205.186 116.773 202.075C118.151 195.828 119.713 189.72 121.527 183.588C121.925 182.301 122.81 181.219 123.994 180.575C125.178 179.931 126.567 179.775 127.865 180.14C129.162 180.506 130.265 181.364 130.939 182.532C131.613 183.699 131.803 185.084 131.47 186.39H131.516Z" fill="#CE7A63"/>
<path d="M126.533 175.195C120.792 177.893 118.163 181.981 113.799 193.245C115.326 200.754 128.634 205.198 128.634 205.198C130.607 200.58 132.178 195.801 133.331 190.914C134.49 184.92 132.366 172.451 126.533 175.195Z" fill="#263238"/>
<path d="M147.832 440.319C147.889 440.176 147.989 440.055 148.12 439.975C148.25 439.894 148.403 439.858 148.556 439.871L155.95 439.767C156.722 439.709 157.495 439.872 158.178 440.238C161.56 442.343 165.354 443.698 169.304 444.211C170.877 444.452 170.165 447.105 166.468 447.139C160.348 447.208 159.246 446.749 154.021 446.806C149.566 446.806 151.725 447.059 148.142 447.139C147.293 447.139 146.604 446.611 146.719 445.991L147.832 440.319Z" fill="#263238"/>
<path d="M120.758 440.319C120.814 440.176 120.915 440.056 121.045 439.975C121.175 439.894 121.328 439.858 121.481 439.871L127.498 439.768C128.266 439.706 129.036 439.87 129.714 440.238C131.872 441.742 131.597 443.465 136.603 444.211C138.176 444.452 137.407 447.105 133.698 447.139C127.59 447.208 127.957 446.806 125.477 446.806C122.997 446.806 124.512 447.059 120.964 447.139C120.115 447.139 119.437 446.611 119.564 445.991L120.758 440.319Z" fill="#263238"/>
<path d="M155.376 185.38C152.563 184.656 146.569 185.15 143.48 188.744C137.544 186.448 131.861 178.272 131.998 173.128C133.214 171.987 134.789 171.305 136.453 171.199C136.453 171.199 149.819 177.687 155.376 185.38Z" fill="#FAFAFA"/>
<path d="M160.394 184.943C160.394 184.943 161.221 178.157 153.011 171.567C153.838 170.889 157.087 171.658 157.087 171.658C157.087 171.658 166.687 175.781 166.399 186.47C164.673 185.199 162.519 184.651 160.394 184.943Z" fill="#FAFAFA"/>
<path d="M144.904 148.545C144.431 148.338 143.977 148.088 143.549 147.798C143.524 147.775 143.504 147.746 143.491 147.715C143.477 147.683 143.47 147.649 143.47 147.615C143.47 147.58 143.477 147.546 143.491 147.515C143.504 147.483 143.524 147.455 143.549 147.431C143.595 147.374 143.66 147.335 143.732 147.322C143.804 147.31 143.878 147.324 143.94 147.362C144.91 148.019 146.016 148.447 147.175 148.616C148.334 148.785 149.517 148.69 150.634 148.338C150.667 148.323 150.703 148.315 150.739 148.314C150.775 148.314 150.811 148.32 150.845 148.334C150.878 148.348 150.909 148.369 150.934 148.395C150.959 148.421 150.979 148.452 150.991 148.486C151.004 148.52 151.009 148.557 151.007 148.593C151.005 148.629 150.996 148.664 150.98 148.697C150.963 148.729 150.941 148.758 150.913 148.781C150.885 148.804 150.853 148.822 150.818 148.832C148.879 149.472 146.772 149.369 144.904 148.545Z" fill="#263238"/>
<path d="M249.508 168.868C245.71 167.623 241.651 167.397 237.738 168.214C235.12 168.627 230.608 166.273 227.565 162.553C227.434 163.35 227.469 164.166 227.667 164.949C227.865 165.733 228.223 166.467 228.717 167.105C229.212 167.744 229.833 168.275 230.541 168.663C231.25 169.051 232.031 169.289 232.835 169.362C228.771 172.232 221.227 169.052 220.366 163.759C219.505 158.465 225.303 158.511 221.767 149.234C218.23 139.956 227.634 144.078 230.654 130.277C233.674 116.475 248.543 117.646 251.012 122.756C259.543 119.242 263.78 124.409 267.029 132.194C269.911 139.083 269.326 144.469 273.574 155.882C277.662 166.71 261.69 172.313 249.508 168.868Z" fill="#263238"/>
<path d="M234.03 168.306C233.5 168.295 232.975 168.194 232.479 168.007C230.987 167.355 229.657 166.383 228.583 165.158C227.509 163.934 226.719 162.487 226.268 160.923C226.246 160.85 226.255 160.771 226.291 160.704C226.328 160.637 226.39 160.588 226.463 160.567C226.536 160.545 226.614 160.554 226.681 160.591C226.748 160.627 226.797 160.689 226.819 160.762C227.242 162.241 227.987 163.609 228.999 164.768C230.011 165.927 231.266 166.849 232.675 167.467C233.079 167.652 233.52 167.741 233.964 167.727C234.409 167.713 234.843 167.597 235.235 167.387C235.265 167.365 235.299 167.35 235.335 167.342C235.371 167.333 235.409 167.332 235.445 167.339C235.481 167.345 235.516 167.359 235.547 167.379C235.578 167.399 235.605 167.425 235.626 167.456C235.648 167.487 235.663 167.522 235.672 167.559C235.68 167.596 235.681 167.634 235.675 167.671C235.668 167.709 235.655 167.744 235.634 167.776C235.614 167.808 235.588 167.836 235.557 167.858C235.106 168.161 234.573 168.318 234.03 168.306Z" fill="#263238"/>
<path d="M269.417 146.639H269.36C269.287 146.622 269.223 146.579 269.18 146.517C269.138 146.455 269.12 146.38 269.13 146.306C270.738 137.12 269.268 129.944 265.008 126.04C263.717 124.844 262.143 123.995 260.434 123.571C258.726 123.147 256.938 123.163 255.237 123.617C255.167 123.628 255.095 123.613 255.035 123.575C254.976 123.536 254.933 123.477 254.914 123.409C254.895 123.34 254.903 123.267 254.935 123.204C254.967 123.141 255.021 123.091 255.088 123.066C256.885 122.583 258.776 122.563 260.583 123.009C262.39 123.455 264.055 124.351 265.422 125.615C267.971 127.911 271.932 133.767 269.716 146.398C269.705 146.468 269.668 146.531 269.613 146.576C269.558 146.62 269.488 146.643 269.417 146.639Z" fill="#263238"/>
<path d="M278.018 241.895C278.018 241.895 278.018 303.899 274.251 337.496C273.861 369.026 266.662 440.261 266.662 440.261H258.704C257.361 404.919 247.521 371.919 254.112 340.745C238.806 279.522 245.902 241.998 245.902 241.998L278.018 241.895Z" fill="#CE7A63"/>
<path d="M264.813 241.941C264.813 241.941 251.815 310.719 247.314 340.033C242.595 370.817 235.568 430.547 235.832 440.261H228.943C228.943 440.261 217.403 379.842 228.082 341.101C219.275 253.997 237.623 241.941 237.623 241.941H264.813Z" fill="#CE7A63"/>
<path d="M279.705 186.585C279.82 189.605 279.82 192.59 279.866 195.599C279.912 198.607 279.866 201.592 279.866 204.601C279.774 210.606 279.579 216.6 279.12 222.72L278.982 221.376C278.982 221.56 278.982 221.537 278.706 221.273C278.365 220.954 277.921 220.767 277.455 220.745C277.145 220.745 277.237 220.882 277.455 220.894C277.805 220.89 278.153 220.836 278.488 220.733C279.453 220.465 280.391 220.108 281.29 219.665C282.277 219.252 283.311 218.666 284.264 218.196L284.505 218.081C285.024 217.826 285.613 217.751 286.18 217.867C286.746 217.984 287.258 218.286 287.634 218.725C288.01 219.164 288.23 219.716 288.258 220.294C288.286 220.872 288.121 221.442 287.789 221.916C287.009 223.018 286.146 224.059 285.205 225.028C284.201 226.053 283.084 226.962 281.876 227.737C281.154 228.202 280.384 228.587 279.579 228.886C278.446 229.302 277.23 229.444 276.031 229.299C275.227 229.195 274.449 228.946 273.735 228.564C272.992 228.17 272.327 227.645 271.771 227.014C270.936 226.041 270.324 224.896 269.98 223.661C269.885 223.372 269.838 223.07 269.842 222.766V222.306C269.842 216.508 269.762 210.549 269.67 204.624L269.544 195.714L269.463 186.803C269.431 185.433 269.945 184.106 270.891 183.114C271.838 182.123 273.139 181.548 274.51 181.516C275.88 181.484 277.207 181.998 278.199 182.944C279.19 183.89 279.765 185.192 279.797 186.562L279.705 186.585Z" fill="#CE7A63"/>
<path d="M273.471 174.116C280.727 178.984 283.805 189.651 283.977 196.345C280.727 203.292 269.05 204.383 269.05 204.383C269.05 204.383 265.686 191.879 265.973 185.782C266.26 179.685 269.303 171.303 273.471 174.116Z" fill="#263238"/>
<path d="M279.568 185.299C279.565 181.88 278.256 178.59 275.908 176.104C273.56 173.617 270.351 172.122 266.937 171.923C264.974 171.796 262.919 171.693 260.932 171.67C254.783 171.682 248.644 172.139 242.561 173.036C240.815 173.243 239.116 173.507 237.52 173.794C236.103 174.044 234.753 174.583 233.554 175.378C232.355 176.173 231.333 177.207 230.552 178.415C229.77 179.623 229.247 180.979 229.013 182.399C228.78 183.819 228.842 185.271 229.195 186.666C235.855 211.777 236.785 230.149 234.259 241.413C234.259 241.413 226.222 252.103 222.616 276.606C219.436 298.008 222.513 334.774 219.045 354.156C231.515 363.078 271.588 361.723 277.604 356.636C276.881 317.413 289.087 268.729 282.955 245.018C289.075 235.832 288.581 215.612 277.604 206.897C285.998 199.709 279.568 194.634 279.568 185.299Z" fill="#16898E"/>
<path opacity="0.2" d="M279.935 245.937C272.679 247.418 265.252 247.89 257.866 247.338C257.866 247.338 274.653 252.286 279.935 245.937Z" fill="black"/>
<path d="M285.63 223.719C281.933 223.179 281.807 217.713 281.807 217.713L280.245 215.027C280.084 214.795 279.978 214.53 279.936 214.251C279.894 213.973 279.916 213.688 280.002 213.419C280.087 213.151 280.233 212.905 280.429 212.702C280.624 212.499 280.864 212.344 281.129 212.248L283.012 211.49C283.723 211.254 284.489 211.237 285.21 211.441C285.931 211.646 286.573 212.063 287.054 212.638L287.743 213.454C288.869 214.759 289.524 216.405 289.603 218.127L289.683 220.55C289.695 221.084 289.597 221.616 289.396 222.111C289.034 222.748 288.478 223.253 287.809 223.553C287.14 223.852 286.393 223.93 285.676 223.776L285.63 223.719Z" fill="#CE7A63"/>
<path opacity="0.2" d="M254.697 323.361C253.607 307.585 254.697 283.989 264.331 270.761C261.816 287.537 254.697 323.361 254.697 323.361Z" fill="black"/>
<path d="M243.318 152.311C244.776 158.052 246.487 168.799 242.572 172.979C252.17 176.051 260.589 182.005 266.684 190.03C270.99 176.251 260.874 171.659 260.874 171.659C254.215 170.579 254.134 165.699 255.041 161.049L243.318 152.311Z" fill="#CE7A63"/>
<path opacity="0.2" d="M248.106 155.882L254.996 161.049C254.768 162.13 254.633 163.229 254.594 164.333C252.068 164.16 248.474 161.669 248.072 159.062C247.891 158.009 247.903 156.931 248.106 155.882Z" fill="black"/>
<path d="M236.544 141.988C239.334 151.381 240.321 155.423 246.212 159.108C255.076 164.666 265.858 158.959 265.892 148.866C265.892 139.772 261.299 125.902 251.252 124.478C241.205 123.054 233.754 132.596 236.544 141.988Z" fill="#CE7A63"/>
<path d="M250.862 123.479C258.073 132.665 239.794 130.104 241.516 137.82C243.238 145.536 233.788 147.351 236.016 153.253C224.453 151.346 230.194 118.668 250.862 123.479Z" fill="#263238"/>
<path d="M248.75 124.34C250.449 130.288 258.188 127.682 262.425 131.138C261.598 124.34 250.862 121.722 248.75 124.34Z" fill="#263238"/>
<path d="M250.185 141.104C250.357 141.885 250.919 142.413 251.436 142.253C251.953 142.092 252.217 141.392 252.033 140.622C251.849 139.853 251.287 139.313 250.782 139.474C250.276 139.635 250.001 140.301 250.185 141.104Z" fill="#263238"/>
<path d="M259.818 138.808C260.002 139.589 260.565 140.105 261.07 139.956C261.575 139.807 261.851 139.095 261.667 138.314C261.483 137.533 260.932 137.017 260.415 137.166C259.899 137.315 259.646 138.004 259.818 138.808Z" fill="#263238"/>
<path d="M260.209 137.269L261.954 136.247C261.954 136.247 261.334 138.004 260.209 137.269Z" fill="#263238"/>
<path d="M258.016 140.071C259.121 141.666 260.447 143.096 261.954 144.319C261.623 144.702 261.214 145.01 260.755 145.222C260.296 145.434 259.796 145.545 259.29 145.548L258.016 140.071Z" fill="#BA4D3C"/>
<path d="M236.498 151.415C237.072 152.096 237.788 152.644 238.595 153.02C239.401 153.397 240.281 153.594 241.171 153.597C243.468 153.54 243.835 150.922 242.583 148.774C241.435 146.834 238.909 144.538 236.934 145.64C234.959 146.742 234.936 149.647 236.498 151.415Z" fill="#CE7A63"/>
<path d="M248.359 137.774C248.477 137.715 248.568 137.612 248.612 137.487C248.782 136.924 249.077 136.407 249.475 135.974C249.872 135.54 250.362 135.202 250.908 134.984C251.029 134.952 251.132 134.874 251.196 134.767C251.261 134.66 251.281 134.532 251.253 134.41C251.238 134.35 251.212 134.294 251.174 134.244C251.137 134.195 251.09 134.154 251.036 134.124C250.982 134.094 250.923 134.075 250.861 134.069C250.8 134.063 250.738 134.07 250.679 134.089C249.964 134.333 249.318 134.744 248.793 135.287C248.268 135.83 247.88 136.49 247.659 137.212C247.639 137.27 247.632 137.331 247.636 137.392C247.64 137.453 247.657 137.513 247.685 137.567C247.713 137.622 247.751 137.67 247.798 137.71C247.845 137.749 247.899 137.779 247.957 137.797C248.022 137.821 248.092 137.832 248.161 137.828C248.23 137.824 248.298 137.806 248.359 137.774Z" fill="#263238"/>
<path d="M263.355 134.169C263.414 134.171 263.473 134.161 263.528 134.139C263.584 134.117 263.634 134.085 263.676 134.043C263.72 133.999 263.755 133.947 263.778 133.89C263.802 133.833 263.814 133.772 263.814 133.71C263.814 133.648 263.802 133.587 263.778 133.53C263.755 133.472 263.72 133.421 263.676 133.377C263.189 132.816 262.572 132.383 261.881 132.113C261.189 131.843 260.442 131.745 259.703 131.827C259.585 131.851 259.481 131.919 259.412 132.018C259.342 132.116 259.314 132.238 259.331 132.357C259.349 132.476 259.412 132.584 259.506 132.659C259.601 132.733 259.721 132.768 259.841 132.757C260.427 132.699 261.018 132.784 261.563 133.004C262.109 133.224 262.594 133.572 262.976 134.02C263.021 134.075 263.079 134.118 263.146 134.144C263.212 134.171 263.284 134.179 263.355 134.169Z" fill="#263238"/>
<path d="M250.563 139.566L252.32 138.555C252.32 138.555 251.689 140.3 250.563 139.566Z" fill="#263238"/>
<path d="M255.455 237.084L264.101 235.545L262.953 245.535C262.953 245.535 256.466 245.144 252.745 242.09L252.424 240.77C252.895 238.623 253.4 237.899 255.455 237.084Z" fill="#CE7A63"/>
<path d="M269.303 239.909L268.212 244.122C268.056 244.731 267.676 245.259 267.148 245.6C266.62 245.94 265.983 246.069 265.364 245.96L262.941 245.535L264.09 235.545L267.775 236.958C268.348 237.175 268.821 237.597 269.103 238.141C269.384 238.686 269.456 239.315 269.303 239.909Z" fill="#CE7A63"/>
<path d="M238.841 186.39C237.245 192.338 235.614 198.378 234.098 204.348C233.364 207.334 232.652 210.33 232.009 213.281C231.687 214.763 231.412 216.232 231.17 217.656C231.056 218.368 230.952 219.068 230.872 219.734C230.792 220.4 230.746 221.043 230.734 221.503V222.031C230.755 222.197 230.785 222.362 230.826 222.525C230.939 222.926 231.101 223.311 231.308 223.673C231.881 224.637 232.601 225.505 233.444 226.245C235.545 228.051 237.858 229.593 240.333 230.838C242.974 232.253 245.701 233.503 248.497 234.581C251.299 235.729 254.238 236.751 257.074 237.681H257.178C257.808 237.862 258.344 238.278 258.677 238.842C259.01 239.407 259.113 240.078 258.966 240.717C258.819 241.356 258.432 241.914 257.886 242.276C257.34 242.639 256.675 242.777 256.029 242.664C249.547 241.866 243.186 240.285 237.084 237.957C233.807 236.698 230.716 234.998 227.898 232.904C226.283 231.685 224.869 230.22 223.707 228.564C223.044 227.612 222.508 226.577 222.111 225.487C221.906 224.905 221.738 224.31 221.606 223.707C221.606 223.397 221.502 223.087 221.457 222.777L221.376 221.905C221.324 220.925 221.324 219.944 221.376 218.965C221.434 218.069 221.502 217.22 221.594 216.37C221.778 214.682 222.019 213.063 222.283 211.467C222.8 208.252 223.431 205.118 224.143 202.006C225.521 195.771 227.071 189.663 228.885 183.543C229.069 182.889 229.38 182.278 229.8 181.744C230.221 181.211 230.742 180.765 231.334 180.433C231.926 180.101 232.578 179.889 233.252 179.809C233.927 179.728 234.61 179.782 235.264 179.966C235.918 180.15 236.529 180.461 237.062 180.881C237.596 181.301 238.041 181.822 238.373 182.414C238.705 183.007 238.918 183.658 238.998 184.333C239.078 185.007 239.024 185.691 238.841 186.344V186.39Z" fill="#CE7A63"/>
<path d="M233.857 175.195C228.116 177.893 225.487 181.981 221.124 193.245C222.651 200.754 235.959 205.198 235.959 205.198C237.931 200.58 239.502 195.801 240.655 190.914C241.814 184.92 239.69 172.451 233.857 175.195Z" fill="#263238"/>
<path d="M258.084 440.319C258.141 440.176 258.242 440.055 258.372 439.975C258.502 439.894 258.655 439.858 258.808 439.871L266.202 439.767C266.974 439.709 267.747 439.872 268.43 440.238C271.812 442.343 275.606 443.698 279.556 444.211C281.129 444.452 280.417 447.105 276.72 447.139C270.6 447.208 269.498 446.749 264.273 446.806C259.818 446.806 261.977 447.059 258.406 447.139C257.556 447.139 256.856 446.611 256.971 445.991L258.084 440.319Z" fill="#263238"/>
<path d="M228.07 440.319C228.13 440.176 228.233 440.056 228.365 439.976C228.497 439.896 228.651 439.859 228.805 439.871L234.821 439.768C235.59 439.706 236.36 439.87 237.038 440.238C239.196 441.742 238.921 443.465 243.927 444.211C245.488 444.452 244.719 447.105 241.022 447.139C234.902 447.208 235.281 446.806 232.801 446.806C230.32 446.806 231.836 447.059 228.288 447.139C227.438 447.139 226.749 446.611 226.887 445.991L228.07 440.319Z" fill="#263238"/>
<path d="M262.7 185.38C259.887 184.656 253.894 185.15 250.805 188.744C244.857 186.448 239.173 178.272 239.323 173.128C240.534 171.988 242.106 171.306 243.766 171.199C243.766 171.199 257.166 177.687 262.7 185.38Z" fill="#FAFAFA"/>
<path d="M267.707 184.943C267.707 184.943 268.545 178.157 260.335 171.567C261.162 170.889 264.4 171.658 264.4 171.658C264.4 171.658 273.999 175.781 273.723 186.47C271.993 185.198 269.834 184.65 267.707 184.943Z" fill="#FAFAFA"/>
<path d="M252.228 148.545C251.751 148.338 251.294 148.089 250.862 147.798C250.837 147.775 250.817 147.746 250.803 147.715C250.79 147.683 250.783 147.649 250.783 147.615C250.783 147.58 250.79 147.546 250.803 147.515C250.817 147.483 250.837 147.455 250.862 147.431C250.907 147.374 250.972 147.335 251.044 147.322C251.116 147.31 251.19 147.324 251.252 147.362C252.222 148.019 253.328 148.447 254.488 148.616C255.647 148.785 256.829 148.69 257.946 148.338C258.014 148.311 258.088 148.312 258.155 148.34C258.221 148.368 258.274 148.421 258.302 148.487C258.324 148.556 258.319 148.63 258.286 148.695C258.254 148.759 258.198 148.808 258.13 148.832C256.195 149.469 254.093 149.366 252.228 148.545Z" fill="#263238"/>
<path d="M356.407 170.338C352.996 168.257 349.102 167.101 345.108 166.985C342.467 166.79 338.621 163.46 336.52 159.143C336.208 159.887 336.053 160.687 336.064 161.494C336.076 162.301 336.254 163.097 336.587 163.832C336.92 164.567 337.401 165.225 338 165.765C338.599 166.306 339.303 166.717 340.068 166.974C335.475 168.834 328.849 164 329.24 158.649C329.63 153.298 335.245 154.688 333.936 144.87C332.627 135.053 340.825 141.219 346.957 128.485C353.088 115.752 367.269 120.333 368.509 125.856C377.614 124.409 380.554 130.449 381.92 138.728C383.126 146.088 381.277 151.186 382.827 163.288C384.308 174.747 367.476 176.504 356.407 170.338Z" fill="#263238"/>
<path d="M341.158 164.723C340.624 164.711 340.095 164.607 339.597 164.413C338.106 163.763 336.778 162.792 335.706 161.57C334.634 160.347 333.846 158.903 333.396 157.34C333.384 157.304 333.38 157.266 333.383 157.228C333.386 157.19 333.397 157.153 333.416 157.119C333.434 157.086 333.459 157.056 333.489 157.033C333.52 157.01 333.555 156.993 333.592 156.984C333.628 156.974 333.666 156.97 333.703 156.974C333.741 156.978 333.777 156.99 333.81 157.008C333.843 157.026 333.872 157.051 333.896 157.08C333.919 157.109 333.937 157.143 333.948 157.179C334.369 158.656 335.111 160.022 336.122 161.179C337.132 162.337 338.385 163.256 339.792 163.873C340.195 164.061 340.636 164.152 341.08 164.14C341.525 164.128 341.96 164.014 342.352 163.805C342.383 163.783 342.418 163.767 342.455 163.759C342.492 163.75 342.53 163.749 342.568 163.756C342.605 163.762 342.641 163.776 342.673 163.796C342.705 163.816 342.732 163.843 342.754 163.873C342.776 163.904 342.792 163.939 342.8 163.976C342.809 164.013 342.81 164.051 342.803 164.089C342.797 164.126 342.783 164.162 342.763 164.194C342.743 164.226 342.716 164.253 342.685 164.275C342.234 164.577 341.701 164.734 341.158 164.723Z" fill="#263238"/>
<path d="M381.116 241.895C381.116 241.895 381.116 303.899 377.339 337.496C376.96 369.026 369.761 440.261 369.761 440.261H361.803C360.46 404.919 350.62 371.919 357.153 340.745C341.859 279.522 348.955 241.998 348.955 241.998L381.116 241.895Z" fill="#CE7A63"/>
<path d="M372.447 241.941C372.447 241.941 359.449 310.719 354.948 340.033C350.229 370.817 343.202 430.547 343.523 440.261H336.634C336.634 440.261 325.152 379.842 335.773 341.101C326.966 253.997 345.315 241.941 345.315 241.941H372.447Z" fill="#CE7A63"/>
<path d="M387.156 185.299C387.15 181.88 385.84 178.593 383.493 176.107C381.146 173.621 377.938 172.124 374.526 171.923C372.562 171.796 370.507 171.693 368.52 171.67C362.372 171.682 356.232 172.139 350.149 173.036C348.404 173.243 346.704 173.507 345.108 173.794C343.691 174.044 342.341 174.583 341.142 175.378C339.943 176.173 338.921 177.207 338.14 178.415C337.359 179.623 336.835 180.979 336.601 182.399C336.368 183.819 336.43 185.271 336.784 186.666C343.443 211.777 344.373 230.149 341.847 241.413C341.847 241.413 333.81 252.103 330.193 276.606C327.024 298.008 330.089 334.774 326.633 354.156C339.103 363.078 376.443 361.861 382.287 356.636C380.646 317.436 388.649 266.076 382.563 242.366C384.997 229.219 385.617 214.808 386.111 206.771C394.596 199.537 387.144 194.634 387.156 185.299Z" fill="#16898E"/>
<path d="M352.594 232.962C353.375 223.489 374.973 186.298 389.165 186.826C403.357 187.355 407.169 198.205 402.53 211.616C397.892 225.028 384.859 240.012 369.565 241.952C354.271 243.893 352.135 238.416 352.594 232.962Z" fill="#16898E"/>
<path opacity="0.8" d="M352.594 232.962C353.375 223.489 374.973 186.298 389.165 186.826C403.357 187.355 407.169 198.205 402.53 211.616C397.892 225.028 384.859 240.012 369.565 241.952C354.271 243.893 352.135 238.416 352.594 232.962Z" fill="white"/>
<path opacity="0.3" d="M378.395 215.337C371.195 215.337 365.282 214.303 363.652 212.443C363.426 212.215 363.277 211.921 363.228 211.604C363.178 211.286 363.23 210.961 363.376 210.675C363.389 210.636 363.41 210.601 363.437 210.571C363.464 210.541 363.498 210.518 363.535 210.502C363.572 210.485 363.612 210.477 363.653 210.478C363.693 210.479 363.733 210.488 363.77 210.505C363.807 210.522 363.839 210.547 363.866 210.577C363.892 210.608 363.912 210.644 363.924 210.683C363.935 210.722 363.938 210.763 363.933 210.803C363.928 210.843 363.914 210.882 363.893 210.916C363.794 211.102 363.759 211.316 363.795 211.523C363.83 211.731 363.933 211.921 364.088 212.064C366.855 215.222 386.145 216.209 400.245 211.616C400.282 211.597 400.323 211.587 400.365 211.585C400.406 211.584 400.448 211.591 400.486 211.607C400.525 211.623 400.559 211.647 400.587 211.678C400.616 211.709 400.637 211.745 400.649 211.785C400.662 211.824 400.666 211.866 400.661 211.908C400.656 211.949 400.641 211.989 400.619 212.024C400.597 212.059 400.568 212.089 400.533 212.112C400.498 212.135 400.459 212.15 400.418 212.156C393.276 214.306 385.853 215.378 378.395 215.337Z" fill="#16898E"/>
<path opacity="0.3" d="M384.4 231.389C382.015 231.35 379.653 230.92 377.408 230.114C373.879 228.945 370.635 227.049 367.884 224.55C365.133 222.05 362.936 219.001 361.436 215.601C361.408 215.53 361.408 215.452 361.436 215.382C361.464 215.312 361.517 215.254 361.585 215.222C361.62 215.207 361.658 215.199 361.697 215.199C361.735 215.199 361.773 215.207 361.809 215.222C361.844 215.237 361.876 215.259 361.902 215.287C361.929 215.314 361.95 215.347 361.964 215.383C363.434 218.708 365.584 221.689 368.275 224.133C370.967 226.577 374.14 228.431 377.591 229.575C382.276 231.194 386.685 231.239 389.395 229.701C389.427 229.677 389.465 229.661 389.504 229.652C389.543 229.644 389.584 229.644 389.623 229.652C389.662 229.66 389.699 229.677 389.732 229.7C389.765 229.724 389.792 229.754 389.812 229.789C389.832 229.823 389.845 229.862 389.849 229.902C389.853 229.942 389.849 229.982 389.837 230.021C389.825 230.059 389.805 230.094 389.778 230.124C389.751 230.154 389.719 230.178 389.682 230.195C388.053 231.04 386.234 231.452 384.4 231.389Z" fill="#16898E"/>
<path opacity="0.2" d="M359.53 323.361C358.439 307.585 359.53 283.989 369.163 270.761C366.637 287.537 359.53 323.361 359.53 323.361Z" fill="black"/>
<path d="M350.952 152.311C352.411 158.052 354.121 168.799 350.206 172.979C359.806 176.048 368.226 182.002 374.319 190.03C378.636 176.251 368.578 171.659 368.578 171.659C361.918 170.579 361.838 165.699 362.745 161.049L350.952 152.311Z" fill="#CE7A63"/>
<path opacity="0.2" d="M355.741 155.882L362.687 161.049C362.46 162.13 362.325 163.229 362.286 164.333C359.759 164.16 356.166 161.669 355.764 159.062C355.564 158.012 355.556 156.935 355.741 155.882Z" fill="black"/>
<path d="M349.471 139.554C349.471 149.36 349.207 153.505 353.777 158.741C360.666 166.629 372.619 164.275 375.593 154.63C378.257 145.938 377.889 131.379 368.646 127.073C359.403 122.767 349.517 129.76 349.471 139.554Z" fill="#CE7A63"/>
<path d="M368.486 125.959C372.711 136.879 359.013 131.781 358.439 139.657C357.865 147.534 345.223 143.871 345.648 150.164C335.222 145.02 350.149 115.396 368.486 125.959Z" fill="#263238"/>
<path d="M366.27 126.189C366.166 132.378 374.307 132.125 377.385 136.661C378.567 129.966 369.048 124.306 366.27 126.189Z" fill="#263238"/>
<path d="M363.388 145.778C363.388 146.581 363.721 147.236 364.249 147.27C364.777 147.305 365.248 146.662 365.294 145.87C365.34 145.077 364.961 144.411 364.433 144.388C363.905 144.365 363.388 144.985 363.388 145.778Z" fill="#263238"/>
<path d="M346.704 148.568C347.056 149.385 347.582 150.116 348.244 150.711C348.906 151.305 349.689 151.75 350.539 152.012C352.732 152.609 353.858 150.221 353.283 147.798C352.767 145.617 350.987 142.677 348.794 143.205C346.601 143.734 345.728 146.42 346.704 148.568Z" fill="#CE7A63"/>
<path d="M362.596 142.057C362.66 142.048 362.721 142.026 362.776 141.992C362.832 141.959 362.879 141.915 362.917 141.862C363.249 141.366 363.691 140.953 364.209 140.657C364.727 140.36 365.307 140.187 365.903 140.151C366.028 140.152 366.148 140.104 366.24 140.019C366.332 139.934 366.388 139.817 366.396 139.692C366.398 139.63 366.387 139.569 366.365 139.511C366.343 139.453 366.309 139.4 366.267 139.356C366.224 139.311 366.173 139.275 366.116 139.25C366.06 139.225 365.999 139.211 365.937 139.21C365.184 139.245 364.449 139.455 363.791 139.823C363.133 140.192 362.571 140.709 362.148 141.334C362.087 141.406 362.051 141.496 362.044 141.59C362.037 141.684 362.06 141.777 362.11 141.858C362.16 141.938 362.233 142 362.321 142.036C362.408 142.072 362.504 142.079 362.596 142.057Z" fill="#263238"/>
<path d="M364.192 144.411L366.155 143.952C366.155 143.952 365.064 145.399 364.192 144.411Z" fill="#263238"/>
<path d="M356.958 229.196L365.741 228.84L363.261 238.588C363.261 238.588 356.877 237.325 353.605 233.777L353.456 232.422C354.202 230.378 354.833 229.678 356.958 229.196Z" fill="#CE7A63"/>
<path d="M370.277 233.869L368.67 237.899C368.431 238.479 367.984 238.948 367.416 239.214C366.848 239.479 366.202 239.522 365.604 239.334L363.307 238.588L365.788 228.84L369.232 230.734C369.759 231.039 370.156 231.526 370.349 232.103C370.541 232.681 370.516 233.309 370.277 233.869Z" fill="#CE7A63"/>
<path d="M346.383 186.654C344.592 192.131 342.789 197.711 341.078 203.234C340.217 206.002 339.448 208.78 338.678 211.524C337.909 214.269 337.255 217.047 336.841 219.562C336.784 219.872 336.738 220.182 336.715 220.458C336.692 220.733 336.715 221.02 336.635 221.25C336.592 221.585 336.592 221.925 336.635 222.26C336.743 222.884 337.031 223.462 337.461 223.925C339.087 225.445 341.057 226.548 343.202 227.14C345.796 227.963 348.454 228.57 351.148 228.954C353.904 229.379 356.809 229.655 359.564 229.827H359.656C360.282 229.872 360.87 230.144 361.309 230.592C361.748 231.04 362.008 231.633 362.041 232.259C362.073 232.886 361.876 233.503 361.485 233.994C361.095 234.485 360.538 234.816 359.92 234.925C358.324 235.189 356.843 235.35 355.328 235.476C353.812 235.603 352.25 235.683 350.735 235.683C347.552 235.725 344.374 235.44 341.25 234.833C337.6 234.233 334.176 232.671 331.33 230.309C329.587 228.757 328.328 226.736 327.701 224.488C327.406 223.391 327.26 222.259 327.265 221.124C327.265 220.618 327.265 220.136 327.265 219.711C327.265 219.286 327.322 218.827 327.368 218.402C327.717 215.279 328.257 212.181 328.987 209.125C329.642 206.151 330.434 203.257 331.226 200.364C332.822 194.623 334.602 188.939 336.612 183.278C337.078 182.015 338.019 180.984 339.234 180.404C340.45 179.825 341.843 179.742 343.118 180.175C344.394 180.607 345.45 181.52 346.061 182.72C346.673 183.919 346.793 185.31 346.394 186.597L346.383 186.654Z" fill="#CE7A63"/>
<path d="M341.48 175.195C335.739 177.893 333.121 181.981 328.758 193.245C330.285 200.754 343.593 205.198 343.593 205.198C345.565 200.58 347.137 195.801 348.289 190.914C349.437 184.92 347.313 172.451 341.48 175.195Z" fill="#263238"/>
<path d="M361.183 440.319C361.24 440.176 361.34 440.055 361.471 439.975C361.601 439.894 361.754 439.858 361.907 439.871L369.301 439.767C370.073 439.709 370.846 439.872 371.529 440.238C374.911 442.343 378.705 443.698 382.655 444.211C384.228 444.452 383.516 447.105 379.819 447.139C373.699 447.208 372.597 446.749 367.372 446.806C362.917 446.806 365.076 447.059 361.493 447.139C360.644 447.139 359.955 446.611 360.069 445.991L361.183 440.319Z" fill="#263238"/>
<path d="M335.704 440.319C335.763 440.175 335.866 440.054 335.998 439.974C336.13 439.893 336.285 439.857 336.439 439.871L342.456 439.768C343.224 439.706 343.994 439.87 344.672 440.238C346.83 441.742 346.555 443.465 351.561 444.211C353.123 444.452 352.353 447.105 348.656 447.139C342.536 447.208 342.915 446.806 340.435 446.806C337.955 446.806 339.47 447.059 335.922 447.139C335.073 447.139 334.384 446.611 334.522 445.991L335.704 440.319Z" fill="#263238"/>
<path d="M370.334 185.38C367.521 184.656 361.528 185.15 358.439 188.744C352.491 186.448 346.807 178.272 346.957 173.128C348.169 171.988 349.74 171.306 351.4 171.199C351.4 171.199 364.8 177.687 370.334 185.38Z" fill="#FAFAFA"/>
<path d="M375.341 184.943C375.341 184.943 376.179 178.157 367.969 171.567C368.796 170.889 372.034 171.658 372.034 171.658C372.034 171.658 381.633 175.781 381.346 186.47C379.62 185.199 377.465 184.651 375.341 184.943Z" fill="#FAFAFA"/>
<path d="M363.181 153.494C362.788 153.14 362.423 152.757 362.09 152.345C362.069 152.318 362.053 152.286 362.044 152.253C362.035 152.219 362.033 152.184 362.038 152.149C362.044 152.114 362.056 152.081 362.075 152.052C362.094 152.023 362.119 151.997 362.148 151.978C362.203 151.928 362.274 151.9 362.349 151.9C362.423 151.9 362.495 151.928 362.55 151.978C363.289 152.885 364.223 153.614 365.282 154.111C366.342 154.608 367.5 154.86 368.67 154.848C368.741 154.842 368.812 154.863 368.868 154.908C368.924 154.954 368.96 155.018 368.968 155.09C368.97 155.125 368.964 155.161 368.952 155.194C368.939 155.228 368.92 155.258 368.895 155.284C368.87 155.31 368.841 155.33 368.808 155.344C368.775 155.358 368.74 155.365 368.704 155.365C366.696 155.44 364.73 154.774 363.181 153.494Z" fill="#263238"/>
<path d="M243.054 83.9576L163.104 96.0943C160.598 96.4024 158.065 95.806 155.96 94.4125C153.855 93.0191 152.317 90.9199 151.622 88.493L137.969 36.7313C137.648 35.6048 137.572 34.4221 137.748 33.2637C137.923 32.1054 138.347 30.9984 138.988 30.018C139.63 29.0377 140.475 28.2069 141.466 27.5822C142.457 26.9574 143.571 26.5533 144.732 26.3974L224.683 14.2262C227.188 13.9181 229.722 14.5145 231.827 15.9079C233.932 17.3014 235.47 19.4006 236.165 21.8275L249.817 73.5892C250.145 74.7179 250.225 75.9041 250.052 77.0667C249.879 78.2293 249.457 79.3408 248.815 80.3252C248.173 81.3097 247.326 82.1439 246.332 82.7708C245.337 83.3977 244.219 83.8025 243.054 83.9576Z" fill="#16898E"/>
<path opacity="0.3" d="M243.054 83.9576L163.104 96.0943C160.598 96.4024 158.065 95.806 155.96 94.4125C153.855 93.0191 152.317 90.9199 151.622 88.493L137.969 36.7313C137.648 35.6048 137.572 34.4221 137.748 33.2637C137.923 32.1054 138.347 30.9984 138.988 30.018C139.63 29.0377 140.475 28.2069 141.466 27.5822C142.457 26.9574 143.571 26.5533 144.732 26.3974L224.683 14.2262C227.188 13.9181 229.722 14.5145 231.827 15.9079C233.932 17.3014 235.47 19.4006 236.165 21.8275L249.817 73.5892C250.145 74.7179 250.225 75.9041 250.052 77.0667C249.879 78.2293 249.457 79.3408 248.815 80.3252C248.173 81.3097 247.326 82.1439 246.332 82.7708C245.337 83.3977 244.219 83.8025 243.054 83.9576Z" fill="black"/>
<path d="M255.536 81.9138L254.628 81.3167C255.483 80.0083 256.048 78.5323 256.286 76.9876C256.523 75.443 256.428 73.8654 256.006 72.3606L247.9 41.5539L248.945 41.2783L257.063 72.0621C257.524 73.7183 257.626 75.4539 257.363 77.1528C257.1 78.8518 256.477 80.4749 255.536 81.9138Z" fill="#16898E"/>
<path d="M247.022 86.0849L236.283 87.7185L236.447 88.7969L247.186 87.1633L247.022 86.0849Z" fill="#16898E"/>
<path d="M246.614 83.4178L166.663 95.52C164.157 95.8306 161.623 95.2352 159.517 93.8413C157.412 92.4475 155.874 90.347 155.181 87.9188L141.529 36.1915C141.205 35.0649 141.128 33.8817 141.303 32.7226C141.478 31.5635 141.9 30.4558 142.542 29.4749C143.184 28.4941 144.03 27.6632 145.022 27.0389C146.015 26.4147 147.13 26.0117 148.292 25.8576L228.242 13.6865C230.748 13.3783 233.281 13.9747 235.386 15.3682C237.491 16.7617 239.029 18.8608 239.724 21.2877L253.354 73.0494C253.681 74.1765 253.762 75.3609 253.591 76.5221C253.419 77.6832 252.999 78.7937 252.359 79.7778C251.72 80.7618 250.875 81.5964 249.884 82.2246C248.892 82.8528 247.777 83.2597 246.614 83.4178Z" fill="#16898E"/>
<path d="M237.267 76.5514L171.807 86.4835L157.638 32.6894L223.098 22.7573L237.267 76.5514Z" fill="white"/>
<path opacity="0.2" d="M237.267 76.5514L171.807 86.4835L157.638 32.6894L223.098 22.7573L237.267 76.5514Z" fill="#16898E"/>
<path opacity="0.2" d="M177.721 85.5879L171.807 86.4835L161.002 45.4576L166.904 44.562L177.721 85.5879Z" fill="#16898E"/>
<path opacity="0.4" d="M163.552 31.7939L157.638 32.6896L161.003 45.4578L166.905 44.5621L163.552 31.7939Z" fill="#16898E"/>
<path opacity="0.2" d="M163.552 31.7938L223.098 22.7573L226.462 35.5255L166.904 44.562L163.552 31.7938Z" fill="#16898E"/>
<path d="M266.994 64.3803L211.662 84.7841C187.94 77.6307 168.167 48.0411 166.675 33.3784L225.762 22.7114C227.255 37.3283 243.272 57.2269 266.994 64.3803Z" fill="white"/>
<path opacity="0.05" d="M266.994 64.3803L211.662 84.7841C187.94 77.6307 168.167 48.0411 166.675 33.3784L225.762 22.7114C227.255 37.3283 243.272 57.2269 266.994 64.3803Z" fill="#16898E"/>
<path opacity="0.4" d="M225.762 22.7114L196.218 28.0392L166.675 33.3784C167.099 37.5234 168.971 42.8742 172.025 48.5808L230.584 36.2949C228.044 32.1544 226.401 27.5268 225.762 22.7114Z" fill="#16898E"/>
<path d="M212.707 66.4243L219.516 63.8867C220.253 64.5326 221.112 65.0245 222.042 65.3335C222.742 65.5501 223.488 65.5739 224.201 65.4024C224.441 65.3824 224.674 65.3122 224.885 65.1965C225.097 65.0808 225.281 64.922 225.427 64.7305C225.573 64.539 225.678 64.3189 225.733 64.0846C225.789 63.8502 225.795 63.6068 225.751 63.37C225.621 62.6045 224.679 61.0736 222.926 58.7772C222.705 59.6401 222.229 60.4164 221.56 61.0047C220.718 61.6259 219.743 62.0426 218.712 62.2218C216.085 62.7966 213.35 62.6296 210.813 61.7396C208.126 60.9399 205.706 59.4283 203.808 57.3648C202.705 56.2581 201.967 54.8393 201.696 53.3002C201.589 52.6758 201.637 52.0347 201.838 51.4338C202.038 50.8329 202.384 50.2907 202.844 49.8555C204.227 48.7072 205.885 47.9395 207.655 47.6279C210.078 46.9442 212.615 46.7656 215.11 47.1034C217.605 47.4411 220.003 48.288 222.157 49.5914C224.791 51.1027 227.154 53.0431 229.15 55.3325C232.518 59.0527 233.957 62.0343 233.467 64.2771C232.977 66.52 230.918 68.0777 227.289 68.9504C225.467 69.4401 223.584 69.6644 221.698 69.6163C220.13 69.5442 218.582 69.2385 217.105 68.7092C215.548 68.1375 214.07 67.3697 212.707 66.4243ZM218.196 53.7939C217.259 52.7502 216.074 51.9602 214.751 51.4974C213.624 51.0499 212.389 50.946 211.203 51.1989C210.215 51.44 209.653 51.9223 209.504 52.6571C209.354 53.392 209.814 54.3335 210.847 55.4818C211.78 56.5536 212.963 57.378 214.292 57.8815C215.364 58.3098 216.539 58.4097 217.667 58.1686C218.724 57.916 219.332 57.3993 219.493 56.6415C219.654 55.8836 219.195 54.9421 218.196 53.8398V53.7939Z" fill="#263238"/>
<path d="M172.025 37.7303L171.715 36.5821C173.501 36.3438 175.214 35.7221 176.737 34.7597C178.26 33.7973 179.557 32.5168 180.538 31.0063C181.52 29.4957 182.163 27.7907 182.424 26.0081C182.685 24.2256 182.557 22.4078 182.049 20.6793C180.994 16.9457 178.633 13.7153 175.396 11.5763C172.159 9.43724 168.261 8.53181 164.413 9.02485C162.628 9.26497 160.916 9.88781 159.394 10.8507C157.872 11.8137 156.576 13.094 155.595 14.604C154.614 16.1141 153.97 17.8183 153.709 19.6001C153.447 21.3819 153.573 23.1992 154.079 24.9277L152.931 25.1114C152.382 23.2366 152.246 21.2654 152.531 19.333C152.816 17.4006 153.517 15.5528 154.583 13.9166C155.65 12.2803 157.059 10.8943 158.712 9.85368C160.365 8.81308 162.223 8.14254 164.16 7.88811C168.328 7.35837 172.547 8.34181 176.052 10.6596C179.556 12.9774 182.112 16.4757 183.255 20.5185C183.804 22.3926 183.94 24.3632 183.654 26.2949C183.369 28.2267 182.669 30.0737 181.602 31.7091C180.535 33.3445 179.126 34.7295 177.473 35.7689C175.82 36.8083 173.962 37.4774 172.025 37.7303Z" fill="#263238"/>
<path d="M195.151 34.2282L194.852 33.08C196.637 32.8398 198.349 32.217 199.871 31.2541C201.392 30.2912 202.688 29.0109 203.67 27.5008C204.651 25.9907 205.294 24.2865 205.556 22.5047C205.818 20.7229 205.692 18.9056 205.186 17.1771C204.127 13.4557 201.772 10.2361 198.545 8.10055C195.319 5.96505 191.435 5.05471 187.595 5.5342C185.81 5.7725 184.097 6.39418 182.574 7.35661C181.051 8.31905 179.754 9.59946 178.773 11.11C177.791 12.6206 177.148 14.3256 176.887 16.1082C176.626 17.8907 176.754 19.7085 177.261 21.437L176.113 21.6093C175.563 19.7336 175.425 17.7609 175.71 15.8271C175.995 13.8932 176.696 12.0442 177.765 10.4072C178.833 8.77024 180.244 7.3843 181.899 6.34484C183.555 5.30537 185.416 4.63707 187.354 4.38598C191.522 3.84942 195.743 4.83027 199.247 7.14931C202.751 9.46834 205.303 12.9707 206.438 17.0164C206.984 18.8946 207.117 20.869 206.828 22.8036C206.538 24.7383 205.833 26.5871 204.76 28.2229C203.687 29.8587 202.273 31.2426 200.614 32.2793C198.955 33.316 197.091 33.9809 195.151 34.2282Z" fill="#263238"/>
<path d="M218.287 30.7146L217.989 29.5664C219.774 29.3281 221.487 28.7064 223.01 27.7439C224.533 26.7815 225.83 25.5011 226.812 23.9905C227.793 22.4799 228.436 20.7749 228.697 18.9924C228.958 17.2099 228.83 15.392 228.323 13.6635C227.267 9.92861 224.903 6.69776 221.664 4.5604C218.424 2.42303 214.524 1.52161 210.675 2.02059C208.89 2.26071 207.178 2.88355 205.656 3.84647C204.134 4.8094 202.838 6.08969 201.857 7.59977C200.876 9.10985 200.232 10.8141 199.971 12.5959C199.709 14.3776 199.835 16.1949 200.341 17.9234L199.192 18.0956C198.642 16.2209 198.504 14.249 198.789 12.3159C199.073 10.3828 199.773 8.53422 200.84 6.89745C201.907 5.26067 203.316 3.87454 204.971 2.83444C206.625 1.79433 208.484 1.12496 210.422 0.872367C214.591 0.337757 218.812 1.31921 222.318 3.63775C225.823 5.95629 228.378 9.45745 229.517 13.5028C230.065 15.3768 230.202 17.3475 229.916 19.2792C229.631 21.2109 228.931 23.058 227.864 24.6934C226.797 26.3288 225.388 27.7138 223.735 28.7532C222.082 29.7925 220.224 30.4617 218.287 30.7146Z" fill="#263238"/>
</svg>
