<svg width="150" height="174" viewBox="0 0 150 174" fill="none" xmlns="http://www.w3.org/2000/svg">
<g clip-path="url(#clip0_237_2468)">
<path d="M144.358 64.1318H4.69382C3.44938 64.1303 2.25632 63.6354 1.37637 62.7554C0.496422 61.8755 0.00143693 60.6824 0 59.438V4.69382C0.00143693 3.44938 0.496422 2.25632 1.37637 1.37637C2.25632 0.496422 3.44938 0.00143693 4.69382 0H144.358C145.602 0.00143693 146.795 0.496422 147.675 1.37637C148.555 2.25632 149.05 3.44938 149.051 4.69382V59.438C149.05 60.6824 148.555 61.8755 147.675 62.7554C146.795 63.6353 145.602 64.1303 144.358 64.1318Z" fill="#F2F2F2"/>
<path d="M111.785 61.1382H26.8631C20.5348 61.131 14.4678 58.614 9.99307 54.1392C5.51832 49.6645 3.00128 43.5975 2.99414 37.2692V26.8652C3.00127 20.5369 5.51831 14.4699 9.99305 9.99513C14.4678 5.52035 20.5348 3.00327 26.8631 2.99609H122.189C128.517 3.00327 134.584 5.52035 139.059 9.99513C143.533 14.4699 146.051 20.5369 146.058 26.8652C146.047 35.9518 142.433 44.6633 136.008 51.0885C129.583 57.5137 120.871 61.1279 111.785 61.1382Z" fill="white"/>
<path d="M89.8784 18.6672H33.7442C33.4232 18.6672 33.1153 18.5396 32.8882 18.3126C32.6612 18.0856 32.5337 17.7777 32.5337 17.4566C32.5337 17.1356 32.6612 16.8277 32.8882 16.6007C33.1153 16.3736 33.4232 16.2461 33.7442 16.2461H89.8784C90.1995 16.2461 90.5074 16.3736 90.7344 16.6007C90.9615 16.8277 91.089 17.1356 91.089 17.4566C91.089 17.7777 90.9615 18.0856 90.7344 18.3126C90.5074 18.5396 90.1995 18.6672 89.8784 18.6672Z" fill="#E6E6E6"/>
<path d="M118.295 31.5832H33.7442C33.4232 31.5832 33.1153 31.4556 32.8882 31.2286C32.6612 31.0016 32.5337 30.6937 32.5337 30.3726C32.5337 30.0516 32.6612 29.7437 32.8882 29.5167C33.1153 29.2896 33.4232 29.1621 33.7442 29.1621H118.295C118.616 29.1621 118.924 29.2896 119.151 29.5167C119.378 29.7437 119.505 30.0516 119.505 30.3726C119.505 30.6937 119.378 31.0016 119.151 31.2286C118.924 31.4556 118.616 31.5832 118.295 31.5832Z" fill="#E6E6E6"/>
<path d="M118.295 44.4992H33.7442C33.4232 44.4992 33.1153 44.3717 32.8882 44.1446C32.6612 43.9176 32.5337 43.6097 32.5337 43.2887C32.5337 42.9676 32.6612 42.6597 32.8882 42.4327C33.1153 42.2057 33.4232 42.0781 33.7442 42.0781H118.295C118.616 42.0781 118.924 42.2057 119.151 42.4327C119.378 42.6597 119.505 42.9676 119.505 43.2887C119.505 43.6097 119.378 43.9176 119.151 44.1446C118.924 44.3717 118.616 44.4992 118.295 44.4992Z" fill="#E6E6E6"/>
<path d="M118.295 44.4992H33.7442C33.4232 44.4992 33.1153 44.3717 32.8882 44.1446C32.6612 43.9176 32.5337 43.6097 32.5337 43.2887C32.5337 42.9676 32.6612 42.6597 32.8882 42.4327C33.1153 42.2057 33.4232 42.0781 33.7442 42.0781H118.295C118.616 42.0781 118.924 42.2057 119.151 42.4327C119.378 42.6597 119.505 42.9676 119.505 43.2887C119.505 43.6097 119.378 43.9176 119.151 44.1446C118.924 44.3717 118.616 44.4992 118.295 44.4992Z" fill="#E6E6E6"/>
<path d="M83.955 33.0654C83.9684 33.4301 84.0617 33.7873 84.2281 34.112C84.3946 34.4367 84.6302 34.721 84.9184 34.9448C85.2066 35.1686 85.5404 35.3264 85.8962 35.4073C86.252 35.4881 86.6212 35.49 86.9778 35.4127L91.5943 42.9861L93.5591 38.8168L88.874 32.2641C88.7045 31.6736 88.3242 31.1659 87.8053 30.8371C87.2864 30.5082 86.6649 30.3811 86.0586 30.4799C85.4522 30.5787 84.9032 30.8965 84.5155 31.373C84.1278 31.8495 83.9283 32.4517 83.955 33.0654Z" fill="#FFB6B6"/>
<path d="M118.599 54.7707L102.689 46.1411L97.6713 41.433C97.6713 41.433 95.4897 40.8489 96.2927 40.1396C97.0956 39.4303 94.8075 38.7462 94.8075 38.7462L92.1136 36.2188L88.2856 38.9273L89.3935 40.6446C89.3935 40.6446 89.3172 43.4875 90.8746 42.9406C92.4321 42.3936 92.0429 44.7514 92.0429 44.7514L101.339 59.1612L118.599 54.7707Z" fill="#3F3D56"/>
<path d="M71.6364 46.6399C80.2187 46.6399 87.1761 39.6826 87.1761 31.1002C87.1761 22.5179 80.2187 15.5605 71.6364 15.5605C63.054 15.5605 56.0967 22.5179 56.0967 31.1002C56.0967 39.6826 63.054 46.6399 71.6364 46.6399Z" fill="#0F969C"/>
<path d="M118.648 167.958H115.417L113.879 155.495H118.648V167.958Z" fill="#FFB6B6"/>
<path d="M120.354 173.557H118.037L117.623 171.369L116.564 173.557H110.418C110.124 173.557 109.837 173.463 109.599 173.288C109.362 173.114 109.187 172.868 109.099 172.587C109.012 172.305 109.016 172.003 109.112 171.725C109.208 171.446 109.391 171.206 109.633 171.039L114.541 167.649V165.438L119.703 165.746L120.354 173.557Z" fill="#2F2E41"/>
<path d="M92.8059 167.958H89.5747L88.0371 155.495H92.8059V167.958Z" fill="#FFB6B6"/>
<path d="M94.5111 173.557H92.1939L91.7804 171.369L90.721 173.557H84.5754C84.2808 173.557 83.9939 173.463 83.7567 173.288C83.5194 173.114 83.3441 172.868 83.2564 172.587C83.1688 172.305 83.1733 172.003 83.2694 171.725C83.3654 171.446 83.548 171.206 83.7904 171.039L88.6982 167.649V165.438L93.8602 165.746L94.5111 173.557Z" fill="#2F2E41"/>
<path d="M115.22 73.7031H98.9116V92.2695H115.22V73.7031Z" fill="#FFB6B6"/>
<path d="M99.2879 82.8604L96.528 86.122L91.761 96.1579L79.7493 124.738L77.209 130.782L79.2605 141.466C79.2605 141.466 79.5925 148.994 79.5925 150.226C79.5925 152.735 81.691 154.125 81.691 154.125L83.2305 162.144L98.1589 161.517C98.1589 161.517 97.638 152.678 94.5113 150.449C91.3847 148.219 89.9474 136.6 89.9474 136.6L88.2484 131.444L104.808 111.815L104.915 118.677L104.966 121.998C104.966 121.998 102.541 143.598 105.368 147.79C108.195 151.982 105.426 151.489 105.426 151.489L105.56 160.137L123.249 160.262L119.346 135.366C119.346 135.366 117.365 133.802 118.425 132.229C119.485 130.656 117.397 128.73 117.397 128.73L118.334 109.295C118.334 109.295 117.297 105.937 118.517 105.501C119.736 105.065 118.677 102.178 118.677 102.178L118.858 98.416L115.22 86.7493L99.2879 82.8604Z" fill="#2F2E41"/>
<path d="M115.47 73.7029L117.227 68.4341L118.481 66.6778L118.983 61.6599C118.983 48.1114 115.961 50.3675 115.961 50.3675L114.216 45.6025L106.187 45.3516L101.044 50.2441L96.7786 51.7494L95.1084 60.428L98.1586 69.6886L98.9113 74.7065C97.4754 77.3572 97.5969 76.1034 98.7858 78.0936L112.961 81.9825C117.979 83.7388 117.979 79.2227 116.973 78.0936C115.967 76.9646 115.47 73.7029 115.47 73.7029Z" fill="#3F3D56"/>
<path d="M109.165 43.667C113.275 43.667 116.607 40.3347 116.607 36.2241C116.607 32.1135 113.275 28.7812 109.165 28.7812C105.054 28.7812 101.722 32.1135 101.722 36.2241C101.722 40.3347 105.054 43.667 109.165 43.667Z" fill="#FFB6B6"/>
<path d="M119.101 46.1594C119.171 46.2777 119.214 46.4103 119.225 46.5473C119.237 46.6844 119.218 46.8223 119.169 46.9508C119.12 47.0794 119.043 47.1952 118.943 47.2897C118.843 47.3842 118.723 47.4549 118.592 47.4966C117.593 47.8278 116.978 48.7938 116.261 49.5666C115.546 50.3368 114.394 50.9766 113.481 50.4522C112.57 49.9304 112.507 48.5981 111.745 47.8755C111.002 47.173 109.768 47.2583 108.894 47.7927L108.868 47.8088C108.718 47.907 108.541 47.959 108.362 47.9581C108.182 47.9573 108.006 47.9038 107.856 47.8042C107.706 47.7045 107.589 47.5632 107.519 47.3976C107.448 47.232 107.428 47.0494 107.46 46.8724C107.766 45.2454 108.072 43.6186 108.378 41.992C107.575 43.9265 106.409 45.6894 104.943 47.1855C104.539 47.6515 104.027 48.0115 103.453 48.2343C102.931 48.3999 102.424 47.8604 101.917 47.9583C103.177 46.8569 107.412 39.7966 106.654 35.0772C105.763 35.1776 104.873 35.278 103.982 35.3783C103.886 34.9568 103.68 34.5682 103.385 34.2518C103.421 34.662 103.369 35.0752 103.232 35.4636C102.86 35.5063 102.487 35.5464 102.115 35.5891C101.598 35.6468 101.036 35.6969 100.592 35.426C99.8522 34.9744 99.8296 33.9056 100.04 33.0625C100.658 30.6113 102.529 28.5614 104.82 27.4876C107.111 26.4163 107.788 28.8023 110.202 28.0396C114.969 26.5342 118.622 29.1084 119.909 33.8855C120.99 37.8923 120.205 42.145 119.101 46.1594Z" fill="#2F2E41"/>
<path d="M139.706 173.718H130.593L130.554 173.647C130.437 173.436 130.325 173.212 130.219 172.982C129.281 170.972 128.884 168.674 128.534 166.646L128.27 165.117C128.238 164.932 128.262 164.741 128.339 164.57C128.416 164.399 128.542 164.254 128.702 164.155C128.862 164.056 129.047 164.006 129.235 164.013C129.423 164.02 129.604 164.083 129.756 164.194C131.141 165.201 132.526 166.208 133.913 167.214C134.437 167.596 135.037 168.038 135.611 168.516C135.666 168.247 135.724 167.977 135.782 167.711C135.822 167.527 135.916 167.36 136.052 167.229C136.187 167.099 136.359 167.013 136.544 166.981C136.729 166.949 136.92 166.973 137.091 167.05C137.263 167.127 137.408 167.253 137.507 167.413L138.573 169.126C139.351 170.377 140.037 171.61 139.897 172.939C139.898 172.956 139.897 172.972 139.894 172.988C139.866 173.206 139.814 173.421 139.739 173.628L139.706 173.718Z" fill="#F0F0F0"/>
<path d="M148.854 173.916L62.2501 174C62.1637 174 62.081 173.965 62.02 173.904C61.959 173.842 61.9248 173.76 61.9248 173.673C61.9248 173.587 61.959 173.504 62.02 173.442C62.081 173.381 62.1637 173.347 62.2501 173.346L148.854 173.262C148.94 173.262 149.023 173.297 149.084 173.358C149.145 173.419 149.179 173.502 149.179 173.589C149.179 173.675 149.145 173.758 149.084 173.819C149.023 173.881 148.94 173.915 148.854 173.916Z" fill="#CACACA"/>
<path d="M70.2236 52.016L60.6976 43.9713C60.372 43.6957 60.169 43.3022 60.1331 42.8772C60.0973 42.4521 60.2315 42.0301 60.5064 41.7039L62.2597 39.6278C62.5353 39.3022 62.9288 39.0992 63.3539 39.0633C63.779 39.0275 64.2009 39.1617 64.5271 39.4366L74.0532 47.4813C74.3788 47.7569 74.5818 48.1504 74.6176 48.5755C74.6535 49.0005 74.5192 49.4225 74.2443 49.7487L72.491 51.8249C72.2154 52.1505 71.8219 52.3535 71.3969 52.3893C70.9718 52.4251 70.5498 52.2909 70.2236 52.016Z" fill="#3F3D56"/>
<path d="M61.1974 41.8707C61.0493 42.0465 60.9769 42.2738 60.9962 42.5029C61.0155 42.732 61.1249 42.944 61.3004 43.0925L70.8264 51.1372C71.0022 51.2853 71.2296 51.3577 71.4587 51.3384C71.6877 51.3191 71.8998 51.2097 72.0483 51.0342L73.8016 48.9581C73.9497 48.7823 74.022 48.5549 74.0027 48.3258C73.9834 48.0968 73.874 47.8847 73.6986 47.7362L64.1725 39.6915C63.9967 39.5434 63.7694 39.4711 63.5403 39.4904C63.3112 39.5097 63.0992 39.6191 62.9507 39.7945L61.1974 41.8707Z" fill="white"/>
<path d="M66.7899 44.9986C66.7568 45.0449 66.7134 45.0828 66.6632 45.1094C66.6129 45.136 66.5572 45.1505 66.5003 45.1518L65.0036 45.1861C64.9555 45.1872 64.9077 45.1789 64.8628 45.1615C64.818 45.1441 64.777 45.118 64.7422 45.0848C64.7074 45.0516 64.6795 45.0119 64.6601 44.9679C64.6407 44.9239 64.6301 44.8765 64.629 44.8284C64.6279 44.7803 64.6363 44.7325 64.6537 44.6876C64.671 44.6428 64.6971 44.6018 64.7303 44.567C64.7635 44.5322 64.8033 44.5043 64.8473 44.4849C64.8913 44.4655 64.9387 44.4549 64.9868 44.4538L65.9659 44.4313L65.0016 41.8868C64.9675 41.7961 64.9707 41.6954 65.0107 41.6071C65.0506 41.5187 65.1239 41.4497 65.2146 41.4154C65.3053 41.381 65.406 41.384 65.4944 41.4237C65.5829 41.4634 65.652 41.5366 65.6866 41.6272L66.8344 44.6558C66.8552 44.7106 66.8625 44.7696 66.8558 44.8277C66.849 44.8859 66.8284 44.9417 66.7957 44.9903L66.7899 44.9986Z" fill="#0F969C"/>
<path d="M66.9819 45.6374C67.343 45.6905 67.688 45.822 67.9926 46.0228C68.2973 46.2236 68.5543 46.4887 68.7454 46.7995C68.9365 47.1103 69.0571 47.4593 69.0988 47.8218C69.1405 48.1843 69.1022 48.5515 68.9866 48.8976L76.0131 54.3102L71.6549 55.81L65.6505 50.4402C65.082 50.2074 64.6186 49.7742 64.3481 49.2226C64.0776 48.6711 64.0189 48.0394 64.183 47.4474C64.3471 46.8554 64.7227 46.3442 65.2386 46.0106C65.7544 45.677 66.3747 45.5442 66.9819 45.6374Z" fill="#FFB6B6"/>
<path d="M103.564 48.3145L85.5733 59.3756C85.5733 59.3756 78.3199 56.6918 79.7375 55.4494C81.155 54.2069 76.6423 53.367 76.6423 53.367L71.657 50.0131L68.7642 53.3751C68.7642 53.3751 69.2913 58.8359 70.1881 57.8904C71.085 56.9448 72.4256 59.5279 72.4256 59.5279C72.4256 59.5279 72.8217 62.412 75.3748 61.6862C77.9278 60.9604 84.7784 68.5684 84.7784 68.5684L106.919 60.3108L103.564 48.3145Z" fill="#3F3D56"/>
<path d="M71.0898 37.3343C70.8813 37.3343 70.6756 37.2857 70.4891 37.1924C70.3025 37.0991 70.1403 36.9637 70.0152 36.7968L66.7203 32.4036C66.6145 32.2624 66.5375 32.1018 66.4937 31.9309C66.4499 31.76 66.4402 31.5822 66.4652 31.4075C66.4901 31.2329 66.5492 31.0649 66.6391 30.9131C66.729 30.7612 66.8479 30.6286 66.989 30.5228C67.2741 30.309 67.6324 30.2172 67.9851 30.2676C68.1597 30.2926 68.3277 30.3517 68.4796 30.4416C68.6314 30.5315 68.764 30.6504 68.8698 30.7915L71.0254 33.6655L76.5619 25.3609C76.7595 25.0645 77.0668 24.8587 77.4162 24.7888C77.7656 24.7189 78.1284 24.7907 78.4249 24.9883C78.7214 25.186 78.9272 25.4933 78.9971 25.8427C79.0669 26.1921 78.9952 26.5549 78.7975 26.8514L72.2078 36.736C72.0886 36.9148 71.9282 37.0624 71.7402 37.1664C71.5522 37.2704 71.342 37.3278 71.1272 37.3339C71.1148 37.3341 71.1023 37.3343 71.0898 37.3343Z" fill="white"/>
</g>
<defs>
<clipPath id="clip0_237_2468">
<rect width="149.179" height="174" fill="white"/>
</clipPath>
</defs>
</svg>
