<svg width="20" height="20" viewBox="0 0 20 20" fill="none" xmlns="http://www.w3.org/2000/svg">
<path fill-rule="evenodd" clip-rule="evenodd" d="M9.99849 2.04023C6.21948 2.04023 3.58553 5.04667 3.58553 7.74455C3.58553 10.0274 2.96164 11.0826 2.4102 12.0137C1.96796 12.7615 1.61871 13.3522 1.61871 14.6358C1.79928 16.7067 3.14545 17.7949 9.99849 17.7949C16.8137 17.7949 18.202 16.6584 18.3815 14.5645C18.3783 13.3522 18.029 12.7615 17.5868 12.0137C17.0353 11.0826 16.4114 10.0274 16.4114 7.74455C16.4114 5.04667 13.7775 2.04023 9.99849 2.04023ZM9.99844 19.4414C4.94246 19.4414 0.37305 19.079 1.44399e-05 14.7055C-0.00322934 12.896 0.540645 11.9758 1.02073 11.1654C1.50621 10.3441 1.96359 9.56999 1.96359 7.74395C1.96359 4.19399 5.19223 0.392578 9.99844 0.392578C14.8046 0.392578 18.0333 4.19399 18.0333 7.74395C18.0333 9.56999 18.4907 10.3441 18.9762 11.1654C19.4562 11.9758 20.0001 12.896 20.0001 14.6352C19.6227 19.079 15.0544 19.4414 9.99844 19.4414Z" fill="#0F969C"/>
</svg>
