<svg width="19" height="23" viewBox="0 0 19 23" fill="none" xmlns="http://www.w3.org/2000/svg">
<path d="M7.38889 20.4048H11.6111C11.6111 21.5571 10.6611 22.5 9.5 22.5C8.33889 22.5 7.38889 21.5571 7.38889 20.4048ZM19 18.3095V19.3571H0V18.3095L2.11111 16.2143V9.92857C2.11111 6.68095 4.22222 3.85238 7.38889 2.90952V2.59524C7.38889 1.44286 8.33889 0.5 9.5 0.5C10.6611 0.5 11.6111 1.44286 11.6111 2.59524V2.90952C14.7778 3.85238 16.8889 6.68095 16.8889 9.92857V16.2143L19 18.3095ZM14.7778 9.92857C14.7778 6.99524 12.4556 4.69048 9.5 4.69048C6.54444 4.69048 4.22222 6.99524 4.22222 9.92857V17.2619H14.7778V9.92857Z" fill="#3A3A3A"/>
</svg>
