<svg width="82" height="76" viewBox="0 0 82 76" fill="none" xmlns="http://www.w3.org/2000/svg">
<rect x="15.1821" y="2.48926" width="51.6361" height="51.6361" rx="25.8181" fill="#0F969C" fill-opacity="0.03"/>
<rect x="15.1821" y="2.48926" width="51.6361" height="51.6361" rx="25.8181" stroke="#0F969C" stroke-width="3"/>
<path fill-rule="evenodd" clip-rule="evenodd" d="M45.4109 19.0762L45.4119 19.8259C48.1665 20.0418 49.9862 21.9188 49.9891 24.7974L50 33.2231C50.0039 36.3616 48.0322 38.2926 44.8718 38.2976L37.1519 38.3076C34.0112 38.3116 32.0148 36.3346 32.0109 33.1872L32 24.8603C31.9961 21.9628 33.7515 20.0907 36.5062 19.8379L36.5052 19.0882C36.5042 18.6484 36.83 18.3176 37.2644 18.3176C37.6989 18.3166 38.0247 18.6464 38.0257 19.0862L38.0267 19.7859L43.8914 19.7779L43.8904 19.0782C43.8894 18.6385 44.2152 18.3086 44.6497 18.3076C45.0742 18.3066 45.4099 18.6365 45.4109 19.0762ZM33.5215 25.1692L48.4696 25.1492V24.7994C48.4272 22.6504 47.349 21.523 45.4138 21.3551L45.4148 22.1247C45.4148 22.5545 45.0801 22.8953 44.6556 22.8953C44.2212 22.8963 43.8943 22.5565 43.8943 22.1267L43.8934 21.3171L38.0286 21.3251L38.0296 22.1337C38.0296 22.5645 37.7048 22.9043 37.2704 22.9043C36.8359 22.9053 36.5091 22.5665 36.5091 22.1357L36.5081 21.3661C34.5829 21.559 33.5175 22.6904 33.5205 24.8583L33.5215 25.1692ZM44.2399 29.7119V29.7229C44.2498 30.1827 44.625 30.5315 45.0801 30.5215C45.5244 30.5105 45.8789 30.1297 45.869 29.6699C45.8483 29.2302 45.4918 28.8713 45.0485 28.8723C44.5944 28.8823 44.2389 29.2521 44.2399 29.7119ZM45.0554 34.1997C44.6013 34.1897 44.235 33.8109 44.234 33.3511C44.2241 32.8913 44.5884 32.5105 45.0426 32.4995H45.0525C45.5165 32.4995 45.8927 32.8783 45.8927 33.3481C45.8937 33.8179 45.5185 34.1987 45.0554 34.1997ZM40.1721 29.7279C40.1919 30.1877 40.568 30.5465 41.0222 30.5265C41.4665 30.5055 41.821 30.1257 41.8012 29.6659C41.7903 29.2162 41.425 28.8663 40.9807 28.8673C40.5266 28.8873 40.1711 29.2681 40.1721 29.7279ZM41.0262 34.1547C40.572 34.1747 40.1968 33.8159 40.1761 33.3561C40.1761 32.8963 40.5305 32.5165 40.9847 32.4955C41.429 32.4945 41.7953 32.8443 41.8052 33.2931C41.8259 33.7539 41.4705 34.1337 41.0262 34.1547ZM36.1043 29.7629C36.1241 30.2227 36.5002 30.5825 36.9544 30.5615C37.3987 30.5415 37.7532 30.1607 37.7324 29.7009C37.7226 29.2511 37.3572 28.9013 36.912 28.9023C36.4578 28.9223 36.1033 29.3031 36.1043 29.7629ZM36.9584 34.1597C36.5042 34.1807 36.129 33.8209 36.1083 33.3611C36.1073 32.9013 36.4627 32.5205 36.9169 32.5005C37.3612 32.4995 37.7275 32.8493 37.7374 33.2991C37.7581 33.7589 37.4037 34.1397 36.9584 34.1597Z" fill="#0F969C"/>
</svg>
