<svg width="22" height="22" viewBox="0 0 22 22" fill="none" xmlns="http://www.w3.org/2000/svg">
<path d="M16.5 1.83398V3.66732M5.5 1.83398V3.66732" stroke="#1E1E1E" stroke-width="1.65" stroke-linecap="round" stroke-linejoin="round"/>
<path d="M10.9955 11.916H11.0038M10.9955 15.5827H11.0038M14.6581 11.916H14.6663M7.33301 11.916H7.34123M7.33301 15.5827H7.34123" stroke="#1E1E1E" stroke-width="2.2" stroke-linecap="round" stroke-linejoin="round"/>
<path d="M3.20801 7.33398H18.7913" stroke="#1E1E1E" stroke-width="1.65" stroke-linecap="round" stroke-linejoin="round"/>
<path d="M2.29199 11.2229C2.29199 7.22878 2.29199 5.23167 3.43977 3.99084C4.58755 2.75 6.43486 2.75 10.1295 2.75H11.8712C15.5658 2.75 17.4131 2.75 18.5609 3.99084C19.7087 5.23167 19.7087 7.22878 19.7087 11.2229V11.6937C19.7087 15.6879 19.7087 17.685 18.5609 18.9259C17.4131 20.1667 15.5658 20.1667 11.8712 20.1667H10.1295C6.43486 20.1667 4.58755 20.1667 3.43977 18.9259C2.29199 17.685 2.29199 15.6879 2.29199 11.6937V11.2229Z" stroke="#1E1E1E" stroke-width="1.65" stroke-linecap="round" stroke-linejoin="round"/>
<path d="M2.75 7.33398H19.25" stroke="#1E1E1E" stroke-width="1.65" stroke-linecap="round" stroke-linejoin="round"/>
</svg>
