<svg width="24" height="25" viewBox="0 0 24 25" fill="none" xmlns="http://www.w3.org/2000/svg">
<path fill-rule="evenodd" clip-rule="evenodd" d="M16.4109 3.07623L16.4119 3.82586C19.1665 4.04175 20.9862 5.91881 20.9891 8.79737L21 17.2231C21.0039 20.3616 19.0322 22.2926 15.8718 22.2976L8.15188 22.3076C5.01119 22.3116 3.01482 20.3346 3.01087 17.1872L3.00001 8.86034C2.99606 5.96279 4.75153 4.09073 7.50617 3.83785L7.50518 3.08823C7.5042 2.64845 7.83001 2.31761 8.26444 2.31761C8.69886 2.31661 9.02468 2.64645 9.02567 3.08623L9.02666 3.78588L14.8914 3.77788L14.8904 3.07823C14.8894 2.63845 15.2152 2.30862 15.6497 2.30762C16.0742 2.30662 16.4099 2.63645 16.4109 3.07623ZM4.52148 9.16918L19.4696 9.14919V8.79937C19.4272 6.65044 18.349 5.52301 16.4138 5.35509L16.4148 6.12471C16.4148 6.55449 16.0801 6.89532 15.6556 6.89532C15.2212 6.89632 14.8943 6.55649 14.8943 6.12671L14.8934 5.31711L9.02863 5.32511L9.02962 6.1337C9.02962 6.56449 8.70479 6.90432 8.27036 6.90432C7.83594 6.90532 7.50913 6.56649 7.50913 6.1357L7.50815 5.36609C5.58286 5.55899 4.51753 6.69042 4.52049 8.85834L4.52148 9.16918ZM15.2399 13.7119V13.7229C15.2498 14.1827 15.625 14.5315 16.0801 14.5215C16.5244 14.5105 16.8789 14.1297 16.869 13.6699C16.8483 13.2302 16.4918 12.8713 16.0485 12.8723C15.5944 12.8823 15.2389 13.2521 15.2399 13.7119ZM16.0554 18.1997C15.6013 18.1897 15.235 17.8109 15.234 17.3511C15.2241 16.8913 15.5884 16.5105 16.0426 16.4995H16.0525C16.5165 16.4995 16.8927 16.8783 16.8927 17.3481C16.8937 17.8179 16.5185 18.1987 16.0554 18.1997ZM11.1721 13.7279C11.1919 14.1877 11.568 14.5465 12.0222 14.5265C12.4665 14.5055 12.821 14.1257 12.8012 13.6659C12.7903 13.2162 12.425 12.8663 11.9807 12.8673C11.5266 12.8873 11.1711 13.2681 11.1721 13.7279ZM12.0262 18.1547C11.572 18.1747 11.1968 17.8159 11.1761 17.3561C11.1761 16.8963 11.5305 16.5165 11.9847 16.4955C12.429 16.4945 12.7953 16.8443 12.8052 17.2931C12.8259 17.7539 12.4705 18.1337 12.0262 18.1547ZM7.10433 13.7629C7.12408 14.2227 7.50025 14.5825 7.95442 14.5615C8.39872 14.5415 8.75317 14.1607 8.73243 13.7009C8.72256 13.2511 8.35725 12.9013 7.91196 12.9023C7.45779 12.9223 7.10334 13.3031 7.10433 13.7629ZM7.95837 18.1597C7.5042 18.1807 7.12901 17.8209 7.10828 17.3611C7.10729 16.9013 7.46273 16.5205 7.9169 16.5005C8.3612 16.4995 8.7275 16.8493 8.73737 17.2991C8.7581 17.7589 8.40365 18.1397 7.95837 18.1597Z" fill="#0F969C"/>
</svg>
