<svg width="19" height="21" viewBox="0 0 19 21" fill="currentColor" xmlns="http://www.w3.org/2000/svg">
<path d="M6.63868 19.5282V16.4705C6.63868 15.6899 7.27608 15.0572 8.06234 15.0572H10.9365C11.3141 15.0572 11.6762 15.2061 11.9432 15.4711C12.2102 15.7362 12.3602 16.0957 12.3602 16.4705V19.5282C12.3578 19.8527 12.486 20.1648 12.7163 20.3951C12.9466 20.6254 13.26 20.7549 13.5868 20.7549H15.5477C16.4635 20.7572 17.3427 20.3977 17.9911 19.7557C18.6395 19.1137 19.0039 18.2419 19.0039 17.3327V8.62174C19.0039 7.88734 18.676 7.19072 18.1085 6.71955L11.4379 1.43075C10.2776 0.503444 8.61502 0.533385 7.4893 1.50186L0.970918 6.71955C0.376647 7.17684 0.0214585 7.87552 0.00390625 8.62174V17.3238C0.00390625 19.2187 1.55129 20.7549 3.46008 20.7549H5.3762C6.05513 20.7549 6.6069 20.2111 6.61182 19.5371L6.63868 19.5282Z" fill="currentColor"/>
</svg>
