<svg width="17" height="18" viewBox="0 0 17 18" fill="none" xmlns="http://www.w3.org/2000/svg">
<path d="M8.4575 14.1C8.755 14.1 9.0066 13.9971 9.2123 13.7914C9.418 13.5857 9.52057 13.3344 9.52 13.0375C9.52 12.74 9.41743 12.4884 9.2123 12.2827C9.00717 12.077 8.75557 11.9744 8.4575 11.975C8.16 11.975 7.90868 12.0778 7.70355 12.2835C7.49842 12.4892 7.39557 12.7406 7.395 13.0375C7.395 13.335 7.49785 13.5866 7.70355 13.7923C7.90925 13.998 8.16057 14.1006 8.4575 14.1ZM7.6925 10.8275H9.265C9.265 10.36 9.31827 9.99167 9.4248 9.7225C9.53133 9.45333 9.83223 9.085 10.3275 8.6175C10.6958 8.24917 10.9862 7.8984 11.1987 7.5652C11.4112 7.232 11.5175 6.83193 11.5175 6.365C11.5175 5.57167 11.2271 4.9625 10.6462 4.5375C10.0654 4.1125 9.37833 3.9 8.585 3.9C7.7775 3.9 7.12215 4.1125 6.61895 4.5375C6.11575 4.9625 5.76527 5.4725 5.5675 6.0675L6.97 6.62C7.04083 6.365 7.20035 6.08875 7.44855 5.79125C7.69675 5.49375 8.07557 5.345 8.585 5.345C9.03833 5.345 9.37833 5.4691 9.605 5.7173C9.83167 5.9655 9.945 6.23807 9.945 6.535C9.945 6.81833 9.86 7.0841 9.69 7.3323C9.52 7.5805 9.3075 7.81057 9.0525 8.0225C8.42917 8.575 8.04667 8.99292 7.905 9.27625C7.76333 9.55958 7.6925 10.0767 7.6925 10.8275ZM8.5 17.5C7.32417 17.5 6.21917 17.2767 5.185 16.8302C4.15083 16.3837 3.25125 15.7782 2.48625 15.0137C1.72125 14.2487 1.11577 13.3492 0.6698 12.315C0.223833 11.2808 0.000566667 10.1758 0 9C0 7.82417 0.223267 6.71917 0.6698 5.685C1.11633 4.65083 1.72182 3.75125 2.48625 2.98625C3.25125 2.22125 4.15083 1.61577 5.185 1.1698C6.21917 0.723833 7.32417 0.500567 8.5 0.5C9.67583 0.5 10.7808 0.723267 11.815 1.1698C12.8492 1.61633 13.7487 2.22182 14.5137 2.98625C15.2787 3.75125 15.8845 4.65083 16.331 5.685C16.7776 6.71917 17.0006 7.82417 17 9C17 10.1758 16.7767 11.2808 16.3302 12.315C15.8837 13.3492 15.2782 14.2487 14.5137 15.0137C13.7487 15.7787 12.8492 16.3845 11.815 16.831C10.7808 17.2776 9.67583 17.5006 8.5 17.5Z" fill="#0F969C"/>
</svg>
