<svg width="24" height="24" viewBox="0 0 24 24" fill="none" xmlns="http://www.w3.org/2000/svg">
<path fill-rule="evenodd" clip-rule="evenodd" d="M16.923 10.1998C16.509 10.1998 16.173 9.86377 16.173 9.44977V7.30277C16.173 5.20677 14.468 3.50177 12.372 3.50177H12.356C11.343 3.50177 10.394 3.89177 9.677 4.60277C8.955 5.31677 8.556 6.26977 8.552 7.28577V9.44977C8.552 9.86377 8.216 10.1998 7.802 10.1998C7.388 10.1998 7.052 9.86377 7.052 9.44977V7.30277C7.058 5.86277 7.615 4.53377 8.62 3.53777C9.626 2.54077 10.954 1.96377 12.375 2.00177C15.295 2.00177 17.673 4.37977 17.673 7.30277V9.44977C17.673 9.86377 17.337 10.1998 16.923 10.1998Z" fill="#0F969C"/>
<path fill-rule="evenodd" clip-rule="evenodd" d="M8.542 10.1289C6.864 10.1289 5.5 11.4929 5.5 13.1709V17.4599C5.5 19.1379 6.864 20.5019 8.542 20.5019H16.183C17.86 20.5019 19.225 19.1379 19.225 17.4599V13.1709C19.225 11.4929 17.86 10.1289 16.183 10.1289H8.542ZM16.183 22.0019H8.542C6.037 22.0019 4 19.9649 4 17.4599V13.1709C4 10.6659 6.037 8.62891 8.542 8.62891H16.183C18.688 8.62891 20.725 10.6659 20.725 13.1709V17.4599C20.725 19.9649 18.688 22.0019 16.183 22.0019Z" fill="#0F969C"/>
<path fill-rule="evenodd" clip-rule="evenodd" d="M12.3623 17.1761C11.9483 17.1761 11.6123 16.8401 11.6123 16.4261V14.2051C11.6123 13.7911 11.9483 13.4551 12.3623 13.4551C12.7763 13.4551 13.1123 13.7911 13.1123 14.2051V16.4261C13.1123 16.8401 12.7763 17.1761 12.3623 17.1761Z" fill="#0F969C"/>
</svg>
