<svg width="208" height="41" viewBox="0 0 208 41" fill="none" xmlns="http://www.w3.org/2000/svg">
<g clip-path="url(#clip0_13_17287)">
<path d="M85.1863 2.69287V6.30955H77.0527V16.4528H73.0153V6.30955H64.8805V2.69287H85.1863Z" fill="#0F969C"/>
<path d="M106.907 2.69287V6.30955H98.7757V16.4528H94.7347V6.30955H86.5999V2.69287H106.907Z" fill="#0F969C"/>
<path d="M119.02 8.81563L125.385 2.69287H130.695L121.029 11.8385V16.4528H117.012V11.8385L107.346 2.69287H112.634L119.02 8.81563Z" fill="#0F969C"/>
<path d="M144.598 10.3277L153.368 2.69287H157.048V16.4552H153.051V7.76151L145.393 14.4636H143.783L136.125 7.76151V16.4528H132.127V2.69287H135.827L144.598 10.3277Z" fill="#0F969C"/>
<path d="M85.1863 31.0133C84.4315 30.172 83.3172 30.0181 81.6465 30.0181H72.8951C70.3097 30.0181 68.8974 31.172 68.8974 33.4389V33.4629C68.8974 35.6901 70.2905 36.8632 72.8554 36.8632H81.1069C82.7175 36.8632 83.8521 36.7046 84.488 35.9293V35.6889H78.9818V32.6636H87.9111V40.3213H85.6274L85.369 38.8296C84.4351 40.0027 83.1021 40.3801 81.0335 40.3801H72.7761C67.8842 40.3801 65.0199 37.856 65.0199 33.4593V33.4389C65.0199 29.0241 67.9046 26.4988 72.8951 26.4988H81.6465C84.4711 26.4988 86.1418 26.8966 87.5529 28.2488L85.1863 31.0133Z" fill="#0F969C"/>
<path d="M94.7947 26.5577V36.6216H109.492V40.3213H90.7573V26.5577H94.7947Z" fill="#0F969C"/>
<path d="M128.07 26.4988C133.022 26.4988 135.905 29.0229 135.905 33.4389V33.4629C135.905 37.8585 133.02 40.3838 128.07 40.3838H118.935C114.007 40.3838 111.122 37.8597 111.122 33.4629V33.4425C111.122 29.0277 114.007 26.5024 118.935 26.5024L128.07 26.4988ZM128.07 36.8596C130.794 36.8596 132.028 35.6072 132.028 33.4593V33.4389C132.028 31.2753 130.794 30.0181 128.07 30.0181H118.935C116.21 30.0181 114.997 31.2717 114.997 33.4389V33.4629C114.997 35.6108 116.21 36.8632 118.935 36.8632L128.07 36.8596Z" fill="#0F969C"/>
<path d="M160.49 36.5219C160.49 39.1277 158.382 40.3213 155.04 40.3213H138.453V26.5577H154.364C157.864 26.5577 159.813 27.7308 159.813 30.3366C159.813 32.2465 158.878 33.0218 157.367 33.3415C159.057 33.5591 160.49 34.2947 160.49 36.5219ZM142.331 29.6611V31.928H154.384C155.278 31.928 155.955 31.7682 155.955 30.8342C155.955 29.9592 155.278 29.6611 154.364 29.6611H142.331ZM142.331 37.2178H155.04C156.015 37.2178 156.632 36.9402 156.632 36.0651C156.632 35.2887 156.094 34.9113 155.06 34.9113H142.331V37.2178Z" fill="#0F969C"/>
<path d="M186.286 40.3213H181.93L180.161 37.8945H167.949L166.179 40.3213H161.824L172.126 26.5577H175.984L186.286 40.3213ZM174.055 29.72L170.276 34.7514H177.834L174.055 29.72Z" fill="#0F969C"/>
<path d="M192.453 26.5577V36.6216H207.151V40.3213H188.416V26.5577H192.453Z" fill="#0F969C"/>
<path d="M196.134 2.33228H199.772V2.77099H198.21V6.92134H197.737V2.77099H196.134V2.33228Z" fill="#0F969C"/>
<path d="M201.652 2.33228L203.239 6.75787L204.825 2.33228H205.704V6.92134H205.245V2.5294L203.671 6.92134H202.8L201.237 2.54863V6.92134H200.778V2.33228H201.652Z" fill="#0F969C"/>
</g>
<g clip-path="url(#clip1_13_17287)">
<path d="M34.1646 38.3241C36.5175 38.3197 38.7727 37.3832 40.4365 35.7195C42.1003 34.0559 43.037 31.8007 43.0415 29.4479V7.28297C43.0415 4.68886 41.6672 2.41422 39.4534 1.34771C36.9318 0.132057 33.8842 0.695072 31.0746 2.89104C31.0342 2.91909 30.9938 2.94987 30.9535 2.98271C30.9131 3.01554 30.8851 3.04496 30.8488 3.07643L22.8284 10.0023C22.5482 10.255 22.3781 10.6074 22.3546 10.984C22.3311 11.3606 22.4561 11.7315 22.7028 12.017C22.9496 12.3025 23.2983 12.4801 23.6743 12.5115C24.0504 12.543 24.4238 12.4258 24.7145 12.1852L32.7971 5.2033C34.7256 3.67639 36.6931 3.21941 38.2015 3.94387C39.4076 4.52536 40.1567 5.80394 40.1567 7.28023V29.4451C40.1567 31.7663 38.9157 33.7686 36.8374 34.8023C34.7591 35.836 32.4133 35.6157 30.5629 34.2147L28.8211 36.5167C30.3568 37.6872 32.2338 38.3221 34.1646 38.3241Z" fill="#0F969C"/>
<path d="M26.6485 20.1126C26.6485 20.1465 26.6455 20.1804 26.6396 20.2138H15.6255C15.6293 20.0574 15.6018 19.9018 15.5445 19.7562C15.4873 19.6106 15.4015 19.4779 15.2922 19.366C15.1829 19.254 15.0523 19.165 14.9082 19.1043C14.764 19.0436 14.6091 19.0123 14.4526 19.0123C14.2962 19.0123 14.1413 19.0436 13.9971 19.1043C13.853 19.165 13.7224 19.254 13.6131 19.366C13.5038 19.4779 13.418 19.6106 13.3608 19.7562C13.3035 19.9018 13.276 20.0574 13.2798 20.2138H11.471C11.4748 20.0573 11.4472 19.9016 11.3899 19.756C11.3326 19.6103 11.2468 19.4775 11.1375 19.3655C11.0281 19.2535 10.8975 19.1644 10.7532 19.1037C10.6089 19.0429 10.454 19.0116 10.2974 19.0116C10.1409 19.0116 9.9859 19.0429 9.84164 19.1037C9.69737 19.1644 9.56672 19.2535 9.45737 19.3655C9.34802 19.4775 9.26218 19.6103 9.2049 19.756C9.14762 19.9016 9.12006 20.0573 9.12384 20.2138H7.31507C7.31885 20.0574 7.29131 19.9018 7.23406 19.7562C7.17682 19.6106 7.09103 19.4779 6.98174 19.366C6.87245 19.254 6.74188 19.165 6.59769 19.1043C6.45351 19.0436 6.29864 19.0123 6.14218 19.0123C5.98573 19.0123 5.83085 19.0436 5.68667 19.1043C5.54249 19.165 5.41191 19.254 5.30262 19.366C5.19334 19.4779 5.10755 19.6106 5.0503 19.7562C4.99306 19.9018 4.96551 20.0574 4.96929 20.2138H2.00781L1.71844 17.9399L-2.35155e-05 4.37825C-0.00521702 3.60928 0.194937 2.85286 0.579771 2.1871C0.964605 1.52134 1.52017 0.970361 2.1891 0.591062C2.97466 0.129944 3.88638 -0.0697678 4.79277 0.0207241C5.69917 0.111216 6.5534 0.487236 7.2323 1.09456L7.29045 1.14587L26.0588 19.2232L26.4692 19.6187C26.5811 19.7594 26.644 19.9328 26.6485 20.1126Z" fill="#0F969C"/>
<path d="M26.6395 20.2159C26.6019 20.4772 26.4138 20.7324 26.0991 20.9739L7.37866 37.4265C6.81328 37.8586 6.15527 38.1535 5.45649 38.2879C4.75771 38.4223 4.03726 38.3926 3.35192 38.2012C2.66657 38.0097 2.03506 37.6616 1.50716 37.1845C0.979253 36.7073 0.569381 36.1141 0.309844 35.4515C0.0307306 34.7291 -0.0233135 33.9403 0.0854586 33.1741L1.65889 22.275L2.01052 20.2159H4.96926C4.97665 20.522 5.10347 20.8132 5.32263 21.0271C5.54178 21.241 5.8359 21.3608 6.14215 21.3608C6.44841 21.3608 6.74252 21.241 6.96168 21.0271C7.18083 20.8132 7.30765 20.522 7.31504 20.2159H9.12381C9.1312 20.5222 9.25809 20.8135 9.47738 21.0276C9.69666 21.2416 9.99095 21.3615 10.2974 21.3615C10.6038 21.3615 10.8981 21.2416 11.1174 21.0276C11.3367 20.8135 11.4636 20.5222 11.471 20.2159H13.279C13.2864 20.522 13.4133 20.8132 13.6324 21.0271C13.8516 21.241 14.1457 21.3608 14.4519 21.3608C14.7582 21.3608 15.0523 21.241 15.2715 21.0271C15.4906 20.8132 15.6174 20.522 15.6248 20.2159H26.6395Z" fill="#157777"/>
</g>
<defs>
<clipPath id="clip0_13_17287">
<rect width="142.271" height="38.0479" fill="white" transform="translate(64.8805 2.33228)"/>
</clipPath>
<clipPath id="clip1_13_17287">
<rect width="43.0416" height="38.3726" fill="white"/>
</clipPath>
</defs>
</svg>
