<svg width="24" height="33" viewBox="0 0 24 33" fill="none" xmlns="http://www.w3.org/2000/svg">
<rect y="0.5" width="24" height="32" rx="4" fill="#0F969C"/>
<g clip-path="url(#clip0_1009_3587)">
<path d="M13.4801 13.703V12.2773C13.4801 11.8992 13.3299 11.5365 13.0625 11.2691C12.7952 11.0018 12.4325 10.8516 12.0544 10.8516H7.06439C6.68626 10.8516 6.32363 11.0018 6.05625 11.2691C5.78888 11.5365 5.63867 11.8992 5.63867 12.2773V20.8316C5.63867 21.2097 5.78888 21.5723 6.05625 21.8397C6.32363 22.1071 6.68626 22.2573 7.06439 22.2573H12.0544C12.4325 22.2573 12.7952 22.1071 13.0625 21.8397C13.3299 21.5723 13.4801 21.2097 13.4801 20.8316V19.4059M8.4901 16.5544H18.4701M18.4701 16.5544L16.3315 14.4159M18.4701 16.5544L16.3315 18.693" stroke="white" stroke-width="1.42572" stroke-linecap="round" stroke-linejoin="round"/>
</g>
<defs>
<clipPath id="clip0_1009_3587">
<rect width="17.1086" height="17.1086" fill="white" transform="translate(3.5 8)"/>
</clipPath>
</defs>
</svg>
