<svg width="20" height="28" viewBox="0 0 20 28" fill="none" xmlns="http://www.w3.org/2000/svg">
<mask id="mask0_342_1417" style="mask-type:luminance" maskUnits="userSpaceOnUse" x="0" y="4" width="20" height="20">
<path fill-rule="evenodd" clip-rule="evenodd" d="M0 4.39258H20V23.4414H0V4.39258Z" fill="white"/>
</mask>
<g mask="url(#mask0_342_1417)">
<path fill-rule="evenodd" clip-rule="evenodd" d="M9.99849 6.04023C6.21948 6.04023 3.58553 9.04667 3.58553 11.7445C3.58553 14.0274 2.96164 15.0826 2.4102 16.0137C1.96796 16.7615 1.61871 17.3522 1.61871 18.6358C1.79928 20.7067 3.14545 21.7949 9.99849 21.7949C16.8137 21.7949 18.202 20.6584 18.3815 18.5645C18.3783 17.3522 18.029 16.7615 17.5868 16.0137C17.0353 15.0826 16.4114 14.0274 16.4114 11.7445C16.4114 9.04667 13.7775 6.04023 9.99849 6.04023ZM9.99844 23.4414C4.94246 23.4414 0.37305 23.079 1.44399e-05 18.7055C-0.00322934 16.896 0.540645 15.9758 1.02073 15.1654C1.50621 14.3441 1.96359 13.57 1.96359 11.744C1.96359 8.19399 5.19223 4.39258 9.99844 4.39258C14.8046 4.39258 18.0333 8.19399 18.0333 11.744C18.0333 13.57 18.4907 14.3441 18.9762 15.1654C19.4562 15.9758 20.0001 16.896 20.0001 18.6352C19.6227 23.079 15.0544 23.4414 9.99844 23.4414Z" fill="#0F969C"/>
</g>
<path fill-rule="evenodd" clip-rule="evenodd" d="M9.94581 28H9.94365C8.73156 27.9989 7.58434 27.4564 6.71392 26.4715C6.41441 26.1344 6.44144 25.6128 6.77447 25.3098C7.1075 25.0045 7.62002 25.032 7.91953 25.3713C8.47962 26.0048 9.19866 26.3529 9.94473 26.3529H9.94581C10.6951 26.3529 11.4174 26.0048 11.9786 25.3702C12.2792 25.0331 12.7917 25.0056 13.1236 25.3098C13.4567 25.6139 13.4837 26.1355 13.1842 26.4726C12.3105 27.4575 11.1612 28 9.94581 28Z" fill="#0F969C"/>
<ellipse cx="15.1375" cy="4.39216" rx="4.32505" ry="4.39216" fill="#E82D22"/>
</svg>
