<svg width="23" height="18" viewBox="0 0 23 18" fill="none" xmlns="http://www.w3.org/2000/svg">
<path d="M17.3838 7.65161C18.7788 7.45561 19.8528 6.25961 19.8558 4.81061C19.8558 3.38261 18.8148 2.19861 17.4498 1.97461" stroke="black" stroke-opacity="0.3" stroke-width="1.5" stroke-linecap="round" stroke-linejoin="round"/>
<path d="M19.2246 11.0049C20.5756 11.2069 21.5186 11.6799 21.5186 12.6549C21.5186 13.3259 21.0746 13.7619 20.3566 14.0359" stroke="black" stroke-opacity="0.3" stroke-width="1.5" stroke-linecap="round" stroke-linejoin="round"/>
<path fill-rule="evenodd" clip-rule="evenodd" d="M11.3828 11.4189C8.16883 11.4189 5.42383 11.9059 5.42383 13.8509C5.42383 15.7949 8.15183 16.2959 11.3828 16.2959C14.5968 16.2959 17.3408 15.8139 17.3408 13.8679C17.3408 11.9219 14.6138 11.4189 11.3828 11.4189Z" stroke="black" stroke-opacity="0.3" stroke-width="1.5" stroke-linecap="round" stroke-linejoin="round"/>
<path fill-rule="evenodd" clip-rule="evenodd" d="M11.383 8.64288C13.492 8.64288 15.202 6.93388 15.202 4.82388C15.202 2.71488 13.492 1.00488 11.383 1.00488C9.27399 1.00488 7.56399 2.71488 7.56399 4.82388C7.55599 6.92588 9.25299 8.63588 11.355 8.64288H11.383Z" stroke="black" stroke-opacity="0.3" stroke-width="1.5" stroke-linecap="round" stroke-linejoin="round"/>
<path d="M5.38118 7.65161C3.98518 7.45561 2.91218 6.25961 2.90918 4.81061C2.90918 3.38261 3.95018 2.19861 5.31518 1.97461" stroke="black" stroke-opacity="0.3" stroke-width="1.5" stroke-linecap="round" stroke-linejoin="round"/>
<path d="M3.54009 11.0049C2.18909 11.2069 1.24609 11.6799 1.24609 12.6549C1.24609 13.3259 1.69009 13.7619 2.40809 14.0359" stroke="black" stroke-opacity="0.3" stroke-width="1.5" stroke-linecap="round" stroke-linejoin="round"/>
</svg>
