<svg width="24" height="24" viewBox="0 0 24 24" fill="none" xmlns="http://www.w3.org/2000/svg">
<path opacity="0.4" d="M19.5313 9.8252C18.9966 9.8252 18.5626 10.2528 18.5626 10.7818C18.5626 14.3549 15.6186 17.2622 12.0005 17.2622C8.38136 17.2622 5.43743 14.3549 5.43743 10.7818C5.43743 10.2528 5.00345 9.8252 4.46872 9.8252C3.93398 9.8252 3.5 10.2528 3.5 10.7818C3.5 15.0868 6.79945 18.6407 11.0318 19.1181V21.0429C11.0318 21.5709 11.4648 21.9995 12.0005 21.9995C12.5352 21.9995 12.9692 21.5709 12.9692 21.0429V19.1181C17.2006 18.6407 20.5 15.0868 20.5 10.7818C20.5 10.2528 20.066 9.8252 19.5313 9.8252Z" fill="#0F969C"/>
<path d="M11.8246 15.2171H12.1753C14.5777 15.2171 16.5268 13.2932 16.5268 10.9208V6.29727C16.5268 3.92287 14.5777 2 12.1753 2H11.8246C9.4222 2 7.47314 3.92287 7.47314 6.29727V10.9208C7.47314 13.2932 9.4222 15.2171 11.8246 15.2171Z" fill="#0F969C"/>
</svg>
