<svg width="122" height="33" viewBox="0 0 122 33" fill="none" xmlns="http://www.w3.org/2000/svg">
<g clip-path="url(#clip0_78_510)">
<path d="M17.4127 0.309204V3.41058H10.4379V12.1087H6.97579V3.41058H0V0.309204H17.4127Z" fill="#FCFCFC"/>
<path d="M36.0385 0.309204V3.41058H29.0658V12.1087H25.6005V3.41058H18.6248V0.309204H36.0385Z" fill="#FCFCFC"/>
<path d="M46.4258 5.5596L51.8833 0.309204H56.437L48.1481 8.15181V12.1087H44.7035V8.15181L36.4146 0.309204H40.9496L46.4258 5.5596Z" fill="#FCFCFC"/>
<path d="M68.3591 6.85622L75.8801 0.309204H79.0351V12.1107H75.608V4.65567L69.0414 10.4029H67.6602L61.0936 4.65567V12.1087H57.6655V0.309204H60.838L68.3591 6.85622Z" fill="#FCFCFC"/>
<path d="M17.4127 24.5946C16.7655 23.8731 15.81 23.7412 14.3773 23.7412H6.87278C4.65575 23.7412 3.44467 24.7307 3.44467 26.6746V26.6952C3.44467 28.6051 4.63925 29.611 6.83877 29.611H13.9145C15.2957 29.611 16.2687 29.475 16.8139 28.8102V28.604H12.0923V26.0098H19.7493V32.5764H17.791L17.5694 31.2973C16.7685 32.3032 15.6255 32.6269 13.8517 32.6269H6.77074C2.57579 32.6269 0.119629 30.4624 0.119629 26.6921V26.6746C0.119629 22.8888 2.59331 20.7233 6.87278 20.7233H14.3773C16.7995 20.7233 18.2321 21.0645 19.4422 22.224L17.4127 24.5946Z" fill="#FCFCFC"/>
<path d="M25.6521 20.7738V29.4038H38.2555V32.5763H22.1899V20.7738H25.6521Z" fill="#FCFCFC"/>
<path d="M54.1862 20.7233C58.4327 20.7233 60.9053 22.8878 60.9053 26.6746V26.6952C60.9053 30.4645 58.4317 32.63 54.1862 32.63H46.3529C42.127 32.63 39.6533 30.4655 39.6533 26.6952V26.6777C39.6533 22.8919 42.127 20.7264 46.3529 20.7264L54.1862 20.7233ZM54.1862 29.6079C56.5228 29.6079 57.5803 28.534 57.5803 26.6921V26.6746C57.5803 24.8193 56.5228 23.7412 54.1862 23.7412H46.3529C44.0163 23.7412 42.9763 24.8162 42.9763 26.6746V26.6952C42.9763 28.537 44.0163 29.611 46.3529 29.611L54.1862 29.6079Z" fill="#FCFCFC"/>
<path d="M81.9872 29.3183C81.9872 31.5528 80.1794 32.5763 77.314 32.5763H63.0903V20.7738H76.7337C79.7351 20.7738 81.4069 21.7797 81.4069 24.0143C81.4069 25.6521 80.605 26.3169 79.3094 26.5911C80.7586 26.7776 81.9872 27.4084 81.9872 29.3183ZM66.4154 23.435V25.3789H76.7513C77.5181 25.3789 78.0984 25.2419 78.0984 24.441C78.0984 23.6907 77.5181 23.435 76.7337 23.435H66.4154ZM66.4154 29.9151H77.314C78.1499 29.9151 78.6787 29.677 78.6787 28.9266C78.6787 28.2608 78.2179 27.9371 77.3305 27.9371H66.4154V29.9151Z" fill="#FCFCFC"/>
<path d="M104.108 32.5763H100.373L98.8555 30.4953H88.3836L86.8653 32.5763H83.1311L91.9652 20.7738H95.2738L104.108 32.5763ZM93.6195 23.4855L90.379 27.8001H96.86L93.6195 23.4855Z" fill="#FCFCFC"/>
<path d="M109.397 20.7738V29.4038H122V32.5763H105.935V20.7738H109.397Z" fill="#FCFCFC"/>
<path d="M112.552 0H115.672V0.376206H114.332V3.93522H113.927V0.376206H112.552V0Z" fill="#FCFCFC"/>
<path d="M117.284 0L118.645 3.79504L120.006 0H120.759V3.93522H120.365V0.169035L119.016 3.93522H118.269L116.929 0.185526V3.93522H116.535V0H117.284Z" fill="#FCFCFC"/>
</g>
<defs>
<clipPath id="clip0_78_510">
<rect width="122" height="32.6269" fill="white"/>
</clipPath>
</defs>
</svg>
