<svg width="50" height="50" viewBox="0 0 50 50" fill="none" xmlns="http://www.w3.org/2000/svg">
<circle cx="25" cy="25" r="25" fill="#FCFCFC"/>
<path fill-rule="evenodd" clip-rule="evenodd" d="M25 12C32.1796 12 38 17.8203 38 25C38 32.1796 32.1796 38 25 38C17.8203 38 12 32.1796 12 25C12 17.8203 17.8203 12 25 12ZM25 13.95C18.8972 13.95 13.95 18.8972 13.95 25C13.95 31.1027 18.8972 36.05 25 36.05C31.1027 36.05 36.05 31.1027 36.05 25C36.05 18.8972 31.1027 13.95 25 13.95ZM30.5653 29.2754C29.1085 27.7928 27.1205 26.9413 25 26.9413C22.8747 26.9413 20.8828 27.7966 19.4253 29.2849C19.0485 29.6697 19.055 30.287 19.4397 30.6637C19.8245 31.0405 20.4418 31.0341 20.8185 30.6493C21.9129 29.5317 23.4044 28.8913 25 28.8913C26.5921 28.8913 28.0805 29.5288 29.1744 30.6421C29.5518 31.0263 30.1692 31.0316 30.5532 30.6542C30.9373 30.2768 30.9428 29.6595 30.5653 29.2754ZM18.7136 18.2099C19.0194 17.8277 19.5543 17.7366 19.965 17.9759L20.0841 18.0576L23.334 20.6576C23.7546 20.994 23.8227 21.6076 23.4864 22.0281C23.2939 22.2687 23.0105 22.3939 22.7246 22.394C22.7246 23.2916 21.9975 24.0186 21.1006 24.0186C20.2036 24.0186 19.4765 23.2916 19.4765 22.3946C19.4765 21.7105 19.8994 21.1253 20.498 20.886L18.8659 19.5803C18.4454 19.2439 18.3773 18.6304 18.7136 18.2099ZM29.9157 18.0578L26.6672 20.6578L26.5614 20.7561C26.2378 21.1042 26.2094 21.646 26.5153 22.0282C26.7078 22.2688 26.9912 22.394 27.2765 22.3919L27.2849 22.5606C27.3681 23.3796 28.0597 24.0186 28.9005 24.0186C29.7975 24.0186 30.5246 23.2916 30.5246 22.3946C30.5246 21.7101 30.1013 21.1246 29.5021 20.8856L31.1343 19.5802L31.2401 19.4819C31.5637 19.1338 31.592 18.5919 31.2861 18.2097C30.9497 17.7893 30.3361 17.7213 29.9157 18.0578Z" fill="#737373"/>
</svg>
