<svg width="27" height="26" viewBox="0 0 27 26" fill="none" xmlns="http://www.w3.org/2000/svg">
<path fill-rule="evenodd" clip-rule="evenodd" d="M13.8019 0C20.9815 0 26.8019 5.8203 26.8019 13C26.8019 20.1796 20.9815 26 13.8019 26C6.62217 26 0.80188 20.1796 0.80188 13C0.80188 5.8203 6.62217 0 13.8019 0ZM13.8019 1.95C7.69913 1.95 2.75188 6.89725 2.75188 13C2.75188 19.1027 7.69913 24.05 13.8019 24.05C19.9046 24.05 24.8519 19.1027 24.8519 13C24.8519 6.89725 19.9046 1.95 13.8019 1.95ZM19.3672 17.2754C17.9104 15.7928 15.9224 14.9413 13.8019 14.9413C11.6766 14.9413 9.68472 15.7966 8.22715 17.2849C7.85041 17.6697 7.85688 18.287 8.2416 18.6637C8.62634 19.0405 9.24364 19.0341 9.62039 18.6493C10.7148 17.5317 12.2062 16.8913 13.8019 16.8913C15.394 16.8913 16.8823 17.5288 17.9763 18.6421C18.3537 19.0263 18.9711 19.0316 19.3551 18.6542C19.7392 18.2768 19.7447 17.6595 19.3672 17.2754ZM7.51553 6.20991C7.82133 5.82766 8.3562 5.73656 8.76684 5.97589L8.88595 6.05764L12.1359 8.65764C12.5565 8.99401 12.6246 9.60758 12.2883 10.0281C12.0957 10.2687 11.8123 10.3939 11.5265 10.394C11.5265 11.2916 10.7994 12.0186 9.90246 12.0186C9.0055 12.0186 8.27838 11.2916 8.27838 10.3946C8.27838 9.71054 8.70126 9.12529 9.29984 8.88596L7.6678 7.58033C7.24731 7.24394 7.17914 6.63038 7.51553 6.20991ZM18.7176 6.05777L15.4691 8.65777L15.3633 8.75606C15.0397 9.10422 15.0113 9.64604 15.3171 10.0282C15.5097 10.2688 15.7931 10.394 16.0784 10.3919L16.0867 10.5606C16.1699 11.3796 16.8615 12.0186 17.7024 12.0186C18.5994 12.0186 19.3265 11.2916 19.3265 10.3946C19.3265 9.71014 18.9032 9.12461 18.304 8.88556L19.9362 7.58019L20.042 7.48191C20.3656 7.13376 20.3939 6.59192 20.088 6.20973C19.7516 5.78934 19.138 5.72129 18.7176 6.05777Z" fill="#737373"/>
</svg>
