<svg width="50" height="50" viewBox="0 0 50 50" fill="none" xmlns="http://www.w3.org/2000/svg">
<circle cx="25" cy="25" r="25" fill="#FCFCFC"/>
<path fill-rule="evenodd" clip-rule="evenodd" d="M25 12C32.1797 12 38.0001 17.8203 38.0001 25.0001C38.0001 32.1798 32.1797 38 25 38C17.8203 38 12 32.1798 12 25.0001C12 17.8203 17.8203 12 25 12ZM25 13.9497C18.8971 13.9497 13.9497 18.8971 13.9497 25.0001C13.9497 31.103 18.8971 36.0503 25 36.0503C31.1029 36.0503 36.0504 31.103 36.0504 25.0001C36.0504 18.8971 31.1029 13.9497 25 13.9497ZM30.5646 29.2802C29.1079 27.7977 27.1203 26.9464 25 26.9464C22.8751 26.9464 20.8835 27.8015 19.4262 29.2897C19.0495 29.6744 19.0559 30.2915 19.4406 30.6682C19.8253 31.0449 20.4425 31.0385 20.8192 30.6538C21.9134 29.5364 23.4046 28.8961 25 28.8961C26.5919 28.8961 28.0801 29.5335 29.1738 30.6466C29.5511 31.0307 30.1684 31.0361 30.5525 30.6587C30.9364 30.2814 30.9419 29.6641 30.5646 29.2802ZM21.1012 20.7765C21.998 20.7765 22.7251 21.5035 22.7251 22.4003C22.7251 23.2972 21.998 24.0242 21.1012 24.0242C20.2044 24.0242 19.4774 23.2972 19.4774 22.4003C19.4774 21.5035 20.2044 20.7765 21.1012 20.7765ZM30.5239 22.4003C30.5239 21.5035 29.7968 20.7765 28.9 20.7765C28.0032 20.7765 27.2762 21.5035 27.2762 22.4003C27.2762 23.2972 28.0032 24.0242 28.9 24.0242C29.7968 24.0242 30.5239 23.2972 30.5239 22.4003Z" fill="#CA2C2C"/>
</svg>
