<svg width="27" height="26" viewBox="0 0 27 26" fill="none" xmlns="http://www.w3.org/2000/svg">
<path fill-rule="evenodd" clip-rule="evenodd" d="M13.8019 0C20.9816 0 26.8019 5.82031 26.8019 13.0001C26.8019 20.1798 20.9816 26 13.8019 26C6.62219 26 0.80188 20.1798 0.80188 13.0001C0.80188 5.82031 6.62219 0 13.8019 0ZM13.8019 1.9497C7.69898 1.9497 2.75158 6.8971 2.75158 13.0001C2.75158 19.103 7.69898 24.0503 13.8019 24.0503C19.9048 24.0503 24.8522 19.103 24.8522 13.0001C24.8522 6.8971 19.9048 1.9497 13.8019 1.9497ZM19.3664 17.2802C17.9098 15.7977 15.9222 14.9464 13.8019 14.9464C11.677 14.9464 9.68539 15.8015 8.22804 17.2897C7.85134 17.6744 7.85782 18.2915 8.24249 18.6682C8.62717 19.0449 9.24437 19.0385 9.62106 18.6538C10.7153 17.5364 12.2065 16.8961 13.8019 16.8961C15.3937 16.8961 16.882 17.5335 17.9757 18.6466C18.353 19.0307 18.9703 19.0361 19.3544 18.6587C19.7383 18.2814 19.7438 17.6641 19.3664 17.2802ZM9.90308 8.77649C10.7999 8.77649 11.527 9.50351 11.527 10.4003C11.527 11.2972 10.7999 12.0242 9.90308 12.0242C9.00627 12.0242 8.27925 11.2972 8.27925 10.4003C8.27925 9.50351 9.00627 8.77649 9.90308 8.77649ZM19.3258 10.4003C19.3258 9.50351 18.5986 8.77649 17.7019 8.77649C16.8051 8.77649 16.0781 9.50351 16.0781 10.4003C16.0781 11.2972 16.8051 12.0242 17.7019 12.0242C18.5986 12.0242 19.3258 11.2972 19.3258 10.4003Z" fill="#CA2C2C"/>
</svg>
