<svg width="50" height="50" viewBox="0 0 50 50" fill="none" xmlns="http://www.w3.org/2000/svg">
<circle cx="25" cy="25" r="25" fill="#FCFCFC"/>
<path fill-rule="evenodd" clip-rule="evenodd" d="M37.9999 25C37.9999 17.8203 32.1797 12 25 12C17.8203 12 12 17.8203 12 25C12 32.1796 17.8203 38 25 38C32.1797 38 37.9999 32.1796 37.9999 25ZM22.7249 22.4002C22.7249 21.5035 21.998 20.7765 21.1012 20.7765C20.2044 20.7765 19.4773 21.5035 19.4773 22.4002C19.4773 23.2971 20.2044 24.0241 21.1012 24.0241C21.998 24.0241 22.7249 23.2971 22.7249 22.4002ZM30.5237 22.4002C30.5237 21.5035 29.7967 20.7765 28.8999 20.7765C28.0032 20.7765 27.2762 21.5035 27.2762 22.4002C27.2762 23.2971 28.0032 24.0241 28.8999 24.0241C29.7967 24.0241 30.5237 23.2971 30.5237 22.4002ZM21.2396 29.3721C21.5166 28.9104 22.1154 28.7607 22.5772 29.0378C23.2051 29.4146 24.078 29.63 25.0001 29.63C25.9222 29.63 26.7951 29.4146 27.4232 29.0379C27.8849 28.7609 28.4837 28.9107 28.7605 29.3723C29.0375 29.834 28.8878 30.4328 28.4261 30.7098C27.4294 31.3077 26.1901 31.5797 25.0001 31.5797C23.81 31.5797 22.5707 31.3076 21.574 30.7096C21.1123 30.4326 20.9626 29.8338 21.2396 29.3721ZM25 13.9497C18.8971 13.9497 13.9497 18.8971 13.9497 25C13.9497 31.1029 18.8971 36.0503 25 36.0503C31.1029 36.0503 36.0502 31.1029 36.0502 25C36.0502 18.8971 31.1029 13.9497 25 13.9497Z" fill="#251FD1"/>
</svg>
