<svg width="27" height="26" viewBox="0 0 27 26" fill="none" xmlns="http://www.w3.org/2000/svg">
    <path fill-rule="evenodd" clip-rule="evenodd"
          d="M26.8018 13C26.8018 5.82029 20.9815 0 13.8019 0C6.62216 0 0.80188 5.82029 0.80188 13C0.80188 20.1796 6.62216 26 13.8019 26C20.9815 26 26.8018 20.1796 26.8018 13ZM11.5268 10.4002C11.5268 9.50348 10.7999 8.77647 9.90305 8.77647C9.00623 8.77647 8.27923 9.50348 8.27923 10.4002C8.27923 11.2971 9.00623 12.0241 9.90305 12.0241C10.7999 12.0241 11.5268 11.2971 11.5268 10.4002ZM19.3256 10.4002C19.3256 9.50348 18.5986 8.77647 17.7018 8.77647C16.805 8.77647 16.0781 9.50348 16.0781 10.4002C16.0781 11.2971 16.805 12.0241 17.7018 12.0241C18.5986 12.0241 19.3256 11.2971 19.3256 10.4002ZM10.0415 17.3721C10.3185 16.9104 10.9173 16.7607 11.379 17.0378C12.007 17.4146 12.8799 17.63 13.802 17.63C14.7241 17.63 15.597 17.4146 16.2251 17.0379C16.6868 16.7609 17.2856 16.9107 17.5624 17.3723C17.8394 17.834 17.6897 18.4328 17.228 18.7098C16.2313 19.3077 14.9919 19.5797 13.802 19.5797C12.6119 19.5797 11.3725 19.3076 10.3759 18.7096C9.91419 18.4326 9.76449 17.8338 10.0415 17.3721ZM13.8019 1.94969C7.69895 1.94969 2.75157 6.89708 2.75157 13C2.75157 19.1029 7.69895 24.0503 13.8019 24.0503C19.9048 24.0503 24.8521 19.1029 24.8521 13C24.8521 6.89708 19.9048 1.94969 13.8019 1.94969Z"
          fill="currentColor"/>
</svg>
