<svg width="28" height="28" viewBox="0 0 28 28" fill="none" xmlns="http://www.w3.org/2000/svg">
<path fill-rule="evenodd" clip-rule="evenodd" d="M9.39118 8.89258C10.4154 8.89258 11.2483 9.72551 11.2483 10.7497C11.2483 11.7739 10.4154 12.6069 9.39118 12.6069C8.36697 12.6069 7.53404 11.7739 7.53404 10.7497C7.53404 10.5933 7.55957 10.4433 7.59625 10.298L6.0785 10.7316L5.82361 9.83879L9.07361 8.91022L9.07732 8.92415C9.17993 8.90651 9.28347 8.89258 9.39118 8.89258ZM9.39118 9.82115C8.87907 9.82115 8.46261 10.2376 8.46261 10.7497C8.46261 11.2618 8.87907 11.6783 9.39118 11.6783C9.90329 11.6783 10.3198 11.2618 10.3198 10.7497C10.3198 10.2376 9.90329 9.82115 9.39118 9.82115Z" fill="#0F969C"/>
<path d="M7.59625 10.298L7.88713 10.3714L8.01457 9.86645L7.51383 10.0095L7.59625 10.298ZM6.0785 10.7316L5.79003 10.814L5.8724 11.1025L6.16092 11.0201L6.0785 10.7316ZM5.82361 9.83879L5.74119 9.55034L5.45279 9.63273L5.53513 9.92115L5.82361 9.83879ZM9.07361 8.91022L9.36348 8.83292L9.2848 8.53788L8.99119 8.62176L9.07361 8.91022ZM9.07732 8.92415L8.78745 9.00145L8.85807 9.26625L9.12816 9.21981L9.07732 8.92415ZM11.5483 10.7497C11.5483 9.55982 10.5811 8.59258 9.39118 8.59258V9.19258C10.2497 9.19258 10.9483 9.89119 10.9483 10.7497H11.5483ZM9.39118 12.9069C10.5811 12.9069 11.5483 11.9396 11.5483 10.7497H10.9483C10.9483 11.6082 10.2497 12.3069 9.39118 12.3069V12.9069ZM7.23404 10.7497C7.23404 11.9396 8.20128 12.9069 9.39118 12.9069V12.3069C8.53265 12.3069 7.83404 11.6082 7.83404 10.7497H7.23404ZM7.30537 10.2246C7.26491 10.3849 7.23404 10.5607 7.23404 10.7497H7.83404C7.83404 10.6258 7.85424 10.5017 7.88713 10.3714L7.30537 10.2246ZM6.16092 11.0201L7.67867 10.5864L7.51383 10.0095L5.99608 10.4432L6.16092 11.0201ZM5.53513 9.92115L5.79003 10.814L6.36698 10.6493L6.11208 9.75644L5.53513 9.92115ZM8.99119 8.62176L5.74119 9.55034L5.90602 10.1272L9.15602 9.19868L8.99119 8.62176ZM9.36719 8.84685L9.36348 8.83292L8.78374 8.98752L8.78745 9.00145L9.36719 8.84685ZM9.39118 8.59258C9.25831 8.59258 9.13534 8.60977 9.02649 8.62849L9.12816 9.21981C9.22452 9.20324 9.30862 9.19258 9.39118 9.19258V8.59258ZM8.76261 10.7497C8.76261 10.4033 9.04476 10.1211 9.39118 10.1211V9.52115C8.71339 9.52115 8.16261 10.0719 8.16261 10.7497H8.76261ZM9.39118 11.3783C9.04476 11.3783 8.76261 11.0961 8.76261 10.7497H8.16261C8.16261 11.4275 8.71339 11.9783 9.39118 11.9783V11.3783ZM10.0198 10.7497C10.0198 11.0961 9.7376 11.3783 9.39118 11.3783V11.9783C10.069 11.9783 10.6198 11.4275 10.6198 10.7497H10.0198ZM9.39118 10.1211C9.7376 10.1211 10.0198 10.4033 10.0198 10.7497H10.6198C10.6198 10.0719 10.069 9.52115 9.39118 9.52115V10.1211Z" fill="#0F969C"/>
<path fill-rule="evenodd" clip-rule="evenodd" d="M20.0697 10.7497C20.0697 11.7739 19.2368 12.6069 18.2126 12.6069C17.1884 12.6069 16.3554 11.7739 16.3554 10.7497C16.3554 9.72551 17.1884 8.89258 18.2126 8.89258C18.3203 8.89258 18.4238 8.90651 18.5264 8.92415L18.5302 8.91022L21.7802 9.83879L21.5253 10.7316L20.0075 10.298C20.0442 10.4433 20.0697 10.5933 20.0697 10.7497ZM19.1412 10.7497C19.1412 10.2376 18.7247 9.82115 18.2126 9.82115C17.7005 9.82115 17.284 10.2376 17.284 10.7497C17.284 11.2618 17.7005 11.6783 18.2126 11.6783C18.7247 11.6783 19.1412 11.2618 19.1412 10.7497Z" fill="#0F969C"/>
<path d="M18.5264 8.92415L18.4756 9.21981L18.7457 9.26625L18.8163 9.00145L18.5264 8.92415ZM18.5302 8.91022L18.6126 8.62176L18.319 8.53788L18.2403 8.83292L18.5302 8.91022ZM21.7802 9.83879L22.0686 9.92115L22.151 9.63273L21.8626 9.55034L21.7802 9.83879ZM21.5253 10.7316L21.4428 11.0201L21.7314 11.1025L21.8137 10.814L21.5253 10.7316ZM20.0075 10.298L20.0899 10.0095L19.5892 9.86645L19.7166 10.3714L20.0075 10.298ZM18.2126 12.9069C19.4025 12.9069 20.3697 11.9396 20.3697 10.7497H19.7697C19.7697 11.6082 19.0711 12.3069 18.2126 12.3069V12.9069ZM16.0554 10.7497C16.0554 11.9396 17.0227 12.9069 18.2126 12.9069V12.3069C17.3541 12.3069 16.6554 11.6082 16.6554 10.7497H16.0554ZM18.2126 8.59258C17.0227 8.59258 16.0554 9.55982 16.0554 10.7497H16.6554C16.6554 9.89119 17.3541 9.19258 18.2126 9.19258V8.59258ZM18.5773 8.62849C18.4684 8.60977 18.3455 8.59258 18.2126 8.59258V9.19258C18.2951 9.19258 18.3792 9.20324 18.4756 9.21981L18.5773 8.62849ZM18.2403 8.83292L18.2366 8.84685L18.8163 9.00145L18.82 8.98752L18.2403 8.83292ZM21.8626 9.55034L18.6126 8.62176L18.4477 9.19868L21.6977 10.1272L21.8626 9.55034ZM21.8137 10.814L22.0686 9.92115L21.4917 9.75644L21.2368 10.6493L21.8137 10.814ZM19.9251 10.5864L21.4428 11.0201L21.6077 10.4432L20.0899 10.0095L19.9251 10.5864ZM20.3697 10.7497C20.3697 10.5607 20.3389 10.3849 20.2984 10.2246L19.7166 10.3714C19.7495 10.5017 19.7697 10.6258 19.7697 10.7497H20.3697ZM18.2126 10.1211C18.559 10.1211 18.8412 10.4033 18.8412 10.7497H19.4412C19.4412 10.0719 18.8904 9.52115 18.2126 9.52115V10.1211ZM17.584 10.7497C17.584 10.4033 17.8662 10.1211 18.2126 10.1211V9.52115C17.5348 9.52115 16.984 10.0719 16.984 10.7497H17.584ZM18.2126 11.3783C17.8662 11.3783 17.584 11.0961 17.584 10.7497H16.984C16.984 11.4275 17.5348 11.9783 18.2126 11.9783V11.3783ZM18.8412 10.7497C18.8412 11.0961 18.559 11.3783 18.2126 11.3783V11.9783C18.8904 11.9783 19.4412 11.4275 19.4412 10.7497H18.8412Z" fill="#0F969C"/>
<path fill-rule="evenodd" clip-rule="evenodd" d="M0.80188 14C0.80188 6.83189 6.63377 1 13.8019 1C20.97 1 26.8019 6.83189 26.8019 14C26.8019 21.1681 20.97 27 13.8019 27C6.63377 27 0.80188 21.1681 0.80188 14ZM1.73045 14C1.73045 20.656 7.14542 26.0714 13.8019 26.0714C20.4583 26.0714 25.8733 20.656 25.8733 14C25.8733 7.344 20.4583 1.92857 13.8019 1.92857C7.14542 1.92857 1.73045 7.344 1.73045 14Z" fill="black"/>
<path d="M13.8019 0.5C6.35763 0.5 0.30188 6.55575 0.30188 14H1.30188C1.30188 7.10804 6.90992 1.5 13.8019 1.5V0.5ZM27.3019 14C27.3019 6.55575 21.2461 0.5 13.8019 0.5V1.5C20.6938 1.5 26.3019 7.10804 26.3019 14H27.3019ZM13.8019 27.5C21.2461 27.5 27.3019 21.4442 27.3019 14H26.3019C26.3019 20.892 20.6938 26.5 13.8019 26.5V27.5ZM0.30188 14C0.30188 21.4442 6.35763 27.5 13.8019 27.5V26.5C6.90992 26.5 1.30188 20.892 1.30188 14H0.30188ZM13.8019 25.5714C7.42157 25.5714 2.23045 20.3799 2.23045 14H1.23045C1.23045 20.9321 6.86926 26.5714 13.8019 26.5714V25.5714ZM25.3733 14C25.3733 20.3799 20.1822 25.5714 13.8019 25.5714V26.5714C20.7345 26.5714 26.3733 20.9321 26.3733 14H25.3733ZM13.8019 2.42857C20.1822 2.42857 25.3733 7.62013 25.3733 14H26.3733C26.3733 7.06787 20.7345 1.42857 13.8019 1.42857V2.42857ZM2.23045 14C2.23045 7.62013 7.42157 2.42857 13.8019 2.42857V1.42857C6.86926 1.42857 1.23045 7.06787 1.23045 14H2.23045Z" fill="#0F969C"/>
<path fill-rule="evenodd" clip-rule="evenodd" d="M18.6086 18.6697L21.9431 12.0003C22.1832 11.5206 22.6187 11.172 23.1396 11.0424C23.6573 10.9134 24.2074 11.0174 24.6429 11.3294C25.0896 11.6488 25.3677 12.1456 25.4048 12.6934C25.4424 13.2413 25.2344 13.771 24.8356 14.148L19.228 19.4446C19.1388 19.5286 19.0242 19.5714 18.909 19.5714H17.9804C17.9804 18.6233 15.4868 18.1794 13.8019 18.1785C12.117 18.1794 9.6233 18.6233 9.6233 19.5714H8.69473C8.69473 17.3149 13.2791 17.2499 13.8019 17.2499C14.2434 17.2499 17.5807 17.2964 18.6086 18.6697ZM23.5802 11.9176C23.5078 11.9176 23.4344 11.926 23.3629 11.9441C23.1066 12.0072 22.8917 12.1795 22.7737 12.4153L20.4978 16.9681L24.1982 13.473C24.3946 13.2877 24.4972 13.0268 24.4786 12.757C24.46 12.4873 24.3235 12.2421 24.1034 12.0852C23.9488 11.9752 23.7659 11.9176 23.5802 11.9176Z" fill="#0F969C"/>
<path d="M21.9431 12.0003L21.6748 11.866L21.6748 11.8661L21.9431 12.0003ZM18.6086 18.6697L18.3685 18.8495L18.6596 19.2385L18.877 18.8039L18.6086 18.6697ZM23.1396 11.0424L23.212 11.3336L23.2122 11.3335L23.1396 11.0424ZM24.6429 11.3294L24.4682 11.5732L24.4684 11.5734L24.6429 11.3294ZM25.4048 12.6934L25.1055 12.7137L25.1055 12.714L25.4048 12.6934ZM24.8356 14.148L25.0416 14.3661L25.0417 14.3661L24.8356 14.148ZM19.228 19.4446L19.4338 19.6629L19.434 19.6627L19.228 19.4446ZM17.9804 19.5714H17.6804V19.8714H17.9804V19.5714ZM13.8019 18.1785L13.802 17.8785H13.8017L13.8019 18.1785ZM9.6233 19.5714V19.8714H9.9233V19.5714H9.6233ZM8.69473 19.5714H8.39473V19.8714H8.69473V19.5714ZM23.3629 11.9441L23.4347 12.2354L23.4366 12.2349L23.3629 11.9441ZM22.7737 12.4153L22.5054 12.2812L22.5054 12.2812L22.7737 12.4153ZM20.4978 16.9681L20.2295 16.834L20.7038 17.1862L20.4978 16.9681ZM24.1982 13.473L23.9923 13.2547L23.9922 13.2549L24.1982 13.473ZM24.4786 12.757L24.1793 12.7776V12.7776L24.4786 12.757ZM24.1034 12.0852L24.2776 11.841L24.2774 11.8408L24.1034 12.0852ZM21.6748 11.8661L18.3403 18.5356L18.877 18.8039L22.2115 12.1344L21.6748 11.8661ZM23.0672 10.7513C22.4613 10.902 21.9542 11.3079 21.6748 11.866L22.2114 12.1345C22.4122 11.7334 22.7761 11.442 23.212 11.3336L23.0672 10.7513ZM24.8177 11.0855C24.3104 10.7221 23.6698 10.601 23.067 10.7513L23.2122 11.3335C23.6447 11.2257 24.1044 11.3126 24.4682 11.5732L24.8177 11.0855ZM25.7042 12.6731C25.6609 12.0354 25.3368 11.4567 24.8175 11.0853L24.4684 11.5734C24.8424 11.8408 25.0745 12.2557 25.1055 12.7137L25.7042 12.6731ZM25.0417 14.3661C25.5054 13.9277 25.7479 13.3106 25.7041 12.6729L25.1055 12.714C25.137 13.172 24.9635 13.6144 24.6295 13.93L25.0417 14.3661ZM19.434 19.6627L25.0416 14.3661L24.6296 13.9299L19.022 19.2265L19.434 19.6627ZM18.909 19.8714C19.0983 19.8714 19.2873 19.801 19.4338 19.6629L19.0222 19.2263C18.9904 19.2563 18.95 19.2714 18.909 19.2714V19.8714ZM17.9804 19.8714H18.909V19.2714H17.9804V19.8714ZM13.8017 18.4785C14.6237 18.479 15.6407 18.5881 16.4434 18.809C16.8467 18.92 17.1756 19.0539 17.3971 19.2028C17.6234 19.3551 17.6804 19.4816 17.6804 19.5714H18.2804C18.2804 19.1871 18.0258 18.9026 17.7319 18.705C17.4331 18.504 17.0334 18.3491 16.6026 18.2305C15.7372 17.9923 14.6649 17.879 13.802 17.8785L13.8017 18.4785ZM9.9233 19.5714C9.9233 19.4816 9.98033 19.3551 10.2067 19.2028C10.4281 19.0539 10.7571 18.92 11.1604 18.809C11.963 18.5881 12.98 18.479 13.802 18.4785L13.8017 17.8785C12.9388 17.879 11.8666 17.9923 11.0011 18.2305C10.5704 18.3491 10.1706 18.504 9.87184 18.705C9.57799 18.9026 9.3233 19.1871 9.3233 19.5714H9.9233ZM8.69473 19.8714H9.6233V19.2714H8.69473V19.8714ZM13.8019 16.9499C13.5344 16.9499 12.2282 16.966 10.9805 17.2732C10.3583 17.4264 9.725 17.658 9.241 18.0154C8.74876 18.3789 8.39473 18.8873 8.39473 19.5714H8.99473C8.99473 19.1272 9.21375 18.7814 9.59742 18.498C9.98932 18.2086 10.5347 18.0009 11.124 17.8558C12.2992 17.5664 13.5466 17.5499 13.8019 17.5499V16.9499ZM18.8488 18.49C18.5475 18.0874 18.0925 17.8005 17.6034 17.5924C17.1113 17.3831 16.5602 17.2435 16.0385 17.1496C14.995 16.9617 14.03 16.9499 13.8019 16.9499V17.5499C14.0153 17.5499 14.9397 17.5614 15.9322 17.7401C16.4285 17.8294 16.9321 17.9589 17.3686 18.1446C17.8081 18.3315 18.1558 18.5653 18.3685 18.8495L18.8488 18.49ZM23.4366 12.2349C23.4822 12.2233 23.5306 12.2176 23.5802 12.2176V11.6176C23.4849 11.6176 23.3867 11.6286 23.2893 11.6533L23.4366 12.2349ZM23.0421 12.5495C23.1208 12.3921 23.264 12.2774 23.4347 12.2354L23.2911 11.6528C22.9493 11.737 22.6626 11.9669 22.5054 12.2812L23.0421 12.5495ZM20.7661 17.1023L23.0421 12.5495L22.5054 12.2812L20.2295 16.834L20.7661 17.1023ZM23.9922 13.2549L20.2918 16.75L20.7038 17.1862L24.4042 13.6911L23.9922 13.2549ZM24.1793 12.7776C24.1917 12.9575 24.1236 13.1309 23.9923 13.2547L24.404 13.6912C24.6655 13.4446 24.8026 13.0961 24.7779 12.7364L24.1793 12.7776ZM23.9293 12.3295C24.0759 12.434 24.1669 12.5969 24.1793 12.7776L24.7779 12.7364C24.7532 12.3777 24.5711 12.0503 24.2776 11.841L23.9293 12.3295ZM23.5802 12.2176C23.7038 12.2176 23.8259 12.2559 23.9295 12.3296L24.2774 11.8408C24.0718 11.6945 23.828 11.6176 23.5802 11.6176V12.2176Z" fill="#0F969C"/>
</svg>
