<svg width="50" height="50" viewBox="0 0 50 50" fill="none" xmlns="http://www.w3.org/2000/svg">
<circle cx="25" cy="25" r="25" fill="#FCFCFC"/>
<path fill-rule="evenodd" clip-rule="evenodd" d="M20.5891 19.8926C21.6133 19.8926 22.4462 20.7255 22.4462 21.7497C22.4462 22.7739 21.6133 23.6069 20.5891 23.6069C19.5648 23.6069 18.7319 22.7739 18.7319 21.7497C18.7319 21.5933 18.7574 21.4433 18.7941 21.298L17.2764 21.7316L17.0215 20.8388L20.2715 19.9102L20.2752 19.9241C20.3778 19.9065 20.4813 19.8926 20.5891 19.8926ZM20.5891 20.8211C20.0769 20.8211 19.6605 21.2376 19.6605 21.7497C19.6605 22.2618 20.0769 22.6783 20.5891 22.6783C21.1012 22.6783 21.5176 22.2618 21.5176 21.7497C21.5176 21.2376 21.1012 20.8211 20.5891 20.8211Z" fill="#0F969C"/>
<path d="M18.7941 21.298L19.085 21.3714L19.2125 20.8664L18.7117 21.0095L18.7941 21.298ZM17.2764 21.7316L16.9879 21.814L17.0703 22.1025L17.3588 22.0201L17.2764 21.7316ZM17.0215 20.8388L16.9391 20.5503L16.6507 20.6327L16.733 20.9211L17.0215 20.8388ZM20.2715 19.9102L20.5614 19.8329L20.4827 19.5379L20.1891 19.6218L20.2715 19.9102ZM20.2752 19.9241L19.9853 20.0014L20.0559 20.2663L20.326 20.2198L20.2752 19.9241ZM22.7462 21.7497C22.7462 20.5598 21.779 19.5926 20.5891 19.5926V20.1926C21.4476 20.1926 22.1462 20.8912 22.1462 21.7497H22.7462ZM20.5891 23.9069C21.779 23.9069 22.7462 22.9396 22.7462 21.7497H22.1462C22.1462 22.6082 21.4476 23.3069 20.5891 23.3069V23.9069ZM18.4319 21.7497C18.4319 22.9396 19.3992 23.9069 20.5891 23.9069V23.3069C19.7305 23.3069 19.0319 22.6082 19.0319 21.7497H18.4319ZM18.5032 21.2246C18.4628 21.3849 18.4319 21.5607 18.4319 21.7497H19.0319C19.0319 21.6258 19.0521 21.5017 19.085 21.3714L18.5032 21.2246ZM17.3588 22.0201L18.8765 21.5864L18.7117 21.0095L17.194 21.4432L17.3588 22.0201ZM16.733 20.9211L16.9879 21.814L17.5649 21.6493L17.31 20.7564L16.733 20.9211ZM20.1891 19.6218L16.9391 20.5503L17.1039 21.1272L20.3539 20.1987L20.1891 19.6218ZM20.5651 19.8469L20.5614 19.8329L19.9816 19.9875L19.9853 20.0014L20.5651 19.8469ZM20.5891 19.5926C20.4562 19.5926 20.3332 19.6098 20.2244 19.6285L20.326 20.2198C20.4224 20.2032 20.5065 20.1926 20.5891 20.1926V19.5926ZM19.9605 21.7497C19.9605 21.4033 20.2426 21.1211 20.5891 21.1211V20.5211C19.9113 20.5211 19.3605 21.0719 19.3605 21.7497H19.9605ZM20.5891 22.3783C20.2426 22.3783 19.9605 22.0961 19.9605 21.7497H19.3605C19.3605 22.4275 19.9113 22.9783 20.5891 22.9783V22.3783ZM21.2176 21.7497C21.2176 22.0961 20.9355 22.3783 20.5891 22.3783V22.9783C21.2668 22.9783 21.8176 22.4275 21.8176 21.7497H21.2176ZM20.5891 21.1211C20.9355 21.1211 21.2176 21.4033 21.2176 21.7497H21.8176C21.8176 21.0719 21.2668 20.5211 20.5891 20.5211V21.1211Z" fill="#0F969C"/>
<path fill-rule="evenodd" clip-rule="evenodd" d="M31.268 21.7497C31.268 22.7739 30.4351 23.6069 29.4109 23.6069C28.3866 23.6069 27.5537 22.7739 27.5537 21.7497C27.5537 20.7255 28.3866 19.8926 29.4109 19.8926C29.5186 19.8926 29.6221 19.9065 29.7247 19.9241L29.7284 19.9102L32.9784 20.8388L32.7235 21.7316L31.2058 21.298C31.2425 21.4433 31.268 21.5933 31.268 21.7497ZM30.3394 21.7497C30.3394 21.2376 29.923 20.8211 29.4109 20.8211C28.8987 20.8211 28.4823 21.2376 28.4823 21.7497C28.4823 22.2618 28.8987 22.6783 29.4109 22.6783C29.923 22.6783 30.3394 22.2618 30.3394 21.7497Z" fill="#0F969C"/>
<path d="M29.7247 19.9241L29.6739 20.2198L29.944 20.2663L30.0146 20.0014L29.7247 19.9241ZM29.7284 19.9102L29.8108 19.6218L29.5172 19.5379L29.4386 19.8329L29.7284 19.9102ZM32.9784 20.8388L33.2669 20.9211L33.3492 20.6327L33.0608 20.5503L32.9784 20.8388ZM32.7235 21.7316L32.6411 22.0201L32.9296 22.1025L33.012 21.814L32.7235 21.7316ZM31.2058 21.298L31.2882 21.0095L30.7875 20.8664L30.9149 21.3714L31.2058 21.298ZM29.4109 23.9069C30.6008 23.9069 31.568 22.9396 31.568 21.7497H30.968C30.968 22.6082 30.2694 23.3069 29.4109 23.3069V23.9069ZM27.2537 21.7497C27.2537 22.9396 28.221 23.9069 29.4109 23.9069V23.3069C28.5523 23.3069 27.8537 22.6082 27.8537 21.7497H27.2537ZM29.4109 19.5926C28.221 19.5926 27.2537 20.5598 27.2537 21.7497H27.8537C27.8537 20.8912 28.5523 20.1926 29.4109 20.1926V19.5926ZM29.7755 19.6285C29.6667 19.6098 29.5437 19.5926 29.4109 19.5926V20.1926C29.4934 20.1926 29.5775 20.2032 29.6739 20.2198L29.7755 19.6285ZM29.4386 19.8329L29.4348 19.8469L30.0146 20.0014L30.0183 19.9875L29.4386 19.8329ZM33.0608 20.5503L29.8108 19.6218L29.646 20.1987L32.896 21.1272L33.0608 20.5503ZM33.012 21.814L33.2669 20.9211L32.69 20.7564L32.4351 21.6493L33.012 21.814ZM31.1234 21.5864L32.6411 22.0201L32.8059 21.4432L31.2882 21.0095L31.1234 21.5864ZM31.568 21.7497C31.568 21.5607 31.5371 21.3849 31.4967 21.2246L30.9149 21.3714C30.9478 21.5017 30.968 21.6258 30.968 21.7497H31.568ZM29.4109 21.1211C29.7573 21.1211 30.0394 21.4033 30.0394 21.7497H30.6394C30.6394 21.0719 30.0886 20.5211 29.4109 20.5211V21.1211ZM28.7823 21.7497C28.7823 21.4033 29.0644 21.1211 29.4109 21.1211V20.5211C28.7331 20.5211 28.1823 21.0719 28.1823 21.7497H28.7823ZM29.4109 22.3783C29.0644 22.3783 28.7823 22.0961 28.7823 21.7497H28.1823C28.1823 22.4275 28.7331 22.9783 29.4109 22.9783V22.3783ZM30.0394 21.7497C30.0394 22.0961 29.7573 22.3783 29.4109 22.3783V22.9783C30.0886 22.9783 30.6394 22.4275 30.6394 21.7497H30.0394Z" fill="#0F969C"/>
<path fill-rule="evenodd" clip-rule="evenodd" d="M12 25C12 17.8319 17.8319 12 25 12C32.1681 12 38 17.8319 38 25C38 32.1681 32.1681 38 25 38C17.8319 38 12 32.1681 12 25ZM12.9286 25C12.9286 31.656 18.3435 37.0714 25 37.0714C31.6565 37.0714 37.0714 31.656 37.0714 25C37.0714 18.344 31.6565 12.9286 25 12.9286C18.3435 12.9286 12.9286 18.344 12.9286 25Z" fill="black"/>
<path d="M25 11.5C17.5558 11.5 11.5 17.5558 11.5 25H12.5C12.5 18.108 18.108 12.5 25 12.5V11.5ZM38.5 25C38.5 17.5558 32.4442 11.5 25 11.5V12.5C31.892 12.5 37.5 18.108 37.5 25H38.5ZM25 38.5C32.4442 38.5 38.5 32.4442 38.5 25H37.5C37.5 31.892 31.892 37.5 25 37.5V38.5ZM11.5 25C11.5 32.4442 17.5558 38.5 25 38.5V37.5C18.108 37.5 12.5 31.892 12.5 25H11.5ZM25 36.5714C18.6197 36.5714 13.4286 31.3799 13.4286 25H12.4286C12.4286 31.9321 18.0674 37.5714 25 37.5714V36.5714ZM36.5714 25C36.5714 31.3799 31.3803 36.5714 25 36.5714V37.5714C31.9326 37.5714 37.5714 31.9321 37.5714 25H36.5714ZM25 13.4286C31.3803 13.4286 36.5714 18.6201 36.5714 25H37.5714C37.5714 18.0679 31.9326 12.4286 25 12.4286V13.4286ZM13.4286 25C13.4286 18.6201 18.6197 13.4286 25 13.4286V12.4286C18.0674 12.4286 12.4286 18.0679 12.4286 25H13.4286Z" fill="#0F969C"/>
<path fill-rule="evenodd" clip-rule="evenodd" d="M29.807 29.6697L33.1415 23.0003C33.3815 22.5206 33.817 22.172 34.3379 22.0424C34.8556 21.9134 35.4058 22.0174 35.8413 22.3294C36.2879 22.6488 36.566 23.1456 36.6032 23.6934C36.6408 24.2413 36.4328 24.771 36.034 25.148L30.4263 30.4446C30.3372 30.5286 30.2225 30.5714 30.1074 30.5714H29.1788C29.1788 29.6233 26.6851 29.1794 25.0002 29.1785C23.3153 29.1794 20.8216 29.6233 20.8216 30.5714H19.8931C19.8931 28.3149 24.4774 28.2499 25.0002 28.2499C25.4417 28.2499 28.779 28.2964 29.807 29.6697ZM34.7785 22.9176C34.7061 22.9176 34.6327 22.926 34.5612 22.9441C34.305 23.0072 34.09 23.1795 33.9721 23.4153L31.6961 27.9681L35.3965 24.473C35.5929 24.2877 35.6955 24.0268 35.6769 23.757C35.6584 23.4873 35.5219 23.2421 35.3018 23.0852C35.1472 22.9752 34.9642 22.9176 34.7785 22.9176Z" fill="#0F969C"/>
<path d="M33.1415 23.0003L32.8732 22.866L32.8731 22.8661L33.1415 23.0003ZM29.807 29.6697L29.5668 29.8495L29.858 30.2385L30.0753 29.8039L29.807 29.6697ZM34.3379 22.0424L34.4103 22.3336L34.4105 22.3335L34.3379 22.0424ZM35.8413 22.3294L35.6666 22.5732L35.6668 22.5734L35.8413 22.3294ZM36.6032 23.6934L36.3039 23.7137L36.3039 23.714L36.6032 23.6934ZM36.034 25.148L36.24 25.3661L36.24 25.3661L36.034 25.148ZM30.4263 30.4446L30.6321 30.6629L30.6323 30.6627L30.4263 30.4446ZM29.1788 30.5714H28.8788V30.8714H29.1788V30.5714ZM25.0002 29.1785L25.0004 28.8785H25L25.0002 29.1785ZM20.8216 30.5714V30.8714H21.1216V30.5714H20.8216ZM19.8931 30.5714H19.5931V30.8714H19.8931V30.5714ZM34.5612 22.9441L34.633 23.2354L34.6349 23.2349L34.5612 22.9441ZM33.9721 23.4153L33.7037 23.2812L33.7037 23.2812L33.9721 23.4153ZM31.6961 27.9681L31.4278 27.834L31.9021 28.1862L31.6961 27.9681ZM35.3965 24.473L35.1906 24.2547L35.1905 24.2549L35.3965 24.473ZM35.6769 23.757L35.3776 23.7776V23.7776L35.6769 23.757ZM35.3018 23.0852L35.476 22.841L35.4757 22.8408L35.3018 23.0852ZM32.8731 22.8661L29.5386 29.5356L30.0753 29.8039L33.4098 23.1344L32.8731 22.8661ZM34.2655 21.7513C33.6596 21.902 33.1525 22.3079 32.8732 22.866L33.4097 23.1345C33.6105 22.7334 33.9744 22.442 34.4103 22.3336L34.2655 21.7513ZM36.016 22.0855C35.5088 21.7221 34.8682 21.601 34.2653 21.7513L34.4105 22.3335C34.843 22.2257 35.3028 22.3126 35.6666 22.5732L36.016 22.0855ZM36.9025 23.6731C36.8593 23.0354 36.5351 22.4567 36.0158 22.0853L35.6668 22.5734C36.0408 22.8408 36.2728 23.2557 36.3039 23.7137L36.9025 23.6731ZM36.24 25.3661C36.7038 24.9277 36.9462 24.3106 36.9025 23.6729L36.3039 23.714C36.3353 24.172 36.1618 24.6144 35.8279 24.93L36.24 25.3661ZM30.6323 30.6627L36.24 25.3661L35.828 24.9299L30.2203 30.2265L30.6323 30.6627ZM30.1074 30.8714C30.2967 30.8714 30.4856 30.801 30.6321 30.6629L30.2205 30.2263C30.1887 30.2563 30.1483 30.2714 30.1074 30.2714V30.8714ZM29.1788 30.8714H30.1074V30.2714H29.1788V30.8714ZM25 29.4785C25.822 29.479 26.8391 29.5881 27.6417 29.809C28.045 29.92 28.374 30.0539 28.5954 30.2028C28.8218 30.3551 28.8788 30.4816 28.8788 30.5714H29.4788C29.4788 30.1871 29.2241 29.9026 28.9302 29.705C28.6314 29.504 28.2317 29.3491 27.801 29.2305C26.9355 28.9923 25.8633 28.879 25.0004 28.8785L25 29.4785ZM21.1216 30.5714C21.1216 30.4816 21.1787 30.3551 21.405 30.2028C21.6265 30.0539 21.9554 29.92 22.3587 29.809C23.1613 29.5881 24.1784 29.479 25.0004 29.4785L25 28.8785C24.1371 28.879 23.0649 28.9923 22.1995 29.2305C21.7687 29.3491 21.369 29.504 21.0702 29.705C20.7763 29.9026 20.5216 30.1871 20.5216 30.5714H21.1216ZM19.8931 30.8714H20.8216V30.2714H19.8931V30.8714ZM25.0002 27.9499C24.7327 27.9499 23.4265 27.966 22.1789 28.2732C21.5567 28.4264 20.9233 28.658 20.4393 29.0154C19.9471 29.3789 19.5931 29.8873 19.5931 30.5714H20.1931C20.1931 30.1272 20.4121 29.7814 20.7958 29.498C21.1877 29.2086 21.7331 29.0009 22.3223 28.8558C23.4976 28.5664 24.7449 28.5499 25.0002 28.5499V27.9499ZM30.0471 29.49C29.7458 29.0874 29.2909 28.8005 28.8018 28.5924C28.3096 28.3831 27.7586 28.2435 27.2368 28.1496C26.1933 27.9617 25.2283 27.9499 25.0002 27.9499V28.5499C25.2137 28.5499 26.138 28.5614 27.1305 28.7401C27.6268 28.8294 28.1304 28.9589 28.5669 29.1446C29.0064 29.3315 29.3541 29.5653 29.5668 29.8495L30.0471 29.49ZM34.6349 23.2349C34.6805 23.2233 34.729 23.2176 34.7785 23.2176V22.6176C34.6832 22.6176 34.585 22.6286 34.4876 22.6533L34.6349 23.2349ZM34.2404 23.5495C34.3191 23.3921 34.4623 23.2774 34.633 23.2354L34.4895 22.6528C34.1476 22.737 33.8609 22.9669 33.7037 23.2812L34.2404 23.5495ZM31.9645 28.1023L34.2404 23.5495L33.7037 23.2812L31.4278 27.834L31.9645 28.1023ZM35.1905 24.2549L31.4901 27.75L31.9021 28.1862L35.6025 24.6911L35.1905 24.2549ZM35.3776 23.7776C35.39 23.9575 35.322 24.1309 35.1906 24.2547L35.6023 24.6912C35.8638 24.4446 36.001 24.0961 35.9762 23.7364L35.3776 23.7776ZM35.1276 23.3295C35.2742 23.434 35.3652 23.5969 35.3776 23.7776L35.9762 23.7364C35.9515 23.3777 35.7695 23.0503 35.476 22.841L35.1276 23.3295ZM34.7785 23.2176C34.9021 23.2176 35.0242 23.2559 35.1278 23.3296L35.4757 22.8408C35.2701 22.6945 35.0263 22.6176 34.7785 22.6176V23.2176Z" fill="#0F969C"/>
</svg>
