<svg width="207" height="214" viewBox="0 0 207 214" fill="none" xmlns="http://www.w3.org/2000/svg">
<path d="M22.0082 5.08134L22.7485 5.07417C24.187 5.04085 25.6451 5.48017 26.9038 6.32615C28.1351 7.1786 30.8027 8.43151 36.5483 10.0463C48.0336 13.2886 55.1504 12.1725 69.6127 22.6204C84.075 33.0683 97.8173 49.2785 104.12 54.3891C110.423 59.4996 115.847 62.994 134.961 70.5882C154.076 78.1824 155.916 73.9053 168.052 82.1275C180.188 90.3497 194.725 105.819 198.295 121.664C201.865 137.509 200.798 158.873 194.082 171.962C187.367 185.05 178.231 196.371 163.741 203.764C149.251 211.157 137.752 208.93 120.204 205.145C102.656 201.36 88.7367 194.511 76.8728 187.189C76.8728 187.189 58.52 176.24 45.9043 158.908C33.2885 141.577 20.607 105.051 20.607 105.051C20.607 105.051 14.896 87.3031 10.4603 78.7249C6.02466 70.1468 3.53574 57.8706 5.14966 47.2281C6.76359 36.5857 13.0686 25.6916 15.8771 21.8168C18.6857 17.9419 19.7637 9.976 19.7836 8.94089C19.8035 7.90578 22.0082 5.08134 22.0082 5.08134Z" fill="#E1B4AF"/>
<path d="M4.38678 56.5664C4.77072 64.2759 6.80258 72.3317 10.1542 78.8399C14.5251 87.2908 20.2178 104.934 20.2721 105.112C20.4076 105.484 33.1487 141.903 45.6661 159.085C58.1835 176.268 76.5757 187.357 76.7633 187.471C91.3755 196.493 105.18 202.215 120.2 205.471C138.59 209.456 149.684 211.362 163.944 204.068C176.957 197.413 186.626 187.26 194.376 172.121C200.657 159.844 202.452 138.602 198.611 121.616C195.091 105.982 180.813 90.3761 168.214 81.8497C161.416 77.2412 157.754 76.5036 152.681 75.4777C146.702 74.3588 140.793 72.6145 135.056 70.2743C116.665 62.9849 110.926 59.5589 104.284 54.1635C102.07 52.3607 98.8346 49.0973 95.1054 45.313C87.9766 38.1003 79.1101 29.1291 69.7624 22.3681C58.9782 14.5484 52.0472 13.1327 44.7351 11.6321C42.1753 11.1081 39.5301 10.5667 36.6046 9.74352C30.7203 8.08243 28.1696 6.82908 27.0662 6.06798C25.7467 5.18379 24.2201 4.72289 22.7129 4.75361L21.9469 4.76595C21.9017 4.76738 21.8582 4.77806 21.819 4.7973C21.7798 4.81653 21.7456 4.84394 21.7186 4.87789C21.4929 5.17245 19.4993 7.79935 19.4563 8.89189C19.4116 9.82145 18.3772 17.7505 15.5807 21.6064C13.1491 24.96 6.48478 36.0765 4.80115 47.1454C4.35416 50.2333 4.21538 53.3886 4.38678 56.5664ZM199.853 135.867C200.516 149.182 198.352 162.872 193.787 171.784C186.09 186.809 176.502 196.881 163.602 203.451C149.525 210.65 138.529 208.763 120.278 204.81C105.336 201.571 91.6048 195.879 77.0545 186.925C76.8672 186.818 58.6156 175.815 46.195 158.748C33.7744 141.681 21.0355 105.308 20.9085 104.976C20.8545 104.804 15.1448 87.0819 10.7463 78.5969C6.04389 69.4901 3.97052 57.2095 5.47205 47.3106C7.142 36.3583 13.7467 25.3495 16.1474 22.0269C19.0292 18.0581 20.0933 9.94156 20.1301 8.98554C20.1627 8.33557 21.3772 6.50233 22.1941 5.4239L22.7914 5.41584C24.1611 5.38083 25.5505 5.79848 26.7487 6.60541C28.4171 7.75426 31.6963 9.0259 36.4993 10.3702C39.45 11.1751 42.1098 11.7498 44.6826 12.2745C52.2308 13.82 58.7486 15.1556 69.4309 22.8852C78.7248 29.6108 87.5708 38.5614 94.6791 45.7535C98.4347 49.5457 101.671 52.8287 103.919 54.6528C110.622 60.097 116.401 63.5577 134.885 70.878C140.661 73.233 146.609 74.9902 152.628 76.1201C157.806 77.1645 161.226 77.87 167.883 82.3799C180.349 90.8473 194.487 106.257 197.971 121.693C199.007 126.395 199.637 131.138 199.853 135.867Z" fill="#E1B4AF"/>
<path d="M23.8911 4.7296C23.8911 4.7296 26.7673 10.3009 31.9046 13.0051C37.0419 15.7092 43.6349 13.7251 51.8835 15.8936C60.1321 18.062 72.0357 25.6532 83.7752 36.7354C95.5148 47.8176 104.425 60.6623 118.118 66.0851C131.81 71.5079 156.073 77.5776 170.088 86.458C184.102 95.3384 197.936 114.558 198.24 136.848C198.545 159.138 188.367 182.819 174.938 194.562C161.509 206.305 140.26 207.645 121.58 203.566C102.899 199.488 91.2338 196.418 66.0827 178.253C40.9316 160.088 26.56 117.81 23.2668 106.085C19.9737 94.3596 8.37777 75.9861 6.82684 62.3246C5.2759 48.6631 8.93431 35.8913 14.7723 28.0095C20.6103 20.1277 26.3715 17.7486 26.4202 15.3334C26.4688 12.9182 22.6957 5.77536 22.0102 5.05549C21.3246 4.33563 17.8389 2.96201 16.5708 7.11248C15.3027 11.263 17.9735 13.7542 14.1705 20.2298C10.3674 26.7055 1.90558 36.4321 3.11461 55.7519C4.32364 75.0717 9.33047 81.9397 13.6786 90.9762C18.0268 100.013 28.0572 131.827 34.7833 144.259C41.5095 156.69 48.0329 167.527 65.937 181.719C87.5837 198.92 98.8537 202.529 119.967 207.334C119.967 207.334 139.183 211.193 154.815 208.74C170.448 206.287 183.425 196.802 192.525 180.455C201.625 164.107 204.248 143.859 201.689 128.21C199.129 112.561 188.334 92.7755 171.723 82.6459C155.113 72.5163 134.036 69.4926 119.699 62.4787C105.362 55.4649 92.3761 41.0205 86.2193 34.8031C75.4239 23.8937 63.9151 15.3585 52.0452 11.5748C39.0332 7.42552 42.0535 9.23765 36.683 7.32951C31.3125 5.42137 32.3561 4.06795 29.2054 2.37939C26.0548 0.690818 23.2258 2.45979 23.8911 4.7296Z" fill="#0F969C" fill-opacity="0.39"/>
<path d="M2.73693 54.9566L2.77597 55.7407C3.80665 72.262 7.67286 79.8398 11.4095 87.1632C12.0575 88.435 12.7274 89.7536 13.3722 91.0905C15.134 94.7662 17.8199 102.126 20.9015 110.647C25.415 123.003 30.4784 137.01 34.4841 144.386C41.3946 157.127 48.0876 167.98 65.7421 181.989C87.1983 199.017 98.1872 202.722 119.919 207.664C120.114 207.674 139.373 211.509 154.884 209.076C170.71 206.594 183.825 196.763 192.8 180.651C201.275 165.451 204.802 145.341 201.993 128.2C199.592 113.523 189.139 92.9215 171.859 82.3857C162.144 76.4591 151.103 73.0182 140.424 69.6744C132.888 67.3279 125.767 65.1008 119.801 62.1842C107.202 56.0231 95.7295 44.1793 88.881 37.1178C87.9769 36.1846 87.1549 35.3338 86.4296 34.5989C74.5537 22.6038 63.0012 14.7571 52.1016 11.278C44.5428 8.87165 42.3985 8.47352 40.8375 8.17739C39.4543 7.93984 38.0851 7.55856 36.7528 7.03985C33.5913 5.91768 32.7547 5.03356 31.8503 4.0938C31.1314 3.28573 30.2744 2.61228 29.3283 2.11204C28.5466 1.64473 27.6708 1.3972 26.8025 1.39823C25.9342 1.39928 25.1092 1.64886 24.4234 2.11793C24.0263 2.40479 23.7351 2.81244 23.5866 3.28947C23.4381 3.76651 23.4389 4.29159 23.5889 4.79858L23.5918 4.85738C23.7074 5.09146 26.5856 10.5717 31.7626 13.2909C34.5849 14.7799 37.7617 14.9058 41.4439 15.0059C44.8938 14.9939 48.3746 15.3934 51.8138 16.1962C60.2728 18.4146 72.1392 26.1733 83.5517 36.9518C86.7831 40 89.8209 43.2077 92.7627 46.3126C100.608 54.5923 108.02 62.4129 118.015 66.3729C122.336 68.0897 127.746 69.8761 133.473 71.7701C146.077 75.9373 160.358 80.6543 169.917 86.6966C183.682 95.4077 197.616 114.274 197.933 136.825C198.22 158.104 188.457 182.283 174.711 194.309C162.951 204.594 143.1 207.936 121.615 203.249C102.948 199.17 91.1667 195.991 66.2514 177.994C38.4109 157.878 24.1676 108.132 23.5766 106.049C22.2571 101.34 19.6125 95.5918 16.8148 89.5097C12.7203 80.6103 8.07293 70.5221 7.15259 62.3479C5.72894 49.8074 8.7552 36.7356 15.0358 28.2186C17.4436 25.0391 20.2075 22.1595 23.2814 19.6277C25.3558 17.8391 26.7198 16.6588 26.7466 15.3698C26.7972 12.8635 23.015 5.66809 22.2265 4.83861C21.7863 4.47542 21.2799 4.20854 20.7449 4.05777C20.2099 3.90701 19.66 3.87626 19.1361 3.96775C18.1893 4.13364 16.9289 4.785 16.2526 6.99164C15.8655 8.39011 15.7566 9.87736 15.9316 11.3738C16.0465 13.6801 16.2115 16.0804 13.8817 20.0453C13.3543 20.9368 12.7286 21.9405 12.0769 22.9428C8.01136 29.2353 1.92738 38.7009 2.73693 54.9566ZM202.2 136.265C202.832 151.95 199.397 167.117 192.23 180.289C183.338 196.243 170.349 205.995 154.729 208.442C139.334 210.855 120.188 207.078 119.998 207.035C98.3849 202.127 87.4619 198.438 66.1014 181.506C48.5605 167.561 41.9105 156.789 35.0368 144.135C31.0595 136.805 25.9836 122.811 21.5047 110.496C18.4026 101.954 15.7212 94.5556 13.9395 90.8723C13.2948 89.5354 12.6174 88.1969 11.9693 86.9251C8.26855 79.6687 4.43816 72.1579 3.41433 55.7738C2.36964 39.2322 8.53375 29.6795 12.6038 23.3481C13.267 22.3138 13.9005 21.3366 14.4073 20.4246C16.8336 16.3082 16.6715 13.7061 16.5573 11.4128C16.3915 9.99218 16.4931 8.58016 16.8568 7.2511C17.32 5.72418 18.1583 4.81629 19.2794 4.62687C19.6966 4.55272 20.1343 4.57305 20.5619 4.68643C20.9896 4.79983 21.3967 5.00354 21.7549 5.28331C22.4388 5.97051 26.1171 13.0367 26.0665 15.2824C26.046 16.3045 24.7565 17.417 22.8007 19.1075C19.6931 21.6656 16.9022 24.5791 14.4757 27.7985C8.10187 36.4019 5.03783 49.6281 6.45007 62.3309C7.38896 70.6169 12.0585 80.7584 16.1686 89.7108C18.9585 95.7664 21.5888 101.488 22.8992 106.144C23.4918 108.26 37.7992 158.25 65.855 178.515C90.8914 196.596 102.726 199.798 121.491 203.887C143.167 208.623 163.216 205.233 175.113 194.819C189.203 182.517 198.833 158.677 198.534 136.883C198.229 114.058 184.103 94.9799 170.204 86.1902C160.57 80.0854 146.275 75.3481 133.599 71.1706C127.885 69.2772 122.482 67.4912 118.181 65.8081C108.339 61.9081 100.988 54.1428 93.1982 45.9246C90.2496 42.8129 87.1984 39.598 83.9533 36.536C72.4522 25.6748 60.4721 17.8515 51.9011 15.6012C48.4125 14.7799 44.881 14.3668 41.3798 14.3704C37.7874 14.249 34.6768 14.146 31.9948 12.736C27.2246 10.2269 24.3959 5.08815 24.1598 4.65229C24.0537 4.27206 24.0592 3.88016 24.1756 3.52569C24.292 3.17122 24.5142 2.86992 24.8142 2.65957C25.4048 2.26069 26.115 2.05271 26.8604 2.06024C27.6058 2.06778 28.3553 2.29052 29.0198 2.70207C29.8978 3.16087 30.6914 3.78519 31.3526 4.53714C32.271 5.4972 33.2236 6.49159 36.5439 7.67415C37.9147 8.1997 39.3205 8.59143 40.7407 8.84359C42.2815 9.12564 44.3998 9.52242 51.9387 11.9212C62.7504 15.3306 74.1817 23.0927 85.9964 35.0325C86.7214 35.761 87.5369 36.6114 88.4409 37.5446C95.3244 44.6535 106.852 56.5588 119.583 62.7789C125.576 65.6969 132.737 67.9522 140.3 70.3066C150.938 73.6288 161.94 77.0611 171.575 82.9378C188.654 93.3525 198.992 113.726 201.365 128.245C201.795 130.916 202.074 133.593 202.2 136.265Z" fill="#E1B4AF"/>
<path d="M79.4294 103.583L89.8737 109.601L98.5504 113.509C98.5504 113.509 107.71 99.9146 115.848 99.2263C123.986 98.538 127.107 101.049 133.752 105.221C140.397 109.394 155.459 118.357 155.459 118.357C155.459 118.357 163.725 110.349 164.439 109.088C165.153 107.827 165.785 104.141 167.296 103.96C168.327 103.912 169.377 104.272 170.225 104.962C170.225 104.962 172.905 106.807 173.732 108.855C174.558 110.903 176.144 114.172 176.144 114.172C178.348 113.918 180.522 113.53 182.653 113.01C185.476 112.247 186.188 110.967 187.123 113.241C188.058 115.515 186.586 119.761 186.275 120.264C185.963 120.767 184.946 125.685 182.666 128.383C180.387 131.082 177.754 131.756 175.402 135.21C173.05 138.664 171.48 141.172 169.19 143.396C167.655 144.81 165.842 145.897 163.843 146.604C163.843 146.604 157.393 147.029 153.924 145.182C150.455 143.335 148.823 141.751 147.668 141.295C145.505 140.526 143.292 139.964 141.063 139.617C139.636 139.543 137.487 139.14 137.487 139.14C137.487 139.14 139.578 146.075 140.008 151.6C140.437 157.125 140.622 159.672 140.622 159.672C140.622 159.672 145.537 176.961 142.956 185.957C140.374 194.954 133.952 200.085 121.826 200.6C109.7 201.114 101.989 197.756 86.8902 190.524C71.7917 183.292 61.0794 172.789 53.6552 165.305C46.2309 157.822 41.0034 147.927 35.8244 136.796C30.6455 125.665 29.1006 118.006 29.4026 111.707C29.7046 105.409 30.728 102.042 33.2536 98.0454C35.7792 94.049 42.2293 91.4238 52.6945 93.6918C63.1597 95.9598 79.4294 103.583 79.4294 103.583Z" fill="#F7A9A0"/>
<path d="M29.085 114.737C29.3964 121.009 31.4777 128.132 35.5268 136.836C41.0904 148.805 46.2555 158.223 53.4344 165.454C61.9689 174.053 72.2819 183.808 86.771 190.749C101.804 197.952 109.577 201.385 121.871 200.86C133.538 200.361 140.538 195.506 143.263 186.01C145.805 177.141 141.248 160.675 140.941 159.575L140.328 151.536C139.889 147.497 139.087 143.47 137.932 139.503C138.65 139.625 140.039 139.84 141.071 139.906C143.265 140.249 145.444 140.796 147.577 141.541C148.214 141.853 148.823 142.231 149.393 142.667C150.803 143.679 152.274 144.596 153.793 145.412C157.322 147.282 163.624 146.888 163.895 146.876L163.967 146.88C166.007 146.161 167.857 145.051 169.42 143.606C171.446 141.654 172.928 139.453 174.802 136.669L175.676 135.377C176.787 133.806 178.167 132.454 179.761 131.377C180.923 130.567 181.983 129.626 182.922 128.569C184.663 126.504 185.671 123.214 186.205 121.451C186.303 121.099 186.42 120.754 186.555 120.418C186.931 119.788 188.384 115.431 187.421 113.104C187.098 112.328 186.78 111.915 186.37 111.751C185.814 111.495 185.224 111.737 184.406 112.065C183.803 112.322 183.181 112.539 182.542 112.715C180.506 113.221 178.429 113.603 176.323 113.859C175.947 113.068 174.719 110.48 174.032 108.776C173.17 106.649 170.509 104.798 170.394 104.694C169.475 103.955 168.34 103.575 167.229 103.635C165.994 103.785 165.388 105.649 164.784 107.298C164.614 107.853 164.402 108.391 164.152 108.907C163.617 109.872 158.283 115.158 155.388 117.967C153.514 116.851 140.052 108.834 133.907 104.96C133.386 104.634 132.891 104.317 132.41 104.013C126.791 100.425 123.403 98.2639 115.787 98.9078C108.055 99.5653 99.639 111.343 98.4135 113.116L89.9815 109.318L79.5636 103.314C79.4044 103.234 63.1457 95.5788 52.7523 93.3275C43.4121 91.3059 36.0218 92.9804 32.9939 97.8075C30.3858 101.968 29.4006 105.454 29.1048 111.617C29.0462 112.651 29.0396 113.692 29.085 114.737ZM143.313 177.245C143.534 180.15 143.306 183.026 142.636 185.77C139.949 195.125 133.325 199.714 121.774 200.212C109.642 200.733 101.927 197.316 86.9813 190.163C71.3921 182.698 60.4121 171.629 53.8529 165.021C46.7554 157.866 41.6182 148.488 36.0916 136.612C31.4044 126.525 29.3742 118.607 29.6776 111.685C29.9728 105.64 30.9294 102.23 33.4774 98.1635C36.3736 93.5502 43.5226 91.9671 52.6091 93.9625C62.8374 96.1469 78.7371 103.609 79.2998 103.865L89.731 109.876L98.4409 113.798C98.5101 113.831 98.5858 113.839 98.6555 113.823C98.7252 113.806 98.7849 113.766 98.8247 113.708C98.9149 113.57 108.003 100.218 115.902 99.5433C123.293 98.9201 126.427 100.912 132.1 104.535L133.597 105.489C140.17 109.638 155.17 118.54 155.317 118.632C155.379 118.67 155.451 118.687 155.519 118.681C155.588 118.675 155.65 118.647 155.697 118.599C156.037 118.273 164.001 110.554 164.726 109.255C164.994 108.708 165.221 108.139 165.404 107.551C165.862 106.212 166.495 104.363 167.37 104.265C168.299 104.24 169.24 104.569 170.004 105.187C170.058 105.222 172.625 107.01 173.425 108.933C174.251 110.975 175.831 114.249 175.853 114.296C175.883 114.363 175.935 114.421 175.999 114.458C176.063 114.496 176.136 114.511 176.206 114.502C178.421 114.24 180.605 113.844 182.747 113.316C183.399 113.128 184.036 112.901 184.654 112.636C185.333 112.366 185.815 112.17 186.113 112.309C186.411 112.448 186.549 112.734 186.81 113.299C187.655 115.342 186.309 119.51 185.979 120.031C185.806 120.405 185.669 120.797 185.571 121.204C185.042 122.929 184.063 126.142 182.395 128.119C181.473 129.144 180.434 130.054 179.294 130.834C177.651 131.952 176.227 133.351 175.081 134.976L174.207 136.268C172.35 139.021 170.88 141.196 168.905 143.132C167.409 144.505 165.646 145.566 163.703 146.263C163.167 146.294 157.248 146.578 154.006 144.878C152.515 144.075 151.072 143.175 149.686 142.182C149.071 141.71 148.41 141.305 147.717 140.977C145.519 140.195 143.272 139.625 141.007 139.273C139.612 139.201 137.49 138.806 137.47 138.798C137.417 138.79 137.364 138.794 137.315 138.811C137.266 138.828 137.223 138.856 137.19 138.894C137.157 138.931 137.134 138.977 137.124 139.028C137.114 139.078 137.117 139.131 137.133 139.183C137.137 139.255 139.22 146.15 139.636 151.539C140.064 157.031 140.25 159.611 140.25 159.611L140.253 159.676C140.343 159.784 142.898 168.898 143.313 177.245Z" fill="#263238"/>
<path d="M73.0884 103.732C73.0884 103.732 78.9082 110.734 75.4661 109.933C72.0239 109.133 64.6692 102.09 64.6692 102.09C64.6692 102.09 70.1896 103.712 73.0884 103.732Z" fill="#263238"/>
<path d="M64.344 102.073C64.3451 102.117 64.3561 102.161 64.376 102.203C64.396 102.244 64.4245 102.282 64.4594 102.312C64.7587 102.607 71.9305 109.441 75.4258 110.252C76.1195 110.411 76.5739 110.311 76.7751 109.932C77.4759 108.671 74.3167 104.724 73.3329 103.544C73.2991 103.503 73.2568 103.47 73.2095 103.447C73.1623 103.424 73.1114 103.413 73.0611 103.413C70.239 103.39 64.7829 101.791 64.7304 101.775C64.6596 101.755 64.5867 101.759 64.5226 101.784C64.4586 101.81 64.4068 101.858 64.3752 101.919C64.3525 101.966 64.3418 102.018 64.344 102.073ZM76.2413 109.346C76.248 109.424 76.2339 109.499 76.2004 109.565C76.1417 109.685 75.8835 109.698 75.5105 109.614C72.8926 109.011 67.9067 104.632 65.8196 102.733C68.1704 103.41 70.5595 103.853 72.9507 104.056C74.6167 106.076 76.1984 108.481 76.2413 109.346Z" fill="#263238"/>
<path d="M75.77 105.92C75.7723 105.963 75.7832 106.006 75.802 106.046C75.8208 106.086 75.8471 106.123 75.8793 106.154C75.9618 106.244 84.4628 114.972 85.6132 118.597C85.6403 118.681 85.6985 118.755 85.7752 118.801C85.8518 118.848 85.9408 118.864 86.0228 118.847C86.064 118.838 86.1021 118.82 86.1349 118.795C86.1677 118.77 86.1946 118.739 86.214 118.702C86.2333 118.665 86.2448 118.624 86.2478 118.582C86.2507 118.539 86.245 118.495 86.2311 118.453C85.0206 114.668 76.6701 106.084 76.3134 105.72C76.2821 105.688 76.2453 105.662 76.2053 105.643C76.1652 105.625 76.1227 105.614 76.0801 105.612C76.0376 105.609 75.9959 105.616 75.9575 105.63C75.9191 105.645 75.8847 105.667 75.8565 105.696C75.8255 105.723 75.8016 105.757 75.7867 105.796C75.7717 105.834 75.766 105.877 75.77 105.92Z" fill="#263238"/>
<path d="M53.9898 96.4701C70.8199 106.413 81.2547 101.795 83.0794 101.004C84.904 100.213 86.5168 97.1238 87.7529 94.556C88.989 91.9882 91.4341 86.1802 91.3408 83.5238C91.2475 80.8674 94.003 79.9877 94.6145 78.7035C95.2261 77.4193 93.089 74.1551 91.0333 72.0026C88.9776 69.8502 88.9407 67.0208 89.477 65.2702C91.2114 60.0615 91.0769 54.2365 89.0952 48.7352C86.0676 40.1087 81.5295 32.8434 67.1111 23.8532C60.4548 19.7028 53.0613 17.9637 47.0265 17.2919C41.7718 16.6685 36.5623 17.2089 31.7702 18.8745C26.9781 20.5401 22.7217 23.2898 19.3051 26.9272C18.3276 27.9825 17.4332 29.1138 16.6289 30.3128C10.0195 40.1456 8.57927 50.0906 9.9873 60.2357C11.3953 70.3808 20.3632 82.4756 24.4587 86.0695C28.5541 89.6634 31.0188 91.9414 31.0188 91.9414C31.2916 93.6789 31.7519 95.4003 32.3916 97.0747L33.4037 99.6615" fill="#F7A9A0"/>
<path d="M9.21127 55.7338C9.28479 57.21 9.42678 58.7136 9.63725 60.2446C11.0345 70.3044 19.7477 82.3728 24.2303 86.3061C27.8361 89.4576 30.1981 91.6324 30.6881 92.0814C30.9665 93.8032 31.426 95.5088 32.0586 97.1689L33.0773 99.7561C33.1098 99.8399 33.1731 99.9105 33.2532 99.9526C33.3332 99.9946 33.4235 100.005 33.5041 99.9802C33.5847 99.9559 33.6491 99.8993 33.683 99.8229C33.717 99.7464 33.7177 99.6565 33.6851 99.5727L32.6662 96.979C32.038 95.3325 31.5856 93.6399 31.3171 91.9316C31.3056 91.8491 31.2647 91.7705 31.2022 91.7107C31.2022 91.7107 28.6898 89.3847 24.6354 85.832C20.3433 82.0715 11.6415 69.9711 10.2855 60.2197C8.74566 49.1232 10.8986 39.4042 16.8791 30.5094C17.6793 29.3259 18.5654 28.2074 19.5312 27.1618C22.9109 23.5558 27.1261 20.8319 31.8734 19.1859C36.6206 17.54 41.7818 17.013 46.9855 17.643C54.6466 18.4969 61.3543 20.6825 66.9178 24.1507C80.994 32.9211 85.6906 40.1098 88.7495 48.8422C90.6819 54.2053 90.8321 59.8828 89.1762 64.9754L89.1208 65.168C88.5653 67.0545 88.6296 70.0416 90.7722 72.2441C92.9148 74.4467 94.8129 77.4769 94.3332 78.54C94.0337 79.0003 93.654 79.3989 93.2099 79.7194C92.2064 80.5664 90.9662 81.616 91.0283 83.515C91.117 86.0799 88.7435 91.7613 87.4723 94.4054C86.2011 97.0496 84.613 99.9834 82.9352 100.724C79.2937 102.333 69.2023 105.105 54.1327 96.2112C54.0555 96.165 53.9661 96.1497 53.8843 96.1687C53.8024 96.1876 53.7348 96.2393 53.6961 96.3123C53.6773 96.349 53.6664 96.3897 53.6639 96.4323C53.6614 96.4748 53.6674 96.5183 53.6816 96.5602C53.6958 96.6021 53.7178 96.6416 53.7464 96.6764C53.775 96.7113 53.8097 96.7408 53.8484 96.7633C69.1732 105.827 79.4878 102.968 83.238 101.326C85.0744 100.509 86.635 97.678 88.0541 94.7419C89.3423 92.0465 91.762 86.2502 91.6674 83.5677C91.5877 81.9675 92.6921 81.0606 93.6458 80.2567C94.1546 79.8887 94.5846 79.4257 94.9157 78.8895C95.6812 77.307 93.0604 73.7181 91.2323 71.8315C89.4042 69.945 89.2399 67.1677 89.7642 65.436L89.8261 65.2437C91.5184 60.0195 91.3611 54.1981 89.3788 48.699C86.2731 39.8079 81.4866 32.5102 67.2425 23.6269C61.5839 20.0756 54.7782 17.8784 47.006 17.0121C41.7045 16.369 36.446 16.9048 31.6092 18.5811C26.7724 20.2573 22.4777 23.0322 19.0344 26.706C18.0462 27.7733 17.1417 28.9171 16.3276 30.129C11.0836 37.9024 8.74254 46.3217 9.21127 55.7338Z" fill="#263238"/>
<path d="M52.4272 99.9322C52.4279 99.9968 52.4492 100.062 52.488 100.117C52.5268 100.173 52.5811 100.216 52.643 100.242C53.3725 100.571 54.0828 100.95 54.7684 101.376C54.8456 101.423 54.935 101.439 55.0175 101.422C55.1 101.404 55.1691 101.354 55.21 101.282C55.2301 101.247 55.2425 101.207 55.2464 101.165C55.2503 101.123 55.2456 101.08 55.2327 101.038C55.2198 100.996 55.1988 100.957 55.1711 100.922C55.1434 100.887 55.1095 100.857 55.0714 100.834C54.3562 100.395 53.6173 100.001 52.8597 99.6562C52.778 99.6195 52.6884 99.615 52.61 99.6436C52.5317 99.6723 52.4708 99.7319 52.4405 99.8096C52.4297 99.8489 52.4252 99.8902 52.4272 99.9322Z" fill="#263238"/>
<path d="M35.109 98.3664C35.1036 98.3935 35.1049 98.4222 35.113 98.4499C35.1254 98.4914 35.1457 98.5308 35.1727 98.5659C35.1996 98.6009 35.2328 98.631 35.2702 98.6543C35.3076 98.6776 35.3485 98.6936 35.3906 98.7016C35.4327 98.7095 35.4751 98.7092 35.5155 98.7006C35.5861 98.7041 42.6822 97.1326 49.6787 99.1201C49.7622 99.1435 49.8483 99.1336 49.9184 99.0926C49.9884 99.0517 50.0366 98.9829 50.0525 98.9014C50.061 98.8606 50.0612 98.8176 50.0529 98.7751C50.0446 98.7326 50.028 98.6914 50.0042 98.6538C49.9803 98.6162 49.9497 98.583 49.914 98.5562C49.8783 98.5294 49.8383 98.5096 49.7964 98.4977C42.6574 96.4776 35.3887 98.0533 35.319 98.0691C35.2539 98.0855 35.1981 98.1235 35.1602 98.1772C35.1223 98.2309 35.1043 98.2974 35.109 98.3664Z" fill="#263238"/>
<path d="M38.0569 75.7823C38.0745 76.2199 38.1224 76.6588 38.2004 77.0959C38.7038 80.0685 40.3214 82.8464 42.7139 84.8467C46.8225 88.1227 49.2888 89.4066 51.5164 89.4242C52.2491 89.4107 52.9405 89.1829 53.5069 88.7683C54.0733 88.3538 54.4904 87.7704 54.7077 87.0887C54.7241 87.0104 54.7098 86.9257 54.6677 86.8515C54.6255 86.7773 54.5587 86.7188 54.4803 86.6877C54.4019 86.6566 54.3176 86.655 54.2441 86.6833C54.1707 86.7117 54.1133 86.7678 54.0834 86.8407C53.9004 87.4006 53.5553 87.8796 53.0889 88.2211C52.6224 88.5626 52.0542 88.7523 51.4512 88.7678C49.3996 88.7527 47.0526 87.5142 43.0863 84.3501C40.8279 82.4678 39.2979 79.8516 38.8166 77.0495C38.6013 75.9133 38.6123 74.7683 38.8491 73.6824C39.0858 72.5964 39.5435 71.5917 40.1949 70.7277C43.357 66.6274 50.3977 70.6041 50.463 70.6075C50.5017 70.6302 50.5438 70.6454 50.5868 70.6523C50.6297 70.6591 50.6728 70.6575 50.7134 70.6475C50.7541 70.6374 50.7915 70.6192 50.8236 70.5938C50.8557 70.5684 50.8818 70.5364 50.9004 70.4996C50.9366 70.4249 50.9409 70.3361 50.9124 70.2518C50.8839 70.1674 50.8249 70.0942 50.7477 70.0476C50.6674 70.0042 43.1433 65.7347 39.69 70.2639C38.5086 71.7958 37.9321 73.744 38.0569 75.7823Z" fill="#263238"/>
<path d="M40.3297 76.3721C40.5414 80.6308 45.3922 84.1041 45.453 84.1464C45.4892 84.1729 45.5296 84.1923 45.5718 84.2036C45.6141 84.2148 45.6573 84.2176 45.6989 84.2119C45.7405 84.2061 45.7797 84.1919 45.8142 84.17C45.8486 84.1482 45.8776 84.1191 45.8995 84.0846C45.9225 84.0503 45.9379 84.011 45.9449 83.9691C45.9519 83.9271 45.9504 83.8834 45.9404 83.8403C45.9303 83.7972 45.9121 83.7557 45.8865 83.7181C45.861 83.6806 45.8288 83.6478 45.7918 83.6216C45.7245 83.5789 39.001 78.7407 41.5699 73.7963C42.2363 72.5238 43.1078 71.8371 44.1543 71.7868C46.4485 71.6705 48.9487 74.5187 48.97 74.5525C49.031 74.6205 49.1138 74.6645 49.2008 74.6751C49.2877 74.6858 49.3719 74.6621 49.4354 74.6093C49.4667 74.5834 49.4918 74.5508 49.5092 74.5136C49.5267 74.4764 49.5362 74.4353 49.5371 74.3928C49.538 74.3502 49.5304 74.307 49.5146 74.2657C49.4988 74.2244 49.4752 74.1859 49.4453 74.1524C49.3346 74.0225 46.6821 70.9965 44.0826 71.1296C42.7826 71.1929 41.7788 71.9708 41.0117 73.4471C40.5284 74.3203 40.2934 75.3282 40.3297 76.3721Z" fill="#263238"/>
<path d="M47.5885 81.4241C47.5922 81.4806 47.6097 81.5367 47.6396 81.5874C47.6695 81.6381 47.7107 81.6818 47.7596 81.7146C48.0075 81.8724 48.2679 82.0066 48.5372 82.1151C50.9556 83.0719 51.5862 82.0891 51.6524 81.9747C51.684 81.9154 51.6948 81.8456 51.6831 81.7755C51.6714 81.7053 51.6378 81.6385 51.5873 81.5848C51.0558 81.0072 49.6962 79.2732 49.7722 78.1701C49.7847 78.0056 49.8347 77.8498 49.9186 77.7146C50.0024 77.5794 50.1178 77.4682 50.2561 77.3894C50.2939 77.3688 50.3255 77.3391 50.3487 77.3029C50.3718 77.2666 50.3857 77.2246 50.3894 77.1802C50.3959 77.1362 50.3929 77.0903 50.3805 77.0457C50.3682 77.001 50.3468 76.9585 50.3178 76.921C49.68 76.1146 48.8889 75.4392 47.9989 74.941C47.9586 74.9218 47.9156 74.9107 47.8726 74.9082C47.8296 74.9056 47.7874 74.9118 47.7485 74.9263C47.7096 74.9408 47.6749 74.9633 47.6463 74.9925C47.6177 75.0217 47.5958 75.057 47.582 75.0963C47.5669 75.135 47.5601 75.1771 47.5619 75.2202C47.5638 75.2633 47.5742 75.3065 47.5927 75.3472C47.6112 75.3878 47.6373 75.4252 47.6694 75.457C47.7016 75.4888 47.7392 75.5144 47.78 75.5323C48.468 75.9162 49.0862 76.4269 49.5984 77.0345C49.3141 77.2934 49.1441 77.657 49.12 78.0578C49.0213 79.3628 50.3482 81.0951 50.8961 81.7391C50.6354 81.8828 50.0083 82.0142 48.7227 81.5089C48.4895 81.4198 48.2646 81.3048 48.0525 81.1665C48.001 81.1356 47.9437 81.1178 47.8862 81.1149C47.8287 81.112 47.7729 81.124 47.7243 81.1498C47.6756 81.1757 47.6357 81.2144 47.6085 81.2623C47.5813 81.3101 47.5676 81.3655 47.5688 81.4231L47.5885 81.4241Z" fill="#263238"/>
<path d="M78.6245 72.0966C78.6285 72.1562 78.6488 72.2152 78.6832 72.2671C78.7176 72.319 78.7647 72.3618 78.8194 72.3907C82.3728 74.3034 84.6108 71.4666 84.635 71.4355C84.6597 71.4033 84.6772 71.3658 84.6867 71.3253C84.6961 71.2848 84.6973 71.242 84.6901 71.1993C84.6829 71.1567 84.6676 71.115 84.6448 71.0767C84.6221 71.0385 84.5925 71.0043 84.5577 70.9763C84.5229 70.9482 84.4836 70.9267 84.4421 70.9131C84.4005 70.8995 84.3574 70.894 84.3154 70.897C84.2734 70.8999 84.2332 70.9113 84.1971 70.9303C84.161 70.9493 84.1297 70.9757 84.1051 71.008C83.5454 71.7174 82.7384 72.1862 81.8199 72.3357C80.9015 72.4851 79.9276 72.306 79.0623 71.8284C78.9842 71.7861 78.8955 71.775 78.8158 71.7975C78.736 71.8201 78.6716 71.8744 78.6366 71.9487C78.6207 71.9951 78.6165 72.0458 78.6245 72.0966Z" fill="#263238"/>
<path d="M77.3841 68.0058C77.3877 68.0727 77.4111 68.1391 77.4513 68.1963C77.5052 68.2681 77.5828 68.3188 77.6679 68.3376C77.7529 68.3563 77.8386 68.3418 77.9068 68.2969C80.7736 66.3854 82.5686 66.3737 83.5628 66.7018C83.8767 66.7981 84.174 66.9559 84.4366 67.1656C84.6991 67.3753 84.9214 67.6324 85.0898 67.9213C85.1079 67.961 85.1334 67.9975 85.1648 68.0287C85.1962 68.0598 85.2328 68.0849 85.2727 68.1026C85.3125 68.1202 85.3546 68.13 85.3967 68.1314C85.4387 68.1329 85.4797 68.1258 85.5174 68.1108C85.5556 68.0959 85.5898 68.0732 85.6179 68.0441C85.646 68.015 85.6675 67.98 85.6811 67.9412C85.6948 67.9023 85.7003 67.8603 85.6974 67.8176C85.6945 67.775 85.6832 67.7325 85.6642 67.6926C85.4565 67.3136 85.1753 66.975 84.8391 66.6989C84.5029 66.4228 84.1193 66.2154 83.7131 66.0902C82.0584 65.5479 79.9748 66.1061 77.5131 67.748C77.4712 67.7751 77.4376 67.8127 77.4151 67.8577C77.3926 67.9026 77.382 67.9534 77.3841 68.0058Z" fill="#263238"/>
<path d="M85.6277 89.3282C85.6308 89.3854 85.6493 89.4422 85.6812 89.4927C85.7131 89.5431 85.7573 89.5853 85.809 89.6147C86.2667 89.8846 86.77 90.0512 87.28 90.1018C87.79 90.1523 88.2931 90.0855 88.7506 89.9063C88.7878 89.8896 88.8207 89.8654 88.8473 89.8349C88.8738 89.8045 88.8936 89.7685 88.9054 89.7289C88.9172 89.6894 88.9209 89.6471 88.9161 89.6045C88.9114 89.5619 88.8983 89.5199 88.8778 89.4807C88.858 89.4418 88.831 89.4064 88.7984 89.3767C88.7659 89.347 88.7283 89.3236 88.688 89.3077C88.6477 89.2919 88.6055 89.2839 88.5637 89.2844C88.522 89.2848 88.4815 89.2937 88.4448 89.3104C88.0785 89.4489 87.6774 89.4997 87.2712 89.4589C86.865 89.4181 86.464 89.2869 86.0979 89.0748C86.0606 89.0511 86.0196 89.0347 85.9774 89.0266C85.9352 89.0185 85.8927 89.0188 85.8523 89.0276C85.8119 89.0364 85.7746 89.0534 85.7424 89.0777C85.7102 89.1019 85.6839 89.1329 85.665 89.1689C85.6397 89.2169 85.6269 89.2716 85.6277 89.3282Z" fill="#263238"/>
<path d="M86.8155 81.3445C86.8176 81.4261 86.8517 81.5069 86.9105 81.5694C87.1119 81.799 87.3563 81.9871 87.6269 82.1205C87.8975 82.254 88.188 82.3297 88.4783 82.3426C89.6689 82.4039 90.7112 81.4221 90.9999 81.1263C91.7142 80.9454 92.3598 80.5954 92.8857 80.1039C92.9176 80.0791 92.9436 80.0477 92.9621 80.0114C92.9806 79.9751 92.9913 79.9346 92.9934 79.8925C92.9956 79.8503 92.9891 79.8073 92.9746 79.766C92.96 79.7247 92.9375 79.686 92.9085 79.652C92.851 79.5834 92.7709 79.5376 92.6856 79.5248C92.6004 79.5119 92.5169 79.5329 92.4533 79.5833C91.9963 80.0351 91.4183 80.3486 90.775 80.4935C90.694 80.4968 90.6199 80.5298 90.5666 80.5863C90.5666 80.5863 89.5201 81.7426 88.4333 81.6931C88.2328 81.6839 88.0323 81.6307 87.8459 81.5373C87.6595 81.4438 87.4918 81.3124 87.3546 81.1522C87.3236 81.1205 87.2872 81.0947 87.2475 81.0763C87.2078 81.0579 87.1656 81.0473 87.1234 81.0451C87.0812 81.043 87.0399 81.0492 87.0018 81.0636C86.9637 81.078 86.9297 81.1002 86.9016 81.1289C86.8731 81.1558 86.8507 81.1887 86.8359 81.2257C86.8211 81.2628 86.8142 81.3031 86.8155 81.3445Z" fill="#263238"/>
<path d="M116.815 90.9376C116.815 90.9376 121.268 93.0767 122.619 95.5094C123.97 97.9422 124.738 103.568 123.829 103.975L122.925 104.375C122.925 104.375 122.821 105.978 121.53 106.358C120.837 106.578 120.1 106.672 119.35 106.633L119.04 107.648" fill="#F7A9A0"/>
<path d="M116.489 90.9223C116.492 90.9863 116.514 91.0498 116.552 91.1052C116.589 91.1606 116.641 91.2057 116.7 91.235C116.746 91.2374 121.059 93.3491 122.331 95.6522C123.765 98.1868 124.21 103.361 123.669 103.668L122.766 104.068C122.716 104.088 122.675 104.122 122.645 104.165C122.615 104.208 122.597 104.26 122.595 104.315C122.595 104.315 122.487 105.72 121.41 106.032C120.756 106.24 120.062 106.331 119.354 106.301C119.283 106.295 119.214 106.311 119.157 106.348C119.1 106.386 119.058 106.441 119.037 106.508L118.727 107.522C118.704 107.604 118.714 107.694 118.756 107.775C118.798 107.855 118.868 107.92 118.952 107.954C119.035 107.985 119.124 107.984 119.199 107.949C119.275 107.915 119.331 107.851 119.355 107.771L119.603 106.97C120.306 106.969 120.995 106.867 121.65 106.668C122.083 106.508 122.456 106.234 122.733 105.873C123.01 105.511 123.182 105.074 123.231 104.604L123.987 104.275C124.102 104.209 124.199 104.119 124.274 104.01C124.349 103.901 124.398 103.775 124.42 103.641C124.856 102.134 124.122 97.5883 122.899 95.3533C121.505 92.847 117.12 90.7119 116.932 90.6235C116.892 90.6042 116.849 90.5927 116.807 90.5898C116.764 90.5868 116.722 90.5925 116.683 90.6064C116.644 90.6202 116.609 90.6421 116.58 90.6707C116.551 90.6992 116.528 90.7339 116.514 90.7726C116.492 90.8181 116.484 90.8697 116.489 90.9223Z" fill="#263238"/>
<path d="M117.544 101.38C117.547 101.435 117.563 101.49 117.592 101.54C118.409 102.95 119.07 106.686 119.079 106.719C119.086 106.763 119.101 106.805 119.124 106.845C119.147 106.884 119.178 106.919 119.213 106.948C119.249 106.976 119.289 106.998 119.332 107.012C119.374 107.026 119.418 107.031 119.461 107.028C119.545 107.018 119.619 106.975 119.668 106.91C119.717 106.844 119.738 106.759 119.726 106.673C119.718 106.515 119.036 102.771 118.148 101.253C118.102 101.175 118.028 101.115 117.944 101.086C117.859 101.057 117.77 101.062 117.695 101.098C117.646 101.126 117.607 101.166 117.581 101.216C117.555 101.265 117.542 101.322 117.544 101.38Z" fill="#263238"/>
<path d="M120.982 96.6298C120.985 96.6871 121.001 96.7443 121.029 96.7969C122.946 99.9843 122.557 104.281 122.552 104.326C122.548 104.37 122.553 104.414 122.566 104.457C122.579 104.5 122.6 104.54 122.628 104.577C122.685 104.65 122.766 104.701 122.854 104.717C122.942 104.734 123.03 104.715 123.098 104.666C123.165 104.616 123.208 104.539 123.216 104.452C123.207 104.267 123.652 99.8948 121.593 96.496C121.547 96.4177 121.473 96.3582 121.388 96.3304C121.302 96.3026 121.213 96.3089 121.139 96.3478C121.089 96.3743 121.048 96.4142 121.02 96.4637C120.993 96.5132 120.979 96.5705 120.982 96.6298Z" fill="#263238"/>
<path d="M112.936 103.569L112.941 103.668L113.805 106.061C113.835 106.149 113.898 106.226 113.98 106.273C114.063 106.32 114.157 106.334 114.242 106.313C114.328 106.291 114.398 106.235 114.437 106.157C114.476 106.079 114.481 105.986 114.451 105.897L113.587 103.505C113.57 103.417 113.519 103.336 113.445 103.28C113.372 103.224 113.282 103.197 113.196 103.206C113.11 103.214 113.034 103.257 112.985 103.326C112.936 103.394 112.919 103.482 112.936 103.569Z" fill="#263238"/>
<path d="M110.622 106.526C110.622 106.526 113.952 105.729 118.961 107.826C123.969 109.923 142.788 118.979 146.172 119.692C149.557 120.405 152.163 120.692 152.163 120.692L154.718 118.244" fill="#F7A9A0"/>
<path d="M110.294 106.506L110.298 106.597C110.328 106.68 110.387 106.751 110.463 106.795C110.54 106.84 110.628 106.855 110.709 106.837C110.741 106.839 114.01 106.089 118.849 108.121C120.478 108.809 123.57 110.23 127.148 111.868C134.57 115.281 143.813 119.522 146.126 120.013C149.479 120.719 152.124 121.014 152.15 121.015C152.195 121.021 152.24 121.017 152.281 121.004C152.323 120.99 152.36 120.968 152.39 120.937L154.946 118.489C154.975 118.461 154.997 118.426 155.012 118.388C155.026 118.349 155.033 118.307 155.031 118.265C155.029 118.222 155.018 118.179 155 118.139C154.982 118.099 154.956 118.062 154.924 118.03C154.86 117.968 154.776 117.93 154.691 117.926C154.605 117.922 154.525 117.951 154.466 118.007L152.01 120.39C151.421 120.321 149.079 120.021 146.174 119.41C143.932 118.935 134.735 114.71 127.34 111.317C123.761 109.672 120.663 108.252 119.021 107.562C113.965 105.436 110.594 106.199 110.474 106.238C110.42 106.259 110.374 106.295 110.342 106.342C110.31 106.39 110.294 106.447 110.294 106.506Z" fill="#263238"/>
<path d="M115.544 129.983C115.548 130.033 115.563 130.082 115.59 130.127C116.925 132.613 119.226 135.886 122.607 137.371C125.945 138.813 129.519 139.362 132.956 138.962C133.335 138.916 133.72 138.899 134.107 138.912C134.84 138.991 135.57 138.972 136.277 138.855C136.318 138.847 136.356 138.83 136.389 138.806C136.421 138.782 136.448 138.752 136.468 138.716C136.488 138.68 136.5 138.64 136.504 138.599C136.508 138.557 136.503 138.513 136.491 138.472C136.464 138.388 136.406 138.315 136.331 138.267C136.255 138.22 136.167 138.202 136.085 138.218C135.437 138.32 134.77 138.336 134.101 138.265C133.668 138.247 133.238 138.262 132.814 138.309C129.494 138.693 126.043 138.166 122.816 136.781C119.627 135.383 117.435 132.245 116.151 129.865C116.131 129.826 116.103 129.79 116.069 129.76C116.036 129.731 115.998 129.707 115.957 129.692C115.916 129.677 115.873 129.669 115.83 129.671C115.788 129.672 115.748 129.682 115.711 129.7C115.657 129.724 115.613 129.763 115.584 129.813C115.554 129.863 115.54 129.922 115.544 129.983Z" fill="#263238"/>
<path d="M114.147 126.365C114.142 126.395 114.144 126.427 114.151 126.457C114.151 126.457 114.321 126.984 114.662 127.794C114.698 127.875 114.762 127.942 114.842 127.982C114.922 128.021 115.011 128.03 115.09 128.006C115.13 127.992 115.166 127.971 115.196 127.943C115.226 127.915 115.25 127.88 115.265 127.842C115.281 127.803 115.289 127.76 115.287 127.717C115.286 127.674 115.277 127.63 115.259 127.589C114.933 126.812 114.771 126.313 114.771 126.313C114.758 126.27 114.736 126.23 114.708 126.194C114.68 126.158 114.645 126.128 114.606 126.104C114.567 126.081 114.525 126.065 114.482 126.058C114.438 126.051 114.395 126.052 114.354 126.062C114.289 126.08 114.233 126.119 114.196 126.174C114.159 126.228 114.141 126.296 114.147 126.365Z" fill="#263238"/>
<path d="M138.294 156.053L138.298 156.132C138.529 156.846 138.709 157.571 138.837 158.301C138.843 158.344 138.858 158.387 138.88 158.427C138.902 158.466 138.932 158.501 138.967 158.531C139.002 158.56 139.041 158.583 139.084 158.597C139.126 158.612 139.17 158.618 139.213 158.616C139.256 158.614 139.297 158.603 139.334 158.585C139.372 158.566 139.404 158.54 139.43 158.508C139.456 158.476 139.474 158.438 139.485 158.397C139.495 158.356 139.497 158.312 139.49 158.269C139.355 157.505 139.167 156.747 138.927 156C138.911 155.912 138.862 155.831 138.789 155.773C138.717 155.716 138.628 155.688 138.541 155.695C138.455 155.701 138.378 155.743 138.328 155.81C138.278 155.877 138.258 155.964 138.274 156.052L138.294 156.053Z" fill="#263238"/>
<path d="M131.096 138.98C131.088 139.022 131.09 139.067 131.102 139.111C131.153 139.206 135.77 148.54 137.919 154.558C137.931 154.603 137.952 154.646 137.981 154.684C138.01 154.722 138.046 154.755 138.086 154.779C138.127 154.804 138.171 154.821 138.217 154.828C138.262 154.835 138.308 154.833 138.35 154.822C138.393 154.81 138.432 154.789 138.465 154.761C138.497 154.733 138.523 154.697 138.54 154.657C138.558 154.617 138.566 154.572 138.564 154.527C138.563 154.481 138.553 154.435 138.533 154.392C136.373 148.289 131.729 138.946 131.685 138.846C131.644 138.766 131.575 138.702 131.493 138.667C131.411 138.632 131.322 138.629 131.244 138.659C131.188 138.688 131.145 138.734 131.118 138.792C131.092 138.849 131.084 138.914 131.096 138.98Z" fill="#263238"/>
<path d="M108.363 170.176C108.364 170.237 108.385 170.298 108.423 170.349C108.938 171.127 109.484 171.9 110.054 172.635C110.111 172.706 110.191 172.755 110.277 172.77C110.363 172.786 110.448 172.767 110.514 172.717C110.58 172.668 110.62 172.593 110.628 172.508C110.636 172.423 110.611 172.335 110.557 172.262C110 171.541 109.461 170.795 108.955 170.031C108.931 169.992 108.9 169.958 108.864 169.931C108.827 169.903 108.787 169.883 108.744 169.871C108.702 169.859 108.658 169.856 108.616 169.861C108.574 169.866 108.534 169.881 108.499 169.902C108.454 169.931 108.418 169.97 108.394 170.018C108.37 170.066 108.36 170.12 108.363 170.176Z" fill="#263238"/>
<path d="M100.922 145.88C101.061 148.726 101.889 158.341 106.846 167.394C106.89 167.473 106.961 167.536 107.045 167.567C107.129 167.599 107.219 167.596 107.295 167.561C107.371 167.524 107.427 167.457 107.45 167.375C107.473 167.292 107.461 167.2 107.418 167.119C101.645 156.556 101.554 145.214 101.554 145.082C101.554 144.995 101.52 144.907 101.458 144.839C101.396 144.771 101.312 144.728 101.224 144.719C101.137 144.711 101.053 144.737 100.991 144.792C100.929 144.848 100.894 144.928 100.893 145.015C100.893 145.015 100.897 145.352 100.922 145.88Z" fill="#263238"/>
<path d="M117.696 92.3021C117.696 92.3021 120.44 95.1156 120.211 98.4932C119.982 101.871 117.156 98.9878 117.156 98.9878C117.156 98.9878 116.17 100.889 115.053 100.57C113.937 100.251 113.045 97.2463 113.448 94.485C113.851 91.7238 116.506 91.2934 117.696 92.3021Z" fill="#F7A9A0"/>
<path d="M113.046 96.449C113.155 98.6421 113.942 100.59 114.998 100.886C116.054 101.182 116.912 100.11 117.274 99.5284C117.777 99.9594 118.763 100.67 119.571 100.425C120.154 100.239 120.487 99.6103 120.552 98.5493C120.762 95.0539 118.049 92.2099 117.932 92.0928C117.557 91.8042 117.124 91.6108 116.674 91.5313C116.224 91.4519 115.773 91.4892 115.365 91.6396C114.767 91.8456 114.249 92.212 113.865 92.702C113.48 93.192 113.242 93.7884 113.173 94.4315C113.064 95.0915 113.022 95.7673 113.046 96.449ZM119.923 97.8115C119.933 98.0144 119.943 98.2305 119.923 98.4645C119.891 99.0113 119.762 99.6837 119.339 99.8119C118.755 99.9905 117.723 99.1338 117.414 98.8175C117.376 98.7801 117.33 98.7511 117.281 98.7327C117.231 98.7143 117.179 98.707 117.129 98.7112C117.08 98.7147 117.034 98.7304 116.994 98.7568C116.955 98.7832 116.923 98.8195 116.902 98.8627C116.676 99.295 115.857 100.48 115.124 100.279C114.391 100.077 113.377 97.3543 113.806 94.5884C113.859 94.0555 114.052 93.56 114.366 93.1514C114.68 92.7427 115.105 92.435 115.597 92.2589C115.901 92.149 116.236 92.1185 116.571 92.17C116.906 92.2215 117.231 92.3536 117.519 92.5546C117.684 92.7329 119.784 95.0227 119.923 97.8115Z" fill="#263238"/>
<path d="M55.2218 107.763C55.2218 107.763 61.8838 109.412 65.6957 113.695C69.5075 117.979 74.8008 123.446 76.9615 125.096C79.1222 126.746 81.4617 128.464 81.4617 128.464C81.4617 128.464 86.6751 116.544 88.4773 112.82C90.2794 109.096 92.1302 102.175 93.255 99.8485C94.3798 97.5223 94.3321 93.956 95.8467 91.2396C97.3613 88.5231 100.592 86.4757 102.281 86.3615C103.971 86.2473 104.362 87.1863 104.362 87.1863C104.362 87.1863 105.997 86.7695 108.814 87.8866L112.975 89.5361C114.035 89.7857 115.075 90.1523 116.076 90.6289C116.565 90.8587 117.01 91.1838 117.385 91.5836C117.759 91.9833 118.054 92.4489 118.25 92.9505C118.25 92.9505 116.453 94.8118 116.407 96.764C116.254 99.4757 115.339 102.012 113.765 104.087C112.372 105.69 110.787 107.111 109.039 108.324C107.652 113.673 106.754 119.184 106.358 124.792C105.915 132.985 101.544 147.346 96.8848 152.258C92.2253 157.169 85.7481 157.276 79.9965 154.996C74.2449 152.717 60.4174 141.789 58.7272 140.587C57.0369 139.385 50.2254 136.953 50.2254 136.953" fill="#F7A9A0"/>
<path d="M49.9037 136.863C49.9068 136.933 49.9321 137.002 49.9759 137.061C50.0197 137.119 50.0798 137.164 50.1473 137.188C50.2124 137.192 56.9262 139.619 58.5558 140.779C58.8384 140.976 59.4593 141.444 60.3167 142.095C64.7319 145.452 75.0665 153.285 79.9048 155.224C86.6436 157.894 92.9258 156.871 97.1339 152.418C101.744 147.55 106.235 133.143 106.682 124.768C107.079 119.219 107.966 113.764 109.333 108.468C111.073 107.258 112.65 105.838 114.032 104.236C115.645 102.111 116.582 99.5121 116.738 96.7341C116.777 94.9249 118.476 93.1628 118.508 93.1449C118.547 93.1075 118.574 93.0589 118.586 93.0044C118.598 92.9499 118.595 92.8916 118.577 92.8357C118.365 92.2861 118.046 91.7754 117.638 91.3368C117.23 90.8981 116.743 90.5412 116.209 90.2891C115.183 89.799 114.116 89.4244 113.029 89.1726L108.927 87.5392C107.508 86.9179 105.99 86.6552 104.517 86.7759C104.247 86.4296 103.603 85.8814 102.245 86.0064C100.342 86.1551 97.0868 88.3446 95.5778 91.0417C94.8128 92.5967 94.2841 94.2759 94.0074 96.029C93.803 97.2891 93.4563 98.5079 92.9737 99.663C92.4797 100.699 91.8584 102.57 91.1475 104.728C90.3159 107.43 89.3328 110.07 88.2025 112.635C86.5824 115.971 82.191 126.005 81.3267 127.953C80.6052 127.421 78.818 126.097 77.157 124.831C75.01 123.195 69.6552 117.665 65.9456 113.479C62.0993 109.155 55.5604 107.499 55.2517 107.431C55.2097 107.419 55.1666 107.416 55.125 107.422C55.0835 107.428 55.0445 107.442 55.0103 107.464C54.9761 107.486 54.9475 107.515 54.9262 107.55C54.905 107.585 54.8915 107.624 54.8867 107.666C54.8802 107.708 54.8821 107.751 54.8924 107.794C54.9026 107.836 54.9209 107.877 54.9463 107.914C54.9717 107.951 55.0036 107.983 55.0402 108.009C55.0769 108.035 55.1175 108.054 55.1599 108.065C55.225 108.068 61.7372 109.709 65.4526 113.883C69.2784 118.187 74.5584 123.647 76.7663 125.332C78.9742 127.017 81.2531 128.692 81.2733 128.706C81.314 128.736 81.3596 128.757 81.4072 128.769C81.4548 128.78 81.5033 128.782 81.5494 128.773C81.594 128.762 81.6348 128.742 81.6692 128.714C81.7036 128.685 81.7308 128.649 81.749 128.607C81.8015 128.486 86.9992 116.644 88.7648 112.97C89.9034 110.382 90.894 107.719 91.7322 104.993C92.4438 102.848 93.0531 100.996 93.5361 99.9984C94.0479 98.7996 94.4205 97.5342 94.6472 96.2252C94.9111 94.531 95.4186 92.9077 96.1544 91.404C97.6752 88.6814 100.841 86.7739 102.355 86.6571C103.74 86.5531 104.073 87.235 104.08 87.2614C104.116 87.3381 104.177 87.4022 104.251 87.442C104.326 87.4818 104.41 87.4946 104.487 87.4781C104.487 87.4781 106.08 87.1047 108.744 88.1617L112.905 89.8112C113.955 90.064 114.985 90.4277 115.979 90.8961C116.817 91.2904 117.502 91.9826 117.888 92.826C117.457 93.3118 116.134 94.9241 116.098 96.6748C115.95 99.319 115.056 101.792 113.518 103.812C112.144 105.395 110.58 106.797 108.854 107.994C108.803 108.035 108.765 108.092 108.746 108.157C107.353 113.528 106.451 119.06 106.048 124.69C105.603 132.967 101.186 147.176 96.6566 151.964C92.6214 156.237 86.5899 157.207 80.1031 154.642C75.3587 152.76 65.0771 144.948 60.6889 141.613C59.8179 140.948 59.197 140.48 58.914 140.276C57.1971 139.06 50.6035 136.697 50.3244 136.572C50.2827 136.556 50.239 136.548 50.196 136.549C50.1529 136.55 50.1114 136.56 50.074 136.578C50.0366 136.597 50.0041 136.623 49.9785 136.655C49.9529 136.687 49.9346 136.725 49.9249 136.766L49.9037 136.863Z" fill="#263238"/>
<path d="M80.1712 134.094C80.3493 136.98 81.3019 139.842 82.9282 142.376C82.9771 142.452 83.0522 142.508 83.1372 142.533C83.2222 142.558 83.3103 142.55 83.3826 142.509C83.4548 142.469 83.5054 142.4 83.5235 142.317C83.5416 142.234 83.5257 142.145 83.4792 142.067C78.7361 134.358 81.7563 128.906 81.7864 128.848C81.8199 128.776 81.8237 128.691 81.7971 128.61C81.7705 128.529 81.7154 128.458 81.6428 128.412C81.5702 128.365 81.4853 128.345 81.405 128.357C81.3246 128.369 81.2547 128.411 81.209 128.476C80.3922 130.187 80.0356 132.117 80.1712 134.094Z" fill="#263238"/>
<path d="M38.0356 128.13C38.0393 128.193 38.0628 128.256 38.1029 128.309C38.2848 128.578 42.7251 134.978 48.8086 136.886C48.8941 136.912 48.9831 136.905 49.0564 136.865C49.1296 136.825 49.1811 136.755 49.1998 136.672C49.2085 136.631 49.2088 136.588 49.2007 136.545C49.1927 136.503 49.1764 136.461 49.1528 136.423C49.1292 136.385 49.0989 136.351 49.0634 136.324C49.0279 136.296 48.9881 136.275 48.9461 136.262C43.0998 134.432 38.6663 128.039 38.6244 127.978C38.5732 127.904 38.4969 127.851 38.412 127.829C38.3272 127.808 38.2407 127.82 38.1715 127.864C38.1263 127.89 38.0899 127.928 38.0661 127.975C38.0423 128.021 38.0318 128.075 38.0356 128.13Z" fill="#263238"/>
<path d="M162.623 146.016C162.627 146.066 162.641 146.115 162.663 146.162C162.684 146.202 162.712 146.238 162.746 146.268C162.78 146.299 162.818 146.323 162.86 146.339C162.901 146.355 162.945 146.363 162.988 146.362C163.031 146.362 163.072 146.353 163.11 146.336C164.209 145.784 165.128 144.955 165.785 143.921C166.428 142.892 166.793 141.146 167.173 139.302C167.422 138.114 167.708 136.882 168.031 135.738C168.645 133.722 169.488 132.375 171.168 129.693C171.865 128.574 172.739 127.182 173.785 125.432C177.302 119.537 175.627 114.905 175.552 114.71C175.54 114.671 175.521 114.633 175.494 114.6C175.468 114.567 175.435 114.54 175.399 114.519C175.136 114.361 173.809 113.584 173.258 114.225C172.843 114.702 171.768 116.117 171.726 116.193C171.682 116.26 171.668 116.344 171.685 116.427C171.702 116.51 171.75 116.587 171.819 116.642C171.887 116.696 171.971 116.724 172.054 116.721C172.137 116.717 172.212 116.681 172.264 116.621C172.264 116.621 173.369 115.143 173.771 114.678C173.901 114.534 174.486 114.715 174.984 115.003C175.211 115.756 176.262 119.936 173.21 125.054C172.17 126.798 171.297 128.19 170.599 129.302C168.95 131.94 168.04 133.396 167.397 135.488C167.043 136.658 166.784 137.904 166.535 139.105C166.159 140.896 165.804 142.59 165.216 143.531C164.616 144.467 163.785 145.22 162.792 145.729C162.738 145.753 162.693 145.792 162.663 145.843C162.633 145.894 162.619 145.954 162.623 146.016Z" fill="#263238"/>
<path d="M166.38 109.406C166.383 109.473 166.406 109.54 166.446 109.597C166.487 109.655 166.543 109.7 166.607 109.727C166.671 109.754 166.74 109.761 166.804 109.747C166.868 109.734 166.924 109.701 166.965 109.652C167.769 108.669 168.389 107.54 168.797 106.313C169.262 104.789 170.212 104.923 170.252 104.932C170.338 104.944 170.423 104.923 170.488 104.873C170.553 104.823 170.594 104.748 170.603 104.663C170.606 104.621 170.601 104.578 170.588 104.537C170.575 104.495 170.554 104.456 170.526 104.421C170.498 104.386 170.464 104.356 170.426 104.333C170.388 104.311 170.347 104.295 170.304 104.288C170.246 104.285 168.794 104.021 168.173 106.065C167.786 107.213 167.205 108.271 166.454 109.194C166.405 109.252 166.379 109.326 166.38 109.406Z" fill="#263238"/>
<path d="M168.924 110.827C168.925 110.879 168.94 110.932 168.966 110.979C168.992 111.027 169.029 111.069 169.074 111.101C169.109 111.128 169.149 111.148 169.191 111.16C169.233 111.171 169.276 111.175 169.317 111.17C169.359 111.164 169.398 111.151 169.433 111.13C169.467 111.109 169.497 111.08 169.519 111.046C169.519 111.046 170.732 109.338 171.464 108.126C171.522 108 171.609 107.892 171.716 107.807C171.824 107.723 171.951 107.665 172.089 107.637C172.197 107.635 172.307 107.656 172.412 107.697C172.517 107.738 172.614 107.799 172.698 107.877C172.763 107.941 172.848 107.979 172.934 107.983C173.02 107.988 173.102 107.958 173.161 107.901C173.217 107.843 173.246 107.763 173.242 107.677C173.238 107.592 173.2 107.508 173.138 107.444C172.981 107.3 172.8 107.187 172.605 107.111C172.411 107.035 172.207 106.997 172.005 107.001C171.768 107.031 171.546 107.114 171.355 107.245C171.163 107.376 171.008 107.551 170.9 107.758C170.148 108.956 168.986 110.641 168.974 110.66C168.942 110.708 168.925 110.766 168.924 110.827Z" fill="#263238"/>
<path d="M170.375 113.747C170.377 113.792 170.389 113.836 170.409 113.878C170.429 113.919 170.457 113.957 170.491 113.988C170.522 114.02 170.559 114.046 170.599 114.064C170.639 114.083 170.682 114.094 170.724 114.096C170.766 114.098 170.808 114.092 170.846 114.077C170.885 114.063 170.919 114.041 170.947 114.012C171.638 113.283 172.25 112.484 172.778 111.623C173.379 110.651 173.721 110.734 173.721 110.734C173.758 110.757 173.799 110.773 173.841 110.781C173.883 110.788 173.925 110.787 173.965 110.778C174.004 110.768 174.041 110.75 174.072 110.725C174.103 110.7 174.128 110.668 174.145 110.632C174.183 110.556 174.189 110.465 174.16 110.378C174.132 110.291 174.071 110.216 173.992 110.168C173.858 110.083 173.119 109.725 172.206 111.242C171.71 112.067 171.132 112.835 170.482 113.538C170.42 113.589 170.382 113.664 170.375 113.747Z" fill="#263238"/>
<path d="M194.865 157.056C194.865 157.056 189.31 155.314 185.959 156.222C182.608 157.13 175.515 159.782 172.272 159.492C169.03 159.202 161.987 160.386 158.772 159.605C155.557 158.825 150.548 153.355 148.256 147.877C145.965 142.398 146.233 140.897 146.233 140.897C144.274 140.299 142.292 139.819 140.299 139.459C139.225 139.267 139.235 139.216 139.235 139.216C139.235 139.216 139.86 149.762 143.373 154.63C146.887 159.498 149.966 161.579 149.966 161.579C149.966 161.579 152.974 166 159.423 167.556C165.872 169.112 170.039 166.808 170.039 166.808C170.039 166.808 177.62 166.325 181.924 166.029C186.229 165.733 187.597 164.677 188.481 164.282C189.366 163.888 192.885 164.16 192.885 164.16L194.865 157.056Z" fill="#FCDDD9"/>
<path d="M138.908 139.21C138.93 139.645 139.579 149.914 143.114 154.81C146.406 159.362 149.288 161.492 149.743 161.813C150.145 162.371 153.197 166.387 159.379 167.878C165.56 169.368 169.596 167.414 170.157 167.138C170.904 167.086 177.881 166.65 181.987 166.389C185.682 166.152 187.255 165.333 188.193 164.844L188.647 164.615C189.323 164.319 191.944 164.441 192.903 164.517C192.973 164.521 193.039 164.502 193.093 164.464C193.147 164.426 193.185 164.371 193.203 164.306L195.182 157.189C195.198 157.15 195.205 157.107 195.202 157.064C195.2 157.02 195.189 156.976 195.169 156.936C195.121 156.856 195.047 156.794 194.961 156.763C194.731 156.693 189.276 155.007 185.88 155.926C185.039 156.155 183.97 156.475 182.782 156.861C179.361 157.934 174.675 159.401 172.295 159.188C170.437 159.117 168.589 159.169 166.763 159.343C163.912 159.539 160.682 159.755 158.852 159.311C155.67 158.545 150.796 153.069 148.597 147.776C146.398 142.483 146.596 140.998 146.602 140.985C146.613 140.905 146.593 140.82 146.546 140.747C146.5 140.674 146.43 140.619 146.35 140.59C144.376 139.987 142.379 139.502 140.37 139.136C140.047 139.088 139.724 139.022 139.405 138.938L139.289 139.217L138.908 139.21ZM192.644 163.837C191.783 163.792 189.161 163.657 188.339 164.003C188.194 164.067 188.03 164.149 187.854 164.244C186.954 164.715 185.449 165.499 181.884 165.729C177.565 166.005 169.989 166.476 169.989 166.476C169.943 166.479 169.9 166.492 169.862 166.515C169.816 166.512 165.704 168.754 159.465 167.274C155.882 166.488 152.588 164.411 150.228 161.45C150.201 161.41 150.166 161.375 150.126 161.347C150.126 161.347 147.053 159.247 143.628 154.486C140.606 150.304 139.766 141.669 139.584 139.678C139.752 139.687 139.975 139.757 140.274 139.811C142.163 140.153 144.041 140.602 145.9 141.156C145.932 141.806 146.184 143.761 147.956 148.009C150.264 153.54 155.298 159.128 158.729 159.952C160.689 160.422 163.797 160.213 166.841 160.001C168.635 159.831 170.451 159.78 172.276 159.848C174.773 160.073 179.319 158.644 183 157.493C184.151 157.132 185.245 156.793 186.073 156.57C188.832 155.826 193.194 156.937 194.464 157.301L192.644 163.837Z" fill="#FCDDD9"/>
<path d="M170.532 164.843C170.535 164.894 170.549 164.944 170.574 164.991C170.599 165.037 170.633 165.078 170.675 165.111C170.747 165.167 170.835 165.194 170.92 165.186C171.005 165.178 171.08 165.136 171.128 165.07C172.008 163.811 174.9 160.641 174.925 160.61C174.956 160.581 174.98 160.545 174.996 160.505C175.011 160.465 175.018 160.421 175.016 160.376C175.014 160.331 175.002 160.286 174.982 160.244C174.962 160.202 174.935 160.164 174.9 160.132C174.866 160.099 174.826 160.074 174.783 160.057C174.741 160.04 174.696 160.031 174.651 160.032C174.607 160.033 174.564 160.043 174.525 160.061C174.487 160.08 174.453 160.107 174.427 160.14C174.303 160.271 171.486 163.386 170.58 164.65C170.545 164.706 170.528 164.773 170.532 164.843Z" fill="#263238"/>
<path d="M150.308 160.994C150.314 161.07 150.345 161.144 150.397 161.204C150.449 161.265 150.519 161.307 150.594 161.324C152.934 161.836 155.303 161.611 157.366 160.681C157.44 160.644 157.492 160.578 157.512 160.497C157.532 160.416 157.519 160.327 157.474 160.249C157.429 160.172 157.357 160.112 157.274 160.084C157.191 160.056 157.103 160.061 157.03 160.098C155.088 160.957 152.867 161.164 150.673 160.691C150.588 160.673 150.502 160.689 150.435 160.735C150.368 160.781 150.324 160.853 150.312 160.936L150.308 160.994Z" fill="#263238"/>
<path d="M106.366 86.5214C107.595 85.8989 108.775 85.1959 109.901 84.4165C112.42 82.7738 116.517 77.588 120.808 78.9258C123.2 79.6325 125.499 80.7212 127.612 82.148C127.612 82.148 135.849 82.4324 138.582 87.7188C141.316 93.0051 141.082 93.7884 140.264 95.3825C139.754 96.3364 139.328 97.3392 138.99 98.3807C138.99 98.3807 141.989 106.4 141.231 109.438C140.688 111.925 140.28 114.452 140.009 117.009L134.129 114.331C134.129 114.331 133.667 108.712 132.995 106.174C132.322 103.635 131.26 100.574 131.86 98.0104C132.461 95.4466 133.001 94.8096 133.001 94.8096L132.876 92.3059C132.876 92.3059 129.691 90.8691 125.933 89.5525C122.176 88.2358 121.181 87.317 121.181 87.317C121.181 87.317 120.257 86.78 118.469 87.2935C116.681 87.807 115.425 89.9912 115.425 89.9912L112.322 88.8976L106.366 86.5214Z" fill="#FCDDD9"/>
<path d="M106.04 86.5024C106.046 86.5675 106.071 86.6312 106.112 86.6856C106.153 86.74 106.208 86.7825 106.27 86.8077L112.199 89.176L115.309 90.2764C115.379 90.3018 115.453 90.3033 115.519 90.2807C115.585 90.258 115.64 90.2126 115.673 90.1519C115.673 90.1519 116.902 88.0641 118.555 87.5892C119.306 87.2883 120.168 87.2798 120.985 87.5655C121.222 87.7604 122.41 88.6436 125.817 89.8377C128.986 90.9412 131.783 92.1492 132.527 92.4813L132.636 94.6646C132.083 95.6608 131.699 96.754 131.497 97.9046C130.961 100.185 131.689 102.811 132.331 105.12L132.632 106.211C133.289 108.697 133.748 114.257 133.757 114.316C133.761 114.379 133.783 114.441 133.822 114.494C133.861 114.548 133.914 114.589 133.974 114.614L139.853 117.293C139.898 117.316 139.947 117.329 139.995 117.332C140.043 117.334 140.091 117.326 140.134 117.307C140.176 117.285 140.212 117.254 140.238 117.214C140.264 117.175 140.28 117.129 140.285 117.08C140.558 114.537 140.964 112.022 141.502 109.548C142.221 106.612 139.659 99.4305 139.29 98.4072C139.619 97.4215 140.026 96.4705 140.507 95.5624C141.399 93.894 141.68 93.0153 138.856 87.6004C136.194 82.4482 128.709 81.8574 127.679 81.8039C125.558 80.3853 123.257 79.2991 120.863 78.5875C117.442 77.5166 114.146 80.3707 111.741 82.4561C110.987 83.1081 110.276 83.7232 109.691 84.1166C108.577 84.8871 107.409 85.5821 106.194 86.1974C106.139 86.224 106.095 86.2673 106.068 86.3216C106.04 86.3759 106.031 86.4388 106.04 86.5024ZM115.235 89.588L112.377 88.5789L107.158 86.5083C107.721 86.1985 108.675 85.6417 110.104 84.7053C110.842 84.1815 111.545 83.6128 112.21 83.0021C114.64 80.8984 117.656 78.2775 120.74 79.2462C123.099 79.9429 125.369 81.0075 127.462 82.399C127.52 82.4456 127.59 82.4723 127.661 82.4745C127.739 82.4785 135.725 82.8151 138.329 87.8469C141.069 93.1466 140.724 93.7872 139.995 95.2099C139.456 96.1756 139.007 97.195 138.652 98.2567C138.632 98.3234 138.636 98.3968 138.662 98.4659C138.666 98.5443 141.608 106.443 140.893 109.327C140.372 111.695 139.978 114.101 139.712 116.535L134.391 114.12C134.186 111.447 133.809 108.773 133.264 106.114L132.962 105.009C132.338 102.773 131.633 100.239 132.132 98.1136C132.7 95.6916 133.232 95.0216 133.238 95.0154C133.263 94.9878 133.281 94.9547 133.292 94.9182C133.302 94.8817 133.305 94.8426 133.299 94.8034L133.174 92.2932C133.171 92.2287 133.148 92.1647 133.11 92.1093C133.071 92.0539 133.018 92.0096 132.957 91.982C132.925 91.9803 129.718 90.5098 125.981 89.2203C122.382 87.9576 121.37 87.0704 121.356 87.0632L121.295 87.0144C121.256 87.0123 120.225 86.4046 118.322 86.9578C116.765 87.4115 115.609 89.0011 115.235 89.5749L115.235 89.588Z" fill="#263238"/>
<path d="M133.98 95.8974C133.981 95.9588 134 96.0203 134.035 96.0742C134.07 96.1281 134.119 96.172 134.177 96.2005C134.209 96.2022 137.327 97.8351 138.668 100.261C138.712 100.339 138.783 100.399 138.866 100.429C138.949 100.459 139.037 100.456 139.111 100.421C139.148 100.403 139.18 100.378 139.206 100.347C139.232 100.316 139.251 100.279 139.262 100.239C139.272 100.199 139.275 100.157 139.268 100.114C139.262 100.071 139.248 100.029 139.226 99.9905C137.797 97.3649 134.56 95.6932 134.427 95.6277C134.387 95.607 134.345 95.594 134.301 95.5895C134.258 95.5851 134.216 95.5892 134.176 95.6016C134.136 95.6141 134.1 95.6347 134.069 95.6622C134.039 95.6896 134.015 95.7235 133.999 95.7617C133.983 95.8041 133.977 95.8504 133.98 95.8974Z" fill="#263238"/>
<path d="M132.339 92.1186C132.344 92.1956 132.376 92.2711 132.429 92.3314C132.483 92.3918 132.554 92.433 132.631 92.4476C134.687 92.8215 136.759 92.8814 138.772 92.6253C138.813 92.6183 138.851 92.603 138.884 92.5802C138.918 92.5574 138.945 92.5277 138.966 92.4928C138.986 92.4579 138.999 92.4185 139.004 92.377C139.008 92.3355 139.004 92.2927 138.991 92.2512C138.968 92.1676 138.912 92.0936 138.838 92.0454C138.764 91.9972 138.676 91.9787 138.594 91.9939C136.658 92.2327 134.667 92.1724 132.69 91.8152C132.648 91.8068 132.605 91.8069 132.565 91.8154C132.524 91.824 132.487 91.8408 132.454 91.865C132.422 91.8891 132.396 91.9201 132.377 91.956C132.358 91.9919 132.346 92.032 132.344 92.0739L132.339 92.1186Z" fill="#263238"/>
<path d="M119.161 86.4973C119.162 86.5711 119.191 86.6445 119.242 86.7028C119.27 86.7381 119.304 86.7681 119.342 86.7911C119.38 86.8141 119.422 86.8296 119.465 86.8366C119.507 86.8437 119.55 86.8421 119.59 86.8321C119.631 86.8221 119.668 86.8039 119.699 86.7784C121.293 85.5683 123.006 84.5144 124.818 83.6289C124.855 83.6103 124.886 83.5843 124.911 83.5523C124.937 83.5204 124.955 83.4831 124.965 83.4426C124.975 83.4022 124.976 83.3593 124.97 83.3165C124.963 83.2736 124.948 83.2317 124.926 83.193C124.904 83.1543 124.874 83.1197 124.84 83.0911C124.805 83.0625 124.766 83.0404 124.724 83.0262C124.683 83.012 124.64 83.0059 124.597 83.0083C124.555 83.0107 124.515 83.0214 124.478 83.04C122.635 83.9455 120.891 85.0194 119.265 86.2495C119.23 86.2786 119.202 86.3159 119.184 86.3587C119.166 86.4016 119.158 86.4489 119.161 86.4973Z" fill="#263238"/>
<path d="M125.448 82.651C125.449 82.7027 125.462 82.7547 125.488 82.8022C125.531 82.8797 125.602 82.9399 125.685 82.9696C125.767 82.9994 125.855 82.9964 125.929 82.9612C126.997 82.4652 127.72 82.1719 127.726 82.1657C127.764 82.1508 127.799 82.128 127.827 82.0988C127.855 82.0695 127.877 82.0343 127.89 81.9953C127.904 81.9562 127.91 81.914 127.907 81.8711C127.904 81.8282 127.892 81.7854 127.873 81.7453C127.833 81.6662 127.765 81.6028 127.684 81.5684C127.602 81.534 127.514 81.5312 127.437 81.5606C127.437 81.5606 126.689 81.8591 125.608 82.3675C125.557 82.393 125.515 82.4329 125.487 82.4828C125.458 82.5328 125.445 82.5909 125.448 82.651Z" fill="#263238"/>
</svg>
