<svg width="430" height="461" viewBox="0 0 430 461" fill="none" xmlns="http://www.w3.org/2000/svg">
<path d="M507.988 408.295H-66.1213V408.582H507.988V408.295Z" fill="#EBEBEB"/>
<path d="M32.1432 419.226H-5.88583V419.513H32.1432V419.226Z" fill="#EBEBEB"/>
<path d="M140.363 416.114H90.4155V416.401H140.363V416.114Z" fill="#EBEBEB"/>
<path d="M72.0437 425.151H27.5503V425.438H72.0437V425.151Z" fill="#EBEBEB"/>
<path d="M450.462 427.964H400.871V428.251H450.462V427.964Z" fill="#EBEBEB"/>
<path d="M390.64 427.964H369.054V428.251H390.64V427.964Z" fill="#EBEBEB"/>
<path d="M249.639 423.119H207.66V423.406H249.639V423.119Z" fill="#EBEBEB"/>
<path d="M206.006 357.084H-15.7032C-17.44 357.081 -19.1047 356.389 -20.3318 355.16C-21.5588 353.931 -22.248 352.265 -22.248 350.528V38.867C-22.2329 37.1401 -21.537 35.4889 -20.3116 34.272C-19.0862 33.0552 -17.4301 32.371 -15.7032 32.368H206.006C207.745 32.368 209.413 33.0588 210.642 34.2883C211.872 35.5179 212.563 37.1855 212.563 38.9244V350.528C212.563 352.267 211.872 353.935 210.642 355.164C209.413 356.394 207.745 357.084 206.006 357.084ZM-15.7032 32.5977C-17.3639 32.6007 -18.9555 33.2626 -20.1288 34.438C-21.302 35.6134 -21.9609 37.2062 -21.9609 38.867V350.528C-21.9609 352.189 -21.302 353.782 -20.1288 354.957C-18.9555 356.132 -17.3639 356.794 -15.7032 356.797H206.006C207.668 356.794 209.261 356.133 210.436 354.958C211.611 353.783 212.273 352.19 212.276 350.528V38.867C212.273 37.2052 211.611 35.6123 210.436 34.4373C209.261 33.2622 207.668 32.6007 206.006 32.5977H-15.7032Z" fill="#EBEBEB"/>
<path d="M454.378 357.084H232.657C230.919 357.081 229.253 356.39 228.024 355.161C226.795 353.932 226.104 352.266 226.101 350.528V38.867C226.119 37.139 226.817 35.4878 228.044 34.2713C229.272 33.0548 230.929 32.371 232.657 32.368H454.378C456.103 32.374 457.756 33.0596 458.979 34.2761C460.202 35.4926 460.896 37.1421 460.911 38.867V350.528C460.911 352.263 460.224 353.927 458.999 355.156C457.775 356.385 456.113 357.078 454.378 357.084ZM232.657 32.5977C230.995 32.6007 229.402 33.2622 228.227 34.4373C227.052 35.6123 226.391 37.2052 226.388 38.867V350.528C226.391 352.19 227.052 353.783 228.227 354.958C229.402 356.133 230.995 356.794 232.657 356.797H454.378C456.04 356.794 457.633 356.133 458.808 354.958C459.983 353.783 460.644 352.19 460.647 350.528V38.867C460.644 37.2052 459.983 35.6123 458.808 34.4373C457.633 33.2622 456.04 32.6007 454.378 32.5977H232.657Z" fill="#EBEBEB"/>
<path d="M320.978 266.157H297.083V408.295H320.978V266.157Z" fill="#E6E6E6"/>
<path d="M316.442 408.295H320.978V395.389H311.689L316.442 408.295Z" fill="#F0F0F0"/>
<path d="M200.885 266.157H176.991V408.295H200.885V266.157Z" fill="#E6E6E6"/>
<path d="M320.989 266.157H196.924V400.372H320.989V266.157Z" fill="#F0F0F0"/>
<path d="M317.464 269.682H200.438V295.103H317.464V269.682Z" fill="#E6E6E6"/>
<path d="M317.464 298.02H260.478V384.24H317.464V298.02Z" fill="#E6E6E6"/>
<path d="M257.424 298.02H200.438V384.24H257.424V298.02Z" fill="#E6E6E6"/>
<path d="M244.679 307.125C244.676 307.926 244.912 308.709 245.355 309.375C245.798 310.042 246.429 310.561 247.168 310.869C247.907 311.176 248.721 311.257 249.506 311.101C250.291 310.946 251.012 310.561 251.578 309.995C252.144 309.429 252.529 308.708 252.685 307.923C252.84 307.137 252.759 306.324 252.452 305.585C252.145 304.846 251.625 304.215 250.959 303.771C250.292 303.328 249.509 303.093 248.709 303.095C247.641 303.098 246.617 303.524 245.862 304.279C245.107 305.034 244.682 306.057 244.679 307.125Z" fill="#FAFAFA"/>
<path d="M269.181 311.156C271.407 311.156 273.212 309.351 273.212 307.125C273.212 304.9 271.407 303.095 269.181 303.095C266.956 303.095 265.151 304.9 265.151 307.125C265.151 309.351 266.956 311.156 269.181 311.156Z" fill="#FAFAFA"/>
<path d="M201.459 408.295H196.924V395.389H206.213L201.459 408.295Z" fill="#F0F0F0"/>
<path d="M255.449 282.576C255.449 283.376 255.686 284.158 256.131 284.823C256.575 285.488 257.207 286.006 257.946 286.312C258.686 286.617 259.499 286.696 260.283 286.54C261.067 286.383 261.788 285.997 262.352 285.43C262.917 284.864 263.301 284.143 263.456 283.358C263.611 282.573 263.529 281.76 263.221 281.022C262.913 280.283 262.394 279.653 261.728 279.21C261.061 278.768 260.279 278.532 259.479 278.535C258.949 278.535 258.424 278.639 257.934 278.843C257.444 279.046 256.999 279.344 256.625 279.719C256.251 280.095 255.954 280.54 255.752 281.031C255.55 281.521 255.447 282.046 255.449 282.576Z" fill="#FAFAFA"/>
<path d="M191.401 266.157H167.507V408.295H191.401V266.157Z" fill="#E6E6E6"/>
<path d="M186.866 408.295H191.401V395.389H182.112L186.866 408.295Z" fill="#F0F0F0"/>
<path d="M71.2975 266.157H47.4031V408.295H71.2975V266.157Z" fill="#E6E6E6"/>
<path d="M191.401 266.157H67.3361V400.372H191.401V266.157Z" fill="#F0F0F0"/>
<path d="M187.888 269.682H130.89V384.24H187.888V269.682Z" fill="#E6E6E6"/>
<path d="M127.847 269.682H70.861V384.24H127.847V269.682Z" fill="#E6E6E6"/>
<path d="M115.102 278.787C115.1 279.588 115.335 280.371 115.778 281.037C116.221 281.704 116.853 282.223 117.592 282.531C118.331 282.838 119.144 282.919 119.929 282.763C120.714 282.608 121.436 282.223 122.002 281.657C122.567 281.091 122.953 280.37 123.108 279.585C123.264 278.799 123.183 277.986 122.875 277.247C122.568 276.508 122.048 275.877 121.382 275.433C120.715 274.99 119.932 274.755 119.132 274.757C118.064 274.76 117.041 275.186 116.286 275.941C115.531 276.696 115.105 277.719 115.102 278.787Z" fill="#FAFAFA"/>
<path d="M135.575 278.787C135.573 279.588 135.808 280.371 136.251 281.037C136.695 281.704 137.326 282.223 138.065 282.531C138.804 282.838 139.617 282.919 140.402 282.763C141.187 282.608 141.909 282.223 142.475 281.657C143.041 281.091 143.426 280.37 143.581 279.585C143.737 278.799 143.656 277.986 143.349 277.247C143.041 276.508 142.521 275.877 141.855 275.433C141.189 274.99 140.406 274.755 139.605 274.757C138.537 274.76 137.514 275.186 136.759 275.941C136.004 276.696 135.578 277.719 135.575 278.787Z" fill="#FAFAFA"/>
<path d="M71.883 408.295H67.3361V395.389H76.6366L71.883 408.295Z" fill="#F0F0F0"/>
<path d="M346.33 60.5568H249.937V166.388H346.33V60.5568Z" fill="#E6E6E6"/>
<path d="M354.586 60.5568H251.223V166.388H354.586V60.5568Z" fill="#F5F5F5"/>
<path d="M347.984 159.797V67.1477H257.803V159.797H347.984Z" fill="white"/>
<path d="M289.402 146.421C284.258 141.256 281.371 134.264 281.371 126.976C281.371 119.687 284.258 112.695 289.402 107.531L316.408 80.5244C321.551 85.689 324.438 92.6808 324.438 99.9695C324.438 107.258 321.551 114.25 316.408 119.415L289.402 146.421Z" fill="#F5F5F5"/>
<path d="M428.175 133.032H371.132V197.413H428.175V133.032Z" fill="#E6E6E6"/>
<path d="M436.42 133.032H372.521V197.413H436.42V133.032Z" fill="#F5F5F5"/>
<path d="M429.841 190.822V139.623H379.124V190.822H429.841Z" fill="white"/>
<path d="M409.054 175.626L414.868 169.813C417.401 167.279 417.401 163.172 414.868 160.638L409.055 154.825C406.521 152.291 402.413 152.291 399.88 154.825L394.067 160.638C391.533 163.172 391.533 167.279 394.067 169.813L399.88 175.626C402.413 178.16 406.521 178.16 409.054 175.626Z" fill="#F5F5F5"/>
<path d="M410.39 385.48H412.089C412.089 378.246 412.089 375.812 412.261 333.73C412.571 257.453 413.157 252.803 413.157 252.803L409.115 288.019C406.532 327.012 409.839 350.252 410.39 385.48Z" fill="#F0F0F0"/>
<path d="M418.657 408.295H401.319C390.284 408.295 389.641 400.544 387.368 390.061C386.827 387.283 386.039 384.558 385.014 381.92L384.842 381.495H435.134L434.961 381.92C433.961 384.562 433.192 387.286 432.665 390.061C430.345 400.544 429.691 408.295 418.657 408.295Z" fill="#FAFAFA"/>
<path d="M436.362 384.045H383.624C383.06 384.049 382.514 383.845 382.091 383.472C381.667 383.1 381.396 382.584 381.328 382.024L380.318 374.365C380.269 374.037 380.293 373.702 380.387 373.384C380.48 373.066 380.642 372.771 380.86 372.521C381.078 372.272 381.348 372.072 381.651 371.936C381.954 371.801 382.282 371.732 382.614 371.736H437.373C437.704 371.732 438.033 371.801 438.336 371.936C438.639 372.072 438.908 372.272 439.127 372.521C439.345 372.771 439.506 373.066 439.6 373.384C439.694 373.702 439.717 374.037 439.669 374.365L438.659 382.024C438.591 382.584 438.319 383.1 437.896 383.472C437.472 383.845 436.926 384.049 436.362 384.045Z" fill="#F0F0F0"/>
<path d="M408.92 314.727C418.84 297.434 393.109 291.246 384.807 275.836C374.795 288.008 397.288 334.981 408.92 314.727Z" fill="#F0F0F0"/>
<path d="M410.826 295.184C407.002 286.469 425.431 275.894 429.404 261.725C436.798 269.912 422.159 320.984 410.826 295.184Z" fill="#F0F0F0"/>
<path d="M411.825 270.842C414.294 250.748 401.204 252.47 395.75 240.46C387.621 249.049 409.907 286.354 411.825 270.842Z" fill="#F0F0F0"/>
<path d="M411.078 263.654C407.737 248.348 418.909 250.748 417.451 235.649C430.472 247.085 415.063 281.899 411.078 263.654Z" fill="#F0F0F0"/>
<path d="M410.688 326.094C413.8 315.105 431.643 323.028 440.748 302.395C450.428 331.536 402.031 356.591 410.688 326.094Z" fill="#F0F0F0"/>
<path d="M411.538 340.963C411.274 330.515 399.998 339.815 379.388 321.191C375.702 340.378 412.123 366.775 411.538 340.963Z" fill="#F0F0F0"/>
<path d="M178.438 60.5568H7.07761V239.311H178.438V60.5568Z" fill="#E6E6E6"/>
<path d="M183.237 60.5568H11.8773V239.311H183.237V60.5568Z" fill="#F5F5F5"/>
<path d="M174.626 231.263V68.6058L20.5002 68.6058V231.263H174.626Z" fill="white"/>
<path d="M174.626 231.263V68.6058H170.997V231.263H174.626Z" fill="#E6E6E6"/>
<path d="M179.678 182.957H15.4481V193.762H179.678V182.957Z" fill="#F5F5F5"/>
<path d="M179.678 82.7979H15.4481V93.6026H179.678V82.7979Z" fill="#F5F5F5"/>
<path d="M220.934 460.148C343.888 460.148 443.562 454.329 443.562 447.151C443.562 439.972 343.888 434.153 220.934 434.153C97.9794 434.153 -1.69461 439.972 -1.69461 447.151C-1.69461 454.329 97.9794 460.148 220.934 460.148Z" fill="#F5F5F5"/>
<path d="M50.446 168.868C46.6518 167.623 42.5971 167.398 38.6882 168.214C36.0588 168.627 31.5578 166.273 28.515 162.553C28.3839 163.349 28.4181 164.164 28.6157 164.947C28.8132 165.729 29.1697 166.463 29.6631 167.102C30.1564 167.74 30.776 168.271 31.4832 168.66C32.1905 169.048 32.9702 169.288 33.7738 169.362C29.7206 172.232 22.1768 169.052 21.3157 163.759C20.4545 158.465 26.2415 158.511 22.705 149.234C19.1685 139.956 28.5724 144.078 31.5922 130.277C34.612 116.475 49.4815 117.646 51.9502 122.756C60.4814 119.242 64.7183 124.409 68.0252 132.194C70.9072 139.083 70.3217 144.469 74.5816 155.882C78.5544 166.71 62.6401 172.313 50.446 168.868Z" fill="#263238"/>
<path d="M34.9221 168.306C34.3924 168.294 33.8684 168.193 33.372 168.007C31.8944 167.353 30.5772 166.384 29.5123 165.168C28.4474 163.953 27.6603 162.519 27.2061 160.969C27.1848 160.895 27.1934 160.817 27.23 160.75C27.2666 160.683 27.3282 160.634 27.4013 160.613C27.4744 160.591 27.5529 160.6 27.6197 160.636C27.6864 160.673 27.7359 160.735 27.7572 160.808C28.1843 162.285 28.9299 163.651 29.9416 164.81C30.9533 165.968 32.2065 166.891 33.6132 167.513C34.0173 167.698 34.4587 167.787 34.9028 167.773C35.347 167.759 35.782 167.643 36.1737 167.433C36.2045 167.411 36.2394 167.395 36.2764 167.387C36.3134 167.378 36.3516 167.377 36.389 167.384C36.4263 167.39 36.4621 167.404 36.4941 167.424C36.5261 167.444 36.5538 167.471 36.5756 167.502C36.597 167.533 36.612 167.569 36.6196 167.606C36.6272 167.644 36.6272 167.682 36.6197 167.72C36.6122 167.757 36.5974 167.793 36.576 167.824C36.5546 167.856 36.5271 167.883 36.4952 167.904C36.027 168.202 35.4759 168.343 34.9221 168.306Z" fill="#263238"/>
<path d="M70.356 146.639C70.2808 146.625 70.2139 146.582 70.169 146.52C70.1241 146.458 70.1048 146.382 70.1149 146.306C71.7224 137.12 70.2527 129.944 65.9928 126.04C64.7034 124.844 63.1318 123.994 61.425 123.571C59.7182 123.147 57.9319 123.163 56.2329 123.617C56.196 123.627 56.1573 123.63 56.1192 123.625C56.0812 123.621 56.0445 123.608 56.0113 123.589C55.9781 123.57 55.9491 123.544 55.926 123.513C55.903 123.483 55.8863 123.448 55.877 123.41C55.8667 123.374 55.864 123.336 55.8689 123.299C55.8739 123.262 55.8864 123.226 55.9058 123.193C55.9252 123.161 55.9509 123.133 55.9815 123.111C56.0121 123.089 56.0469 123.074 56.0836 123.066C57.881 122.581 59.7723 122.56 61.5799 123.006C63.3874 123.452 65.0521 124.349 66.4176 125.615C68.9781 127.911 72.928 133.767 70.7234 146.398C70.7167 146.438 70.7017 146.477 70.6791 146.512C70.6566 146.547 70.6272 146.576 70.5926 146.599C70.5581 146.622 70.5192 146.637 70.4785 146.644C70.4378 146.651 70.3961 146.649 70.356 146.639Z" fill="#263238"/>
<path d="M74.4211 241.895C74.4211 241.895 74.4211 303.899 70.6549 337.496C70.2645 369.026 63.0652 440.261 63.0652 440.261H55.108C53.7761 404.919 43.9244 371.919 50.5151 340.745C35.2094 279.522 42.3169 241.998 42.3169 241.998L74.4211 241.895Z" fill="#CE7A63"/>
<path d="M65.7519 241.941C65.7519 241.941 52.7541 310.719 48.2646 340.091C43.5454 370.874 36.5068 430.605 36.7824 440.319H29.8931C29.8931 440.319 18.4109 379.899 29.0434 341.159C20.2251 254.055 38.5736 241.998 38.5736 241.998L65.7519 241.941Z" fill="#CE7A63"/>
<path d="M80.6442 186.918C80.5639 189.95 80.4031 192.981 80.2768 196.012C80.1505 199.043 79.9668 202.075 79.7831 205.106C79.4156 211.157 78.9793 217.22 78.5085 223.271L78.3822 221.927L79.0138 225.762C79.2319 227.037 79.3927 228.334 79.5879 229.632C79.7831 230.929 79.9323 232.238 80.0701 233.547C80.2079 234.856 80.3342 236.177 80.3916 237.509C80.4148 238.098 80.2394 238.677 79.8937 239.155C79.5479 239.632 79.0518 239.979 78.485 240.141C77.9182 240.302 77.3136 240.269 76.7681 240.046C76.2227 239.822 75.7681 239.422 75.4772 238.91C74.8228 237.761 74.2601 236.51 73.6745 235.304C73.0889 234.099 72.5952 232.881 72.0785 231.653C71.5618 230.424 71.091 229.184 70.6432 227.944C70.1954 226.704 69.7361 225.441 69.3228 224.166C69.2323 223.873 69.1859 223.567 69.185 223.259V222.823C69.2539 216.749 69.3572 210.686 69.541 204.624C69.6213 201.592 69.7361 198.561 69.8625 195.53C69.9888 192.499 70.1151 189.479 70.3103 186.447C70.3727 185.077 70.9769 183.788 71.9901 182.863C73.0032 181.938 74.3423 181.453 75.7126 181.516C77.083 181.578 78.3724 182.183 79.2973 183.196C80.2221 184.209 80.7067 185.548 80.6442 186.918Z" fill="#CE7A63"/>
<path d="M74.4207 174.116C81.666 178.984 84.7547 189.651 84.9154 196.345C81.6659 203.292 69.9886 204.383 69.9886 204.383C69.9886 204.383 66.6243 191.878 66.9113 185.781C67.1984 179.684 70.2412 171.302 74.4207 174.116Z" fill="#263238"/>
<path d="M80.4605 185.299C80.4575 181.88 79.1483 178.59 76.8006 176.104C74.4529 173.617 71.244 172.122 67.8301 171.923C65.8666 171.796 63.8113 171.693 61.8249 171.67C55.6762 171.682 49.5363 172.139 43.4534 173.036C41.7196 173.243 40.0088 173.507 38.4127 173.794C36.9961 174.044 35.6463 174.583 34.4477 175.378C33.2491 176.173 32.2277 177.207 31.4473 178.416C30.6669 179.624 30.1444 180.98 29.9125 182.4C29.6806 183.82 29.7443 185.272 30.0996 186.666C36.7593 211.777 37.6894 230.149 35.1518 241.413C35.1518 241.413 27.1143 252.103 23.5088 276.606C20.3972 298.008 23.44 334.774 19.9953 354.156C32.465 363.078 69.805 361.861 75.661 356.636C74.0075 317.436 82.0221 266.076 75.925 242.366C78.3707 229.219 78.9908 214.808 79.4845 206.771C87.9124 199.537 80.449 194.634 80.4605 185.299Z" fill="#0F969C"/>
<path d="M74.9376 242.607C71.4929 241.114 72.8249 235.809 72.8249 235.809L72.0326 232.813C71.939 232.547 71.9071 232.263 71.9393 231.983C71.9715 231.703 72.067 231.433 72.2185 231.196C72.3701 230.958 72.5737 230.758 72.814 230.61C73.0543 230.462 73.325 230.371 73.6057 230.344L75.5806 230.091C76.3267 230.044 77.0699 230.221 77.7145 230.599C78.3591 230.978 78.8756 231.541 79.1975 232.216L79.6453 233.192C80.3915 234.745 80.5937 236.504 80.2194 238.186L79.7027 240.54C79.582 241.06 79.3466 241.547 79.0138 241.964C78.4982 242.487 77.8291 242.831 77.1041 242.947C76.3791 243.062 75.6361 242.943 74.9835 242.607H74.9376Z" fill="#CE7A63"/>
<path opacity="0.2" d="M52.8344 323.361C51.7436 307.585 52.8344 283.989 62.4795 270.761C59.9534 287.537 52.8344 323.361 52.8344 323.361Z" fill="black"/>
<path d="M44.2572 152.311C45.7269 158.052 47.4377 168.799 43.5108 172.979C53.1105 176.048 61.5304 182.002 67.6234 190.03C71.9293 176.251 61.8134 171.658 61.8134 171.658C55.1652 170.579 55.0849 165.699 55.992 161.049L44.2572 152.311Z" fill="#CE7A63"/>
<path opacity="0.2" d="M49.0451 155.882L55.9344 161.049C55.7047 162.129 55.574 163.228 55.544 164.333C53.0065 164.16 49.424 161.669 49.0221 159.062C48.8333 158.01 48.8411 156.932 49.0451 155.882Z" fill="black"/>
<path d="M37.4827 141.988C40.2844 151.381 41.2719 155.423 47.1622 159.108C56.015 164.666 66.7968 158.959 66.8312 148.866C66.8312 139.772 62.2383 125.902 52.1914 124.478C42.1445 123.054 34.6926 132.596 37.4827 141.988Z" fill="#CE7A63"/>
<path d="M51.7435 123.479C58.9543 132.665 40.6746 130.104 42.397 137.82C44.1193 145.536 34.6695 147.351 36.897 153.253C25.4263 151.346 31.1329 118.668 51.7435 123.479Z" fill="#263238"/>
<path d="M49.688 124.34C51.3874 130.288 59.1264 127.682 63.3633 131.138C62.5366 124.34 51.8123 121.722 49.688 124.34Z" fill="#263238"/>
<path d="M51.1234 141.104C51.3071 141.885 51.8697 142.413 52.375 142.253C52.8802 142.092 53.1557 141.391 52.972 140.622C52.7883 139.853 52.2372 139.313 51.7205 139.474C51.2038 139.635 50.9971 140.301 51.1234 141.104Z" fill="#263238"/>
<path d="M60.7684 138.808C60.9406 139.589 61.5033 140.105 62.02 139.956C62.5367 139.807 62.8008 139.095 62.617 138.314C62.4333 137.533 61.8707 137.017 61.3655 137.166C60.8603 137.315 60.5847 138.004 60.7684 138.808Z" fill="#263238"/>
<path d="M61.1474 137.269L62.9042 136.247C62.9042 136.247 62.2726 138.004 61.1474 137.269Z" fill="#263238"/>
<path d="M58.9545 140.071C60.0603 141.666 61.3862 143.096 62.8929 144.319C62.5626 144.703 62.1539 145.011 61.6944 145.223C61.2348 145.435 60.7351 145.546 60.229 145.548L58.9545 140.071Z" fill="#BA4D3C"/>
<path d="M37.4367 151.415C38.011 152.096 38.7264 152.644 39.5333 153.02C40.3403 153.397 41.2195 153.594 42.11 153.597C44.4064 153.539 44.7738 150.922 43.5223 148.774C42.3741 146.834 39.8595 144.537 37.8731 145.64C35.8866 146.742 35.8866 149.647 37.4367 151.415Z" fill="#CE7A63"/>
<path d="M49.2976 137.774C49.4155 137.715 49.5059 137.612 49.5503 137.487C49.7261 136.917 50.0309 136.394 50.441 135.96C50.8512 135.526 51.3557 135.192 51.9156 134.984C52.0357 134.952 52.1381 134.873 52.2005 134.766C52.2628 134.658 52.2801 134.53 52.2486 134.41C52.2342 134.35 52.2075 134.294 52.1702 134.244C52.1329 134.195 52.0858 134.154 52.0319 134.124C51.978 134.094 51.9184 134.075 51.8568 134.069C51.7953 134.063 51.7332 134.07 51.6745 134.089C50.961 134.335 50.3157 134.746 49.791 135.289C49.2663 135.832 48.8769 136.49 48.6546 137.212C48.635 137.27 48.6272 137.331 48.6317 137.392C48.6361 137.453 48.6528 137.513 48.6806 137.567C48.7084 137.622 48.7468 137.67 48.7937 137.71C48.8405 137.749 48.8947 137.779 48.9532 137.797C49.0671 137.83 49.1891 137.822 49.2976 137.774Z" fill="#263238"/>
<path d="M64.2936 134.169C64.3853 134.169 64.4749 134.142 64.552 134.093C64.6292 134.043 64.6906 133.973 64.7291 133.89C64.7677 133.807 64.7818 133.714 64.7697 133.623C64.7577 133.532 64.72 133.447 64.6611 133.377C64.1747 132.818 63.5604 132.385 62.8707 132.115C62.1809 131.846 61.436 131.746 60.6997 131.827C60.5756 131.847 60.4642 131.914 60.3891 132.015C60.314 132.116 60.2813 132.242 60.2978 132.366C60.3176 132.487 60.3839 132.596 60.4826 132.669C60.5812 132.742 60.7045 132.773 60.826 132.757C61.4118 132.697 62.0032 132.781 62.5494 133.001C63.0955 133.221 63.5798 133.571 63.9606 134.02C64.0016 134.068 64.0527 134.106 64.1103 134.132C64.1679 134.158 64.2305 134.17 64.2936 134.169Z" fill="#263238"/>
<path d="M51.5025 139.566L53.2593 138.555C53.2593 138.555 52.6392 140.301 51.5025 139.566Z" fill="#263238"/>
<path d="M48.3335 244.145L56.3021 247.854L49.6195 255.375C49.6195 255.375 44.5329 251.333 43.2469 246.683L43.7406 245.408C45.3596 243.95 46.2207 243.64 48.3335 244.145Z" fill="#CE7A63"/>
<path d="M58.0587 254.411L54.7519 257.247C54.2694 257.67 53.643 257.891 53.002 257.865C52.361 257.84 51.7543 257.569 51.3072 257.109L49.5619 255.375L56.2445 247.854L58.4491 251.127C58.7993 251.626 58.9532 252.237 58.8811 252.843C58.8091 253.449 58.5163 254.007 58.0587 254.411Z" fill="#CE7A63"/>
<path d="M39.6987 186.654C37.8042 192.476 35.8751 198.389 34.0839 204.245C33.1998 207.184 32.3616 210.124 31.5923 213.029C31.2134 214.475 30.8574 215.922 30.5704 217.335C30.2767 218.609 30.0695 219.902 29.9503 221.204C29.7666 222.72 30.6163 225.085 32.0171 227.336C33.5258 229.726 35.2682 231.961 37.2186 234.007C39.2526 236.206 41.4069 238.292 43.6716 240.253C45.968 242.262 48.2644 244.237 50.6642 246.074H50.7446C51.2604 246.462 51.611 247.03 51.7262 247.664C51.8414 248.299 51.7128 248.954 51.3661 249.498C51.0194 250.042 50.4801 250.435 49.8561 250.599C49.2321 250.762 48.5693 250.684 48.0003 250.38C42.2086 247.421 36.7731 243.812 31.799 239.621C29.1827 237.411 26.8218 234.916 24.7604 232.181C23.6362 230.667 22.6741 229.039 21.8898 227.324C20.9962 225.33 20.527 223.171 20.512 220.986C20.5296 219.169 20.6908 217.357 20.9942 215.566C21.2583 213.901 21.5683 212.282 21.9013 210.698C22.5673 207.529 23.3711 204.429 24.1978 201.363C25.8742 195.22 27.7458 189.226 29.87 183.221C30.3363 181.958 31.2774 180.927 32.4927 180.347C33.7081 179.767 35.1018 179.685 36.3769 180.117C37.6521 180.55 38.708 181.463 39.3199 182.663C39.9318 183.862 40.0512 185.253 39.6528 186.539L39.6987 186.654Z" fill="#CE7A63"/>
<path d="M34.7958 175.195C29.0547 177.893 26.4253 181.981 22.062 193.245C23.5892 200.754 36.897 205.198 36.897 205.198C38.8698 200.58 40.441 195.801 41.5932 190.914C42.7529 184.92 40.6632 172.451 34.7958 175.195Z" fill="#263238"/>
<path d="M54.4993 440.319C54.5518 440.176 54.6502 440.055 54.779 439.974C54.9077 439.893 55.0597 439.856 55.2112 439.871L62.6057 439.768C63.378 439.708 64.1512 439.871 64.8332 440.238C68.216 442.341 72.0097 443.696 75.9595 444.211C77.5325 444.452 76.8206 447.105 73.1234 447.139C67.0034 447.208 65.9011 446.749 60.6882 446.806C56.2216 446.806 58.3917 447.059 54.8093 447.139C53.9596 447.139 53.2592 446.611 53.374 445.991L54.4993 440.319Z" fill="#263238"/>
<path d="M29.0205 440.319C29.0768 440.176 29.1776 440.056 29.3079 439.975C29.4382 439.894 29.5911 439.858 29.7438 439.871L35.7605 439.768C36.5292 439.706 37.2992 439.87 37.9766 440.238C40.1352 441.742 39.8597 443.465 44.8659 444.211C46.439 444.452 45.6696 447.105 41.9609 447.139C35.8524 447.208 36.2198 446.806 33.7396 446.806C31.2595 446.806 32.7751 447.059 29.2271 447.139C28.3775 447.139 27.7 446.611 27.8263 445.991L29.0205 440.319Z" fill="#263238"/>
<path d="M63.6276 185.38C60.8145 184.656 54.8208 185.15 51.7321 188.744C45.7958 186.447 40.1121 178.272 40.2499 173.128C41.4657 171.987 43.0409 171.305 44.705 171.199C44.705 171.199 58.1162 177.687 63.6276 185.38Z" fill="#FAFAFA"/>
<path d="M68.657 184.943C68.657 184.943 69.4837 178.157 61.2739 171.567C62.1007 170.889 65.3501 171.658 65.3501 171.658C65.3501 171.658 74.9492 175.781 74.6622 186.47C72.9357 185.199 70.7812 184.651 68.657 184.943Z" fill="#FAFAFA"/>
<path d="M53.1672 148.545C52.6936 148.338 52.24 148.088 51.8123 147.798C51.7873 147.775 51.7673 147.746 51.7537 147.715C51.7401 147.683 51.7331 147.649 51.7331 147.615C51.7331 147.58 51.7401 147.546 51.7537 147.515C51.7673 147.483 51.7873 147.455 51.8123 147.431C51.8577 147.374 51.9225 147.335 51.9944 147.322C52.0664 147.31 52.1405 147.324 52.2027 147.362C53.1728 148.019 54.2788 148.447 55.438 148.616C56.5972 148.785 57.7796 148.69 58.8968 148.338C58.9298 148.323 58.9656 148.315 59.0018 148.314C59.0381 148.314 59.0741 148.32 59.1077 148.334C59.1412 148.348 59.1715 148.369 59.1967 148.395C59.2218 148.421 59.2414 148.452 59.254 148.486C59.2667 148.52 59.2722 148.557 59.2702 148.593C59.2682 148.629 59.2588 148.664 59.2425 148.697C59.2262 148.729 59.2035 148.758 59.1756 148.781C59.1477 148.804 59.1153 148.822 59.0805 148.832C57.1419 149.472 55.0348 149.369 53.1672 148.545Z" fill="#263238"/>
<path d="M158.183 168.868C154.389 167.623 150.334 167.398 146.426 168.214C143.796 168.627 139.295 166.273 136.252 162.553C136.121 163.349 136.155 164.164 136.353 164.947C136.551 165.729 136.907 166.463 137.4 167.102C137.894 167.74 138.513 168.271 139.221 168.66C139.928 169.048 140.708 169.288 141.511 169.362C137.458 172.232 129.914 169.052 129.053 163.759C128.192 158.465 133.979 158.511 130.442 149.234C126.906 139.956 136.31 144.078 139.33 130.277C142.349 116.475 157.219 117.646 159.687 122.756C168.219 119.242 172.456 124.409 175.763 132.194C178.645 139.083 178.059 144.469 182.319 155.882C186.338 166.71 170.412 172.313 158.183 168.868Z" fill="#263238"/>
<path d="M142.705 168.306C142.176 168.294 141.652 168.193 141.155 168.007C139.664 167.353 138.335 166.38 137.262 165.156C136.188 163.931 135.397 162.486 134.943 160.922C134.933 160.886 134.93 160.848 134.934 160.811C134.938 160.773 134.949 160.737 134.967 160.704C134.985 160.671 135.01 160.642 135.039 160.618C135.069 160.595 135.102 160.577 135.139 160.567C135.175 160.556 135.213 160.553 135.25 160.557C135.288 160.561 135.324 160.572 135.357 160.59C135.39 160.609 135.419 160.633 135.443 160.662C135.466 160.692 135.484 160.726 135.495 160.762C135.922 162.239 136.667 163.605 137.679 164.764C138.691 165.922 139.944 166.845 141.35 167.467C141.755 167.652 142.196 167.741 142.64 167.727C143.084 167.713 143.519 167.597 143.911 167.387C143.942 167.365 143.977 167.349 144.014 167.341C144.051 167.332 144.089 167.331 144.126 167.338C144.164 167.344 144.199 167.358 144.231 167.378C144.263 167.398 144.291 167.425 144.313 167.456C144.334 167.487 144.349 167.523 144.357 167.56C144.364 167.598 144.365 167.636 144.357 167.674C144.35 167.711 144.335 167.747 144.313 167.778C144.292 167.81 144.264 167.837 144.233 167.858C143.783 168.163 143.249 168.319 142.705 168.306Z" fill="#263238"/>
<path d="M178.093 146.639C178.018 146.625 177.951 146.582 177.906 146.52C177.861 146.458 177.842 146.382 177.852 146.306C179.46 137.12 177.99 129.944 173.73 126.04C172.441 124.844 170.869 123.994 169.162 123.571C167.456 123.147 165.669 123.163 163.97 123.617C163.933 123.627 163.895 123.63 163.857 123.625C163.819 123.621 163.782 123.608 163.749 123.589C163.715 123.57 163.686 123.544 163.663 123.513C163.64 123.483 163.624 123.448 163.614 123.41C163.604 123.374 163.601 123.336 163.606 123.299C163.611 123.262 163.624 123.226 163.643 123.193C163.662 123.161 163.688 123.133 163.719 123.111C163.749 123.089 163.784 123.074 163.821 123.066C165.618 122.581 167.51 122.56 169.317 123.006C171.125 123.452 172.789 124.349 174.155 125.615C176.715 127.911 180.665 133.767 178.461 146.398C178.454 146.438 178.439 146.477 178.416 146.512C178.394 146.547 178.365 146.576 178.33 146.599C178.295 146.622 178.257 146.637 178.216 146.644C178.175 146.651 178.133 146.649 178.093 146.639Z" fill="#263238"/>
<path d="M183.766 241.895C183.766 241.895 183.766 303.899 179.988 337.496C179.609 369.026 172.41 440.261 172.41 440.261H164.453C163.109 404.919 153.269 371.919 159.803 340.745C144.508 279.522 151.604 241.998 151.604 241.998L183.766 241.895Z" fill="#CE7A63"/>
<path d="M173.489 241.941C173.489 241.941 160.491 310.719 156.002 340.033C151.283 370.817 144.244 430.547 144.577 440.261H137.688C137.688 440.261 126.148 379.842 136.838 341.101C128.02 253.997 146.368 241.941 146.368 241.941H173.489Z" fill="#CE7A63"/>
<path d="M188.382 186.585C188.496 189.605 188.508 192.59 188.542 195.599C188.577 198.607 188.542 201.592 188.542 204.601C188.45 210.606 188.255 216.6 187.796 222.72L187.67 221.376C187.842 222.387 188.026 223.432 188.301 224.499C188.577 225.567 188.864 226.647 189.231 227.726C189.599 228.805 189.943 229.919 190.379 231.021C190.816 232.124 191.206 233.318 191.528 234.328L191.608 234.558C191.796 235.107 191.795 235.703 191.605 236.251C191.416 236.8 191.049 237.269 190.563 237.586C190.076 237.902 189.498 238.047 188.92 237.998C188.342 237.948 187.797 237.708 187.371 237.314C186.389 236.387 185.465 235.402 184.604 234.363C183.754 233.327 182.961 232.246 182.227 231.125C180.696 228.798 179.476 226.281 178.599 223.638C178.509 223.356 178.463 223.062 178.461 222.766V222.283C178.518 216.485 178.381 210.526 178.3 204.601L178.162 195.691L178.082 186.78C178.066 186.102 178.184 185.427 178.429 184.794C178.674 184.161 179.042 183.582 179.51 183.091C179.979 182.601 180.539 182.207 181.16 181.932C181.781 181.658 182.45 181.509 183.128 181.493C183.807 181.477 184.482 181.595 185.115 181.84C185.748 182.085 186.326 182.452 186.817 182.921C187.308 183.39 187.702 183.95 187.977 184.571C188.251 185.192 188.4 185.861 188.416 186.539L188.382 186.585Z" fill="#CE7A63"/>
<path d="M182.158 174.116C189.403 178.984 192.492 189.651 192.653 196.345C189.403 203.292 177.726 204.383 177.726 204.383C177.726 204.383 174.362 191.878 174.649 185.781C174.936 179.684 177.978 171.302 182.158 174.116Z" fill="#263238"/>
<path d="M188.198 185.299C188.195 181.88 186.886 178.59 184.538 176.104C182.19 173.617 178.981 172.122 175.567 171.923C173.604 171.796 171.549 171.693 169.562 171.67C163.433 171.685 157.312 172.142 151.248 173.036C149.514 173.243 147.803 173.507 146.207 173.794C144.791 174.044 143.441 174.583 142.242 175.378C141.044 176.173 140.022 177.207 139.242 178.416C138.462 179.624 137.939 180.98 137.707 182.4C137.475 183.82 137.539 185.272 137.894 186.666C144.554 211.777 145.484 230.149 142.947 241.413C142.947 241.413 134.909 252.103 131.304 276.606C128.135 298.008 131.2 334.774 127.733 354.156C140.202 363.078 179.517 361.861 185.373 356.636C183.72 317.436 192.343 268.545 186.257 244.834C192.366 235.649 187.819 215.325 186.257 206.943C194.674 199.709 188.186 194.634 188.198 185.299Z" fill="#0F969C"/>
<path opacity="0.2" d="M180.941 245.719C176.376 246.872 171.674 247.394 166.967 247.269C166.967 247.269 177.783 249.932 180.941 245.719Z" fill="black"/>
<path d="M187.188 237.899C183.743 236.406 185.075 231.102 185.075 231.102L184.283 228.093C184.189 227.828 184.157 227.545 184.189 227.265C184.221 226.986 184.317 226.717 184.468 226.48C184.62 226.243 184.824 226.044 185.064 225.898C185.305 225.751 185.575 225.662 185.856 225.636L187.831 225.372C188.578 225.327 189.321 225.506 189.966 225.887C190.61 226.267 191.126 226.832 191.447 227.508L191.895 228.472C192.64 230.026 192.842 231.785 192.469 233.467L191.907 235.821C191.779 236.342 191.544 236.83 191.218 237.256C190.702 237.779 190.033 238.123 189.308 238.239C188.583 238.354 187.84 238.235 187.188 237.899Z" fill="#CE7A63"/>
<path opacity="0.2" d="M162.076 323.361C160.928 307.585 162.076 283.989 171.71 270.761C169.195 287.537 162.076 323.361 162.076 323.361Z" fill="black"/>
<path d="M152.04 152.311C153.51 158.052 155.221 168.799 151.294 172.979C160.894 176.048 169.314 182.002 175.407 190.03C179.713 176.251 169.597 171.658 169.597 171.658C162.949 170.579 162.868 165.699 163.775 161.049L152.04 152.311Z" fill="#CE7A63"/>
<path opacity="0.2" d="M156.782 155.882L163.729 161.049C163.505 162.13 163.374 163.229 163.339 164.333C160.801 164.16 157.219 161.669 156.817 159.062C156.609 158.013 156.597 156.935 156.782 155.882Z" fill="black"/>
<path d="M145.22 141.988C148.022 151.381 149.009 155.423 154.9 159.108C163.752 164.666 174.534 158.959 174.569 148.866C174.569 139.772 169.976 125.902 159.929 124.478C149.882 123.054 142.43 132.596 145.22 141.988Z" fill="#CE7A63"/>
<path d="M159.481 123.479C166.692 132.665 148.412 130.104 150.134 137.82C151.857 145.536 142.407 147.351 144.634 153.253C133.164 151.346 138.87 118.668 159.481 123.479Z" fill="#263238"/>
<path d="M157.425 124.34C159.125 130.288 166.864 127.682 171.101 131.138C170.274 124.34 159.55 121.722 157.425 124.34Z" fill="#263238"/>
<path d="M158.861 141.104C159.045 141.885 159.607 142.413 160.112 142.253C160.618 142.092 160.893 141.391 160.709 140.622C160.526 139.853 159.975 139.313 159.458 139.474C158.941 139.635 158.677 140.301 158.861 141.104Z" fill="#263238"/>
<path d="M168.506 138.808C168.678 139.589 169.241 140.105 169.757 139.956C170.274 139.807 170.538 139.095 170.354 138.314C170.171 137.533 169.608 137.017 169.103 137.166C168.598 137.315 168.322 138.004 168.506 138.808Z" fill="#263238"/>
<path d="M168.885 137.269L170.641 136.247C170.641 136.247 170.01 138.004 168.885 137.269Z" fill="#263238"/>
<path d="M166.692 140.071C167.798 141.666 169.124 143.096 170.63 144.319C170.3 144.703 169.891 145.011 169.432 145.223C168.972 145.435 168.472 145.546 167.966 145.548L166.692 140.071Z" fill="#BA4D3C"/>
<path d="M145.151 151.415C145.725 152.096 146.441 152.644 147.248 153.02C148.055 153.397 148.934 153.594 149.824 153.597C152.121 153.539 152.488 150.922 151.237 148.774C150.089 146.834 147.574 144.537 145.588 145.64C143.601 146.742 143.624 149.647 145.151 151.415Z" fill="#CE7A63"/>
<path d="M157.035 137.774C157.153 137.715 157.243 137.612 157.288 137.487C157.463 136.917 157.768 136.394 158.178 135.96C158.589 135.526 159.093 135.192 159.653 134.984C159.773 134.952 159.875 134.873 159.938 134.766C160 134.658 160.017 134.53 159.986 134.41C159.972 134.35 159.945 134.294 159.908 134.244C159.87 134.195 159.823 134.154 159.769 134.124C159.715 134.094 159.656 134.075 159.594 134.069C159.533 134.063 159.471 134.07 159.412 134.089C158.698 134.335 158.053 134.746 157.528 135.289C157.004 135.832 156.614 136.49 156.392 137.212C156.372 137.27 156.365 137.331 156.369 137.392C156.373 137.453 156.39 137.513 156.418 137.567C156.446 137.622 156.484 137.67 156.531 137.71C156.578 137.749 156.632 137.779 156.691 137.797C156.804 137.83 156.926 137.822 157.035 137.774Z" fill="#263238"/>
<path d="M172.031 134.169C172.123 134.169 172.212 134.142 172.289 134.093C172.366 134.043 172.428 133.973 172.466 133.89C172.505 133.807 172.519 133.714 172.507 133.623C172.495 133.532 172.457 133.447 172.398 133.377C171.912 132.818 171.298 132.385 170.608 132.115C169.918 131.846 169.173 131.746 168.437 131.827C168.313 131.847 168.201 131.914 168.126 132.015C168.051 132.116 168.019 132.242 168.035 132.366C168.055 132.487 168.121 132.596 168.22 132.669C168.319 132.742 168.442 132.773 168.563 132.757C169.149 132.697 169.741 132.781 170.287 133.001C170.833 133.221 171.317 133.571 171.698 134.02C171.739 134.068 171.79 134.106 171.848 134.132C171.905 134.158 171.968 134.17 172.031 134.169Z" fill="#263238"/>
<path d="M159.24 139.566L160.997 138.555C160.997 138.555 160.377 140.301 159.24 139.566Z" fill="#263238"/>
<path d="M159.446 242.618L168.15 243.858L163.924 252.987C163.924 252.987 157.885 250.587 155.313 246.499L155.416 245.144C156.553 243.284 157.265 242.699 159.446 242.618Z" fill="#CE7A63"/>
<path d="M171.733 249.645L169.379 253.308C169.036 253.834 168.509 254.213 167.902 254.37C167.294 254.527 166.649 254.452 166.095 254.158L163.925 253.01L168.15 243.881L171.204 246.384C171.673 246.771 171.986 247.315 172.083 247.915C172.18 248.515 172.055 249.13 171.733 249.645Z" fill="#CE7A63"/>
<path d="M147.516 186.39C145.92 192.349 144.29 198.389 142.774 204.36C142.039 207.357 141.327 210.353 140.684 213.316C140.363 214.785 140.087 216.267 139.846 217.69C139.731 218.402 139.628 219.103 139.548 219.769C139.473 220.348 139.431 220.93 139.421 221.514C139.329 222.984 140.34 225.223 141.97 227.324C143.749 229.542 145.742 231.58 147.918 233.41C150.202 235.374 152.59 237.214 155.072 238.921C157.552 240.666 160.17 242.366 162.719 243.927L162.811 243.985C163.42 244.289 163.883 244.823 164.098 245.469C164.313 246.115 164.263 246.82 163.959 247.429C163.654 248.038 163.12 248.502 162.474 248.717C161.828 248.932 161.123 248.882 160.514 248.578C154.4 246.266 148.571 243.261 143.142 239.621C140.274 237.7 137.639 235.454 135.288 232.927C133.991 231.533 132.861 229.992 131.923 228.334C130.832 226.391 130.181 224.231 130.017 222.008C129.959 221.025 129.959 220.04 130.017 219.057C130.017 218.161 130.132 217.3 130.224 216.45C130.408 214.763 130.649 213.144 130.913 211.536C131.43 208.321 132.061 205.186 132.773 202.075C134.151 195.828 135.713 189.72 137.527 183.588C137.925 182.301 138.81 181.219 139.994 180.575C141.178 179.931 142.567 179.775 143.865 180.14C145.162 180.506 146.265 181.364 146.939 182.532C147.613 183.699 147.803 185.084 147.47 186.39H147.516Z" fill="#CE7A63"/>
<path d="M142.533 175.195C136.792 177.893 134.163 181.981 129.799 193.245C131.326 200.754 144.634 205.198 144.634 205.198C146.607 200.58 148.178 195.801 149.331 190.914C150.49 184.92 148.366 172.451 142.533 175.195Z" fill="#263238"/>
<path d="M163.833 440.319C163.889 440.176 163.99 440.055 164.12 439.975C164.25 439.894 164.403 439.858 164.556 439.871L171.95 439.767C172.723 439.709 173.496 439.872 174.178 440.238C177.56 442.343 181.354 443.698 185.304 444.211C186.877 444.452 186.165 447.105 182.468 447.139C176.348 447.208 175.246 446.749 170.021 446.806C165.566 446.806 167.725 447.059 164.143 447.139C163.293 447.139 162.604 446.611 162.719 445.991L163.833 440.319Z" fill="#263238"/>
<path d="M136.758 440.319C136.814 440.176 136.915 440.056 137.045 439.975C137.176 439.894 137.328 439.858 137.481 439.871L143.498 439.768C144.267 439.706 145.037 439.87 145.714 440.238C147.873 441.742 147.597 443.465 152.603 444.211C154.176 444.452 153.407 447.105 149.698 447.139C143.59 447.208 143.957 446.806 141.477 446.806C138.997 446.806 140.512 447.059 136.964 447.139C136.115 447.139 135.437 446.611 135.564 445.991L136.758 440.319Z" fill="#263238"/>
<path d="M171.376 185.38C168.563 184.656 162.569 185.15 159.481 188.744C153.544 186.447 147.861 178.272 147.998 173.128C149.214 171.987 150.79 171.305 152.454 171.199C152.454 171.199 165.819 177.687 171.376 185.38Z" fill="#FAFAFA"/>
<path d="M176.394 184.943C176.394 184.943 177.221 178.157 169.011 171.567C169.838 170.889 173.087 171.658 173.087 171.658C173.087 171.658 182.687 175.781 182.4 186.47C180.673 185.199 178.519 184.651 176.394 184.943Z" fill="#FAFAFA"/>
<path d="M160.905 148.545C160.431 148.338 159.977 148.088 159.55 147.798C159.525 147.775 159.505 147.746 159.491 147.715C159.477 147.683 159.47 147.649 159.47 147.615C159.47 147.58 159.477 147.546 159.491 147.515C159.505 147.483 159.525 147.455 159.55 147.431C159.595 147.374 159.66 147.335 159.732 147.322C159.804 147.31 159.878 147.324 159.94 147.362C160.91 148.019 162.016 148.447 163.175 148.616C164.335 148.785 165.517 148.69 166.634 148.338C166.667 148.323 166.703 148.315 166.739 148.314C166.775 148.314 166.811 148.32 166.845 148.334C166.879 148.348 166.909 148.369 166.934 148.395C166.959 148.421 166.979 148.452 166.991 148.486C167.004 148.52 167.01 148.557 167.008 148.593C167.006 148.629 166.996 148.664 166.98 148.697C166.964 148.729 166.941 148.758 166.913 148.781C166.885 148.804 166.853 148.822 166.818 148.832C164.879 149.472 162.772 149.369 160.905 148.545Z" fill="#263238"/>
<path d="M265.508 168.868C261.71 167.623 257.651 167.397 253.738 168.214C251.12 168.627 246.608 166.273 243.565 162.553C243.434 163.35 243.469 164.166 243.667 164.949C243.865 165.733 244.223 166.467 244.717 167.105C245.212 167.744 245.833 168.275 246.541 168.663C247.25 169.051 248.031 169.289 248.835 169.362C244.771 172.232 237.227 169.052 236.366 163.759C235.505 158.465 241.303 158.511 237.767 149.234C234.23 139.956 243.634 144.078 246.654 130.277C249.674 116.475 264.543 117.646 267.012 122.756C275.543 119.242 279.78 124.409 283.029 132.194C285.911 139.083 285.326 144.469 289.574 155.882C293.662 166.71 277.69 172.313 265.508 168.868Z" fill="#263238"/>
<path d="M250.03 168.306C249.5 168.295 248.976 168.194 248.48 168.007C246.987 167.355 245.657 166.382 244.583 165.158C243.509 163.933 242.719 162.487 242.268 160.922C242.246 160.849 242.255 160.771 242.292 160.704C242.328 160.637 242.39 160.588 242.463 160.567C242.536 160.545 242.615 160.554 242.681 160.59C242.748 160.627 242.797 160.689 242.819 160.762C243.242 162.241 243.987 163.609 244.999 164.768C246.011 165.927 247.266 166.849 248.675 167.467C249.079 167.652 249.52 167.741 249.964 167.727C250.409 167.713 250.844 167.597 251.235 167.387C251.265 167.365 251.299 167.35 251.335 167.341C251.371 167.333 251.409 167.332 251.445 167.339C251.481 167.345 251.516 167.359 251.547 167.379C251.578 167.399 251.605 167.425 251.626 167.456C251.648 167.487 251.663 167.522 251.672 167.559C251.68 167.596 251.681 167.634 251.675 167.671C251.669 167.709 251.655 167.744 251.635 167.776C251.614 167.808 251.588 167.836 251.557 167.858C251.106 168.161 250.573 168.318 250.03 168.306Z" fill="#263238"/>
<path d="M285.418 146.639H285.36C285.287 146.622 285.223 146.579 285.18 146.517C285.138 146.455 285.12 146.38 285.131 146.306C286.738 137.12 285.268 129.944 281.009 126.04C279.717 124.844 278.143 123.994 276.435 123.571C274.726 123.147 272.938 123.163 271.237 123.617C271.167 123.628 271.095 123.613 271.036 123.575C270.976 123.536 270.933 123.477 270.914 123.409C270.896 123.34 270.903 123.267 270.935 123.204C270.967 123.141 271.022 123.091 271.088 123.066C272.885 122.583 274.776 122.563 276.583 123.009C278.391 123.455 280.055 124.351 281.422 125.615C283.971 127.911 287.932 133.767 285.716 146.398C285.705 146.468 285.668 146.531 285.613 146.575C285.558 146.62 285.488 146.642 285.418 146.639Z" fill="#263238"/>
<path d="M294.018 241.895C294.018 241.895 294.018 303.899 290.252 337.496C289.861 369.026 282.662 440.261 282.662 440.261H274.705C273.361 404.919 263.521 371.919 270.112 340.745C254.806 279.522 261.902 241.998 261.902 241.998L294.018 241.895Z" fill="#CE7A63"/>
<path d="M280.813 241.941C280.813 241.941 267.815 310.719 263.314 340.033C258.595 370.817 251.568 430.547 251.832 440.261H244.943C244.943 440.261 233.403 379.842 244.082 341.101C235.275 253.997 253.623 241.941 253.623 241.941H280.813Z" fill="#CE7A63"/>
<path d="M295.706 186.585C295.82 189.605 295.82 192.591 295.866 195.599C295.912 198.607 295.866 201.593 295.866 204.601C295.774 210.606 295.579 216.6 295.12 222.72L294.982 221.376C294.982 221.56 294.982 221.537 294.707 221.273C294.365 220.954 293.922 220.767 293.455 220.745C293.145 220.745 293.237 220.883 293.455 220.894C293.805 220.89 294.153 220.836 294.488 220.733C295.454 220.465 296.392 220.108 297.29 219.665C298.278 219.252 299.311 218.667 300.264 218.196L300.505 218.081C301.024 217.826 301.613 217.751 302.18 217.867C302.746 217.984 303.258 218.286 303.634 218.725C304.01 219.164 304.23 219.716 304.258 220.294C304.286 220.872 304.121 221.442 303.789 221.916C303.009 223.018 302.146 224.059 301.206 225.028C300.201 226.053 299.084 226.962 297.876 227.737C297.154 228.202 296.384 228.587 295.579 228.886C294.446 229.302 293.23 229.444 292.031 229.299C291.228 229.195 290.45 228.946 289.735 228.564C288.992 228.17 288.327 227.645 287.771 227.014C286.936 226.041 286.325 224.897 285.98 223.661C285.885 223.372 285.838 223.07 285.842 222.766V222.306C285.842 216.508 285.762 210.549 285.67 204.624L285.544 195.714L285.463 186.803C285.431 185.433 285.945 184.106 286.892 183.115C287.838 182.123 289.139 181.548 290.51 181.516C291.88 181.484 293.207 181.998 294.199 182.944C295.19 183.89 295.765 185.192 295.797 186.562L295.706 186.585Z" fill="#CE7A63"/>
<path d="M289.471 174.116C296.728 178.984 299.805 189.651 299.977 196.345C296.728 203.292 285.05 204.383 285.05 204.383C285.05 204.383 281.686 191.878 281.973 185.781C282.26 179.684 285.303 171.302 289.471 174.116Z" fill="#263238"/>
<path d="M295.568 185.299C295.565 181.88 294.256 178.59 291.908 176.104C289.56 173.617 286.351 172.122 282.937 171.923C280.974 171.796 278.919 171.693 276.932 171.67C270.783 171.682 264.644 172.139 258.561 173.036C256.815 173.243 255.116 173.507 253.52 173.794C252.103 174.044 250.753 174.583 249.554 175.378C248.355 176.173 247.333 177.207 246.552 178.415C245.77 179.623 245.247 180.979 245.013 182.399C244.78 183.819 244.842 185.271 245.195 186.666C251.855 211.777 252.785 230.149 250.259 241.413C250.259 241.413 242.222 252.103 238.616 276.606C235.436 298.008 238.513 334.774 235.045 354.156C247.515 363.078 287.588 361.723 293.604 356.636C292.881 317.413 305.087 268.729 298.955 245.018C305.075 235.832 304.581 215.612 293.604 206.897C301.998 199.709 295.568 194.634 295.568 185.299Z" fill="#0F969C"/>
<path opacity="0.2" d="M295.935 245.937C288.679 247.418 281.252 247.89 273.867 247.338C273.867 247.338 290.654 252.286 295.935 245.937Z" fill="black"/>
<path d="M301.63 223.719C297.933 223.179 297.807 217.713 297.807 217.713L296.245 215.027C296.084 214.795 295.978 214.53 295.936 214.251C295.894 213.973 295.916 213.688 296.002 213.419C296.087 213.151 296.233 212.905 296.429 212.702C296.624 212.499 296.864 212.344 297.129 212.248L299.012 211.49C299.723 211.254 300.489 211.237 301.21 211.441C301.931 211.646 302.573 212.063 303.054 212.638L303.743 213.454C304.869 214.759 305.524 216.405 305.603 218.127L305.683 220.55C305.695 221.084 305.597 221.616 305.396 222.111C305.034 222.748 304.478 223.253 303.809 223.553C303.14 223.852 302.393 223.93 301.676 223.776L301.63 223.719Z" fill="#CE7A63"/>
<path opacity="0.2" d="M270.698 323.361C269.607 307.585 270.698 283.989 280.331 270.761C277.817 287.537 270.698 323.361 270.698 323.361Z" fill="black"/>
<path d="M259.318 152.311C260.777 158.052 262.487 168.799 258.572 172.979C268.17 176.051 276.589 182.005 282.685 190.03C286.99 176.251 276.875 171.658 276.875 171.658C270.215 170.579 270.135 165.699 271.042 161.049L259.318 152.311Z" fill="#CE7A63"/>
<path opacity="0.2" d="M264.106 155.882L270.996 161.049C270.768 162.13 270.634 163.229 270.594 164.333C268.068 164.16 264.474 161.669 264.072 159.062C263.891 158.009 263.903 156.931 264.106 155.882Z" fill="black"/>
<path d="M252.544 141.988C255.334 151.381 256.322 155.423 262.212 159.108C271.076 164.666 281.858 158.959 281.892 148.866C281.892 139.772 277.299 125.902 267.253 124.478C257.206 123.054 249.754 132.596 252.544 141.988Z" fill="#CE7A63"/>
<path d="M266.862 123.479C274.073 132.665 255.794 130.104 257.516 137.82C259.238 145.536 249.788 147.351 252.016 153.253C240.453 151.346 246.194 118.668 266.862 123.479Z" fill="#263238"/>
<path d="M264.75 124.34C266.449 130.288 274.188 127.682 278.425 131.138C277.598 124.34 266.862 121.722 264.75 124.34Z" fill="#263238"/>
<path d="M266.185 141.104C266.357 141.885 266.92 142.413 267.436 142.253C267.953 142.092 268.217 141.391 268.033 140.622C267.85 139.853 267.287 139.313 266.782 139.474C266.277 139.635 266.001 140.301 266.185 141.104Z" fill="#263238"/>
<path d="M275.818 138.808C276.002 139.589 276.565 140.105 277.07 139.956C277.575 139.807 277.851 139.095 277.667 138.314C277.483 137.533 276.932 137.017 276.415 137.166C275.899 137.315 275.646 138.004 275.818 138.808Z" fill="#263238"/>
<path d="M276.209 137.269L277.954 136.247C277.954 136.247 277.334 138.004 276.209 137.269Z" fill="#263238"/>
<path d="M274.016 140.071C275.121 141.666 276.447 143.096 277.954 144.319C277.623 144.702 277.214 145.01 276.755 145.222C276.296 145.434 275.796 145.545 275.29 145.548L274.016 140.071Z" fill="#BA4D3C"/>
<path d="M252.498 151.415C253.072 152.096 253.788 152.644 254.595 153.02C255.402 153.397 256.281 153.594 257.171 153.597C259.468 153.539 259.835 150.922 258.584 148.774C257.435 146.834 254.909 144.537 252.934 145.64C250.959 146.742 250.936 149.647 252.498 151.415Z" fill="#CE7A63"/>
<path d="M264.359 137.774C264.477 137.715 264.568 137.612 264.612 137.487C264.782 136.924 265.077 136.407 265.475 135.974C265.872 135.54 266.362 135.202 266.908 134.984C267.029 134.952 267.132 134.874 267.197 134.767C267.261 134.66 267.281 134.532 267.253 134.41C267.239 134.35 267.212 134.294 267.175 134.244C267.137 134.195 267.09 134.154 267.036 134.124C266.982 134.094 266.923 134.075 266.861 134.069C266.8 134.063 266.738 134.07 266.679 134.089C265.964 134.333 265.318 134.744 264.793 135.287C264.268 135.83 263.88 136.49 263.659 137.212C263.639 137.27 263.632 137.331 263.636 137.392C263.64 137.453 263.657 137.513 263.685 137.567C263.713 137.622 263.751 137.67 263.798 137.71C263.845 137.749 263.899 137.779 263.958 137.797C264.023 137.821 264.092 137.832 264.161 137.828C264.23 137.824 264.298 137.806 264.359 137.774Z" fill="#263238"/>
<path d="M279.355 134.169C279.414 134.171 279.473 134.161 279.529 134.139C279.584 134.117 279.634 134.085 279.676 134.043C279.72 133.999 279.755 133.947 279.778 133.89C279.802 133.833 279.814 133.772 279.814 133.71C279.814 133.648 279.802 133.587 279.778 133.529C279.755 133.472 279.72 133.42 279.676 133.377C279.189 132.816 278.573 132.383 277.881 132.113C277.189 131.843 276.442 131.745 275.704 131.827C275.585 131.851 275.481 131.919 275.412 132.018C275.343 132.116 275.314 132.238 275.331 132.357C275.349 132.476 275.412 132.584 275.507 132.658C275.602 132.733 275.721 132.768 275.841 132.757C276.427 132.699 277.018 132.784 277.564 133.004C278.109 133.224 278.594 133.572 278.976 134.02C279.021 134.075 279.079 134.118 279.146 134.144C279.212 134.17 279.284 134.179 279.355 134.169Z" fill="#263238"/>
<path d="M266.564 139.566L268.32 138.555C268.32 138.555 267.689 140.301 266.564 139.566Z" fill="#263238"/>
<path d="M271.455 237.084L280.101 235.545L278.953 245.535C278.953 245.535 272.466 245.144 268.746 242.09L268.424 240.77C268.895 238.623 269.4 237.899 271.455 237.084Z" fill="#CE7A63"/>
<path d="M285.303 239.909L284.212 244.122C284.056 244.731 283.677 245.259 283.148 245.6C282.62 245.94 281.983 246.069 281.364 245.96L278.941 245.535L280.09 235.545L283.776 236.958C284.348 237.175 284.821 237.597 285.103 238.141C285.384 238.686 285.456 239.315 285.303 239.909Z" fill="#CE7A63"/>
<path d="M254.841 186.39C253.245 192.338 251.614 198.378 250.099 204.348C249.364 207.334 248.652 210.33 248.009 213.281C247.687 214.763 247.412 216.232 247.171 217.656C247.056 218.368 246.952 219.068 246.872 219.734C246.792 220.4 246.746 221.043 246.734 221.503V222.031C246.755 222.197 246.785 222.362 246.826 222.525C246.939 222.926 247.101 223.311 247.308 223.673C247.881 224.637 248.602 225.505 249.444 226.245C251.545 228.051 253.858 229.593 256.333 230.838C258.974 232.253 261.701 233.503 264.497 234.581C267.299 235.729 270.238 236.751 273.074 237.681H273.178C273.808 237.862 274.345 238.278 274.677 238.842C275.01 239.407 275.114 240.078 274.966 240.717C274.819 241.356 274.433 241.914 273.886 242.276C273.34 242.639 272.675 242.777 272.029 242.664C265.547 241.866 259.186 240.285 253.084 237.957C249.807 236.698 246.716 234.998 243.898 232.904C242.284 231.685 240.869 230.22 239.707 228.564C239.044 227.612 238.508 226.577 238.111 225.487C237.906 224.905 237.738 224.31 237.606 223.707C237.606 223.397 237.503 223.087 237.457 222.777L237.376 221.905C237.324 220.925 237.324 219.944 237.376 218.965C237.434 218.069 237.503 217.22 237.594 216.37C237.778 214.682 238.019 213.063 238.283 211.467C238.8 208.252 239.432 205.118 240.143 202.006C241.521 195.771 243.071 189.663 244.886 183.543C245.07 182.889 245.38 182.278 245.801 181.744C246.221 181.211 246.742 180.765 247.334 180.433C247.926 180.101 248.578 179.889 249.253 179.809C249.927 179.728 250.61 179.782 251.264 179.966C251.918 180.15 252.529 180.461 253.062 180.881C253.596 181.301 254.041 181.822 254.373 182.414C254.705 183.007 254.918 183.658 254.998 184.333C255.078 185.007 255.025 185.691 254.841 186.344V186.39Z" fill="#CE7A63"/>
<path d="M249.857 175.195C244.116 177.893 241.487 181.981 237.124 193.245C238.651 200.754 251.959 205.198 251.959 205.198C253.931 200.58 255.503 195.801 256.655 190.914C257.814 184.92 255.69 172.451 249.857 175.195Z" fill="#263238"/>
<path d="M274.085 440.319C274.141 440.176 274.242 440.055 274.372 439.975C274.502 439.894 274.655 439.858 274.808 439.871L282.203 439.767C282.975 439.709 283.748 439.872 284.43 440.238C287.812 442.343 291.606 443.698 295.556 444.211C297.129 444.452 296.417 447.105 292.72 447.139C286.6 447.208 285.498 446.749 280.274 446.806C275.818 446.806 277.977 447.059 274.406 447.139C273.556 447.139 272.856 446.611 272.971 445.991L274.085 440.319Z" fill="#263238"/>
<path d="M244.07 440.319C244.13 440.176 244.233 440.056 244.365 439.976C244.497 439.896 244.651 439.859 244.805 439.871L250.822 439.768C251.59 439.706 252.36 439.87 253.038 440.238C255.196 441.742 254.921 443.465 259.927 444.211C261.489 444.452 260.719 447.105 257.022 447.139C250.902 447.208 251.281 446.806 248.801 446.806C246.321 446.806 247.836 447.059 244.288 447.139C243.439 447.139 242.75 446.611 242.887 445.991L244.07 440.319Z" fill="#263238"/>
<path d="M278.7 185.38C275.887 184.656 269.894 185.15 266.805 188.744C260.857 186.447 255.173 178.272 255.323 173.128C256.535 171.988 258.106 171.306 259.766 171.199C259.766 171.199 273.166 177.687 278.7 185.38Z" fill="#FAFAFA"/>
<path d="M283.707 184.943C283.707 184.943 284.545 178.157 276.335 171.567C277.162 170.889 280.4 171.658 280.4 171.658C280.4 171.658 289.999 175.781 289.723 186.47C287.993 185.198 285.835 184.65 283.707 184.943Z" fill="#FAFAFA"/>
<path d="M268.229 148.545C267.751 148.338 267.294 148.089 266.862 147.798C266.837 147.775 266.817 147.746 266.804 147.715C266.79 147.683 266.783 147.649 266.783 147.615C266.783 147.58 266.79 147.546 266.804 147.515C266.817 147.483 266.837 147.455 266.862 147.431C266.908 147.374 266.972 147.335 267.044 147.322C267.116 147.31 267.19 147.324 267.253 147.362C268.223 148.019 269.329 148.447 270.488 148.616C271.647 148.785 272.829 148.69 273.947 148.338C274.014 148.311 274.089 148.312 274.155 148.34C274.222 148.368 274.275 148.421 274.303 148.487C274.325 148.556 274.319 148.63 274.287 148.695C274.254 148.759 274.198 148.808 274.13 148.832C272.195 149.469 270.093 149.366 268.229 148.545Z" fill="#263238"/>
<path d="M372.407 170.338C368.996 168.257 365.102 167.101 361.108 166.985C358.467 166.79 354.621 163.46 352.519 159.143C352.208 159.887 352.053 160.687 352.064 161.494C352.076 162.301 352.254 163.097 352.587 163.832C352.92 164.567 353.401 165.225 354 165.765C354.598 166.306 355.302 166.717 356.067 166.974C351.475 168.834 344.849 164 345.24 158.649C345.63 153.298 351.245 154.688 349.936 144.87C348.627 135.053 356.825 141.219 362.957 128.485C369.088 115.752 383.269 120.333 384.509 125.856C393.614 124.409 396.554 130.449 397.92 138.728C399.126 146.088 397.277 151.186 398.827 163.288C400.308 174.747 383.475 176.504 372.407 170.338Z" fill="#263238"/>
<path d="M357.158 164.723C356.624 164.711 356.095 164.607 355.597 164.413C354.106 163.763 352.778 162.792 351.706 161.57C350.634 160.347 349.846 158.903 349.396 157.34C349.384 157.304 349.38 157.266 349.383 157.228C349.386 157.19 349.397 157.153 349.416 157.119C349.434 157.086 349.459 157.056 349.489 157.033C349.52 157.01 349.554 156.993 349.592 156.984C349.628 156.974 349.666 156.97 349.703 156.974C349.741 156.978 349.777 156.99 349.81 157.008C349.843 157.026 349.872 157.051 349.896 157.08C349.919 157.109 349.937 157.143 349.947 157.179C350.369 158.656 351.111 160.022 352.122 161.179C353.132 162.337 354.385 163.256 355.792 163.873C356.195 164.061 356.636 164.152 357.08 164.14C357.525 164.128 357.96 164.014 358.352 163.805C358.383 163.783 358.418 163.767 358.455 163.759C358.492 163.75 358.53 163.749 358.568 163.756C358.605 163.762 358.641 163.776 358.673 163.796C358.705 163.816 358.732 163.843 358.754 163.873C358.776 163.904 358.792 163.939 358.8 163.976C358.808 164.013 358.81 164.051 358.803 164.089C358.797 164.126 358.783 164.162 358.763 164.194C358.743 164.226 358.716 164.253 358.685 164.275C358.234 164.577 357.701 164.734 357.158 164.723Z" fill="#263238"/>
<path d="M395.669 153.528C395.628 153.538 395.585 153.538 395.543 153.528C395.476 153.491 395.426 153.431 395.402 153.358C395.379 153.285 395.384 153.206 395.417 153.138C399.608 144.824 400.285 137.522 397.334 132.55C396.443 131.034 395.184 129.767 393.672 128.868C392.16 127.968 390.446 127.465 388.688 127.406C388.612 127.406 388.539 127.376 388.485 127.322C388.431 127.268 388.401 127.195 388.401 127.119C388.401 127.043 388.431 126.97 388.485 126.916C388.539 126.862 388.612 126.832 388.688 126.832C390.543 126.893 392.352 127.423 393.947 128.373C395.541 129.322 396.868 130.661 397.805 132.263C399.573 135.237 401.675 141.942 395.911 153.402C395.883 153.44 395.847 153.472 395.805 153.494C395.763 153.516 395.717 153.528 395.669 153.528Z" fill="#263238"/>
<path d="M397.116 241.895C397.116 241.895 397.116 303.899 393.339 337.496C392.96 369.026 385.76 440.261 385.76 440.261H377.803C376.46 404.919 366.62 371.919 373.153 340.745C357.859 279.522 364.955 241.998 364.955 241.998L397.116 241.895Z" fill="#CE7A63"/>
<path d="M388.447 241.941C388.447 241.941 375.449 310.719 370.948 340.033C366.229 370.817 359.202 430.547 359.523 440.261H352.634C352.634 440.261 341.152 379.842 351.773 341.101C342.966 253.997 361.315 241.941 361.315 241.941H388.447Z" fill="#CE7A63"/>
<path d="M403.236 187.722C402.754 190.42 402.249 193.291 401.859 196.081C401.468 198.871 401.078 201.707 400.768 204.509C400.458 207.311 400.262 210.089 400.182 212.811C400.07 215.404 400.197 218.002 400.561 220.573L400.09 219.309C399.975 219.16 399.631 218.977 399.711 219.103C400.024 219.311 400.392 219.423 400.768 219.424C402.22 219.526 403.68 219.433 405.108 219.149C406.727 218.885 408.403 218.471 410.08 218.001C411.756 217.53 413.524 217.013 415.12 216.508H415.247C415.843 216.289 416.5 216.297 417.09 216.531C417.681 216.765 418.165 217.209 418.449 217.777C418.733 218.346 418.798 218.999 418.631 219.612C418.464 220.225 418.076 220.755 417.543 221.101C415.961 222.236 414.312 223.275 412.606 224.212C410.865 225.171 409.058 226.004 407.198 226.704C405.123 227.504 402.94 227.988 400.722 228.139C399.25 228.221 397.777 228.018 396.381 227.542C394.502 226.878 392.919 225.568 391.915 223.845C391.72 223.483 391.574 223.097 391.479 222.697V222.559C390.76 219.377 390.375 216.129 390.33 212.868C390.25 209.733 390.33 206.679 390.583 203.682C390.836 200.685 391.146 197.654 391.559 194.669C391.972 191.683 392.455 188.778 393.121 185.724C393.409 184.404 394.203 183.25 395.332 182.508C396.461 181.767 397.836 181.497 399.162 181.757C400.488 182.017 401.659 182.785 402.425 183.898C403.191 185.011 403.49 186.379 403.259 187.71L403.236 187.722Z" fill="#CE7A63"/>
<path d="M397.105 174.116C404.361 178.984 407.439 189.651 407.611 196.345C404.361 203.292 392.684 204.383 392.684 204.383C392.684 204.383 389.32 191.878 389.607 185.781C389.894 179.684 392.937 171.302 397.105 174.116Z" fill="#263238"/>
<path d="M403.156 185.299C403.15 181.88 401.84 178.592 399.493 176.107C397.146 173.621 393.938 172.124 390.525 171.922C388.562 171.796 386.507 171.693 384.52 171.67C378.371 171.682 372.232 172.138 366.149 173.036C364.403 173.243 362.704 173.507 361.108 173.794C359.691 174.044 358.341 174.583 357.142 175.378C355.943 176.173 354.921 177.207 354.14 178.415C353.358 179.623 352.835 180.979 352.601 182.399C352.368 183.818 352.43 185.271 352.783 186.666C359.443 211.777 360.373 230.149 357.847 241.413C357.847 241.413 349.81 252.103 346.193 276.606C343.024 298.008 346.089 334.774 342.633 354.156C355.103 363.078 392.443 361.861 398.287 356.636C396.645 317.436 404.649 266.076 398.563 242.366C400.997 229.219 401.617 214.808 402.111 206.771C410.596 199.537 403.144 194.634 403.156 185.299Z" fill="#0F969C"/>
<path d="M368.594 232.962C369.375 223.489 390.973 186.298 405.165 186.826C419.357 187.355 423.169 198.205 418.53 211.616C413.892 225.028 400.859 240.012 385.565 241.952C370.271 243.893 368.135 238.416 368.594 232.962Z" fill="#0F969C"/>
<path opacity="0.8" d="M368.594 232.962C369.375 223.489 390.973 186.298 405.165 186.826C419.357 187.355 423.169 198.205 418.53 211.616C413.892 225.028 400.859 240.012 385.565 241.952C370.271 243.893 368.135 238.416 368.594 232.962Z" fill="white"/>
<path d="M393.683 198.538C397.392 191.304 405.165 189.708 410.183 192.407C415.201 195.105 412.617 204.279 408.92 206.748C405.223 209.217 388.493 208.677 393.683 198.538Z" fill="#CE7A63"/>
<path opacity="0.3" d="M394.395 215.337C387.195 215.337 381.282 214.303 379.652 212.443C379.426 212.215 379.277 211.921 379.228 211.604C379.178 211.286 379.23 210.961 379.376 210.675C379.389 210.636 379.41 210.601 379.437 210.571C379.464 210.541 379.498 210.518 379.535 210.502C379.572 210.485 379.612 210.477 379.653 210.478C379.693 210.479 379.733 210.488 379.77 210.505C379.807 210.522 379.839 210.547 379.866 210.577C379.892 210.608 379.912 210.644 379.924 210.683C379.935 210.722 379.938 210.763 379.933 210.803C379.928 210.843 379.914 210.882 379.893 210.916C379.794 211.102 379.759 211.316 379.795 211.523C379.83 211.731 379.933 211.921 380.088 212.064C382.855 215.222 402.145 216.209 416.245 211.616C416.282 211.597 416.323 211.587 416.365 211.585C416.406 211.584 416.448 211.591 416.486 211.607C416.525 211.623 416.559 211.647 416.587 211.678C416.616 211.709 416.637 211.745 416.649 211.785C416.662 211.824 416.666 211.866 416.661 211.908C416.656 211.949 416.641 211.989 416.619 212.024C416.597 212.059 416.568 212.089 416.533 212.112C416.498 212.135 416.459 212.15 416.418 212.156C409.276 214.306 401.853 215.378 394.395 215.337Z" fill="#0F969C"/>
<path opacity="0.3" d="M400.4 231.389C398.015 231.35 395.653 230.92 393.408 230.114C389.879 228.945 386.635 227.049 383.884 224.55C381.133 222.05 378.936 219.001 377.436 215.601C377.408 215.53 377.408 215.452 377.436 215.382C377.464 215.312 377.517 215.254 377.585 215.222C377.621 215.207 377.659 215.199 377.697 215.199C377.735 215.199 377.773 215.207 377.809 215.222C377.844 215.237 377.876 215.259 377.903 215.287C377.929 215.314 377.95 215.347 377.964 215.383C379.434 218.708 381.584 221.689 384.275 224.133C386.967 226.577 390.14 228.431 393.591 229.575C398.276 231.194 402.685 231.239 405.395 229.701C405.427 229.677 405.465 229.661 405.504 229.652C405.543 229.644 405.584 229.644 405.623 229.652C405.662 229.66 405.699 229.677 405.732 229.7C405.765 229.724 405.792 229.754 405.812 229.789C405.832 229.823 405.845 229.862 405.849 229.902C405.854 229.942 405.849 229.982 405.837 230.021C405.825 230.059 405.805 230.094 405.778 230.124C405.751 230.154 405.719 230.178 405.682 230.195C404.053 231.04 402.234 231.452 400.4 231.389Z" fill="#0F969C"/>
<path d="M402.26 196.965C401.463 197.214 400.693 197.545 399.964 197.953C399.821 198.035 399.702 198.154 399.619 198.297C399.537 198.44 399.493 198.603 399.493 198.768C399.493 198.933 399.537 199.095 399.619 199.238C399.702 199.382 399.821 199.5 399.964 199.583C400.252 199.744 400.556 199.875 400.871 199.973L402.26 196.965Z" fill="#BA4D3C"/>
<path d="M404.844 197.264C404.918 197.268 404.988 197.301 405.039 197.356C405.254 197.619 405.528 197.829 405.84 197.967C406.151 198.104 406.49 198.166 406.83 198.148C406.903 198.141 406.975 198.162 407.033 198.207C407.091 198.252 407.129 198.317 407.14 198.389C407.145 198.424 407.143 198.459 407.134 198.493C407.125 198.527 407.109 198.559 407.088 198.586C407.067 198.614 407.04 198.637 407.01 198.655C406.979 198.672 406.945 198.683 406.911 198.687C406.478 198.712 406.045 198.635 405.646 198.464C405.248 198.293 404.894 198.031 404.614 197.7C404.585 197.659 404.567 197.611 404.563 197.561C404.559 197.511 404.569 197.461 404.592 197.416C404.614 197.371 404.648 197.333 404.691 197.306C404.733 197.279 404.782 197.265 404.832 197.264H404.844Z" fill="#263238"/>
<path d="M400.113 195.886C400.167 195.934 400.204 195.998 400.217 196.07C400.221 196.104 400.219 196.14 400.21 196.173C400.201 196.207 400.186 196.239 400.164 196.267C400.143 196.295 400.116 196.318 400.086 196.335C400.055 196.353 400.022 196.364 399.987 196.368C399.57 196.439 399.143 196.406 398.742 196.272C398.341 196.138 397.98 195.907 397.691 195.599C397.665 195.574 397.645 195.545 397.631 195.512C397.617 195.48 397.61 195.445 397.61 195.409C397.61 195.374 397.617 195.339 397.631 195.306C397.645 195.274 397.665 195.244 397.691 195.22C397.743 195.174 397.81 195.148 397.88 195.148C397.95 195.148 398.017 195.174 398.069 195.22C398.301 195.461 398.589 195.642 398.908 195.746C399.226 195.85 399.565 195.875 399.895 195.817C399.974 195.811 400.052 195.836 400.113 195.886Z" fill="#263238"/>
<path d="M403.386 202.477C403.711 202.415 404.03 202.323 404.339 202.201C404.36 202.192 404.379 202.179 404.396 202.163C404.412 202.147 404.425 202.127 404.433 202.106C404.442 202.084 404.446 202.061 404.445 202.038C404.445 202.015 404.44 201.992 404.43 201.971C404.407 201.931 404.37 201.9 404.326 201.883C404.282 201.867 404.234 201.865 404.189 201.88C403.489 202.156 402.736 202.273 401.985 202.221C401.234 202.17 400.505 201.951 399.849 201.581C399.817 201.549 399.774 201.532 399.728 201.532C399.683 201.532 399.64 201.549 399.608 201.581C399.586 201.621 399.579 201.668 399.59 201.713C399.6 201.757 399.627 201.796 399.665 201.822C400.782 202.491 402.107 202.724 403.386 202.477Z" fill="#263238"/>
<path d="M404.557 190.903C400.205 191.718 401.112 195.117 405.154 195.874C409.195 196.632 407.106 194.313 407.106 194.313C407.599 195.323 405.533 195.392 404.924 194.313C404.063 192.694 413.501 194.829 411.687 192.9C409.873 190.971 405.303 190.753 404.557 190.903Z" fill="#263238"/>
<path d="M413.306 220.044C410.952 217.151 414.569 213.04 414.569 213.04L415.235 210.009C415.275 209.73 415.378 209.464 415.537 209.231C415.695 208.997 415.905 208.804 416.15 208.664C416.395 208.524 416.668 208.443 416.949 208.425C417.231 208.407 417.512 208.454 417.773 208.562L419.644 209.228C420.329 209.531 420.907 210.032 421.304 210.666C421.701 211.301 421.899 212.04 421.872 212.788L421.814 213.855C421.77 215.579 421.138 217.236 420.023 218.552L418.439 220.389C418.09 220.793 417.66 221.117 417.176 221.342C416.477 221.566 415.724 221.561 415.028 221.328C414.332 221.094 413.729 220.645 413.306 220.044Z" fill="#CE7A63"/>
<path opacity="0.2" d="M375.53 323.361C374.439 307.585 375.53 283.989 385.163 270.761C382.637 287.537 375.53 323.361 375.53 323.361Z" fill="black"/>
<path d="M366.952 152.311C368.411 158.052 370.121 168.799 366.206 172.979C375.806 176.048 384.226 182.002 390.319 190.03C394.636 176.251 384.577 171.658 384.577 171.658C377.918 170.579 377.837 165.699 378.745 161.049L366.952 152.311Z" fill="#CE7A63"/>
<path opacity="0.2" d="M371.741 155.882L378.687 161.049C378.46 162.13 378.325 163.229 378.286 164.333C375.759 164.16 372.166 161.669 371.764 159.062C371.564 158.012 371.556 156.935 371.741 155.882Z" fill="black"/>
<path d="M365.471 139.554C365.471 149.36 365.207 153.505 369.777 158.741C376.666 166.629 388.619 164.275 391.593 154.63C394.257 145.938 393.89 131.379 384.646 127.073C375.403 122.767 365.517 129.76 365.471 139.554Z" fill="#CE7A63"/>
<path d="M384.486 125.959C388.711 136.879 375.013 131.781 374.439 139.657C373.865 147.534 361.223 143.871 361.648 150.164C351.222 145.02 366.149 115.396 384.486 125.959Z" fill="#263238"/>
<path d="M382.27 126.189C382.166 132.378 390.307 132.125 393.384 136.661C394.567 129.967 385.048 124.306 382.27 126.189Z" fill="#263238"/>
<path d="M379.388 145.778C379.388 146.581 379.721 147.236 380.249 147.27C380.777 147.305 381.248 146.662 381.294 145.869C381.34 145.077 380.961 144.411 380.433 144.388C379.905 144.365 379.388 144.985 379.388 145.778Z" fill="#263238"/>
<path d="M389.274 146.363C389.216 147.167 389.607 147.833 390.135 147.856C390.663 147.879 391.123 147.247 391.18 146.455C391.237 145.663 390.847 144.997 390.319 144.974C389.791 144.951 389.32 145.571 389.274 146.363Z" fill="#263238"/>
<path d="M390.089 145.008L392.052 144.537C392.052 144.537 390.962 146.042 390.089 145.008Z" fill="#263238"/>
<path d="M387.173 147.052C387.773 148.899 388.627 150.653 389.71 152.265C389.283 152.536 388.802 152.712 388.301 152.781C387.8 152.85 387.29 152.811 386.805 152.667L387.173 147.052Z" fill="#BA4D3C"/>
<path d="M362.704 148.568C363.056 149.385 363.581 150.116 364.243 150.711C364.906 151.306 365.689 151.75 366.539 152.012C368.732 152.609 369.857 150.221 369.283 147.798C368.767 145.617 366.987 142.677 364.794 143.206C362.601 143.734 361.728 146.421 362.704 148.568Z" fill="#CE7A63"/>
<path d="M378.596 142.057C378.66 142.048 378.721 142.026 378.776 141.992C378.831 141.959 378.879 141.915 378.917 141.862C379.249 141.366 379.691 140.953 380.209 140.657C380.727 140.36 381.307 140.187 381.902 140.151C382.028 140.152 382.148 140.104 382.24 140.019C382.332 139.934 382.387 139.817 382.396 139.692C382.398 139.63 382.387 139.569 382.365 139.511C382.343 139.453 382.309 139.4 382.267 139.356C382.224 139.311 382.173 139.275 382.116 139.25C382.06 139.225 381.999 139.211 381.937 139.21C381.184 139.245 380.449 139.455 379.791 139.823C379.133 140.192 378.571 140.709 378.148 141.334C378.087 141.406 378.051 141.496 378.044 141.59C378.037 141.684 378.06 141.777 378.11 141.858C378.16 141.938 378.233 142 378.32 142.036C378.408 142.072 378.504 142.079 378.596 142.057Z" fill="#263238"/>
<path d="M393.993 142.953C394.048 142.976 394.106 142.987 394.165 142.987C394.224 142.987 394.283 142.976 394.338 142.953C394.452 142.9 394.542 142.805 394.587 142.686C394.632 142.568 394.629 142.437 394.579 142.321C394.275 141.643 393.812 141.048 393.228 140.588C392.644 140.128 391.957 139.816 391.226 139.681C391.101 139.67 390.976 139.706 390.876 139.783C390.776 139.859 390.709 139.97 390.686 140.094C390.678 140.154 390.682 140.216 390.698 140.274C390.714 140.333 390.742 140.388 390.779 140.436C390.816 140.484 390.863 140.525 390.916 140.555C390.969 140.584 391.028 140.603 391.088 140.611C391.664 140.73 392.202 140.985 392.66 141.355C393.117 141.724 393.48 142.197 393.717 142.735C393.778 142.84 393.876 142.919 393.993 142.953Z" fill="#263238"/>
<path d="M380.191 144.411L382.155 143.952C382.155 143.952 381.064 145.399 380.191 144.411Z" fill="#263238"/>
<path d="M372.958 229.196L381.742 228.84L379.261 238.588C379.261 238.588 372.877 237.325 369.605 233.777L369.456 232.422C370.202 230.378 370.833 229.678 372.958 229.196Z" fill="#CE7A63"/>
<path d="M386.277 233.869L384.669 237.899C384.431 238.479 383.984 238.948 383.416 239.214C382.848 239.479 382.202 239.522 381.604 239.334L379.307 238.588L381.787 228.84L385.232 230.734C385.759 231.039 386.156 231.526 386.349 232.103C386.541 232.681 386.516 233.309 386.277 233.869Z" fill="#CE7A63"/>
<path d="M362.383 186.654C360.592 192.131 358.789 197.712 357.078 203.234C356.217 206.002 355.447 208.78 354.678 211.525C353.909 214.269 353.254 217.048 352.841 219.562C352.784 219.872 352.738 220.182 352.715 220.458C352.692 220.733 352.715 221.02 352.634 221.25C352.592 221.585 352.592 221.925 352.634 222.26C352.743 222.884 353.03 223.462 353.461 223.925C355.087 225.445 357.057 226.548 359.202 227.14C361.796 227.963 364.454 228.57 367.148 228.955C369.904 229.379 372.809 229.655 375.564 229.827H375.656C376.282 229.872 376.87 230.144 377.309 230.592C377.748 231.04 378.008 231.633 378.041 232.26C378.073 232.886 377.876 233.503 377.485 233.994C377.094 234.485 376.538 234.816 375.92 234.925C374.324 235.189 372.843 235.35 371.327 235.476C369.812 235.603 368.25 235.683 366.734 235.683C363.552 235.725 360.374 235.44 357.25 234.833C353.6 234.233 350.176 232.672 347.33 230.309C345.587 228.757 344.328 226.736 343.701 224.488C343.406 223.391 343.259 222.26 343.265 221.124C343.265 220.619 343.265 220.136 343.265 219.711C343.265 219.287 343.322 218.827 343.368 218.402C343.717 215.28 344.257 212.181 344.987 209.125C345.642 206.151 346.434 203.257 347.226 200.364C348.822 194.623 350.602 188.939 352.611 183.278C353.078 182.015 354.019 180.984 355.234 180.404C356.45 179.825 357.843 179.742 359.118 180.175C360.393 180.607 361.449 181.521 362.061 182.72C362.673 183.92 362.793 185.311 362.394 186.597L362.383 186.654Z" fill="#CE7A63"/>
<path d="M357.48 175.195C351.739 177.893 349.121 181.981 344.758 193.245C346.285 200.754 359.593 205.198 359.593 205.198C361.565 200.58 363.137 195.801 364.289 190.914C365.437 184.92 363.313 172.451 357.48 175.195Z" fill="#263238"/>
<path d="M377.183 440.319C377.239 440.176 377.34 440.055 377.471 439.975C377.601 439.894 377.754 439.858 377.906 439.871L385.301 439.767C386.073 439.709 386.846 439.872 387.529 440.238C390.91 442.343 394.705 443.698 398.655 444.211C400.228 444.452 399.516 447.105 395.819 447.139C389.699 447.208 388.596 446.749 383.372 446.806C378.917 446.806 381.076 447.059 377.493 447.139C376.643 447.139 375.954 446.611 376.069 445.991L377.183 440.319Z" fill="#263238"/>
<path d="M351.704 440.319C351.762 440.175 351.865 440.054 351.998 439.974C352.13 439.893 352.285 439.857 352.439 439.871L358.456 439.768C359.224 439.706 359.994 439.87 360.672 440.238C362.83 441.742 362.555 443.465 367.561 444.211C369.123 444.452 368.353 447.105 364.656 447.139C358.536 447.208 358.915 446.806 356.435 446.806C353.955 446.806 355.47 447.059 351.922 447.139C351.072 447.139 350.384 446.611 350.521 445.991L351.704 440.319Z" fill="#263238"/>
<path d="M386.334 185.38C383.521 184.656 377.528 185.15 374.439 188.744C368.491 186.447 362.807 178.272 362.957 173.128C364.168 171.988 365.74 171.306 367.4 171.199C367.4 171.199 380.8 177.687 386.334 185.38Z" fill="#FAFAFA"/>
<path d="M391.341 184.943C391.341 184.943 392.179 178.157 383.969 171.567C384.796 170.889 388.034 171.658 388.034 171.658C388.034 171.658 397.633 175.781 397.346 186.47C395.619 185.199 393.465 184.651 391.341 184.943Z" fill="#FAFAFA"/>
<path d="M379.181 153.494C378.788 153.14 378.423 152.757 378.09 152.345C378.069 152.318 378.053 152.286 378.044 152.253C378.035 152.219 378.033 152.184 378.038 152.149C378.044 152.114 378.056 152.081 378.075 152.052C378.094 152.023 378.119 151.997 378.148 151.978C378.203 151.928 378.274 151.9 378.349 151.9C378.423 151.9 378.495 151.928 378.55 151.978C379.289 152.885 380.223 153.614 381.282 154.111C382.342 154.608 383.499 154.86 384.67 154.848C384.741 154.842 384.812 154.863 384.868 154.908C384.923 154.954 384.959 155.018 384.968 155.09C384.97 155.125 384.964 155.161 384.951 155.194C384.939 155.228 384.92 155.258 384.895 155.284C384.87 155.31 384.841 155.33 384.808 155.344C384.775 155.358 384.74 155.365 384.704 155.365C382.696 155.44 380.73 154.774 379.181 153.494Z" fill="#263238"/>
<path d="M259.054 83.9576L179.104 96.0943C176.598 96.4024 174.065 95.806 171.96 94.4125C169.855 93.0191 168.317 90.9199 167.622 88.493L153.969 36.7313C153.647 35.6048 153.572 34.4221 153.748 33.2637C153.923 32.1054 154.346 30.9984 154.988 30.018C155.63 29.0377 156.475 28.2069 157.466 27.5822C158.457 26.9574 159.571 26.5533 160.732 26.3974L240.683 14.2262C243.188 13.9181 245.722 14.5145 247.827 15.9079C249.932 17.3014 251.47 19.4006 252.165 21.8275L265.817 73.5892C266.145 74.7179 266.225 75.9041 266.052 77.0667C265.879 78.2293 265.457 79.3408 264.815 80.3252C264.173 81.3097 263.326 82.1439 262.331 82.7708C261.337 83.3977 260.219 83.8025 259.054 83.9576Z" fill="#0F969C"/>
<path opacity="0.3" d="M259.054 83.9576L179.104 96.0943C176.598 96.4024 174.065 95.806 171.96 94.4125C169.855 93.0191 168.317 90.9199 167.622 88.493L153.969 36.7313C153.647 35.6048 153.572 34.4221 153.748 33.2637C153.923 32.1054 154.346 30.9984 154.988 30.018C155.63 29.0377 156.475 28.2069 157.466 27.5822C158.457 26.9574 159.571 26.5533 160.732 26.3974L240.683 14.2262C243.188 13.9181 245.722 14.5145 247.827 15.9079C249.932 17.3014 251.47 19.4006 252.165 21.8275L265.817 73.5892C266.145 74.7179 266.225 75.9041 266.052 77.0667C265.879 78.2293 265.457 79.3408 264.815 80.3252C264.173 81.3097 263.326 82.1439 262.331 82.7708C261.337 83.3977 260.219 83.8025 259.054 83.9576Z" fill="black"/>
<path d="M271.536 81.9137L270.628 81.3166C271.483 80.0082 272.048 78.5322 272.286 76.9875C272.523 75.4429 272.428 73.8653 272.006 72.3605L263.9 41.5538L264.945 41.2782L273.063 72.0619C273.524 73.7182 273.626 75.4538 273.363 77.1527C273.099 78.8516 272.476 80.4748 271.536 81.9137Z" fill="#0F969C"/>
<path d="M263.022 86.085L252.283 87.7186L252.447 88.797L263.186 87.1634L263.022 86.085Z" fill="#0F969C"/>
<path d="M262.614 83.4179L182.663 95.5201C180.157 95.8307 177.623 95.2353 175.517 93.8415C173.412 92.4476 171.874 90.3471 171.181 87.9189L157.529 36.1917C157.205 35.0651 157.128 33.8819 157.303 32.7227C157.478 31.5636 157.9 30.4559 158.542 29.475C159.184 28.4942 160.03 27.6633 161.022 27.039C162.015 26.4148 163.13 26.0118 164.292 25.8577L244.242 13.6866C246.748 13.3784 249.281 13.9748 251.386 15.3683C253.491 16.7618 255.029 18.8609 255.724 21.2878L269.354 73.0495C269.681 74.1766 269.762 75.3611 269.591 76.5222C269.419 77.6833 268.999 78.7938 268.359 79.7779C267.719 80.762 266.875 81.5965 265.884 82.2247C264.892 82.8529 263.777 83.2599 262.614 83.4179Z" fill="#0F969C"/>
<path d="M253.267 76.5515L187.807 86.4836L173.638 32.6895L239.098 22.7574L253.267 76.5515Z" fill="white"/>
<path opacity="0.2" d="M253.267 76.5515L187.807 86.4836L173.638 32.6895L239.098 22.7574L253.267 76.5515Z" fill="#0F969C"/>
<path opacity="0.2" d="M193.72 85.588L187.807 86.4836L177.002 45.4577L182.904 44.5621L193.72 85.588Z" fill="#0F969C"/>
<path opacity="0.4" d="M179.552 31.7939L173.638 32.6896L177.003 45.4578L182.904 44.5621L179.552 31.7939Z" fill="#0F969C"/>
<path opacity="0.2" d="M179.552 31.7939L239.098 22.7574L242.462 35.5256L182.904 44.5621L179.552 31.7939Z" fill="#0F969C"/>
<path d="M282.994 64.3803L227.662 84.7841C203.94 77.6307 184.167 48.0411 182.675 33.3784L241.762 22.7114C243.255 37.3283 259.272 57.2269 282.994 64.3803Z" fill="white"/>
<path opacity="0.05" d="M282.994 64.3803L227.662 84.7841C203.94 77.6307 184.167 48.0411 182.675 33.3784L241.762 22.7114C243.255 37.3283 259.272 57.2269 282.994 64.3803Z" fill="#0F969C"/>
<path opacity="0.4" d="M241.762 22.7114L212.218 28.0392L182.675 33.3784C183.099 37.5234 184.971 42.8742 188.025 48.5808L246.584 36.2949C244.044 32.1544 242.401 27.5268 241.762 22.7114Z" fill="#0F969C"/>
<path d="M228.707 66.4242L235.516 63.8866C236.253 64.5325 237.112 65.0244 238.042 65.3334C238.742 65.55 239.488 65.5738 240.201 65.4023C240.441 65.3822 240.674 65.3121 240.885 65.1964C241.096 65.0807 241.281 64.9219 241.427 64.7304C241.573 64.5388 241.678 64.3188 241.733 64.0845C241.789 63.8501 241.795 63.6067 241.751 63.3699C241.621 62.6044 240.679 61.0735 238.926 58.777C238.705 59.64 238.229 60.4163 237.56 61.0046C236.718 61.6258 235.743 62.0425 234.712 62.2217C232.085 62.7965 229.35 62.6295 226.812 61.7394C224.126 60.9398 221.706 59.4281 219.808 57.3647C218.705 56.258 217.967 54.8392 217.696 53.3C217.589 52.6757 217.637 52.0346 217.838 51.4337C218.038 50.8328 218.384 50.2906 218.844 49.8554C220.226 48.7071 221.885 47.9393 223.655 47.6278C226.078 46.944 228.615 46.7655 231.11 47.1032C233.604 47.441 236.003 48.2879 238.157 49.5913C240.791 51.1026 243.154 53.043 245.149 55.3324C248.518 59.0526 249.957 62.0341 249.467 64.277C248.977 66.5199 246.918 68.0776 243.289 68.9503C241.467 69.4399 239.584 69.6642 237.698 69.6162C236.13 69.5441 234.582 69.2384 233.105 68.7091C231.548 68.1374 230.07 67.3696 228.707 66.4242ZM234.195 53.7938C233.259 52.75 232.074 51.9601 230.751 51.4973C229.624 51.0497 228.389 50.9459 227.203 51.1988C226.215 51.4399 225.653 51.9222 225.503 52.657C225.354 53.3919 225.813 54.3334 226.847 55.4816C227.78 56.5535 228.963 57.3779 230.292 57.8814C231.363 58.3097 232.538 58.4096 233.667 58.1685C234.724 57.9159 235.332 57.3992 235.493 56.6413C235.654 55.8835 235.194 54.942 234.195 53.8397V53.7938Z" fill="#263238"/>
<path d="M188.025 37.7302L187.715 36.582C189.501 36.3437 191.214 35.722 192.737 34.7596C194.26 33.7971 195.556 32.5167 196.538 31.0061C197.52 29.4956 198.163 27.7905 198.424 26.008C198.685 24.2255 198.557 22.4077 198.049 20.6791C196.994 16.9456 194.633 13.7152 191.396 11.5761C188.159 9.43711 184.261 8.53169 180.413 9.02472C178.628 9.26485 176.916 9.88768 175.394 10.8506C173.872 11.8135 172.576 13.0938 171.595 14.6039C170.614 16.114 169.97 17.8182 169.709 19.6C169.447 21.3818 169.573 23.1991 170.079 24.9276L168.93 25.1113C168.382 23.2365 168.246 21.2653 168.531 19.3329C168.816 17.4005 169.516 15.5527 170.583 13.9164C171.65 12.2802 173.058 10.8942 174.712 9.85355C176.365 8.81295 178.223 8.14242 180.16 7.88799C184.328 7.35825 188.547 8.34168 192.051 10.6595C195.556 12.9773 198.112 16.4756 199.255 20.5184C199.803 22.3925 199.94 24.3631 199.654 26.2948C199.369 28.2265 198.669 30.0736 197.602 31.709C196.535 33.3444 195.126 34.7294 193.473 35.7688C191.82 36.8082 189.962 37.4773 188.025 37.7302Z" fill="#263238"/>
<path d="M211.15 34.2282L210.852 33.08C212.637 32.8398 214.349 32.217 215.871 31.2541C217.392 30.2912 218.688 29.0109 219.67 27.5008C220.651 25.9907 221.294 24.2865 221.556 22.5047C221.818 20.7229 221.692 18.9056 221.186 17.1771C220.127 13.4557 217.771 10.2361 214.545 8.10055C211.319 5.96505 207.435 5.05471 203.595 5.5342C201.81 5.7725 200.097 6.39418 198.574 7.35661C197.051 8.31905 195.754 9.59946 194.772 11.11C193.791 12.6206 193.148 14.3256 192.887 16.1082C192.626 17.8907 192.754 19.7085 193.261 21.437L192.113 21.6093C191.563 19.7336 191.425 17.7609 191.71 15.8271C191.995 13.8932 192.696 12.0442 193.765 10.4072C194.833 8.77024 196.243 7.3843 197.899 6.34484C199.554 5.30537 201.416 4.63707 203.354 4.38598C207.521 3.84942 211.743 4.83027 215.247 7.14931C218.75 9.46834 221.303 12.9707 222.437 17.0164C222.984 18.8946 223.117 20.869 222.828 22.8036C222.538 24.7383 221.832 26.5871 220.76 28.2229C219.687 29.8587 218.273 31.2426 216.614 32.2793C214.955 33.316 213.091 33.9809 211.15 34.2282Z" fill="#263238"/>
<path d="M234.287 30.7146L233.989 29.5664C235.775 29.3281 237.488 28.7064 239.01 27.7439C240.533 26.7815 241.83 25.5011 242.812 23.9905C243.793 22.4799 244.436 20.7749 244.697 18.9924C244.958 17.2099 244.83 15.392 244.323 13.6635C243.267 9.92861 240.904 6.69776 237.664 4.5604C234.424 2.42303 230.524 1.52161 226.675 2.02059C224.89 2.26071 223.178 2.88355 221.656 3.84647C220.134 4.8094 218.838 6.08969 217.857 7.59977C216.876 9.10985 216.232 10.8141 215.971 12.5959C215.709 14.3776 215.835 16.1949 216.341 17.9234L215.192 18.0956C214.642 16.2209 214.504 14.249 214.789 12.3159C215.073 10.3828 215.773 8.53422 216.84 6.89745C217.907 5.26067 219.316 3.87454 220.971 2.83444C222.625 1.79433 224.485 1.12496 226.422 0.872367C230.591 0.337757 234.812 1.31921 238.318 3.63775C241.823 5.95629 244.378 9.45745 245.517 13.5028C246.066 15.3768 246.202 17.3475 245.916 19.2792C245.631 21.2109 244.931 23.058 243.864 24.6934C242.797 26.3288 241.388 27.7138 239.735 28.7532C238.082 29.7925 236.224 30.4617 234.287 30.7146Z" fill="#263238"/>
</svg>
